<svg viewBox="0 0 950.5 400" xmlns="http://www.w3.org/2000/svg"><g><g><g><g><g><line x1="30" y1="378" x2="25" y2="378" style="visibility: inherit;" fill="rgb(0, 0, 0)" stroke="rgb(204, 204, 204)" stroke-width="1px"></line><line x1="30" y1="348.9230769230769" x2="25" y2="348.9230769230769" style="visibility: inherit;" fill="rgb(0, 0, 0)" stroke="rgb(204, 204, 204)" stroke-width="1px"></line><line x1="30" y1="319.8461538461538" x2="25" y2="319.8461538461538" style="visibility: inherit;" fill="rgb(0, 0, 0)" stroke="rgb(204, 204, 204)" stroke-width="1px"></line><line x1="30" y1="290.7692307692308" x2="25" y2="290.7692307692308" style="visibility: inherit;" fill="rgb(0, 0, 0)" stroke="rgb(204, 204, 204)" stroke-width="1px"></line><line x1="30" y1="261.6923076923077" x2="25" y2="261.6923076923077" style="visibility: inherit;" fill="rgb(0, 0, 0)" stroke="rgb(204, 204, 204)" stroke-width="1px"></line><line x1="30" y1="232.6153846153846" x2="25" y2="232.6153846153846" style="visibility: inherit;" fill="rgb(0, 0, 0)" stroke="rgb(204, 204, 204)" stroke-width="1px"></line><line x1="30" y1="203.53846153846152" x2="25" y2="203.53846153846152" style="visibility: inherit;" fill="rgb(0, 0, 0)" stroke="rgb(204, 204, 204)" stroke-width="1px"></line><line x1="30" y1="174.46153846153848" x2="25" y2="174.46153846153848" style="visibility: inherit;" fill="rgb(0, 0, 0)" stroke="rgb(204, 204, 204)" stroke-width="1px"></line><line x1="30" y1="145.38461538461536" x2="25" y2="145.38461538461536" style="visibility: inherit;" fill="rgb(0, 0, 0)" stroke="rgb(204, 204, 204)" stroke-width="1px"></line><line x1="30" y1="116.30769230769232" x2="25" y2="116.30769230769232" style="visibility: inherit;" fill="rgb(0, 0, 0)" stroke="rgb(204, 204, 204)" stroke-width="1px"></line><line x1="30" y1="87.23076923076923" x2="25" y2="87.23076923076923" style="visibility: inherit;" fill="rgb(0, 0, 0)" stroke="rgb(204, 204, 204)" stroke-width="1px"></line><line x1="30" y1="58.15384615384613" x2="25" y2="58.15384615384613" style="visibility: inherit;" fill="rgb(0, 0, 0)" stroke="rgb(204, 204, 204)" stroke-width="1px"></line><line x1="30" y1="29.076923076923038" x2="25" y2="29.076923076923038" style="visibility: inherit;" fill="rgb(0, 0, 0)" stroke="rgb(204, 204, 204)" stroke-width="1px"></line><line x1="30" y1="0" x2="25" y2="0" style="visibility: inherit;" fill="rgb(0, 0, 0)" stroke="rgb(204, 204, 204)" stroke-width="1px"></line></g><g transform="translate(20, 0)"><text x="0" y="378" dx="0em" dy="0.3em" style="text-anchor: end; visibility: hidden; font-family: &quot;Helvetica Neue&quot;, sans-serif; font-size: 12px; font-weight: 200;" fill="rgb(50, 49, 63)" stroke="none" stroke-width="1px">-1</text><text x="0" y="348.9230769230769" dx="0em" dy="0.3em" style="text-anchor: end; visibility: inherit; font-family: &quot;Helvetica Neue&quot;, sans-serif; font-size: 12px; font-weight: 200;" fill="rgb(50, 49, 63)" stroke="none" stroke-width="1px">0</text><text x="0" y="319.8461538461538" dx="0em" dy="0.3em" style="text-anchor: end; visibility: inherit; font-family: &quot;Helvetica Neue&quot;, sans-serif; font-size: 12px; font-weight: 200;" fill="rgb(50, 49, 63)" stroke="none" stroke-width="1px">1</text><text x="0" y="290.7692307692308" dx="0em" dy="0.3em" style="text-anchor: end; visibility: inherit; font-family: &quot;Helvetica Neue&quot;, sans-serif; font-size: 12px; font-weight: 200;" fill="rgb(50, 49, 63)" stroke="none" stroke-width="1px">2</text><text x="0" y="261.6923076923077" dx="0em" dy="0.3em" style="text-anchor: end; visibility: inherit; font-family: &quot;Helvetica Neue&quot;, sans-serif; font-size: 12px; font-weight: 200;" fill="rgb(50, 49, 63)" stroke="none" stroke-width="1px">3</text><text x="0" y="232.6153846153846" dx="0em" dy="0.3em" style="text-anchor: end; visibility: inherit; font-family: &quot;Helvetica Neue&quot;, sans-serif; font-size: 12px; font-weight: 200;" fill="rgb(50, 49, 63)" stroke="none" stroke-width="1px">4</text><text x="0" y="203.53846153846152" dx="0em" dy="0.3em" style="text-anchor: end; visibility: inherit; font-family: &quot;Helvetica Neue&quot;, sans-serif; font-size: 12px; font-weight: 200;" fill="rgb(50, 49, 63)" stroke="none" stroke-width="1px">5</text><text x="0" y="174.46153846153848" dx="0em" dy="0.3em" style="text-anchor: end; visibility: inherit; font-family: &quot;Helvetica Neue&quot;, sans-serif; font-size: 12px; font-weight: 200;" fill="rgb(50, 49, 63)" stroke="none" stroke-width="1px">6</text><text x="0" y="145.38461538461536" dx="0em" dy="0.3em" style="text-anchor: end; visibility: inherit; font-family: &quot;Helvetica Neue&quot;, sans-serif; font-size: 12px; font-weight: 200;" fill="rgb(50, 49, 63)" stroke="none" stroke-width="1px">7</text><text x="0" y="116.30769230769232" dx="0em" dy="0.3em" style="text-anchor: end; visibility: inherit; font-family: &quot;Helvetica Neue&quot;, sans-serif; font-size: 12px; font-weight: 200;" fill="rgb(50, 49, 63)" stroke="none" stroke-width="1px">8</text><text x="0" y="87.23076923076923" dx="0em" dy="0.3em" style="text-anchor: end; visibility: inherit; font-family: &quot;Helvetica Neue&quot;, sans-serif; font-size: 12px; font-weight: 200;" fill="rgb(50, 49, 63)" stroke="none" stroke-width="1px">9</text><text x="0" y="58.15384615384613" dx="0em" dy="0.3em" style="text-anchor: end; visibility: inherit; font-family: &quot;Helvetica Neue&quot;, sans-serif; font-size: 12px; font-weight: 200;" fill="rgb(50, 49, 63)" stroke="none" stroke-width="1px">10</text><text x="0" y="29.076923076923038" dx="0em" dy="0.3em" style="text-anchor: end; visibility: inherit; font-family: &quot;Helvetica Neue&quot;, sans-serif; font-size: 12px; font-weight: 200;" fill="rgb(50, 49, 63)" stroke="none" stroke-width="1px">11</text><text x="0" y="0" dx="0em" dy="0.3em" style="text-anchor: end; visibility: hidden; font-family: &quot;Helvetica Neue&quot;, sans-serif; font-size: 12px; font-weight: 200;" fill="rgb(50, 49, 63)" stroke="none" stroke-width="1px">12</text></g><line x1="30" y1="0" x2="30" y2="378" fill="rgb(0, 0, 0)" stroke="rgb(204, 204, 204)" stroke-width="1px"></line></g></g><g transform="translate(30, 0)" clip-path="url(#clip_0)"><clipPath id="clip_0"><rect width="920" height="378"></rect></clipPath><g><g><g><line x1="0" y1="0" x2="0" y2="378" fill="rgb(0, 0, 0)" stroke="rgb(60, 60, 60)" stroke-width="1px" opacity="0.25"></line><line x1="83.68181818181819" y1="0" x2="83.68181818181819" y2="378" fill="rgb(0, 0, 0)" stroke="rgb(60, 60, 60)" stroke-width="1px" opacity="0.25"></line><line x1="167.36363636363637" y1="0" x2="167.36363636363637" y2="378" fill="rgb(0, 0, 0)" stroke="rgb(60, 60, 60)" stroke-width="1px" opacity="0.25"></line><line x1="251.04545454545453" y1="0" x2="251.04545454545453" y2="378" fill="rgb(0, 0, 0)" stroke="rgb(60, 60, 60)" stroke-width="1px" opacity="0.25"></line><line x1="334.72727272727275" y1="0" x2="334.72727272727275" y2="378" fill="rgb(0, 0, 0)" stroke="rgb(60, 60, 60)" stroke-width="1px" opacity="0.25"></line><line x1="418.4090909090909" y1="0" x2="418.4090909090909" y2="378" fill="rgb(0, 0, 0)" stroke="rgb(60, 60, 60)" stroke-width="1px" opacity="0.25"></line><line x1="502.09090909090907" y1="0" x2="502.09090909090907" y2="378" fill="rgb(0, 0, 0)" stroke="rgb(60, 60, 60)" stroke-width="1px" opacity="0.25"></line><line x1="585.7727272727273" y1="0" x2="585.7727272727273" y2="378" fill="rgb(0, 0, 0)" stroke="rgb(60, 60, 60)" stroke-width="1px" opacity="0.25"></line><line x1="669.4545454545455" y1="0" x2="669.4545454545455" y2="378" fill="rgb(0, 0, 0)" stroke="rgb(60, 60, 60)" stroke-width="1px" opacity="0.25"></line><line x1="753.1363636363636" y1="0" x2="753.1363636363636" y2="378" fill="rgb(0, 0, 0)" stroke="rgb(60, 60, 60)" stroke-width="1px" opacity="0.25"></line><line x1="836.8181818181818" y1="0" x2="836.8181818181818" y2="378" fill="rgb(0, 0, 0)" stroke="rgb(60, 60, 60)" stroke-width="1px" opacity="0.25"></line><line x1="920.5" y1="0" x2="920.5" y2="378" fill="rgb(0, 0, 0)" stroke="rgb(60, 60, 60)" stroke-width="1px" opacity="0.25"></line></g><g><line x1="0" y1="378" x2="920.5" y2="378" fill="rgb(0, 0, 0)" stroke="rgb(60, 60, 60)" stroke-width="1px" opacity="0.25"></line><line x1="0" y1="348.9230769230769" x2="920.5" y2="348.9230769230769" fill="rgb(0, 0, 0)" stroke="rgb(60, 60, 60)" stroke-width="1px" opacity="0.25"></line><line x1="0" y1="319.8461538461538" x2="920.5" y2="319.8461538461538" fill="rgb(0, 0, 0)" stroke="rgb(60, 60, 60)" stroke-width="1px" opacity="0.25"></line><line x1="0" y1="290.7692307692308" x2="920.5" y2="290.7692307692308" fill="rgb(0, 0, 0)" stroke="rgb(60, 60, 60)" stroke-width="1px" opacity="0.25"></line><line x1="0" y1="261.6923076923077" x2="920.5" y2="261.6923076923077" fill="rgb(0, 0, 0)" stroke="rgb(60, 60, 60)" stroke-width="1px" opacity="0.25"></line><line x1="0" y1="232.6153846153846" x2="920.5" y2="232.6153846153846" fill="rgb(0, 0, 0)" stroke="rgb(60, 60, 60)" stroke-width="1px" opacity="0.25"></line><line x1="0" y1="203.53846153846152" x2="920.5" y2="203.53846153846152" fill="rgb(0, 0, 0)" stroke="rgb(60, 60, 60)" stroke-width="1px" opacity="0.25"></line><line x1="0" y1="174.46153846153848" x2="920.5" y2="174.46153846153848" fill="rgb(0, 0, 0)" stroke="rgb(60, 60, 60)" stroke-width="1px" opacity="0.25"></line><line x1="0" y1="145.38461538461536" x2="920.5" y2="145.38461538461536" fill="rgb(0, 0, 0)" stroke="rgb(60, 60, 60)" stroke-width="1px" opacity="0.25"></line><line x1="0" y1="116.30769230769232" x2="920.5" y2="116.30769230769232" fill="rgb(0, 0, 0)" stroke="rgb(60, 60, 60)" stroke-width="1px" opacity="0.25"></line><line x1="0" y1="87.23076923076923" x2="920.5" y2="87.23076923076923" fill="rgb(0, 0, 0)" stroke="rgb(60, 60, 60)" stroke-width="1px" opacity="0.25"></line><line x1="0" y1="58.15384615384613" x2="920.5" y2="58.15384615384613" fill="rgb(0, 0, 0)" stroke="rgb(60, 60, 60)" stroke-width="1px" opacity="0.25"></line><line x1="0" y1="29.076923076923038" x2="920.5" y2="29.076923076923038" fill="rgb(0, 0, 0)" stroke="rgb(60, 60, 60)" stroke-width="1px" opacity="0.25"></line><line x1="0" y1="0" x2="920.5" y2="0" fill="rgb(0, 0, 0)" stroke="rgb(60, 60, 60)" stroke-width="1px" opacity="0.25"></line></g></g></g><g><g><line x1="0" y1="348.9230769230769" x2="920.5" y2="348.9230769230769" fill="rgb(0, 0, 0)" stroke="rgb(153, 153, 153)" stroke-width="1.5px"></line></g></g><g><g><line x1="83.68181818181819" y1="0" x2="83.68181818181819" y2="378" fill="rgb(0, 0, 0)" stroke="rgb(153, 153, 153)" stroke-width="1.5px"></line></g></g><g><g><g><g><g><path stroke="rgb(51, 187, 238)" stroke-width="2px" d="M84.51863636363636,378L85.35545454545455,373.63846136514957L86.19227272727274,375.8637361788488L87.02909090909091,374.97471733984634L87.8659090909091,375.7824051925327L88.70272727272727,375.49285746984157L89.53954545454546,352.42361511057726L90.37636363636364,339.01426799755393L91.21318181818182,328.04499570385406L92.05000000000001,344.6380986628224L92.88681818181819,335.1101144171037L93.72363636363637,328.54633486171633L94.56045454545455,297.1602746103124L95.39727272727274,324.6327707803828L96.23409090909091,283.503094473815L97.07090909090908,258.3703656074697L97.90772727272727,262.30703915125446L98.74454545454545,285.93569955722836L99.58136363636363,265.7145868407598L100.41818181818181,206.95521731415204L101.255,210.66348687019052L102.09181818181818,204.40391814113593L102.92863636363636,170.47732280666233L103.76545454545455,126.705958910889L104.60227272727272,114.7167883665013L105.43909090909091,111.66286986407209L106.27590909090908,124.40139818064463L107.11272727272727,109.10778250081535L107.94954545454546,93.84735190117777L108.78636363636363,80.5663157786093L109.62318181818182,73.372381168993L110.46,68.26943418985712L111.29681818181818,77.49390471238246L112.13363636363636,70.79495772432637L112.97045454545454,88.07153229759672L113.80727272727273,77.48672742884321L114.6440909090909,70.61315786533862L115.4809090909091,66.47501809344834L116.31772727272728,69.63215488729156L117.15454545454544,66.28532777897533L117.99136363636363,80.5283147865311L118.82818181818182,72.78436821812068L119.665,75.34896495392366L120.5018181818182,73.74847480666222L121.33863636363635,68.55337905882544L122.17545454545454,68.47062870904682L123.01227272727273,65.95199562649447L123.84909090909092,63.755742687408315L124.6859090909091,62.589118959315556L125.52272727272727,61.65388412582587L126.35954545454545,60.80027026900473L127.19636363636364,61.691235640691104L128.03318181818182,61.291738231713396L128.87,61.02186963909162L129.70681818181816,61.130104404868064L130.54363636363635,60.62850092229269L131.38045454545454,61.52335258396846L132.21727272727273,61.22997447387115L133.0540909090909,61.942391892105206L133.89090909090908,61.132411535785195L134.72772727272726,61.06177307691365L135.56454545454545,61.698950384140176L136.40136363636364,61.86000532475998L137.2381818181818,61.6151277511774L138.075,61.176382676284845L138.91181818181818,60.82553128470721L139.74863636363636,60.61539757660114L140.58545454545455,60.6209678949503L141.4222727272727,60.66312087462802L142.2590909090909,60.44377935461074L143.0959090909091,60.534790198121755L143.93272727272728,60.81140240162546L144.76954545454547,61.185610291448484L145.60636363636362,61.941185076518025L146.4431818181818,62.61748955402379L147.28,67.88533566309712L148.1168181818182,64.76576114658127L148.95363636363635,62.90884639507391L149.79045454545454,62.42579712772192L150.62727272727273,61.75732112753832L151.4640909090909,61.725198680973904L152.3009090909091,61.06138216681745L153.13772727272726,60.60810938338L153.97454545454545,60.29720182105865L154.81136363636364,60.77739535364026L155.64818181818183,61.27005841626698L156.485,61.09501304893382L157.32181818181817,60.70758437683628L158.15863636363636,60.68839240184923L158.99545454545455,60.97389787960486L159.83227272727274,60.56171939229495L160.66909090909093,60.60010806547757L161.50590909090909,61.10660678687145L162.34272727272727,60.807247270552864L163.17954545454546,61.04465620253228L164.01636363636365,61.27034676576511L164.8531818181818,60.66740220994359L165.69,60.89202334547866L166.5268181818182,60.47057830500728L167.36363636363637,60.798353511418554L168.20045454545456,61.476554150683796L169.03727272727272,60.96162124867345L169.8740909090909,60.648612939915495L170.7109090909091,60.420887969403L171.5477272727273,60.31829423042859L172.38454545454547,60.59297984119809L173.22136363636363,60.61757766677562L174.05818181818182,60.43064005427959L174.895,60.37187421060264L175.7318181818182,60.727706329903526L176.56863636363636,60.47402308993429L177.40545454545455,60.353990939015375L178.24227272727273,60.58883088496117L179.07909090909092,61.129167636389184L179.9159090909091,60.993463505323575L180.75272727272727,60.597007011322205L181.58954545454546,60.27839469516846L182.42636363636365,60.36048897727608L183.26318181818183,60.480989243487045L184.10000000000002,60.382650599878275L184.93681818181818,60.215278906914705L185.77363636363637,60.132170449899206L186.61045454545456,60.049506432537214L187.44727272727275,60.24735868928116L188.2840909090909,60.62149583396757L189.1209090909091,60.46946133845893L189.95772727272728,60.27368777062344L190.79454545454547,60.113020422759405L191.63136363636363,60.38980920659287L192.46818181818182,60.45496777117626L193.305,60.38594951834358L194.14181818181817,60.135443917549026L194.97863636363635,60.29163375869501L195.81545454545454,60.369885462924344L196.6522727272727,60.549097086799065L197.4890909090909,60.2822369362554L198.32590909090908,60.15442065061666L199.16272727272727,60.10309820523628L199.99954545454545,60.171367085420115L200.83636363636361,60.15379610950026L201.6731818181818,60.36080025105554L202.51,60.17457188647319L203.34681818181818,60.20596559563836L204.18363636363637,60.11983854786905L205.02045454545453,60.27221012381983L205.85727272727271,60.42366278881639L206.6940909090909,60.25145514070641L207.5309090909091,60.26085820123575L208.36772727272725,60.32913636896484L209.20454545454544,60.302253714219944L210.04136363636363,60.454466887768035L210.87818181818182,60.4303828867549L211.715,60.12152952735039L212.55181818181816,60.2037779130373L213.38863636363635,60.076487387564725L214.22545454545454,61.41626872601461L215.06227272727273,60.898618528370946L215.89909090909092,60.442989863736045L216.73590909090908,60.26773219526609L217.57272727272726,60.44779640521932L218.40954545454545,60.21693100522219L219.24636363636364,60.53596645037635L220.08318181818183,60.64575084847854L220.92,61.16722398649472L221.75681818181818,60.64121139666696L222.59363636363636,60.21356389526056L223.43045454545455,60.32304354486365L224.2672727272727,60.231724557375685L225.1040909090909,60.54749356151751L225.9409090909091,60.765838443194355L226.77772727272728,60.85416348743479L227.61454545454546,60.362997759115046L228.45136363636362,60.514139891290085L229.2881818181818,60.350741507828445L230.125,60.41698558462872L230.9618181818182,60.712967534859274L231.79863636363638,60.47913350600419L232.63545454545456,60.30651110007193L233.47227272727275,60.1395027035565L234.30909090909088,67.31871085957005L235.14590909090907,64.68338608042052L235.98272727272726,62.84885071187915L236.81954545454545,62.16813787135072L237.65636363636364,61.49724097805006L238.49318181818182,60.896988549983575L239.33,60.752564737843954L240.1668181818182,60.68279242265305L241.0036363636364,60.51972712219907L241.84045454545458,60.20688127500961L242.6772727272727,60.183201758357654L243.5140909090909,59.971967458165864L244.35090909090908,59.94797175814023L245.18772727272727,59.93081243861684L246.02454545454546,60.717485688455554L246.86136363636365,60.32429411458327L247.69818181818184,60.46462974539884L248.53500000000003,60.29354952880482L249.3718181818182,60.62882330436594L250.20863636363634,60.70175335198553L251.04545454545453,60.29506664554384L251.88227272727272,60.1120826180354L252.7190909090909,60.37385087509563L253.5559090909091,60.54387833746347L254.39272727272729,60.242091796460954L255.22954545454547,60.16414187878922L256.06636363636363,59.9617960145369L256.90318181818185,59.92023955846673L257.74,60.186902376249634L258.57681818181817,60.29471236738141L259.41363636363633,60.29649582346747L260.25045454545455,60.38520351965889L261.0872727272727,60.10636795436221L261.9240909090909,60.485013176557345L262.7609090909091,60.63088510789504L263.5977272727273,60.54518503530869L264.43454545454546,60.50839529477298L265.2713636363637,60.24293044280802L266.1081818181818,60.15789005936722L266.945,60.41633167778525L267.78181818181815,60.23032978951744L268.61863636363637,60.148466217122404L269.45545454545453,59.94948452247223L270.29227272727275,60.13869618082481L271.1290909090909,60.432578541296095L271.9659090909091,60.78775481567686L272.8027272727273,60.37017139949097L273.6395454545455,60.24756717638326L274.4763636363636,60.30564409376569L275.3131818181818,60.38880684763558L276.15,61.21358923741252L276.9868181818182,61.0569831463763L277.82363636363635,60.67803361200316L278.66045454545457,60.478460357913264L279.49727272727273,60.254396466212825L280.33409090909095,60.72990533578235L281.1709090909091,60.512178912200284L282.00772727272727,60.2851982422834L282.8445454545454,60.282812224929785L283.68136363636364,60.49899389342016L284.5181818181818,60.3243948101732L285.355,60.814353295640444L286.1918181818182,60.9545050038829L287.0286363636364,60.9870627552782L287.86545454545455,60.6069427829371L288.70227272727277,60.67081134190016L289.53909090909093,60.90706860868198L290.3759090909091,61.02155891658015L291.21272727272725,61.23570205010583L292.04954545454547,61.31442937121432L292.8863636363636,61.30776990159353L293.72318181818184,61.17697086570445L294.56,60.92726476664325L295.3968181818182,60.67184559188195L296.2336363636364,60.51309247194109L297.0704545454546,60.26598049490218L297.9072727272727,60.24095614174303L298.7440909090909,60.47227190845325L299.5809090909091,60.560237980746535L300.4177272727273,60.56840573729107L301.25454545454545,60.28362860989267L302.09136363636367,60.37901388280761L302.9281818181818,60.29884886500986L303.765,60.067898796544966L304.6018181818182,60.23273839056969L305.43863636363636,60.01118416029959L306.2754545454545,59.89403548960672L307.11227272727274,60.699933949168894L307.9490909090909,60.81799274865176L308.78590909090906,60.47316769837602L309.6227272727273,60.18266142929082L310.45954545454543,60.12020905192924L311.29636363636365,60.5302208056317L312.1331818181818,60.59985450814992L312.97,60.46255494027906L313.8068181818182,60.31445530162614L314.64363636363635,60.514086459408645L315.4804545454545,60.25519653037401L316.3172727272727,60.76157598237705L317.1540909090909,60.74076399575131L317.9909090909091,60.37153699664697L318.82772727272726,60.368701088744615L319.6645454545455,60.40693062122676L320.50136363636364,60.460393430860336L321.33818181818185,60.15344517904657L322.17499999999995,60.1200493203749L323.01181818181817,60.48335014651809L323.84863636363633,60.32842984076541L324.68545454545455,60.30642187118099L325.5222727272727,60.14461802232921L326.3590909090909,60.05968141567365L327.1959090909091,60.00179806496158L328.0327272727273,60.31689756691037L328.86954545454546,60.82799031392176L329.7063636363636,60.56305477560517L330.5431818181818,61.084374812948L331.38,60.726313646032L332.21681818181816,60.85210012656523L333.0536363636364,60.50310466399878L333.89045454545453,60.35060917150247L334.72727272727275,60.65893287867141L335.5640909090909,60.50087478175891L336.4009090909091,60.4513949721578L337.2377272727273,60.54701302511785L338.07454545454544,60.701316546854116L338.9113636363636,60.35868319405671L339.7481818181818,60.685650648949775L340.585,60.43724294486492L341.4218181818182,60.623819026477975L342.25863636363636,60.76899620526859L343.0954545454546,60.83127869286898L343.93227272727273,60.6624374474672L344.76909090909095,60.327125495730115L345.60590909090905,60.19893455224582L346.44272727272727,60.26739129118073L347.2795454545454,60.22619622349521L348.11636363636364,60.01672030696375L348.9531818181818,60.06870586675791L349.79,60.24736488921411L350.6268181818182,60.5082394901691L351.4636363636364,61.01431646397077L352.30045454545456,60.78269765003586L353.1372727272727,60.62963956498771L353.9740909090909,60.17201386265924L354.8109090909091,60.1788970758588L355.64772727272725,60.731092130637705L356.48454545454547,60.65055337784179L357.3213636363636,60.3391397870904L358.15818181818184,60.31889296038901L358.995,60.35497273208148L359.8318181818182,60.08204016484609L360.6686363636364,59.872126954414L361.50545454545454,59.8093366819632L362.3422727272727,59.94001637685375L363.1790909090909,60.22359228695581L364.0159090909091,60.108075343346115L364.8527272727273,60.01906584575005L365.68954545454545,60.2615937972825L366.52636363636367,60.186957229109396L367.36318181818183,60.213884847719555L368.20000000000005,60.5717072443627L369.03681818181815,60.4145647096359L369.87363636363636,60.88852060162287L370.7104545454545,60.40835820354056L371.54727272727274,60.37885885757731L372.3840909090909,60.29624906557933L373.2209090909091,60.234060533191496L374.0577272727273,60.072683775218366L374.8945454545455,60.17018896292251L375.73136363636365,59.97184651327035L376.5681818181818,59.902433222997445L377.405,59.902136097691994L378.2418181818182,60.567497960166406L379.07863636363635,60.31309880333089L379.91545454545457,60.15913936528807L380.7522727272727,60.16148909120932L381.58909090909094,59.99812777338542L382.4259090909091,59.967516859437694L383.26272727272726,59.97912080291849L384.0995454545455,59.98386477582778L384.93636363636364,59.994331340143674L385.7731818181818,60.345771073467176L386.61,60.23776307789939L387.4468181818182,60.38387201206041L388.28363636363633,60.121219813681535L389.12045454545455,60.097031568478656L389.9572727272727,60.305045641151025L390.7940909090909,60.44660295325656L391.6309090909091,60.240561799185L392.4677272727273,60.43678503530276L393.3045454545454,61.021568384932436L394.1413636363636,60.72126235288704L394.9781818181818,60.71198374417668L395.815,60.30490959746754L396.65181818181816,60.55645380103613L397.4886363636364,60.30101506063215L398.32545454545453,60.31154687676769L399.16227272727275,60.15027745373487L399.9990909090909,60.44132420351718L400.83590909090907,60.3844962010466L401.67272727272723,60.202255103064886L402.50954545454545,60.58826654919994L403.3463636363636,60.27694387023138L404.1831818181818,60.16342378955545L405.02,60.010424926152155L405.8568181818182,60.60325501907391L406.69363636363636,60.53823480841322L407.5304545454546,60.528361276424164L408.36727272727273,60.77486811707894L409.2040909090909,60.72402637655745L410.04090909090905,60.737745000269626L410.87772727272727,60.582036918562494L411.71454545454543,60.33768368959903L412.55136363636365,60.10507574063365L413.3881818181818,83.14651066842612L414.225,112.72563463732746L415.0618181818182,124.71774303074383L415.8986363636364,162.25719933923583L416.7354545454545,192.17499665655288L417.5722727272727,194.22364209206688L418.4090909090909,163.51508861663396L419.2459090909091,131.41158266639337L420.08272727272725,131.1854111382976L420.91954545454547,135.6540387244637L421.75636363636363,152.56109966970865L422.59318181818185,128.73925761066312L423.43,117.85949413220317L424.2668181818182,144.37568391429596L425.1036363636363,138.8359371524012L425.94045454545454,145.20982260755588L426.7772727272727,152.99223317470666L427.6140909090909,128.539051992602L428.4509090909091,111.37687492818958L429.2877272727273,92.93273048669892L430.12454545454545,126.6448151707284L430.96136363636367,110.3691105591115L431.79818181818183,104.17331534857539L432.635,119.22870210916028L433.47181818181815,119.36505722881873L434.30863636363637,104.66349815518112L435.1454545454545,87.95117248272709L435.98227272727274,88.19176519617923L436.8190909090909,78.9757328167197L437.6559090909091,109.23089174926412L438.4927272727273,95.17980625927521L439.3295454545455,89.17938250903944L440.16636363636366,90.67217077927432L441.0031818181818,85.47315233281779L441.84,80.86194949576941L442.6768181818182,81.13856375216795L443.51363636363635,80.99631984967061L444.35045454545457,74.68948983742399L445.1872727272727,77.71568141841743L446.02409090909094,72.18156028162059L446.8609090909091,68.51349866427734L447.6977272727273,66.7212342576297L448.5345454545454,65.39700517484528L449.37136363636364,70.46743342811175L450.2081818181818,67.02756769471262L451.045,95.68658579458076L451.8818181818182,83.50513572780011L452.7186363636364,76.01708607065694L453.55545454545455,70.937779671616L454.39227272727277,68.77915034691489L455.2290909090909,67.30698934426675L456.0659090909091,73.03312901258465L456.90272727272725,68.85220385643152L457.73954545454546,66.79800896171417L458.5763636363636,69.96381144533154L459.41318181818184,67.55913321354058L460.25,65.5442803173409L461.08681818181816,64.85287534043835L461.9236363636364,64.36695503683887L462.76045454545454,63.80078796304008L463.59727272727275,63.66786414698345L464.4340909090909,63.76903091306991L465.27090909090913,63.69860175190598L466.10772727272723,62.67285291515731L466.9445454545455,63.08091476610906L467.7813636363636,63.09378559390899L468.61818181818177,63.66366001413536L470.29181818181814,145.55795228747292L471.12863636363636,234.30117180507042L471.9654545454545,263.2946226859499L472.80227272727274,264.6270517030006L473.6390909090909,258.53799066242067L474.4759090909091,262.3836879844181L475.3127272727273,237.56787503265997L476.1495454545454,218.71295954014136L476.98636363636365,254.84191789257002L477.82318181818175,231.05228759983737L478.66,286.07463393753045L479.4968181818181,296.3754744804312L480.3336363636364,265.7131918925199L481.1704545454545,257.4869276805841L482.0072727272728,281.90723264407006L482.8440909090909,268.3222375532671L483.68090909090915,223.0218952182114L484.51772727272726,192.25339448214189L485.3545454545454,239.7338108360254L486.19136363636363,212.99102931120433L487.0281818181818,215.6999724533373L487.865,277.1307532573699L488.70181818181817,274.3127910962677L489.5386363636364,288.43908368221923L490.37545454545455,320.2740971174314L491.21227272727276,341.003412011239L492.0490909090909,330.16317878680275L492.885909090909,322.2307804771199L493.7227272727273,318.9926475952366L494.5595454545454,299.3659575586772L495.3963636363637,304.54334095747805L496.2331818181818,331.1113586092041L497.07000000000005,269.9304776504984L497.90681818181815,250.28041098346876L498.7436363636364,218.7044944890634L499.58045454545453,255.57422998166012L500.4172727272727,242.9751261390205L501.2540909090909,249.0732846302272L502.09090909090907,238.27590965377485L502.9277272727273,212.4632674789949L503.76454545454544,197.09199252850647L504.60136363636366,188.23559519173955L505.4381818181818,167.81765490439733L506.27500000000003,248.633977890782L507.1118181818182,274.33909485936357L507.9486363636363,254.36391534832921L508.78545454545457,198.84899754320725L509.6222727272727,188.55124519739562L510.45909090909095,143.33197404245328L511.29590909090905,174.71287739868222L512.1327272727273,196.91434204566403L512.9695454545455,172.9085926623725L513.8063636363637,174.30709595199085L514.6431818181818,195.10847549956742L515.48,146.5823150548486L516.3168181818182,134.2647688945941L517.1536363636363,151.05876987205357L517.9904545454546,120.80741680463615L518.8272727272727,181.96487932132115L519.664090909091,158.83843534425753L520.5009090909091,127.74321253852946L521.3377272727273,159.19448401232853L522.1745454545454,141.46487073811375L523.0113636363636,114.87661179270299L523.8481818181818,100.53257935448676L524.685,124.48816201487614L525.5218181818182,145.5843743242634L526.3586363636364,135.35579336263385L527.1954545454546,128.78830423882803L528.0322727272727,108.8602171577424L528.8690909090909,116.01659131548195L529.7059090909091,132.4343837584523L530.5427272727273,126.2894350341241L531.3795454545455,104.6325049559274L532.2163636363636,92.90319705596335L533.0531818181819,84.34634574728739L533.89,114.91267001363309L534.7268181818182,119.49298625383227L535.5636363636363,122.9487158644726L536.4004545454545,119.8121241461813L537.2372727272727,121.1455248269234L538.074090909091,118.88804819834382L538.9109090909091,102.04637156380045L539.7477272727273,107.86886846463813L540.5845454545455,113.20335009865215L541.4213636363636,97.7964676679278L542.2581818181818,109.01391508209872L543.095,94.03458336791908L543.9318181818182,86.04286540536685L544.7686363636363,97.86301166500124L545.6054545454546,88.67534343229403L546.4422727272727,82.78370783409099L547.279090909091,78.65576107036514L548.1159090909091,90.15897406775622L548.9527272727272,83.0996107730981L549.7895454545454,96.5789049761035L550.6263636363636,86.67534609141256L551.4631818181819,80.45697644193814L552.3,76.11695026476468L553.1368181818182,91.58346625683436L553.9736363636364,98.62652564173959L554.8104545454546,87.99841094825734L555.6472727272727,96.71973754561077L556.4840909090908,87.14511397652893L557.3209090909091,110.1472381047331L558.1577272727272,93.94404049467585L558.9945454545455,86.23569086550293L559.8313636363636,82.4030245797735L560.6681818181819,95.65086702447547L561.505,100.66715619162335L562.3418181818182,104.94904507652751L563.1786363636363,132.41674683961773L564.0154545454545,138.49655903493232L564.8522727272727,110.22670997587227L565.6890909090909,128.88901160235412L566.5259090909091,135.46835240537277L567.3627272727273,122.66975045689551L568.1995454545455,115.84916290794519L569.0363636363636,98.44830366236022L569.8731818181818,104.98892238296298L570.71,101.95294082038407L571.5468181818181,104.26666969993778L572.3836363636364,143.42541903633696L573.2204545454545,115.763562473391L574.0572727272728,99.2199894550007L574.8940909090909,103.41633627741749L575.7309090909091,90.11484916259678L576.5677272727272,82.69997991334833L577.4045454545455,79.66060320585905L578.2413636363636,88.98737555313534L579.0781818181819,82.24319431616226L579.915,78.82991481498283L580.7518181818182,89.21007340540342L581.5886363636364,81.82111662812787L582.4254545454545,89.53285734306888L583.2622727272727,81.67878915982271L584.0990909090909,90.96074886116554L584.9359090909091,82.78687910983712L585.7727272727273,93.76873702166017L586.6095454545455,100.5584832478707L587.4463636363637,88.83047234571382L588.2831818181818,81.67154325991106L589.12,77.78180790925944L589.9568181818181,77.56816270388276L590.7936363636364,74.4721870017429L591.6304545454545,73.00422906646793L592.4672727272728,83.66699631627051L593.3040909090909,78.07527308601755L594.1409090909092,75.3663905291383L594.9777272727273,73.02318896225836L595.8145454545454,71.6579755369666L596.6513636363636,71.35447970037256L597.4881818181818,72.71103752349882L598.325,73.47892946694253L599.1618181818181,71.6522794260527L599.9986363636364,70.87613733007953L600.8354545454546,69.69645113584062L601.6722727272728,84.10993939770032L602.5090909090909,108.64452269248136L603.345909090909,106.11409339970606L604.1827272727273,106.71248239996862L605.0195454545454,91.59241118586834L605.8563636363637,96.32867915687103L606.6931818181818,85.27167425813258L607.53,90.13073344845304L608.3668181818182,82.18613607408611L609.2036363636364,76.16712797576929L610.0404545454545,73.50427476425892L610.8772727272727,72.28973479921041L611.7140909090909,71.94192002099635L612.550909090909,70.90453929005423L613.3877272727273,70.73441903677292L614.2245454545455,83.92372760567628L615.0613636363637,92.26119222371227L615.8981818181818,82.79951453560585L616.735,78.34309003380719L617.5718181818181,74.06854264239217L618.4086363636364,72.19796052524526L619.2454545454545,72.39569939207024L620.0822727272727,72.10145537367362L620.9190909090909,71.35563599698435L621.7559090909091,88.72501390128184L622.5927272727273,81.62054699949806L623.4295454545454,88.53206858900921L624.2663636363636,81.1493932248448L625.1031818181818,75.71372451569869L625.94,72.14199226838855L626.7768181818182,70.181349207187L627.6136363636364,68.91244528293225L628.4504545454546,68.14053228488103L629.2872727272727,68.3736382772725L630.1240909090909,68.42046246277653L630.960909090909,79.8874130109254L631.7977272727273,75.2700397114155L632.6345454545454,72.95374299940045L633.4713636363637,85.06923207142512L634.3081818181818,77.92799871081633L635.145,74.6230675018241L635.9818181818182,91.11249130722803L636.8186363636363,92.0360949547657L637.6554545454545,82.9804330067011L638.4922727272727,77.28921418258886L639.329090909091,74.76423602438956L640.165909090909,85.52616974151175L641.0027272727273,78.76432432838061L641.8395454545455,155.6069639313226L642.6763636363637,182.75439251589808L643.5131818181818,218.15026665589647L644.3499999999999,199.61637444642815L645.1868181818182,208.06674811451217L646.0236363636363,188.67469526974583L646.8604545454546,203.27155804882918L647.6972727272727,185.21106025771738L648.534090909091,157.4054679886899L649.3709090909091,165.5305421985719L650.2077272727273,161.59943652285034L651.0445454545454,186.35181716484644L651.8813636363636,221.40201215571466L652.7181818181818,186.289248094257L653.555,222.01967313880425L654.3918181818182,202.1376848142565L655.2286363636364,209.5349501782925L656.0654545454546,195.5017088495104L656.9022727272727,180.28994813309868L657.7390909090909,152.9125481457471L658.5759090909091,135.02125876932175L659.4127272727272,148.8879829990198L660.2495454545455,151.04399024942876L661.0863636363636,169.47304029716514L661.9231818181819,169.28572923811353L662.76,191.81651505751657L663.5968181818182,222.51363268082062L664.4336363636363,178.64553723225285L665.2704545454546,175.61695426214695L666.1072727272727,151.9946023187346L666.9440909090908,179.9860572039943L667.7809090909091,155.11757068385617L668.6177272727273,139.8445085099794L669.4545454545455,172.58550275449088L670.2913636363636,165.1644713081276L671.1281818181818,156.39040034351729L671.965,161.3023927951747L672.8018181818182,192.46279105078085L673.6386363636364,163.66201746963614L674.4754545454546,166.3283187804502L675.3122727272728,161.41348296748885L676.1490909090909,141.41221460677792L676.9859090909091,130.24554724175604L677.8227272727272,146.15243745713292L678.6595454545455,132.6825947116408L679.4963636363636,188.74106332135986L680.3331818181819,158.27732073442124L681.17,182.1099289056373L682.0068181818182,177.7091602864507L682.8436363636364,146.9842685083901L683.6804545454545,165.47935173449432L684.5172727272727,205.9495190583686L685.3540909090909,210.7636497930346L686.1909090909091,171.22169278907572L687.0277272727272,148.11295459133905L687.8645454545455,150.73349538170964L688.7013636363637,152.76440609391275L689.5381818181819,140.5330786996826L690.375,153.5927070279244L691.2118181818181,120.62193457113415L692.0486363636363,114.16397242809592L692.8854545454545,95.1393000757916L693.7222727272728,84.32450546755655L694.5590909090909,80.1202409180978L695.3959090909091,115.34063620782234L696.2327272727273,114.94487608598399L697.0695454545455,136.15206673083281L697.9063636363636,126.95486860201379L698.7431818181818,144.47073616130217L699.58,155.7129919639275L700.4168181818181,200.7468411695205L701.2536363636364,165.35117782182948L702.0904545454545,141.2777416052071L702.9272727272728,132.9606766345016L703.7640909090909,142.8284698199531L704.6009090909091,174.84498650810772L705.4377272727272,166.3905630307754L706.2745454545454,167.11640049570195L707.1113636363636,179.1580258572075L707.9481818181818,175.61817052883205L708.785,168.1272099779156L709.6218181818182,161.90297466956372L710.4586363636364,185.03163310003114L711.2954545454545,189.8191007565782L712.1322727272727,155.71425027703887L712.9690909090909,136.00589315328384L713.8059090909092,149.37602984127358L714.6427272727273,133.90562202463718L715.4795454545454,159.5937724668669L716.3163636363637,163.8040156550845L717.1531818181818,156.0597110346616L717.99,154.17397957959355L718.8268181818181,136.74783274803787L719.6636363636364,170.960112460102L720.5004545454545,145.73785723811798L721.3372727272728,166.32259202020137L722.1740909090909,162.11620028212346L723.0109090909091,155.59803185468945L723.8477272727273,155.1813440785401L724.6845454545454,144.84712053286435L725.5213636363636,166.80002567782597L726.3581818181818,247.79078519206314L727.195,296.3852402073575L728.0318181818182,326.2397600913581L728.8686363636364,319.69761619457364L729.7054545454546,341.12275447632436L730.5422727272727,306.65921561186695L731.3790909090909,332.8577450401267L732.215909090909,327.1840002084092L733.0527272727273,296.49552346594567L733.8895454545454,327.2247607713739L734.7263636363637,305.02051861504134L735.5631818181818,331.8628962225421L736.4000000000001,321.99216224242696L737.2368181818182,295.31345085885107L738.0736363636363,301.10461433649874L738.9104545454545,303.86518115583317L739.7472727272727,329.2971397455758L740.584090909091,321.9042293567426L741.420909090909,340.841676086676L742.2577272727273,313.66946915004775L743.0945454545455,337.30814294530046L743.9313636363637,350.32827071532387L744.7681818181818,359.07080872169L745.605,342.24500883865414L746.4418181818182,306.18112234162584L747.2786363636363,308.360281806054L748.1154545454546,274.1059240685614L748.9522727272727,266.27931046131596L749.789090909091,269.7675243759905L750.6259090909091,206.9879005720148L751.4627272727273,213.18363263611187L752.2995454545454,215.35805740689062L753.1363636363636,216.96511253556505L753.9731818181818,279.47162166143L754.81,275.6533419983933L755.6468181818182,240.4709490091321L756.4836363636364,206.8029398595339L757.3204545454546,169.63782106810166L758.1572727272727,146.40330884945098L758.9940909090909,175.42361560564416L759.8309090909091,175.37801588696485L760.6677272727273,133.9838846805413L761.5045454545455,188.25214828562437L762.3413636363636,200.15492170758068L763.1781818181819,182.51861472780485L764.015,153.62833180524512L764.8518181818182,119.70868929921153L765.6886363636363,114.24117955477482L766.5254545454545,116.13587996585949L767.3622727272727,114.7723658983108L768.199090909091,136.1493588583036L769.0359090909091,169.18401839115404L769.8727272727273,190.74748951064458L770.7095454545455,202.28018682748987L771.5463636363636,220.6716210311018L772.3831818181818,280.57897272958076L773.22,293.25719359393224L774.0568181818182,244.310286333643L774.8936363636363,254.32004899686456L775.7304545454546,228.4432568796673L776.5672727272727,244.27644582173727L777.404090909091,294.70697574549433L778.2409090909091,253.81057581054966L779.0777272727272,219.19234615184774L779.9145454545454,218.12974646322218L780.7513636363636,253.63363826560044L781.5881818181819,298.4719984493493L782.425,229.4017858885981L783.2618181818182,198.82888648043385L784.0986363636364,188.7330217557201L784.9354545454546,181.8497226979257L785.7722727272727,162.97192641449425L786.6090909090908,205.83300155886408L787.4459090909091,173.5043575618584L788.2827272727272,226.89329747649774L789.1195454545455,243.56745541637022L789.9563636363636,220.97981950461102L790.7931818181819,231.64482623551902L791.63,207.93603652476807L792.4668181818182,211.8314966343339L793.3036363636363,227.00720744762256L794.9772727272727,282.752017053565L795.8140909090909,317.1293641614826L796.6509090909091,336.5926959191049L797.4877272727273,348.50331013645445L798.3245454545455,356.8127551739923L799.1613636363636,362.72888423411507L799.9981818181818,246.13271293746047L800.835,249.09528548084128L801.6718181818181,217.7200965098746L802.5086363636364,218.7835989555886L803.3454545454545,159.57169857435602L804.1822727272728,203.07563338305917L805.0190909090909,189.2592596297735L805.8559090909091,181.58393028840908L806.6927272727272,184.04093190938295L807.5295454545455,138.47963486443612L808.3663636363636,160.09975490125257L809.2031818181819,163.84785345837662L810.04,206.2693894713601L810.8768181818182,172.3569283124266L811.7136363636364,190.6158486296303L812.5504545454545,143.1944338815229L813.3872727272727,173.6805094406175L814.2240909090909,204.85633001798473L815.0609090909091,210.70284806900898L815.8977272727273,184.80235242191546L816.7345454545455,235.28644545237225L817.5713636363637,263.62991047257646L818.4081818181818,281.57808283503607L819.245,293.2774469036161L820.0818181818181,322.01403784989344L820.9186363636364,342.27999230674016L821.7554545454545,332.9769201617353L822.5922727272728,346.7758137686063L823.4290909090909,331.2655756617469L824.2659090909092,251.87474368665525L825.1027272727273,259.3782294963419L825.9395454545454,231.9899152098713L826.7763636363636,206.6931203976137L827.6131818181818,247.1787405475892L828.45,236.0846589145474L829.2868181818181,264.0762725380125L830.1236363636364,281.4155609139654L830.9604545454546,276.0927824729914L831.7972727272728,287.8857492153693L832.6340909090909,239.48625006163593L833.470909090909,250.63473401642682L834.3077272727273,273.408791591708L835.1445454545454,311.0116753876115L835.9813636363637,308.6184276539489L836.8181818181818,307.2871552824023L837.655,284.57369674328453L838.4918181818182,259.4443455448909L839.3286363636364,302.1910386729475L840.1654545454545,279.90632741096874L841.0022727272727,296.3901355329671L841.8390909090909,278.1075937639097L842.675909090909,266.51233485742466L843.5127272727273,207.53733956825397L844.3495454545455,232.38421844526053L845.1863636363637,186.70185537159028L846.0231818181818,235.25609317525286L846.86,229.45833263596788L847.6968181818181,260.84252097029486L848.5336363636364,244.7210209991597L849.3704545454545,270.18390013318253L850.2072727272727,250.69996941457939L851.0440909090909,277.03020800114587L851.8809090909091,254.58289780272514L852.7177272727273,231.0364457527927L853.5545454545454,245.83236191860397L854.3913636363636,197.18024920706117L855.2281818181818,218.16760720046398L856.065,198.68468819582301L856.9018181818182,228.4062923251711L857.7386363636364,204.19983888575018L858.5754545454546,209.4424545599L859.4122727272727,194.06796816417204L860.2490909090909,234.969949951801L861.085909090909,247.44615260470064L861.9227272727273,295.9109536336963L862.7595454545454,302.24702682610825L863.5963636363637,248.27166442353638L864.4331818181818,295.0338296008241L865.27,300.7042264189065L866.1068181818182,228.575860007885L866.9436363636363,244.26489829080276L867.7804545454545,245.62517966662034L868.6172727272727,255.18652338424297L869.454090909091,277.03310677193986L870.290909090909,273.88589725044324L871.1277272727273,231.7279702878504L871.9645454545455,262.4578534233324L872.8013636363637,284.9014207889519L873.6381818181818,295.3714756379149L874.4749999999999,264.48854993822516L875.3118181818182,226.53928565774993L876.1486363636363,223.7920953885089L876.9854545454546,232.86231113360395L877.8222727272727,208.67233965374822L878.659090909091,272.6815577215925L879.4959090909091,252.18305739930355L880.3327272727273,274.6936879851378L881.1695454545454,244.25669506271728L882.0063636363636,254.07078841284635L882.8431818181818,239.7023198670719L883.68,197.07170733701938L884.5168181818182,207.2688064738387L885.3536363636364,185.602273716081L886.1904545454546,234.15204716903128L887.0272727272727,242.20230943944273L887.8640909090909,273.00978714998905L888.7009090909091,251.46698206759072L889.5377272727272,228.23411189375267L890.3745454545455,181.637518081827L891.2113636363636,197.24066787494695L892.0481818181819,186.76627936360248L892.885,213.38237760762118" style="fill: none;" fill="none"></path></g></g></g></g><g opacity="0.2"><g><g><g><path stroke="rgb(51, 187, 238)" stroke-width="2px" d="M84.51863636363636,378L85.35545454545455,371.0215381842393L86.19227272727274,378L87.02909090909091,373.9292311851795L87.8659090909091,376.836922453L88.70272727272727,375.0923087321795L89.53954545454546,319.43422942895154L90.37636363636364,319.46331117703363L91.21318181818182,311.8674497420971L92.05000000000001,369.27692273029913L92.88681818181819,320.90455616437475L93.72363636363637,318.7363853271191L94.56045454545455,250.1836651655344L95.39727272727274,365.78769355553845L96.23409090909091,221.85692640451285L97.07090909090908,220.68899785555325L97.90772727272727,268.2103835986211L98.74454545454545,321.37269085187177L99.58136363636363,235.38599824905396L100.41818181818181,118.82153386336103L101.255,216.2256878339327L102.09181818181818,195.01477102132944L102.92863636363636,119.58809962639441L103.76545454545455,61.04943158076361L104.60227272727272,96.73311776381269L105.43909090909091,107.08200513399566L106.27590909090908,143.5091580611009L107.11272727272727,86.16738246037409L107.94954545454546,70.95672005873456L108.78636363636363,60.64476893498346L109.62318181818182,62.58148164015546L110.46,60.615014736468936L111.29681818181818,91.3306093949538L112.13363636363636,60.746537722074095L112.97045454545454,113.98639341501087L113.80727272727273,61.609520398653444L114.6440909090909,60.302803626427306L115.4809090909091,60.26780847402722L116.31772727272728,74.36786006047174L117.15454545454544,61.26508712768555L117.99136363636363,101.89279526930585L118.82818181818182,61.168448374821594L119.665,79.19586005577673L120.5018181818182,71.34773958646332L121.33863636363635,60.76073543842023L122.17545454545454,68.3465031843919L123.01227272727273,62.17404600290149L123.84909090909092,60.46136327890247L124.6859090909091,60.839183367215696L125.52272727272727,60.25103187561035L126.35954545454545,59.51984948378339L127.19636363636364,63.02768369821399L128.03318181818182,60.692492118248595L128.87,60.61706675015961L129.70681818181816,61.29245655353253L130.54363636363635,59.87609569842999L131.38045454545454,62.86563007648175L132.21727272727273,60.78990730872522L133.0540909090909,63.01101801945612L133.89090909090908,59.917441001305235L134.72772727272726,60.95581538860614L135.56454545454545,62.6547163449801L136.40136363636364,62.10158773568958L137.2381818181818,61.247811390803406L138.075,60.5182650639461L138.91181818181818,60.29925419734076L139.74863636363636,60.300197014441835L140.58545454545455,60.62932337247406L141.4222727272727,60.72635034414441L142.2590909090909,60.11476707458496L143.0959090909091,60.671306463388305L143.93272727272728,61.22632070688098L144.76954545454547,61.746922126183165L145.60636363636362,63.074547254122194L146.4431818181818,63.63194627028241L147.28,75.7871048267071L148.1168181818182,60.08639937180743L148.95363636363635,60.12347426781287L149.79045454545454,61.70122322669397L150.62727272727273,60.754607127263L151.4640909090909,61.67701501112714L152.3009090909091,60.065657395582946L153.13772727272726,59.92820020822376L153.97454545454545,59.8308404775766L154.81136363636364,61.49768565251276L155.64818181818183,62.00905301020697L156.485,60.8324449979342L157.32181818181817,60.12644136868988L158.15863636363636,60.65960443936859L158.99545454545455,61.40215609623834L159.83227272727274,59.943451661330016L160.66909090909093,60.65769107525165L161.50590909090909,61.86635486896222L162.34272727272727,60.35820799607501L163.17954545454546,61.400769600501405L164.01636363636365,61.608882610614444L164.8531818181818,59.762985376211304L165.69,61.22895504878119L166.5268181818182,59.83841074430023L167.36363636363637,61.29001632103552L168.20045454545456,62.4938551095816L169.03727272727272,60.18922189565808L169.8740909090909,60.179100476778444L170.7109090909091,60.07930051363434L171.5477272727273,60.16440362196698L172.38454545454547,61.005008257352415L173.22136363636363,60.65447440514197L174.05818181818182,60.150233635535585L174.895,60.2837254450871L175.7318181818182,61.2614545088548L176.56863636363636,60.09349822998047L177.40545454545455,60.173942712637086L178.24227272727273,60.941090803879945L179.07909090909092,61.939672763531064L179.9159090909091,60.78990730872522L180.75272727272727,60.00232227032001L181.58954545454546,59.80047622093787L182.42636363636365,60.48363040043756L183.26318181818183,60.661739642803525L184.10000000000002,60.23514263446515L184.93681818181818,59.96422136746918L185.77363636363637,60.0075077643761L186.61045454545456,59.92551040649414L187.44727272727275,60.544137074397156L188.2840909090909,61.182701550997194L189.1209090909091,60.2414095951961L189.95772727272728,59.98002741887018L190.79454545454547,59.87201940096344L191.63136363636363,60.80499238234296L192.46818181818182,60.55270561805139L193.305,60.28242213909442L194.14181818181817,59.75968551635742L194.97863636363635,60.52591852041394L195.81545454545454,60.48726301926837L196.6522727272727,60.817914522611204L197.4890909090909,59.88194671043982L198.32590909090908,59.96269622215857L199.16272727272727,60.02611453716571L199.99954545454545,60.273770405695984L200.83636363636361,60.127439645620484L201.6731818181818,60.671306463388305L202.51,59.89522933959961L203.34681818181818,60.25305615938629L204.18363636363637,59.99064797621503L205.02045454545453,60.50076748774603L205.85727272727271,60.65084178631122L206.6940909090909,59.99314366854156L207.5309090909091,60.274962792029726L208.36772727272725,60.43155362055853L209.20454545454544,60.2619297321026L210.04136363636363,60.68278664809003L210.87818181818182,60.394256885235166L211.715,59.65824948824371L212.55181818181816,60.32715049156775L213.38863636363635,59.885551599355836L214.22545454545454,63.425940733689515L215.06227272727273,60.1221432319054L215.89909090909092,59.75954686678375L216.73590909090908,60.00484569256122L217.57272727272726,60.71789272014911L218.40954545454545,59.8706329052265L219.24636363636364,61.01451961810773L220.08318181818183,60.810427445631774L220.92,61.94943369351898L221.75681818181818,59.85219251192535L222.59363636363636,59.57209264315094L223.43045454545455,60.48726301926837L224.2672727272727,60.09474607614368L225.1040909090909,61.02114706773028L225.9409090909091,61.09335576570953L226.77772727272728,60.98665105379547L227.61454545454546,59.626249166635375L228.45136363636362,60.74085308955267L229.2881818181818,60.10564393263593L230.125,60.5163516998291L230.9618181818182,61.15694046020508L231.79863636363638,60.12838246272162L232.63545454545456,60.0475774911734L233.47227272727275,59.88899010878339L234.30909090909088,78.08752309359039L235.14590909090907,60.73039891169623L235.98272727272726,60.097047659067016L236.81954545454545,61.147068610558165L237.65636363636364,60.49089563809906L238.49318181818182,59.99660990788385L239.33,60.53592901963458L240.1668181818182,60.57813394986664L241.0036363636364,60.27512917151819L241.84045454545458,59.737612504225524L242.6772727272727,60.1476824833797L243.5140909090909,59.655116007878235L244.35090909090908,59.91197820810169L245.18772727272727,59.905073459331845L246.02454545454546,61.89749556321368L246.86136363636365,59.73450675377478L247.69818181818184,60.675133191622194L248.53500000000003,60.03692920391376L249.3718181818182,61.1317339677077L250.20863636363634,60.81114842341498L251.04545454545453,59.685036585881164L251.88227272727272,59.83760657677283L252.7190909090909,60.76650326068585L253.5559090909091,60.79891953101526L254.39272727272729,59.789411984957155L255.22954545454547,60.0472170022818L256.06636363636363,59.65827721815839L256.90318181818185,59.85790487436145L257.74,60.586896602924014L258.57681818181817,60.45642735407904L259.41363636363633,60.299171007596556L260.25045454545455,60.5182650639461L261.0872727272727,59.688114606417116L261.9240909090909,61.05298100985016L262.7609090909091,60.84969300490155L263.5977272727273,60.41663492642914L264.43454545454546,60.45321068396936L265.2713636363637,59.844733164860656L266.1081818181818,60.03032948420599L266.945,60.803994105412414L267.78181818181815,59.95132695711578L268.61863636363637,60.02567085852991L269.45545454545453,59.651011980496946L270.29227272727275,60.4225136683537L271.1290909090909,60.873402082003054L271.9659090909091,61.320519227247985L272.8027272727273,59.74379627521222L273.6395454545455,60.06366084172174L274.4763636363636,60.392759469839234L275.3131818181818,60.51355097844049L276.15,62.45076282207782L276.9868181818182,60.82207400982196L277.82363636363635,60.109609310443545L278.66045454545457,60.179100476778444L279.49727272727273,59.91830062866211L280.33409090909095,61.44316864013672L281.1709090909091,60.18558927682727L282.00772727272727,59.94472723740802L282.8445454545454,60.279233198899476L283.68136363636364,60.8232663961557L284.5181818181818,60.062496185302734L285.355,61.54929102384125L286.1918181818182,61.16473256624664L287.0286363636364,61.035899382371156L287.86545454545455,60.03676282442535L288.70227272727277,60.76661418034479L289.53909090909093,61.2614545088548L290.3759090909091,61.19329437842737L291.21272727272725,61.55691675039441L292.04954545454547,61.43252035287708L292.8863636363636,61.297780697162295L293.72318181818184,60.98077231187091L294.56,60.55270561805139L295.3968181818182,60.28871682974011L296.2336363636364,60.274962792029726L297.0704545454546,59.89531252934381L297.9072727272727,60.20341961200421L298.7440909090909,60.81924555851862L299.5809090909091,60.69218708918646L300.4177272727273,60.58065737210785L301.25454545454545,59.856462918795046L302.09136363636367,60.52209179217999L302.9281818181818,60.17860133831317L303.765,59.721473693847656L304.6018181818182,60.47999778160681L305.43863636363636,59.67885281489447L306.2754545454545,59.718312483567445L307.11227272727274,61.90878163851227L307.9490909090909,60.99508094787598L308.78590909090906,59.95593012296234L309.6227272727273,59.74690202566296L310.45954545454543,60.02653048588678L311.29636363636365,61.14523843618542L312.1331818181818,60.70430506192719L312.97,60.25660558847278L313.8068181818182,60.09230584364667L314.64363636363635,60.81353319608246L315.4804545454545,59.86686163682208L316.3172727272727,61.52114516038165L317.1540909090909,60.709546015812805L317.9909090909091,59.81769649799054L318.82772727272726,60.36444722689117L319.6645454545455,60.46427491995007L320.50136363636364,60.54058764531061L321.33818181818185,59.69302280132587L322.17499999999995,60.06995553236737L323.01181818181817,61.02830138573279L323.84863636363633,60.096049382136414L324.68545454545455,60.27340991680438L325.5222727272727,59.901912249051634L326.3590909090909,59.93227650569037L327.1959090909091,59.91497303889349L328.0327272727273,60.78954681983362L328.86954545454546,61.59462943443884L329.7063636363636,60.16565146813025L330.5431818181818,61.86635486896222L331.38,60.18922189565808L332.21681818181816,61.04077984736517L333.0536363636364,59.97961147014911L333.89045454545453,60.121865932758L334.72727272727275,61.12141843942493L335.5640909090909,60.26378763639008L336.4009090909091,60.377175257756164L337.2377272727273,60.69044010455792L338.07454545454544,60.932771829458375L338.9113636363636,59.844733164860656L339.7481818181818,61.17610183128943L340.585,60.06463138873761L341.4218181818182,60.903683148897585L342.25863636363636,60.986761973454406L343.0954545454546,60.92470242426947L343.93227272727273,60.409175579364444L344.76909090909095,59.82415756812463L345.60590909090905,60.006648137019226L346.44272727272727,60.37007639958307L347.2795454545454,60.16440362196698L348.11636363636364,59.702506432166444L348.9531818181818,60.146684206449095L349.79,60.5153534228985L350.6268181818182,60.89955139160156L351.4636363636364,61.77343192467322L352.30045454545456,60.435269429133484L353.1372727272727,60.40005243741547L353.9740909090909,59.48557530916656L354.8109090909091,60.18922189565808L355.64772727272725,61.55938471280609L356.48454545454547,60.52974524864783L357.3213636363636,59.87201940096344L358.15818181818184,60.288522720336914L358.995,60.40909238962024L359.8318181818182,59.67264131399304L360.6686363636364,59.55725713876575L361.50545454545454,59.71515127328723L362.3422727272727,60.13603591918945L363.1790909090909,60.64895615210901L364.0159090909091,59.93479992793158L364.8527272727273,59.885551599355836L365.68954545454545,60.62538572458118L366.52636363636367,60.075002376849795L367.36318181818183,60.254276275634766L368.20000000000005,61.10844083932727L369.03681818181815,60.178850907545836L369.87363636363636,61.59945443960339L370.7104545454545,59.688114606417116L371.54727272727274,60.334609838632446L372.3840909090909,60.17233437758222L373.2209090909091,60.14077773460974L374.0577272727273,59.83061863825873L374.8945454545455,60.31644674447864L375.73136363636365,59.674332838792054L376.5681818181818,59.79831328758826L377.405,59.9016904097337L378.2418181818182,61.565540753878054L379.07863636363635,59.931500068077696L379.91545454545457,59.92820020822376L380.7522727272727,60.16501368009125L381.58909090909094,59.7530857966496L382.4259090909091,59.92160048851599L383.26272727272726,59.99652671813965L384.0995454545455,59.990980735191954L384.93636363636364,60.01003118661731L385.7731818181818,60.872930673452515L386.61,60.07575108454779L387.4468181818182,60.60303541330188L388.28363636363633,59.72724151611328L389.12045454545455,60.060749200674195L389.9572727272727,60.61706675015961L390.7940909090909,60.658938921414915L391.6309090909091,59.931500068077696L392.4677272727273,60.73111988947943L393.3045454545454,61.89874340937689L394.1413636363636,60.27080330481897L394.9781818181818,60.69806583111102L395.815,59.69429837740387L396.65181818181816,60.93377010638898L397.4886363636364,59.917856950026305L398.32545454545453,60.32734460097089L399.16227272727275,59.90837331918567L399.9990909090909,60.877894328190735L400.83590909090907,60.29925419734076L401.67272727272723,59.928893456092226L402.50954545454545,61.16728371840253L403.3463636363636,59.809959851778444L404.1831818181818,59.99314366854156L405.02,59.78092663104718L405.8568181818182,61.492500158456664L406.69363636363636,60.44070449242224L407.5304545454546,60.51355097844049L408.36727272727273,61.14462837806116L409.2040909090909,60.64776376577527L410.04090909090905,60.75832293583795L410.87772727272727,60.34847479600177L411.71454545454543,59.97115384615387L412.55136363636365,59.75616381718561L413.3881818181818,117.70866306011493L414.225,157.09432059067947L415.0618181818182,142.70590562086838L415.8986363636364,218.56638380197379L416.7354545454545,237.05169263252847L417.5722727272727,197.29661024533786L418.4090909090909,117.45225840348468L419.2459090909091,83.25632374103253L420.08272727272725,130.84615384615384L420.91954545454547,142.35698010371283L421.75636363636363,177.92169108757608L422.59318181818185,93.00649452209473L423.43,101.53984891451324L424.2668181818182,184.14996858743518L425.1036363636363,130.52631700955905L425.94045454545454,154.7706507902879L426.7772727272727,164.6658490254329L427.6140909090909,91.85928021944488L428.4509090909091,85.63360933157117L429.2877272727273,65.26651382446289L430.12454545454545,177.21294219677264L430.96136363636367,85.9555536416861L431.79818181818183,94.87962253277118L432.635,141.81178225003757L433.47181818181815,119.56958990830645L434.30863636363637,82.61115954472467L435.1454545454545,62.88268397404596L435.98227272727274,88.55265426635742L436.8190909090909,65.1516842475304L437.6559090909091,154.61363014808066L438.4927272727273,74.10317802429199L439.3295454545455,80.17874688368573L440.16636363636366,92.91135318462665L441.0031818181818,77.67462466313287L441.84,73.94514524019684L442.6768181818182,81.55348513676569L443.51363636363635,80.78295399592474L444.35045454545457,65.22924481905426L445.1872727272727,82.2549687899076L446.02409090909094,63.880378576425414L446.8609090909091,63.01140623826251L447.6977272727273,64.03283764765814L448.5345454545454,63.41066155066858L449.37136363636364,78.0730758080116L450.2081818181818,61.86776909461389L451.045,138.67511294438287L451.8818181818182,65.23296062762921L452.7186363636364,64.7850115849422L453.55545454545455,63.31882007305438L454.39227272727277,65.54120635986328L455.2290909090909,65.0987478402945L456.0659090909091,81.62233851506159L456.90272727272725,62.58081612220178L457.73954545454546,63.716716619638305L458.5763636363636,74.71251517075763L459.41318181818184,63.952115865854125L460.25,62.5220009730412L461.08681818181816,63.81576787508453L461.9236363636364,63.63807458143964L462.76045454545454,62.95153735234186L463.59727272727275,63.4684784228985L464.4340909090909,63.920781062199524L465.27090909090913,63.59295801016003L466.10772727272723,61.13422966003418L466.9445454545455,63.693007542536805L467.7813636363636,63.11309183560883L468.61818181818177,64.51847164447491L470.29181818181814,268.39939069747925L471.12863636363636,367.4160010814667L471.9654545454545,306.78479900726904L472.80227272727274,266.62569522857666L473.6390909090909,249.40439910155075L474.4759090909091,268.1522339674143L475.3127272727273,200.34415560502273L476.1495454545454,190.43058630136343L476.98636363636365,309.035355421213L477.82318181818175,195.36784216073843L478.66,368.60815344407007L479.4968181818181,311.8267352947822L480.3336363636364,219.71976801065298L481.1704545454545,245.14753136268027L482.0072727272728,318.53769008929913L482.8440909090909,247.9447449170626L483.68090909090915,155.07138171562784L484.51772727272726,146.10064337803766L485.3545454545454,310.95443536685065L486.19136363636363,172.87685702397272L487.0281818181818,219.76338716653677L487.865,369.2769244634188L488.70181818181817,270.08584785461426L489.5386363636364,309.62852256114667L490.37545454545455,368.0266172702496L491.21227272727276,372.09738435195044L492.0490909090909,313.9028289501484L492.885909090909,310.3321830125956L493.7227272727273,314.1354482724116L494.5595454545454,269.92592250383814L495.3963636363637,312.3094160556793L496.2331818181818,370.96338508679315L497.07000000000005,178.1591562124399L497.90681818181815,220.80531098292425L498.7436363636364,171.3406197474553L499.58045454545453,310.87883322055524L500.4172727272727,224.07647037506104L501.2540909090909,258.22052236703723L502.09090909090907,222.07984718909628L502.9277272727273,173.74430421682507L503.76454545454544,174.03508010277383L504.60136363636366,174.95099918658917L505.4381818181818,137.19074447338397L506.27500000000003,369.858462370359L507.1118181818182,312.8967703122359L507.9486363636363,224.40114608177774L508.78545454545457,115.57662083552435L509.6222727272727,173.1046166786781L510.45909090909095,75.50306731003985L511.29590909090905,221.78423243302566L512.1327272727273,230.21653901613675L512.9695454545455,136.89996858743518L513.8063636363637,176.40485088641827L514.6431818181818,226.31054482093222L515.48,73.79307438777045L516.3168181818182,115.78844965421234L517.1536363636363,176.24977133824274L517.9904545454546,75.43038720350995L518.8272727272727,273.7010730963487L519.664090909091,124.14876937866211L520.5009090909091,81.10037832993731L521.3377272727273,206.37139122302716L522.1745454545454,114.87045082679163L523.0113636363636,74.99422337458685L523.8481818181818,79.0165306971623L524.685,160.42153600546033L525.5218181818182,177.22869278834418L526.3586363636364,120.01292192018951L527.1954545454546,118.93707055311933L528.0322727272727,78.96808653611407L528.8690909090909,126.75115255209118L529.7059090909091,157.0610724229079L530.5427272727273,117.07201194763184L531.3795454545455,72.14710983863245L532.2163636363636,75.30923520601715L533.0531818181819,71.51106878427356L533.89,160.76215641315167L534.7268181818182,126.36346061413104L535.5636363636363,128.13231028043307L536.4004545454545,115.10723656874433L537.2372727272727,123.14562584803656L538.074090909091,115.50183325547442L538.9109090909091,76.78385661198541L539.7477272727273,116.60261381589447L540.5845454545455,121.20507254967322L541.4213636363636,74.68614402184119L542.2581818181818,125.84008620335504L543.095,71.5655857966496L543.9318181818182,74.05528846153845L544.7686363636363,115.59323105445276L545.6054545454546,74.89384108323321L546.4422727272727,73.94625443678632L547.279090909091,72.46384092477649L548.1159090909091,107.41379356384277L548.9527272727272,72.51056583111102L549.7895454545454,116.79784628061145L550.6263636363636,71.8200077643761L551.4631818181819,71.1294219677265L552.3,69.6069109990047L553.1368181818182,114.78324024493878L553.9736363636364,109.19111471909747L554.8104545454546,72.05623890803412L555.6472727272727,109.80172744164099L556.4840909090908,72.78317862290606L557.3209090909091,144.65042429703934L558.1577272727272,69.63924407958984L558.9945454545455,74.67316642174353L559.8313636363636,76.65402515117938L560.6681818181819,115.52263069152832L561.505,108.19158994234527L562.3418181818182,111.37187840388373L563.1786363636363,173.61829948425293L564.0154545454545,147.61627732790433L564.8522727272727,67.82193638728216L565.6890909090909,156.8824640420767L566.5259090909091,145.33736360990085L567.3627272727273,103.47184753417969L568.1995454545455,105.6182815845196L569.0363636363636,72.34701479398285L569.8731818181818,114.79985046386719L570.71,97.39896847651556L571.5468181818181,107.73726301926837L572.3836363636364,202.16354304093582L573.2204545454545,74.27077762897198L574.0572727272728,74.4046299274151L574.8940909090909,109.71085651104266L575.7309090909091,70.16261849036584L576.5677272727272,71.57767603947565L577.4045454545455,75.10153814462512L578.2413636363636,102.97753407404974L579.0781818181819,72.12692246070276L579.915,73.70999556321368L580.7518181818182,104.78031129103437L581.5886363636364,70.73768146221454L582.4254545454545,101.1004684154804L583.2622727272727,69.89768688495343L584.0990909090909,104.88368841317981L584.9359090909091,70.52607448284442L585.7727272727273,110.2415238893949L586.6095454545455,110.7431025871864L587.4463636363637,71.23845599247858L588.2831818181818,70.93314963120685L589.12,71.94720488328204L589.9568181818181,77.24769489581769L590.7936363636364,69.82822344853327L591.6304545454545,70.80229216355548L592.4672727272728,99.6611471909743L593.3040909090909,69.68768824063812L594.1409090909092,71.30306669381946L594.9777272727273,69.50838661193848L595.8145454545454,69.61015539902911L596.6513636363636,70.89923594548151L597.4881818181818,74.74587425818811L598.325,74.63076738210827L599.1618181818181,68.9123043647179L599.9986363636364,69.71192418611969L600.8354545454546,67.92692184448242L601.6722727272728,105.7301717904898L602.5090909090909,145.44639763465293L603.345909090909,102.31844946054309L604.1827272727273,107.61006590036243L605.0195454545454,68.9123043647179L605.8563636363637,103.43308111337512L606.6931818181818,68.68616691002478L607.53,97.41932223393366L608.3668181818182,70.2692400125357L609.2036363636364,67.13861582829401L610.0404545454545,69.50999494699329L610.8772727272727,70.46792485163763L611.7140909090909,71.42019785367523L612.550909090909,69.34846819364105L613.3877272727273,70.47923865685095L614.2245454545455,103.70769045903131L615.0613636363637,104.76738915076623L615.8981818181818,68.60699800344617L616.735,71.65845328110919L617.5718181818181,67.65672155526966L618.4086363636364,69.39208734952484L619.2454545454545,72.69230769230768L620.0822727272727,71.66008934607873L620.9190909090909,70.2369069319505L621.7559090909091,114.77908075772797L622.5927272727273,70.96384664682239L623.4295454545454,98.899350973276L624.2663636363636,70.07538017859827L625.1031818181818,67.56022145197943L625.94,66.7843938974234L626.7768181818182,67.24038461538464L627.6136363636364,67.00908939655011L628.4504545454546,66.98266278780426L629.2872727272727,68.72329726585974L630.1240909090909,68.49069874103253L630.960909090909,97.08783883314862L631.7977272727273,68.3439797621507L632.6345454545454,69.47929793137774L633.4713636363637,103.2424656794621L634.3081818181818,67.21614866990313L635.145,69.66567068833575L635.9818181818182,115.84662701533392L636.8186363636363,93.42150042607233L637.6554545454545,69.39694008460413L638.4922727272727,68.75238594642053L639.329090909091,70.97676878709063L640.165909090909,101.66907031719501L641.0027272727273,68.6215562086839L641.8395454545455,270.8709233357356L642.6763636363637,223.47553539276123L643.5131818181818,271.24407786589404L644.3499999999999,171.81553613222562L645.1868181818182,220.74230861663818L646.0236363636363,159.58661600259632L646.8604545454546,225.16685221745416L647.6972727272727,158.12031357104962L648.534090909091,115.69707958514874L649.3709090909091,177.7181535133949L650.2077272727273,155.70277800926797L651.0445454545454,223.48038812784048L651.8813636363636,273.9773046420171L652.7181818181818,133.6201020020705L653.555,275.6153107056251L654.3918181818182,172.31470232743484L655.2286363636364,220.63084822434647L656.0654545454546,174.45184685633734L656.9022727272727,157.47230705848105L657.7390909090909,111.84644816471979L658.5759090909091,108.18432470468372L659.4127272727272,169.6880693435669L660.2495454545455,154.27800112504227L661.0863636363636,197.11661536876971L661.9231818181819,169.00476264953613L662.76,225.6126937866211L663.5968181818182,268.5593091157766L664.4336363636363,112.8433940594013L665.2704545454546,171.07407980698807L666.1072727272727,116.56107440361609L666.9440909090908,221.97323953188382L667.7809090909091,117.81484090364899L668.6177272727273,116.93491524916425L669.4545454545455,221.6969941212581L670.2913636363636,154.03292413858264L671.1281818181818,143.22929389660175L671.965,168.67038147266095L672.8018181818182,239.20338843419L673.6386363636364,120.46085709791913L674.4754545454546,170.32777074667126L675.3122727272728,154.04122924804688L676.1490909090909,111.41031206571137L676.9859090909091,113.49554619422327L677.8227272727272,170.0127727801983L678.6595454545455,112.47783059340253L679.4963636363636,272.8287662359385L680.3331818181819,112.5817068540133L681.17,217.8588411624615L682.0068181818182,171.10800735767072L682.8436363636364,100.8969308412992L683.6804545454545,193.22197657365066L684.5172727272727,266.65477004418005L685.3540909090909,217.98484589503363L686.1909090909091,111.90875728313739L687.0277272727272,113.44984729473407L687.8645454545455,154.66430656726544L688.7013636363637,155.81077216221735L689.5381818181819,122.1860876083374L690.375,173.18214952028714L691.2118181818181,71.16577588594879L692.0486363636363,104.47702921353851L692.8854545454545,66.60229154733508L693.7222727272728,68.10231355520398L694.5590909090909,73.81384409390961L695.3959090909091,168.17122914240912L696.2327272727273,114.35123590322644L697.0695454545455,167.96285269810602L697.9063636363636,113.15907140878528L698.7431818181818,170.74453750023477L699.58,172.57637566786545L700.4168181818181,268.29761497791L701.2536363636364,112.25768280029297L702.0904545454545,105.16758728027344L702.9272727272728,120.4850791784433L703.7640909090909,157.63015959813043L704.6009090909091,222.86976154033954L705.4377272727272,153.70892781477707L706.2745454545454,168.20515669309177L707.1113636363636,197.22046389946573L707.9481818181818,170.30838753626898L708.785,156.89076915154092L709.6218181818182,152.56662170703595L710.4586363636364,219.72462074573224L711.2954545454545,197.00030224139874L712.1322727272727,104.55697455772986L712.9690909090909,106.44335746765137L713.8059090909092,169.43123487325818L714.6427272727273,110.70001029968262L715.4795454545454,198.12599813021146L716.3163636363637,170.11938043741077L717.1531818181818,144.44325410402737L717.99,151.34538239699143L718.8268181818181,110.60861250070423L719.6636363636364,222.27853202819824L720.5004545454545,107.90447440514197L721.3372727272728,197.1996941933265L722.1740909090909,155.80661267500656L723.0109090909091,145.82077921353854L723.8477272727273,154.556312414316L724.6845454545454,129.34578521435077L725.5213636363636,199.72938339526837L726.3581818181818,369.2769244634188L727.195,369.27692273029913L728.0318181818182,371.021539917359L728.8686363636364,309.8844003493969L729.7054545454546,373.26046189895044L730.5422727272727,254.96390731518085L731.3790909090909,372.15553918251624L732.215909090909,318.673382960833L733.0527272727273,250.4628083522503L733.8895454545454,373.31861672951624L734.7263636363637,271.7141553805425L735.5631818181818,372.12646263379315L736.4000000000001,307.1860612722544L737.2368181818182,255.29538378348718L738.0736363636363,309.79135955297033L738.9104545454545,308.00603138483484L739.7472727272727,367.44507763018976L740.584090909091,310.8148637734927L741.420909090909,369.24784618157605L742.2577272727273,272.91115874510547L743.0945454545455,372.7661536381795L743.9313636363637,369.858462370359L744.7681818181818,372.1846157312393L745.605,317.0063090141003L746.4418181818182,252.08529259608343L747.2786363636363,311.6290210026961L748.1154545454546,222.72438746232254L748.9522727272727,254.5393900504479L749.789090909091,274.99984524800226L750.6259090909091,112.81846486605133L751.4627272727273,222.47723073225754L752.2995454545454,218.6196945630587L753.1363636363636,219.37569522857666L753.9731818181818,373.23138535022736L754.81,269.92592250383814L755.6468181818182,187.69735952524036L756.4836363636364,156.30092613513654L757.3204545454546,113.89014288095325L758.1572727272727,111.55154052147498L758.9940909090909,218.9540757399339L759.8309090909091,175.30961630894586L760.6677272727273,71.89268787090595L761.5045454545455,269.654543693249L762.3413636363636,218.00908184051514L763.1781818181819,156.06415425814114L764.015,110.29290742140546L764.8518181818182,68.82922554016113L765.6886363636363,106.03991493811975L766.5254545454545,118.97793058248669L767.3622727272727,112.72709479698767L768.199090909091,168.2148482982929L769.0359090909091,218.7360076904297L769.8727272727273,223.09269618988037L770.7095454545455,219.57923280275784L771.5463636363636,248.25877233651968L772.3831818181818,370.44000027729913L773.22,312.2745248904595L774.0568181818182,170.8899254432091L774.8936363636363,269.3346929916969L775.7304545454546,189.62806870387152L776.5672727272727,268.02622923484216L777.404090909091,370.35277063112994L778.2409090909091,192.46597590813272L779.0777272727272,167.2650016637949L779.9145454545454,216.53584693028375L780.7513636363636,306.88947596916785L781.5881818181819,365.72953872497266L782.425,125.79646704747125L783.2618181818182,152.96953736818753L784.0986363636364,173.5892246686495L784.9354545454546,171.52477411123425L785.7722727272727,134.65523198934704L786.6090909090908,270.1246142754188L787.4459090909091,125.01139156634991L788.2827272727272,306.9767073484568L789.1195454545455,268.57869232617895L789.9563636363636,187.09836563697226L790.7931818181819,247.642336331881L791.63,172.37285195864163L792.4668181818182,217.6746867986826L793.3036363636363,249.7707736675556L794.9772727272727,366.36923146247864L795.8140909090909,368.69538482335895L796.6509090909091,365.78769355553845L797.4877272727273,366.36923146247864L798.3245454545455,369.27692273029913L799.1613636363636,371.60307782429913L799.9981818181818,71.23845599247858L800.835,253.53914429591254L801.6718181818181,170.65731305342453L802.5086363636364,220.3788526241596L803.3454545454545,70.75384800250714L804.1822727272728,268.33153559611395L805.0190909090909,168.5346989998451L805.8559090909091,170.0709362763625L806.6927272727272,187.72643434084378L807.5295454545455,70.13768929701581L808.3663636363636,192.52993495647723L809.2031818181819,169.47000129406268L810.04,269.9016934908353L810.8768181818182,121.48823657402625L811.7136363636364,218.00422910543588L812.5504545454545,72.06231175936188L813.3872727272727,219.4096227792593L814.2240909090909,251.62006088403555L815.0609090909091,219.47262514554538L815.8977272727273,145.95160895127518L816.7345454545455,311.01258499805743L817.5713636363637,306.14510800288275L818.4081818181818,308.50034137872547L819.245,310.82649300648615L820.0818181818181,365.1189242693094L820.9186363636364,372.67892399201025L821.7554545454545,319.02231194422797L822.5922727272728,367.47415417891284L823.4290909090909,308.00021850145777L824.2659090909092,132.7884957240178L825.1027272727273,270.63345821087177L825.9395454545454,190.90744378016547L826.7763636363636,168.74792817922742L827.6131818181818,307.9071707725525L828.45,219.4435364649846L829.2868181818181,306.06369297321027L830.1236363636364,307.4244934778947L830.9604545454546,268.1086148115305L831.7972727272728,305.57519932893604L832.6340909090909,166.88700133103592L833.470909090909,267.3574599486131L834.3077272727273,307.56987795462976L835.1445454545454,367.4160010814667L835.9813636363637,305.0285560534551L836.8181818181818,305.2902467250824L837.655,250.50350893460788L838.4918181818182,221.75031874730035L839.3286363636364,366.3110783650325L840.1654545454545,246.47926051800067L841.0022727272727,321.1158477159647L841.8390909090909,250.6837811103234L842.675909090909,249.11944649769708L843.5127272727273,119.07484663449799L844.3495454545455,269.6545367607704L845.1863636363637,118.1783107610849L846.0231818181818,308.0874498807467L846.86,220.76169182704047L847.6968181818181,307.91880347178534L848.5336363636364,220.538771042457L849.3704545454545,308.3782188342168L850.2072727272727,221.47407333667462L851.0440909090909,316.52556588099554L851.8809090909091,220.9119325050941L852.7177272727273,195.716767677894L853.5545454545454,268.0262361673208L854.3913636363636,124.20208013974704L855.2281818181818,249.64864419056818L856.065,169.46030968886154L856.9018181818182,272.98869851919324L857.7386363636364,167.89015872661884L858.5754545454546,217.30637807112473L859.4122727272727,171.0062385705801L860.2490909090909,296.32292263324445L861.085909090909,266.1604565840501L861.9227272727273,368.60815517718976L862.7595454545454,311.75113661472614L863.5963636363637,167.30862081967868L864.4331818181818,365.17707736675555L865.27,309.20982164603015L866.1068181818182,120.38331039135272L866.9436363636363,267.79845571517944L867.7804545454545,247.66560173034668L868.6172727272727,269.52853896067694L869.454090909091,309.8029818534851L870.290909090909,269.16508296819836L871.1277272727273,168.4910798439613L871.9645454545455,308.55267812655524L872.8013636363637,318.5667718373812L873.6381818181818,311.0765579113594L874.4749999999999,218.16416138869064L875.3118181818182,169.61538923703708L876.1486363636363,219.6713099846473L876.9854545454546,246.46763475124652L877.8222727272727,172.38738243396466L878.659090909091,368.69538482335895L879.4959090909091,221.4353069158701L880.3327272727273,308.4596338638893L881.1695454545454,198.60120567908652L882.0063636363636,268.7919284380399L882.8431818181818,218.14961704841025L883.68,133.12578854194052L884.5168181818182,222.56445517906778L885.3536363636364,153.1024745794443L886.1904545454546,306.9767073484568L887.0272727272727,254.2777028450599L887.8640909090909,319.2210037158086L888.7009090909091,219.1527744439932L889.5377272727272,193.3848066329956L890.3745454545455,111.74262736393854L891.2113636363636,220.64539256462686L892.0481818181819,171.0546965965858L892.885,253.30652497364923" style="fill: none;" fill="none"></path></g></g></g></g></g></g><g transform="translate(30, 378)" clip-path="url(#clip_1)"><clipPath id="clip_1"><rect width="920" height="22"></rect></clipPath><g><g><line x1="0" y1="0" x2="0" y2="5" style="visibility: inherit;" fill="rgb(0, 0, 0)" stroke="rgb(204, 204, 204)" stroke-width="1px"></line><line x1="83.68181818181819" y1="0" x2="83.68181818181819" y2="5" style="visibility: inherit;" fill="rgb(0, 0, 0)" stroke="rgb(204, 204, 204)" stroke-width="1px"></line><line x1="167.36363636363637" y1="0" x2="167.36363636363637" y2="5" style="visibility: inherit;" fill="rgb(0, 0, 0)" stroke="rgb(204, 204, 204)" stroke-width="1px"></line><line x1="251.04545454545453" y1="0" x2="251.04545454545453" y2="5" style="visibility: inherit;" fill="rgb(0, 0, 0)" stroke="rgb(204, 204, 204)" stroke-width="1px"></line><line x1="334.72727272727275" y1="0" x2="334.72727272727275" y2="5" style="visibility: inherit;" fill="rgb(0, 0, 0)" stroke="rgb(204, 204, 204)" stroke-width="1px"></line><line x1="418.4090909090909" y1="0" x2="418.4090909090909" y2="5" style="visibility: inherit;" fill="rgb(0, 0, 0)" stroke="rgb(204, 204, 204)" stroke-width="1px"></line><line x1="502.09090909090907" y1="0" x2="502.09090909090907" y2="5" style="visibility: inherit;" fill="rgb(0, 0, 0)" stroke="rgb(204, 204, 204)" stroke-width="1px"></line><line x1="585.7727272727273" y1="0" x2="585.7727272727273" y2="5" style="visibility: inherit;" fill="rgb(0, 0, 0)" stroke="rgb(204, 204, 204)" stroke-width="1px"></line><line x1="669.4545454545455" y1="0" x2="669.4545454545455" y2="5" style="visibility: inherit;" fill="rgb(0, 0, 0)" stroke="rgb(204, 204, 204)" stroke-width="1px"></line><line x1="753.1363636363636" y1="0" x2="753.1363636363636" y2="5" style="visibility: inherit;" fill="rgb(0, 0, 0)" stroke="rgb(204, 204, 204)" stroke-width="1px"></line><line x1="836.8181818181818" y1="0" x2="836.8181818181818" y2="5" style="visibility: inherit;" fill="rgb(0, 0, 0)" stroke="rgb(204, 204, 204)" stroke-width="1px"></line><line x1="920.5" y1="0" x2="920.5" y2="5" style="visibility: inherit;" fill="rgb(0, 0, 0)" stroke="rgb(204, 204, 204)" stroke-width="1px"></line></g><g transform="translate(0, 8)"><text x="0" y="0" dx="0em" dy="0.95em" style="text-anchor: middle; visibility: hidden; font-family: &quot;Helvetica Neue&quot;, sans-serif; font-size: 12px; font-weight: 200;" fill="rgb(50, 49, 63)" stroke="none" stroke-width="1px">-50k</text><text x="83.68181818181819" y="0" dx="0em" dy="0.95em" style="text-anchor: middle; visibility: inherit; font-family: &quot;Helvetica Neue&quot;, sans-serif; font-size: 12px; font-weight: 200;" fill="rgb(50, 49, 63)" stroke="none" stroke-width="1px">0</text><text x="167.36363636363637" y="0" dx="0em" dy="0.95em" style="text-anchor: middle; visibility: inherit; font-family: &quot;Helvetica Neue&quot;, sans-serif; font-size: 12px; font-weight: 200;" fill="rgb(50, 49, 63)" stroke="none" stroke-width="1px">50k</text><text x="251.04545454545453" y="0" dx="0em" dy="0.95em" style="text-anchor: middle; visibility: inherit; font-family: &quot;Helvetica Neue&quot;, sans-serif; font-size: 12px; font-weight: 200;" fill="rgb(50, 49, 63)" stroke="none" stroke-width="1px">100k</text><text x="334.72727272727275" y="0" dx="0em" dy="0.95em" style="text-anchor: middle; visibility: inherit; font-family: &quot;Helvetica Neue&quot;, sans-serif; font-size: 12px; font-weight: 200;" fill="rgb(50, 49, 63)" stroke="none" stroke-width="1px">150k</text><text x="418.4090909090909" y="0" dx="0em" dy="0.95em" style="text-anchor: middle; visibility: inherit; font-family: &quot;Helvetica Neue&quot;, sans-serif; font-size: 12px; font-weight: 200;" fill="rgb(50, 49, 63)" stroke="none" stroke-width="1px">200k</text><text x="502.09090909090907" y="0" dx="0em" dy="0.95em" style="text-anchor: middle; visibility: inherit; font-family: &quot;Helvetica Neue&quot;, sans-serif; font-size: 12px; font-weight: 200;" fill="rgb(50, 49, 63)" stroke="none" stroke-width="1px">250k</text><text x="585.7727272727273" y="0" dx="0em" dy="0.95em" style="text-anchor: middle; visibility: inherit; font-family: &quot;Helvetica Neue&quot;, sans-serif; font-size: 12px; font-weight: 200;" fill="rgb(50, 49, 63)" stroke="none" stroke-width="1px">300k</text><text x="669.4545454545455" y="0" dx="0em" dy="0.95em" style="text-anchor: middle; visibility: inherit; font-family: &quot;Helvetica Neue&quot;, sans-serif; font-size: 12px; font-weight: 200;" fill="rgb(50, 49, 63)" stroke="none" stroke-width="1px">350k</text><text x="753.1363636363636" y="0" dx="0em" dy="0.95em" style="text-anchor: middle; visibility: inherit; font-family: &quot;Helvetica Neue&quot;, sans-serif; font-size: 12px; font-weight: 200;" fill="rgb(50, 49, 63)" stroke="none" stroke-width="1px">400k</text><text x="836.8181818181818" y="0" dx="0em" dy="0.95em" style="text-anchor: middle; visibility: inherit; font-family: &quot;Helvetica Neue&quot;, sans-serif; font-size: 12px; font-weight: 200;" fill="rgb(50, 49, 63)" stroke="none" stroke-width="1px">450k</text><text x="920.5" y="0" dx="0em" dy="0.95em" style="text-anchor: middle; visibility: hidden; font-family: &quot;Helvetica Neue&quot;, sans-serif; font-size: 12px; font-weight: 200;" fill="rgb(50, 49, 63)" stroke="none" stroke-width="1px">500k</text></g><line x1="0" y1="0" x2="920.5" y2="0" fill="rgb(0, 0, 0)" stroke="rgb(204, 204, 204)" stroke-width="1px"></line></g></g></g></g></svg>