<svg viewBox="0 0 950.5 400" xmlns="http://www.w3.org/2000/svg"><g><g><g><g><g><line x1="30" y1="378" x2="25" y2="378" style="visibility: inherit;" fill="rgb(0, 0, 0)" stroke="rgb(204, 204, 204)" stroke-width="1px"></line><line x1="30" y1="346.5" x2="25" y2="346.5" style="visibility: inherit;" fill="rgb(0, 0, 0)" stroke="rgb(204, 204, 204)" stroke-width="1px"></line><line x1="30" y1="315" x2="25" y2="315" style="visibility: inherit;" fill="rgb(0, 0, 0)" stroke="rgb(204, 204, 204)" stroke-width="1px"></line><line x1="30" y1="283.5" x2="25" y2="283.5" style="visibility: inherit;" fill="rgb(0, 0, 0)" stroke="rgb(204, 204, 204)" stroke-width="1px"></line><line x1="30" y1="252" x2="25" y2="252" style="visibility: inherit;" fill="rgb(0, 0, 0)" stroke="rgb(204, 204, 204)" stroke-width="1px"></line><line x1="30" y1="220.5" x2="25" y2="220.5" style="visibility: inherit;" fill="rgb(0, 0, 0)" stroke="rgb(204, 204, 204)" stroke-width="1px"></line><line x1="30" y1="189" x2="25" y2="189" style="visibility: inherit;" fill="rgb(0, 0, 0)" stroke="rgb(204, 204, 204)" stroke-width="1px"></line><line x1="30" y1="157.5" x2="25" y2="157.5" style="visibility: inherit;" fill="rgb(0, 0, 0)" stroke="rgb(204, 204, 204)" stroke-width="1px"></line><line x1="30" y1="126" x2="25" y2="126" style="visibility: inherit;" fill="rgb(0, 0, 0)" stroke="rgb(204, 204, 204)" stroke-width="1px"></line><line x1="30" y1="94.5" x2="25" y2="94.5" style="visibility: inherit;" fill="rgb(0, 0, 0)" stroke="rgb(204, 204, 204)" stroke-width="1px"></line><line x1="30" y1="63" x2="25" y2="63" style="visibility: inherit;" fill="rgb(0, 0, 0)" stroke="rgb(204, 204, 204)" stroke-width="1px"></line><line x1="30" y1="31.5" x2="25" y2="31.5" style="visibility: inherit;" fill="rgb(0, 0, 0)" stroke="rgb(204, 204, 204)" stroke-width="1px"></line><line x1="30" y1="0" x2="25" y2="0" style="visibility: inherit;" fill="rgb(0, 0, 0)" stroke="rgb(204, 204, 204)" stroke-width="1px"></line></g><g transform="translate(20, 0)"><text x="0" y="378" dx="0em" dy="0.3em" style="text-anchor: end; visibility: hidden; font-family: &quot;Helvetica Neue&quot;, sans-serif; font-size: 12px; font-weight: 200;" fill="rgb(50, 49, 63)" stroke="none" stroke-width="1px">-1</text><text x="0" y="346.5" dx="0em" dy="0.3em" style="text-anchor: end; visibility: inherit; font-family: &quot;Helvetica Neue&quot;, sans-serif; font-size: 12px; font-weight: 200;" fill="rgb(50, 49, 63)" stroke="none" stroke-width="1px">0</text><text x="0" y="315" dx="0em" dy="0.3em" style="text-anchor: end; visibility: inherit; font-family: &quot;Helvetica Neue&quot;, sans-serif; font-size: 12px; font-weight: 200;" fill="rgb(50, 49, 63)" stroke="none" stroke-width="1px">1</text><text x="0" y="283.5" dx="0em" dy="0.3em" style="text-anchor: end; visibility: inherit; font-family: &quot;Helvetica Neue&quot;, sans-serif; font-size: 12px; font-weight: 200;" fill="rgb(50, 49, 63)" stroke="none" stroke-width="1px">2</text><text x="0" y="252" dx="0em" dy="0.3em" style="text-anchor: end; visibility: inherit; font-family: &quot;Helvetica Neue&quot;, sans-serif; font-size: 12px; font-weight: 200;" fill="rgb(50, 49, 63)" stroke="none" stroke-width="1px">3</text><text x="0" y="220.5" dx="0em" dy="0.3em" style="text-anchor: end; visibility: inherit; font-family: &quot;Helvetica Neue&quot;, sans-serif; font-size: 12px; font-weight: 200;" fill="rgb(50, 49, 63)" stroke="none" stroke-width="1px">4</text><text x="0" y="189" dx="0em" dy="0.3em" style="text-anchor: end; visibility: inherit; font-family: &quot;Helvetica Neue&quot;, sans-serif; font-size: 12px; font-weight: 200;" fill="rgb(50, 49, 63)" stroke="none" stroke-width="1px">5</text><text x="0" y="157.5" dx="0em" dy="0.3em" style="text-anchor: end; visibility: inherit; font-family: &quot;Helvetica Neue&quot;, sans-serif; font-size: 12px; font-weight: 200;" fill="rgb(50, 49, 63)" stroke="none" stroke-width="1px">6</text><text x="0" y="126" dx="0em" dy="0.3em" style="text-anchor: end; visibility: inherit; font-family: &quot;Helvetica Neue&quot;, sans-serif; font-size: 12px; font-weight: 200;" fill="rgb(50, 49, 63)" stroke="none" stroke-width="1px">7</text><text x="0" y="94.5" dx="0em" dy="0.3em" style="text-anchor: end; visibility: inherit; font-family: &quot;Helvetica Neue&quot;, sans-serif; font-size: 12px; font-weight: 200;" fill="rgb(50, 49, 63)" stroke="none" stroke-width="1px">8</text><text x="0" y="63" dx="0em" dy="0.3em" style="text-anchor: end; visibility: inherit; font-family: &quot;Helvetica Neue&quot;, sans-serif; font-size: 12px; font-weight: 200;" fill="rgb(50, 49, 63)" stroke="none" stroke-width="1px">9</text><text x="0" y="31.5" dx="0em" dy="0.3em" style="text-anchor: end; visibility: inherit; font-family: &quot;Helvetica Neue&quot;, sans-serif; font-size: 12px; font-weight: 200;" fill="rgb(50, 49, 63)" stroke="none" stroke-width="1px">10</text><text x="0" y="0" dx="0em" dy="0.3em" style="text-anchor: end; visibility: hidden; font-family: &quot;Helvetica Neue&quot;, sans-serif; font-size: 12px; font-weight: 200;" fill="rgb(50, 49, 63)" stroke="none" stroke-width="1px">11</text></g><line x1="30" y1="0" x2="30" y2="378" fill="rgb(0, 0, 0)" stroke="rgb(204, 204, 204)" stroke-width="1px"></line></g></g><g transform="translate(30, 0)" clip-path="url(#clip_0)"><clipPath id="clip_0"><rect width="920" height="378"></rect></clipPath><g><g><g><line x1="0" y1="0" x2="0" y2="378" fill="rgb(0, 0, 0)" stroke="rgb(60, 60, 60)" stroke-width="1px" opacity="0.25"></line><line x1="83.68181818181819" y1="0" x2="83.68181818181819" y2="378" fill="rgb(0, 0, 0)" stroke="rgb(60, 60, 60)" stroke-width="1px" opacity="0.25"></line><line x1="167.36363636363637" y1="0" x2="167.36363636363637" y2="378" fill="rgb(0, 0, 0)" stroke="rgb(60, 60, 60)" stroke-width="1px" opacity="0.25"></line><line x1="251.04545454545453" y1="0" x2="251.04545454545453" y2="378" fill="rgb(0, 0, 0)" stroke="rgb(60, 60, 60)" stroke-width="1px" opacity="0.25"></line><line x1="334.72727272727275" y1="0" x2="334.72727272727275" y2="378" fill="rgb(0, 0, 0)" stroke="rgb(60, 60, 60)" stroke-width="1px" opacity="0.25"></line><line x1="418.4090909090909" y1="0" x2="418.4090909090909" y2="378" fill="rgb(0, 0, 0)" stroke="rgb(60, 60, 60)" stroke-width="1px" opacity="0.25"></line><line x1="502.09090909090907" y1="0" x2="502.09090909090907" y2="378" fill="rgb(0, 0, 0)" stroke="rgb(60, 60, 60)" stroke-width="1px" opacity="0.25"></line><line x1="585.7727272727273" y1="0" x2="585.7727272727273" y2="378" fill="rgb(0, 0, 0)" stroke="rgb(60, 60, 60)" stroke-width="1px" opacity="0.25"></line><line x1="669.4545454545455" y1="0" x2="669.4545454545455" y2="378" fill="rgb(0, 0, 0)" stroke="rgb(60, 60, 60)" stroke-width="1px" opacity="0.25"></line><line x1="753.1363636363636" y1="0" x2="753.1363636363636" y2="378" fill="rgb(0, 0, 0)" stroke="rgb(60, 60, 60)" stroke-width="1px" opacity="0.25"></line><line x1="836.8181818181818" y1="0" x2="836.8181818181818" y2="378" fill="rgb(0, 0, 0)" stroke="rgb(60, 60, 60)" stroke-width="1px" opacity="0.25"></line><line x1="920.5" y1="0" x2="920.5" y2="378" fill="rgb(0, 0, 0)" stroke="rgb(60, 60, 60)" stroke-width="1px" opacity="0.25"></line></g><g><line x1="0" y1="378" x2="920.5" y2="378" fill="rgb(0, 0, 0)" stroke="rgb(60, 60, 60)" stroke-width="1px" opacity="0.25"></line><line x1="0" y1="346.5" x2="920.5" y2="346.5" fill="rgb(0, 0, 0)" stroke="rgb(60, 60, 60)" stroke-width="1px" opacity="0.25"></line><line x1="0" y1="315" x2="920.5" y2="315" fill="rgb(0, 0, 0)" stroke="rgb(60, 60, 60)" stroke-width="1px" opacity="0.25"></line><line x1="0" y1="283.5" x2="920.5" y2="283.5" fill="rgb(0, 0, 0)" stroke="rgb(60, 60, 60)" stroke-width="1px" opacity="0.25"></line><line x1="0" y1="252" x2="920.5" y2="252" fill="rgb(0, 0, 0)" stroke="rgb(60, 60, 60)" stroke-width="1px" opacity="0.25"></line><line x1="0" y1="220.5" x2="920.5" y2="220.5" fill="rgb(0, 0, 0)" stroke="rgb(60, 60, 60)" stroke-width="1px" opacity="0.25"></line><line x1="0" y1="189" x2="920.5" y2="189" fill="rgb(0, 0, 0)" stroke="rgb(60, 60, 60)" stroke-width="1px" opacity="0.25"></line><line x1="0" y1="157.5" x2="920.5" y2="157.5" fill="rgb(0, 0, 0)" stroke="rgb(60, 60, 60)" stroke-width="1px" opacity="0.25"></line><line x1="0" y1="126" x2="920.5" y2="126" fill="rgb(0, 0, 0)" stroke="rgb(60, 60, 60)" stroke-width="1px" opacity="0.25"></line><line x1="0" y1="94.5" x2="920.5" y2="94.5" fill="rgb(0, 0, 0)" stroke="rgb(60, 60, 60)" stroke-width="1px" opacity="0.25"></line><line x1="0" y1="63" x2="920.5" y2="63" fill="rgb(0, 0, 0)" stroke="rgb(60, 60, 60)" stroke-width="1px" opacity="0.25"></line><line x1="0" y1="31.5" x2="920.5" y2="31.5" fill="rgb(0, 0, 0)" stroke="rgb(60, 60, 60)" stroke-width="1px" opacity="0.25"></line><line x1="0" y1="0" x2="920.5" y2="0" fill="rgb(0, 0, 0)" stroke="rgb(60, 60, 60)" stroke-width="1px" opacity="0.25"></line></g></g></g><g><g><line x1="0" y1="346.5" x2="920.5" y2="346.5" fill="rgb(0, 0, 0)" stroke="rgb(153, 153, 153)" stroke-width="1.5px"></line></g></g><g><g><line x1="83.68181818181819" y1="0" x2="83.68181818181819" y2="378" fill="rgb(0, 0, 0)" stroke="rgb(153, 153, 153)" stroke-width="1.5px"></line></g></g><g><g><g><g><g><path style="fill: none;" stroke="rgb(51, 187, 238)" stroke-width="2px" d="M84.51863636363636,340.7957157790661L85.35545454545455,338.9502309188247L86.19227272727274,340.69996446158206L87.02909090909091,341.12316315166436L87.8659090909091,342.0884791605697L88.70272727272727,343.6600776877993L89.53954545454546,344.84340307558887L90.37636363636364,345.7200645291928L91.21318181818182,345.48728918185145L92.05000000000001,345.5838148681257L92.88681818181819,345.68082144699736L93.72363636363637,345.43005750016937L94.56045454545455,344.058675097022L95.39727272727274,342.1006741100823L96.23409090909091,339.41274711157416L97.07090909090908,340.839768039253L97.90772727272727,340.02151300739337L98.74454545454545,337.40880694095307L99.58136363636363,336.4887525263818L100.41818181818181,329.6806114374854L101.255,329.6769194066786L102.09181818181818,327.9235838699751L102.92863636363636,323.37803432863853L103.76545454545455,308.6351530635125L104.60227272727272,310.9112107901224L105.43909090909091,303.3787856685514L106.27590909090908,305.3398993171634L107.11272727272727,298.5206968963481L107.94954545454546,284.71939423472713L108.78636363636363,266.89087923485357L109.62318181818182,264.5770662106672L110.46,248.6199162823526L111.29681818181818,258.22347486713L112.13363636363636,238.0484632713783L112.97045454545454,244.3199880762084L113.80727272727273,231.39156107938015L114.6440909090909,214.4277027322198L115.4809090909091,195.45901033232516L116.31772727272728,189.8016495873647L117.15454545454544,179.61034726748215L117.99136363636363,199.89847527968496L118.82818181818182,180.75116992879938L119.665,183.3136223376582L120.5018181818182,168.76418686977038L121.33863636363635,153.86374884135222L122.17545454545454,142.10054558017023L123.01227272727273,151.1257814500024L123.84909090909092,131.51037678276901L124.6859090909091,129.30659857481973L125.52272727272727,116.37032284183925L126.35954545454545,102.87748697896393L127.19636363636364,120.82007834618304L128.03318181818182,109.22463939965735L128.87,97.763235559338L129.70681818181816,94.56072434799091L130.54363636363635,89.15274930605813L131.38045454545454,93.21283307438904L132.21727272727273,85.87847480038192L133.0540909090909,92.3500065377919L133.89090909090908,80.70723979303591L134.72772727272726,80.77966385262818L135.56454545454545,83.99681442485831L136.40136363636364,90.61755190793633L137.2381818181818,85.496115365648L138.075,82.50455570162751L138.91181818181818,75.25315189326653L139.74863636363636,73.71810035684621L140.58545454545455,67.95577571856319L141.4222727272727,70.28107937614527L142.2590909090909,67.10136914515732L143.0959090909091,65.6765260235324L143.93272727272728,66.38425538157543L144.76954545454547,69.40988043078858L145.60636363636362,69.64919802623444L146.4431818181818,71.18365085767186L147.28,72.59273693946886L148.1168181818182,65.11051067106655L148.95363636363635,60.41722231145343L149.79045454545454,63.364541417572696L150.62727272727273,62.427836254962585L151.4640909090909,62.29723424656885L152.3009090909091,58.641501444242635L153.13772727272726,55.27942887405288L153.97454545454545,52.817161795256936L154.81136363636364,54.32675242230795L155.64818181818183,56.86969113233988L156.485,56.57821783949913L157.32181818181817,54.69745236355055L158.15863636363636,55.310647092568786L158.99545454545455,56.06670231956713L159.83227272727274,53.82426306807082L160.66909090909093,53.88286770107203L161.50590909090909,56.92146771384387L162.34272727272727,54.273471982676426L163.17954545454546,55.57038812124648L164.01636363636365,54.81813028027966L164.8531818181818,52.221890703263L165.69,54.71749607051737L166.5268181818182,52.35238904550869L167.36363636363637,53.514605538816454L168.20045454545456,55.39158726738168L169.03727272727272,52.966840559281536L169.8740909090909,51.89408672692633L170.7109090909091,50.77482941652687L171.5477272727273,51.16200687232822L172.38454545454547,52.07496443833833L173.22136363636363,52.505808397805254L174.05818181818182,52.02718708793856L174.895,52.84679931331004L175.7318181818182,53.7567337627907L176.56863636363636,52.4352778599083L177.40545454545455,52.88828997644299L178.24227272727273,55.12274296779941L179.07909090909092,55.943157194253786L179.9159090909091,54.21652450454059L180.75272727272727,52.599532927822L181.58954545454546,51.30122099265509L182.42636363636365,51.567988073498384L183.26318181818183,52.38001651505846L184.10000000000002,51.65846626126893L184.93681818181818,50.722990561509846L185.77363636363637,50.34136078893232L186.61045454545456,50.062851751679716L187.44727272727275,51.32771635343704L188.2840909090909,52.41745577031418L189.1209090909091,52.230062542999065L189.95772727272728,51.36631969132674L190.79454545454547,50.45375921439319L191.63136363636363,51.785367406077285L192.46818181818182,52.693908927838265L193.305,51.74194750666635L194.14181818181817,51.27781182217609L194.97863636363635,49.96101425700192L195.81545454545454,49.8673521912861L196.6522727272727,50.87415257911488L197.4890909090909,49.810382889632024L198.32590909090908,49.694625691726L199.16272727272727,49.493460748287475L199.99954545454545,49.087567003782056L200.83636363636361,48.60382499230832L201.6731818181818,50.15959533413013L202.51,49.2540835401997L203.34681818181818,49.690537206029035L204.18363636363637,49.718704457101296L205.02045454545453,49.428504320989305L205.85727272727271,49.64556275189534L206.6940909090909,50.075195851210424L207.5309090909091,50.94186548130733L208.36772727272725,50.24698364577904L209.20454545454544,49.73995635415446L210.04136363636363,50.22102898064452L210.87818181818182,50.5552864176226L211.715,48.987811094653125L212.55181818181816,49.119864467460786L213.38863636363635,49.29079284887251L214.22545454545454,54.38614505899386L215.06227272727273,52.54789320452477L215.89909090909092,50.90001506700196L216.73590909090908,50.72288085874368L217.57272727272726,52.07299948845173L218.40954545454545,50.053629404985145L219.24636363636364,50.92210035722445L220.08318181818183,52.31649130106558L220.92,54.41132822943092L221.75681818181818,52.67146219797354L222.59363636363636,50.45159176580563L223.43045454545455,50.893034527256816L224.2672727272727,50.755943053695376L225.1040909090909,51.96897282226854L225.9409090909091,53.76409014477713L226.77772727272728,53.408313324537176L227.61454545454546,50.80991280703921L228.45136363636362,51.656727293903714L229.2881818181818,50.95183094726508L230.125,51.24363446466032L230.9618181818182,53.07491068978254L231.79863636363638,51.57149937712637L232.63545454545456,51.11895820476707L233.47227272727275,50.52935011969862L234.30909090909088,56.69595212809355L235.14590909090907,55.902431315613455L235.98272727272726,54.96872624542277L236.81954545454545,56.57959561816426L237.65636363636364,55.86497729582527L238.49318181818182,53.840045604484885L239.33,52.82396831117728L240.1668181818182,53.017467153088205L241.0036363636364,51.9897952866649L241.84045454545458,50.66031336737245L242.6772727272727,50.788708162025046L243.5140909090909,49.74488894445625L244.35090909090908,49.9177051562246L245.18772727272727,49.12118202317811L246.02454545454546,52.122598778421036L246.86136363636365,50.95785091591739L247.69818181818184,53.489787759023045L248.53500000000003,52.18442326881717L249.3718181818182,53.65960739909548L250.20863636363634,54.5058571747478L251.04545454545453,52.141411796303714L251.88227272727272,50.912998589928236L252.7190909090909,52.21646198812442L253.5559090909091,52.39177714099475L254.39272727272729,51.13485895580044L255.22954545454547,50.53255798212285L256.06636363636363,49.35534297103641L256.90318181818185,49.05993525192116L257.74,51.049733543425646L258.57681818181817,51.91812709810125L259.41363636363633,52.11185133362886L260.25045454545455,51.71252667847318L261.0872727272727,50.44645178284077L261.9240909090909,51.5843482730736L262.7609090909091,52.787355751869086L263.5977272727273,52.17422180836019L264.43454545454546,51.970015415338366L265.2713636363637,50.331227236263544L266.1081818181818,49.532560690207845L266.945,50.44613362786981L267.78181818181815,49.378830536829355L268.61863636363637,49.530154385940364L269.45545454545453,48.84055032657153L270.29227272727275,49.91822656587698L271.1290909090909,51.86667785999737L271.9659090909091,53.1008168814036L272.8027272727273,50.97570199712834L273.6395454545455,49.834554689793094L274.4763636363636,49.80137787918352L275.3131818181818,50.36112591421664L276.15,52.68712575910132L276.9868181818182,51.8477666358807L277.82363636363635,50.94058384780038L278.66045454545457,50.13497981002297L279.49727272727273,49.53131022793269L280.33409090909095,51.29109029020202L281.1709090909091,50.22478425529789L282.00772727272727,49.54677679554936L282.8445454545454,49.70438977728077L283.68136363636364,50.52158158212774L284.5181818181818,49.65089488738698L285.355,52.039839224302284L286.1918181818182,53.68875415103639L287.0286363636364,55.19273704872734L287.86545454545455,54.14462954155334L288.70227272727277,54.8058586499198L289.53909090909093,55.34122812635326L290.3759090909091,55.565634512225586L291.21272727272725,56.24012247521864L292.04954545454547,56.60441646456235L292.8863636363636,56.437017401930746L293.72318181818184,55.36320989184202L294.56,54.147202020005125L295.3968181818182,52.9101010353063L296.2336363636364,52.18724676315156L297.0704545454546,50.58480518069359L297.9072727272727,49.63021355275214L298.7440909090909,50.58352821710048L299.5809090909091,50.7416397192618L300.4177272727273,50.548247686537536L301.25454545454545,50.04736654252554L302.09136363636367,50.10747094327655L302.9281818181818,49.968708487596814L303.765,48.85763710275097L304.6018181818182,49.70981808623554L305.43863636363636,48.73533566070131L306.2754545454545,48.240227694943655L307.11227272727274,51.4317581150741L307.9490909090909,52.32126571499174L308.78590909090906,51.601021681802706L309.6227272727273,50.080751558886334L310.45954545454543,50.01000660702374L311.29636363636365,51.85009270933136L312.1331818181818,52.84420727507393L312.97,51.91801900157998L313.8068181818182,50.73737451129955L314.64363636363635,51.32230179723376L315.4804545454545,50.09222598800824L316.3172727272727,52.1643235917673L317.1540909090909,51.952372612701936L317.9909090909091,50.22094234356109L318.82772727272726,50.57430429773825L319.6645454545455,51.14137899587928L320.50136363636364,51.991511319341555L321.33818181818185,50.4732639159335L322.17499999999995,51.14873095545613L323.01181818181817,52.405990625580785L323.84863636363633,51.2037328870062L324.68545454545455,51.172474145350634L325.5222727272727,50.10628237691992L326.3590909090909,49.72821015338582L327.1959090909091,49.3007907999783L328.0327272727273,50.51822205383951L328.86954545454546,52.35921490192044L329.7063636363636,52.56012504100579L330.5431818181818,56.28855209827287L331.38,54.13378418254774L332.21681818181816,54.37355397205306L333.0536363636364,52.21176494396184L333.89045454545453,51.1384349658278L334.72727272727275,51.231408452641176L335.5640909090909,50.75513497331809L336.4009090909091,51.07093071543619L337.2377272727273,51.806584880372554L338.07454545454544,52.95505230761802L338.9113636363636,50.82144466124316L339.7481818181818,52.2660113279959L340.585,51.07238908439518L341.4218181818182,52.48541934388663L342.25863636363636,53.171906704293406L343.0954545454546,52.2447991815726L343.93227272727273,51.20582802578929L344.76909090909095,50.08248328855706L345.60590909090905,49.53342189604683L346.44272727272727,49.98520053753043L347.2795454545454,49.75852869348995L348.11636363636364,49.24856642721454L348.9531818181818,49.41285884283991L349.79,50.657067989724965L350.6268181818182,52.215162119518595L351.4636363636364,53.778651142865954L352.30045454545456,52.30468935057553L353.1372727272727,51.5450654642882L353.9740909090909,49.60888341767202L354.8109090909091,49.748623202458646L355.64772727272725,50.72670783413389L356.48454545454547,50.37682822831238L357.3213636363636,50.00922262363298L358.15818181818184,49.603271840170976L358.995,49.58769857773541L359.8318181818182,48.21603105002259L360.6686363636364,47.17345674952037L361.50545454545454,47.17156996798616L362.3422727272727,48.22749947590887L363.1790909090909,49.13100327899019L364.0159090909091,48.73849004417633L364.8527272727273,48.26384578889599L365.68954545454545,49.36983739582297L366.52636363636367,48.7128413870787L367.36318181818183,48.40698759286738L368.20000000000005,50.614754346186714L369.03681818181815,50.26090602110315L369.87363636363636,52.173799205008095L370.7104545454545,50.2496891070503L371.54727272727274,50.260311129635454L372.3840909090909,50.41502552208061L373.2209090909091,50.73431327925175L374.0577272727273,51.06987721315653L374.8945454545455,51.58702787513511L375.73136363636365,50.21163616630423L376.5681818181818,49.314916193801025L377.405,48.900904405306505L378.2418181818182,49.96832985174103L379.07863636363635,49.03158613736298L379.91545454545457,48.928514365523256L380.7522727272727,49.79748966942378L381.58909090909094,49.11982871681539L382.4259090909091,48.936783323228894L383.26272727272726,48.8104937610272L384.0995454545455,48.86525305135507L384.93636363636364,48.78069739355715L385.7731818181818,50.402452211463924L386.61,50.11056159787444L387.4468181818182,50.059807913619636L388.28363636363633,48.962813268374475L389.12045454545455,48.410540133876225L389.9572727272727,48.07086097607771L390.7940909090909,49.76627719050498L391.6309090909091,49.41150619772583L392.4677272727273,50.44887915961448L393.3045454545454,53.0944026453048L394.1413636363636,51.970936402246366L394.9781818181818,52.074178853371734L395.815,49.916642283641636L396.65181818181816,50.912967166449675L397.4886363636364,49.8804991490519L398.32545454545453,50.10391346495612L399.16227272727275,49.283063029535185L399.9990909090909,50.75405164676164L400.83590909090907,50.77115905354776L401.67272727272723,50.55044624847386L402.50954545454545,52.65378268743882L403.3463636363636,51.303453732641515L404.1831818181818,50.357784634299264L405.02,49.22845309106543L405.8568181818182,51.7031372614386L406.69363636363636,51.5190043585111L407.5304545454546,52.17286921361739L408.36727272727273,53.197004990694836L409.2040909090909,52.34006693179481L410.04090909090905,52.12477342018525L410.87772727272727,51.474090050035954L411.71454545454543,50.280114239677346L412.55136363636365,48.91773265971216L413.3881818181818,36.84286047442839L414.225,28.94933353319226L415.0618181818182,31.605474677410484L415.8986363636364,31.931127671436514L416.7354545454545,34.75661037208795L417.5722727272727,35.899246489060886L418.4090909090909,39.966766712101105L419.2459090909091,45.772574828286054L420.08272727272725,49.26284890545554L420.91954545454547,54.10824053986755L421.75636363636363,55.801985797309214L422.59318181818185,61.3852306705852L423.43,66.95324171198246L424.2668181818182,67.42534983523387L425.1036363636363,70.56142766694848L425.94045454545454,75.32637266767392L426.7772727272727,78.50524952681286L427.6140909090909,80.4896721999134L428.4509090909091,83.68737174035823L429.2877272727273,87.20894137002057L430.12454545454545,90.40094656334537L430.96136363636367,92.3843121205939L431.79818181818183,92.38378684968791L432.635,95.04572420865918L433.47181818181815,97.11470650166649L434.30863636363637,95.50835980493054L435.1454545454545,93.71737397622007L435.98227272727274,93.0591351324972L436.8190909090909,95.10047789422612L437.6559090909091,98.09414246087039L438.4927272727273,93.1862872267053L439.3295454545455,91.23444460775175L440.16636363636366,93.91710347500867L441.0031818181818,89.97367383579865L441.84,86.08892441714084L442.6768181818182,85.87172928407352L443.51363636363635,87.24967369410138L444.35045454545457,87.09658346755941L445.1872727272727,84.27067343106057L446.02409090909094,84.54269981211536L446.8609090909091,83.81179504290884L447.6977272727273,83.6891245645026L448.5345454545454,82.4975981594169L449.37136363636364,83.46800393349196L450.2081818181818,79.079682364978L451.045,86.18564530308106L451.8818181818182,84.89059250411424L452.7186363636364,85.08289142165802L453.55545454545455,82.41589734383956L454.39227272727277,82.85627230065188L455.2290909090909,83.89063372646041L456.0659090909091,84.95771607419408L456.90272727272725,82.81203523075908L457.73954545454546,81.90757407424644L458.5763636363636,80.61325400875688L459.41318181818184,80.50929819230248L460.25,80.03594333341124L461.08681818181816,79.63121470457554L461.9236363636364,79.81112285045526L462.76045454545454,78.21359479181615L463.59727272727275,77.41159021706966L464.4340909090909,78.19424950988048L465.27090909090913,77.17038767284726L466.10772727272723,75.2056070849095L466.9445454545455,76.31517028121914L467.7813636363636,76.30765914504985L468.61818181818177,76.06608295193467L470.29181818181814,107.65272130817857L471.12863636363636,128.60488294512444L471.9654545454545,147.00886616081246L472.80227272727274,160.62323618513497L473.6390909090909,167.9832996403107L474.4759090909091,171.92526478021915L475.3127272727273,171.99726587801916L476.1495454545454,176.31007894438352L476.98636363636365,182.38820047713423L477.82318181818175,177.81480314455692L478.66,188.18669043852245L479.4968181818181,190.3099405936799L480.3336363636364,183.56601692273628L481.1704545454545,188.79332357069498L482.0072727272728,192.86667827022458L482.8440909090909,195.69515249283546L483.68090909090915,184.91805365771907L484.51772727272726,183.83215114528454L485.3545454545454,194.8992683711917L486.19136363636363,190.3674532308144L487.0281818181818,197.07057045304552L487.865,224.85210441591607L488.70181818181817,233.4281573238508L489.5386363636364,241.4860436405263L490.37545454545455,251.87315151009096L491.21227272727276,257.56987994261465L492.0490909090909,248.03766299097467L492.885909090909,254.42832327371076L493.7227272727273,251.40950117400428L494.5595454545454,250.02149997884715L495.3963636363637,249.80421301564388L496.2331818181818,254.19169791245946L497.07000000000005,225.913110540536L497.90681818181815,235.3479212082785L498.7436363636364,219.72114248021612L499.58045454545453,240.3350173172007L500.4172727272727,225.7333657942206L501.2540909090909,208.84917227041663L502.09090909090907,199.36396131284204L502.9277272727273,200.56147704939346L503.76454545454544,198.24737369072616L504.60136363636366,191.1097867670785L505.4381818181818,188.34365516800466L506.27500000000003,212.232845341556L507.1118181818182,214.54180786335033L507.9486363636363,212.68263514830804L508.78545454545457,193.2965270995744L509.6222727272727,187.0343803596287L510.45909090909095,171.75683465193444L511.29590909090905,187.54074076766213L512.1327272727273,180.80087230178384L512.9695454545455,174.85778158648412L513.8063636363637,172.63236304368735L514.6431818181818,185.90291416791774L515.48,169.08600747673333L516.3168181818182,154.22280428462395L517.1536363636363,158.7381524422954L517.9904545454546,157.31942106361333L518.8272727272727,158.13279376670803L519.664090909091,156.51187325862105L520.5009090909091,144.36771612970264L521.3377272727273,164.27596910958428L522.1745454545454,164.07260146239364L523.0113636363636,153.09409140645838L523.8481818181818,143.37263059079274L524.685,157.06572503721492L525.5218181818182,159.89643041417463L526.3586363636364,151.75622258261123L527.1954545454546,145.62346650168467L528.0322727272727,140.75603800419074L528.8690909090909,146.25205324532448L529.7059090909091,143.69970273042833L530.5427272727273,132.6792634908266L531.3795454545455,133.61614802979867L532.2163636363636,124.82875902356767L533.0531818181819,126.24513692201413L533.89,132.47716495121264L534.7268181818182,143.531434373407L535.5636363636363,135.4658004738977L536.4004545454545,135.15697843421043L537.2372727272727,131.90141934507216L538.074090909091,135.43245974989605L538.9109090909091,125.71462950594352L539.7477272727273,118.73591843537758L540.5845454545455,129.2105080085532L541.4213636363636,120.10955981001473L542.2581818181818,122.15410525551565L543.095,115.21738733620123L543.9318181818182,110.7035014019649L544.7686363636363,116.90879241146087L545.6054545454546,112.06488241861729L546.4422727272727,109.96111086672823L547.279090909091,108.30029141704011L548.1159090909091,111.76781780600408L548.9527272727272,109.30474366593279L549.7895454545454,112.72808211951207L550.6263636363636,107.23090635483715L551.4631818181819,108.04289523807324L552.3,112.30319361714811L553.1368181818182,117.65378039376913L553.9736363636364,127.23801465807543L554.8104545454546,122.54057776914945L555.6472727272727,118.6241806267912L556.4840909090908,114.9547186803349L557.3209090909091,111.91694760987326L558.1577272727272,106.49991031091906L558.9945454545455,107.70643012286132L559.8313636363636,106.34290104246674L560.6681818181819,106.4654673405679L561.505,106.69454605985834L562.3418181818182,116.7546422935078L563.1786363636363,132.9409256730407L564.0154545454545,130.69451012336785L564.8522727272727,128.26632365061982L565.6890909090909,120.74648728653284L566.5259090909091,131.0701272886067L567.3627272727273,125.81965415484129L568.1995454545455,121.09661732200635L569.0363636363636,116.80732733061222L569.8731818181818,118.66161435872499L570.71,121.68372026699893L571.5468181818181,116.67950801621743L572.3836363636364,132.98413484436793L573.2204545454545,123.93730841363978L574.0572727272728,119.49439865520901L574.8940909090909,115.33187288147991L575.7309090909091,118.0690947181152L576.5677272727272,115.86102193630734L577.4045454545455,112.77068392060397L578.2413636363636,115.48596019519687L579.0781818181819,113.33142253740618L579.915,114.06939995875354L580.7518181818182,117.16629789227483L581.5886363636364,115.59442690583609L582.4254545454545,121.03090026123846L583.2622727272727,121.22149101581283L584.0990909090909,124.53756360820603L584.9359090909091,117.57557704813286L585.7727272727273,120.31990401009915L586.6095454545455,116.44717493093134L587.4463636363637,114.91726192495895L588.2831818181818,112.21443148053686L589.12,108.08978073356747L589.9568181818181,109.25863175724868L590.7936363636364,110.69347117623636L591.6304545454545,112.41257270742034L592.4672727272728,110.43974924426419L593.3040909090909,109.86734819615572L594.1409090909092,107.52197456481866L594.9777272727273,104.70379686428788L595.8145454545454,107.60143919035005L596.6513636363636,106.29004823711045L597.4881818181818,104.25953900543766L598.325,97.87742235498376L599.1618181818181,101.28561574361771L599.9986363636364,101.12675503577026L600.8354545454546,105.87660758307715L601.6722727272728,111.2048922575184L602.5090909090909,108.59684435109307L603.345909090909,111.08027581918248L604.1827272727273,117.10336234896187L605.0195454545454,115.37862612443445L605.8563636363637,112.3008998491602L606.6931818181818,107.13025008787139L607.53,108.95256506889712L608.3668181818182,103.63913519078284L609.2036363636364,106.02585772808663L610.0404545454545,105.93682639680071L610.8772727272727,104.52121620703792L611.7140909090909,103.40192201929722L612.550909090909,103.27798821447749L613.3877272727273,104.68857179831542L614.2245454545455,114.84370643348143L615.0613636363637,120.57604598075534L615.8981818181818,114.96567048472394L616.735,107.55601552630799L617.5718181818181,108.17163078490103L618.4086363636364,108.97567744554999L619.2454545454545,102.62917210758877L620.0822727272727,104.7601791983912L620.9190909090909,106.1684152582925L621.7559090909091,108.47166664002191L622.5927272727273,107.684309474217L623.4295454545454,112.32549018358418L624.2663636363636,108.91227103886149L625.1031818181818,110.44726267824848L625.94,111.76100430113252L626.7768181818182,111.19615422023634L627.6136363636364,108.67847935159978L628.4504545454546,108.9781835544108L629.2872727272727,106.87938583302491L630.1240909090909,103.47819636111257L630.960909090909,110.08108104374878L631.7977272727273,104.97043598357959L632.6345454545454,104.67990353503308L633.4713636363637,107.0841851401238L634.3081818181818,106.5263591866439L635.145,105.8325806296316L635.9818181818182,115.27083610513495L636.8186363636363,118.64883655916867L637.6554545454545,113.69907728797921L638.4922727272727,111.49722528437809L639.329090909091,109.8447226523163L640.165909090909,113.04201787941469L641.0027272727273,108.51600719829088L641.8395454545455,136.2486383994799L642.6763636363637,146.19599919798262L643.5131818181818,160.36928704549248L644.3499999999999,157.27627202969413L645.1868181818182,167.46503976048007L646.0236363636363,165.7090742293654L646.8604545454546,162.15010913036215L647.6972727272727,167.45503454102246L648.534090909091,164.49257944043376L649.3709090909091,165.94806088218633L650.2077272727273,164.61681597953762L651.0445454545454,169.1970259280546L651.8813636363636,174.65070514270923L652.7181818181818,177.23875282042775L653.555,167.71318701406452L654.3918181818182,168.3901026457556L655.2286363636364,164.50079857170633L656.0654545454546,165.1598867586854L656.9022727272727,167.751606226659L657.7390909090909,164.74286656421197L658.5759090909091,154.36481240297417L659.4127272727272,157.38900806251203L660.2495454545455,154.01889010514637L661.0863636363636,162.52767317441595L661.9231818181819,156.0125896033495L662.76,165.20574254374802L663.5968181818182,161.89711858380497L664.4336363636363,151.05626421897804L665.2704545454546,157.44961756306407L666.1072727272727,149.18591004513215L666.9440909090908,158.94669932068894L667.7809090909091,154.33801814282842L668.6177272727273,144.57586424568242L669.4545454545455,151.98152900349467L670.2913636363636,150.09014068014244L671.1281818181818,152.62459193448316L671.965,156.48586298692283L672.8018181818182,146.88992773096598L673.6386363636364,137.97275354028244L674.4754545454546,133.59117880797686L675.3122727272728,137.60361694894016L676.1490909090909,136.98049778700937L676.9859090909091,135.13742977953595L677.8227272727272,135.3831219111481L678.6595454545455,136.65588137117615L679.4963636363636,146.93566873435728L680.3331818181819,142.77575670936437L681.17,143.70817901646336L682.0068181818182,146.98577872488045L682.8436363636364,143.71428475125515L683.6804545454545,144.4285531124108L684.5172727272727,151.12692919258075L685.3540909090909,145.9477623396146L686.1909090909091,144.84519329625533L687.0277272727272,143.75566744183402L687.8645454545455,140.76662678345977L688.7013636363637,137.09700791135393L689.5381818181819,136.09571266230915L690.375,137.1841383937417L691.2118181818181,134.10722728749624L692.0486363636363,137.5510928880007L692.8854545454545,135.25659014289562L693.7222727272728,131.38612247410407L694.5590909090909,123.34705882610675L695.3959090909091,124.80696605051634L696.2327272727273,122.31716979983494L697.0695454545455,128.65440252687364L697.9063636363636,131.08157918015618L698.7431818181818,128.2203878233403L699.58,127.31981385168848L700.4168181818181,129.06012046585928L701.2536363636364,129.99409096390278L702.0904545454545,125.25231853097841L702.9272727272728,126.33293103557918L703.7640909090909,124.40231294263654L704.6009090909091,131.19745656746184L705.4377272727272,128.70509532032938L706.2745454545454,137.49384986721594L707.1113636363636,137.32131106473878L707.9481818181818,143.29874872456716L708.785,138.36032795483305L709.6218181818182,138.52875838026068L710.4586363636364,137.86516562309663L711.2954545454545,147.8532116365838L712.1322727272727,141.25238384916827L712.9690909090909,132.85645588704614L713.8059090909092,139.99048209469717L714.6427272727273,136.36809210944895L715.4795454545454,140.7380061445756L716.3163636363637,145.81466161597513L717.1531818181818,145.53149792783702L717.99,142.73405025740414L718.8268181818181,144.65804928743808L719.6636363636364,141.13458262803533L720.5004545454545,136.86809555841907L721.3372727272728,146.44976358505147L722.1740909090909,147.92992704446348L723.0109090909091,140.27501517138026L723.8477272727273,145.71670893192973L724.6845454545454,140.9908280096095L725.5213636363636,139.69406431446322L726.3581818181818,184.13720465618283L727.195,207.69891300748534L728.0318181818182,224.49906172126975L728.8686363636364,232.4633605347302L729.7054545454546,239.8649531284706L730.5422727272727,239.25691028116563L731.3790909090909,246.53528420733463L732.215909090909,249.0865680730763L733.0527272727273,246.17719971873896L733.8895454545454,253.9457907899531L734.7263636363637,244.43730770494412L735.5631818181818,253.04913932648822L736.4000000000001,247.27208994965267L737.2368181818182,250.31225823843783L738.0736363636363,250.07724065473263L738.9104545454545,247.66477758223166L739.7472727272727,253.53519720157595L740.584090909091,256.88022362184887L741.420909090909,260.5160574614547L742.2577272727273,252.17649419901028L743.0945454545455,256.19311656831053L743.9313636363637,254.53813013004273L744.7681818181818,262.7272319350661L745.605,251.4750012608779L746.4418181818182,253.65257916762906L747.2786363636363,255.76660901257083L748.1154545454546,242.12784093587806L748.9522727272727,240.43970671873814L749.789090909091,241.58403677690941L750.6259090909091,226.7088580784137L751.4627272727273,226.94603566270678L752.2995454545454,227.91066844428545L753.1363636363636,231.42401694753747L753.9731818181818,247.7181170910536L754.81,252.91228571712605L755.6468181818182,241.82494177329323L756.4836363636364,222.06999586765633L757.3204545454546,216.07767647948663L758.1572727272727,205.324940123837L758.9940909090909,208.0750476352458L759.8309090909091,207.24504469824342L760.6677272727273,207.8775240838081L761.5045454545455,215.73176089880172L762.3413636363636,228.02247042630492L763.1781818181819,214.06870905860887L764.015,206.7773421305694L764.8518181818182,181.5118782817291L765.6886363636363,178.1109305083136L766.5254545454545,178.90698284264684L767.3622727272727,170.7331632277744L768.199090909091,169.16043168910605L769.0359090909091,190.5072088158623L769.8727272727273,180.78130073049638L770.7095454545455,164.91574126898627L771.5463636363636,166.1460401440822L772.3831818181818,169.88856393248815L773.22,165.18648394436227L774.0568181818182,147.3826927691137L774.8936363636363,154.1699861257932L775.7304545454546,145.5146769743956L776.5672727272727,147.48590178858024L777.404090909091,162.87573220473996L778.2409090909091,159.99294992770234L779.0777272727272,152.74777648738313L779.9145454545454,143.94639958078437L780.7513636363636,163.11113026818498L781.5881818181819,163.0453168098978L782.425,151.23562009005855L783.2618181818182,141.54079374592968L784.0986363636364,138.77788172317426L784.9354545454546,137.6681617388301L785.7722727272727,141.50534068877536L786.6090909090908,146.91950833401108L787.4459090909091,147.44632379770889L788.2827272727272,157.37975802755724L789.1195454545455,160.983494941809L789.9563636363636,148.07554103399409L790.7931818181819,152.40014105716406L791.63,152.51671417760286L792.4668181818182,161.6478647721257L793.3036363636363,165.95020176961694L794.1404545454545,179.77345005270644L794.9772727272727,183.90830650089268L795.8140909090909,182.8234204659348L796.6509090909091,187.98011509236605L797.4877272727273,189.72977866921968L798.3245454545455,191.21857417937608L799.1613636363636,195.9984023887902L799.9981818181818,172.83820826524433L800.835,175.08871368595322L801.6718181818181,165.9918385745785L802.5086363636364,162.91000220785747L803.3454545454545,156.52202681070696L804.1822727272728,164.2271511755355L805.0190909090909,162.6782834650259L805.8559090909091,153.34576249844912L806.6927272727272,151.60525346235684L807.5295454545455,144.48305726311358L808.3663636363636,149.08644805110544L809.2031818181819,148.07915059183273L810.04,156.88336395892046L810.8768181818182,145.1867390136274L811.7136363636364,153.01208041073997L812.5504545454545,149.67829040266344L813.3872727272727,153.47908775554458L814.2240909090909,161.55106654492832L815.0609090909091,155.02137603001486L815.8977272727273,151.64360412142688L816.7345454545455,161.67310142625578L817.5713636363637,169.57180681293733L818.4081818181818,175.78263582268667L819.245,183.82301968025752L820.0818181818181,185.4107506852602L820.9186363636364,193.40458449013565L821.7554545454545,191.90084872417174L822.5922727272728,193.47367592914418L823.4290909090909,193.9370147959203L824.2659090909092,179.93975413893526L825.1027272727273,183.71836403044978L825.9395454545454,178.06641814132283L826.7763636363636,167.8595472158179L827.6131818181818,179.40263075716408L828.45,169.69293991975252L829.2868181818181,179.8940109267966L830.1236363636364,185.9420090112171L830.9604545454546,182.33445599037896L831.7972727272728,183.21335765337045L832.6340909090909,170.1429615295833L833.470909090909,172.27017633181245L834.3077272727273,181.63538928068536L835.1445454545454,181.46548602126154L835.9813636363637,186.22813137258356L836.8181818181818,186.7031754010038L837.655,186.69981070477465L838.4918181818182,178.63255589079083L839.3286363636364,186.81398702187073L840.1654545454545,189.261607793109L841.0022727272727,183.093787853203L841.8390909090909,178.5763542320024L842.675909090909,171.5582380572373L843.5127272727273,168.45907403704015L844.3495454545455,170.0474596123486L845.1863636363637,159.39420261982616L846.0231818181818,172.72975067498402L846.86,166.66071140886618L847.6968181818181,179.06968925071521L848.5336363636364,178.4757230619953L849.3704545454545,182.08205954673082L850.2072727272727,181.37618961597792L851.0440909090909,187.96566661992856L851.8809090909091,177.24013100146766L852.7177272727273,173.2811520223589L853.5545454545454,166.84720645694557L854.3913636363636,160.20822078197372L855.2281818181818,157.6216817749093L856.065,158.636072781834L856.9018181818182,159.60290717312873L857.7386363636364,149.6715963317703L858.5754545454546,154.21531121931974L859.4122727272727,149.1997407972962L860.2490909090909,165.25534023643434L861.085909090909,160.42372263551295L861.9227272727273,167.3280492131742L862.7595454545454,172.53543321519092L863.5963636363637,163.40814995902176L864.4331818181818,175.34417452894093L865.27,184.84589089442753L866.1068181818182,169.62965491705813L866.9436363636363,180.12184640940237L867.7804545454545,184.18417294726495L868.6172727272727,173.79598693791462L869.454090909091,181.6232355877366L870.290909090909,177.6066283491019L871.1277272727273,170.4446213309028L871.9645454545455,175.18951793098793L872.8013636363637,172.08704936256615L873.6381818181818,176.35161430687074L874.4749999999999,176.36813754469375L875.3118181818182,166.93035861629377L876.1486363636363,169.64054444300015L876.9854545454546,165.99042636672783L877.8222727272727,162.0595366389759L878.659090909091,180.47537681050343L879.4959090909091,177.78842766634972L880.3327272727273,182.1298343631765L881.1695454545454,185.09538356620916L882.0063636363636,186.88668131922987L882.8431818181818,182.40059437808577L883.68,171.08624018703213L884.5168181818182,171.1803339330811L885.3536363636364,165.49274816563477L886.1904545454546,170.99571184188576L887.0272727272727,161.6016300432113L887.8640909090909,179.81957206202912L888.7009090909091,172.77594056769232L889.5377272727272,170.3548917713405L890.3745454545455,160.23835658685215L891.2113636363636,164.77491988930615L892.0481818181819,160.50524791594447L892.885,167.8732914955384" fill="none"></path></g></g></g></g><g opacity="0.2"><g><g><g><path style="fill: none;" stroke="rgb(51, 187, 238)" stroke-width="2px" d="M84.51863636363636,340.7957157790661L85.35545454545455,337.8429400026798L86.19227272727274,342.3797086626291L87.02909090909091,341.6208448112011L87.8659090909091,343.3487957417965L88.70272727272727,345.8341642264277L89.53954545454546,346.5355773133342L90.37636363636364,346.99824534449726L91.21318181818182,345.14399075880647L92.05000000000001,345.7271442627534L92.88681818181819,345.82545147277415L93.72363636363637,345.0552762262523L94.56045454545455,342.0060792937875L95.39727272727274,339.16750855743885L96.23409090909091,335.38401617109776L97.07090909090908,342.97929298505187L97.90772727272727,338.7944767177105L98.74454545454545,333.4904112070799L99.58136363636363,335.1088110655546L100.41818181818181,319.4690220952034L101.255,329.6713815629482L102.09181818181818,325.29363825917244L102.92863636363636,316.55979976058006L103.76545454545455,286.5210058093071L104.60227272727272,314.3252812027931L105.43909090909091,292.0801801085472L106.27590909090908,308.28156477212906L107.11272727272727,288.29190373420715L107.94954545454546,264.017452955246L108.78636363636363,240.14811658859253L109.62318181818182,261.1063474416733L110.46,224.68419456481934L111.29681818181818,272.6288115978241L112.13363636363636,207.78594732284546L112.97045454545454,253.72727501392365L113.80727272727273,211.998920917511L114.6440909090909,188.981915473938L115.4809090909091,167.00597190856934L116.31772727272728,181.31560850143433L117.15454545454544,164.3233938217163L117.99136363636363,230.33066725730896L118.82818181818182,152.0302119255066L119.665,187.15730094909668L120.5018181818182,146.9400336742401L121.33863636363635,131.51309180259705L122.17545454545454,124.45574069023132L123.01227272727273,164.66363525390625L123.84909090909092,102.08726978302002L124.6859090909091,126.00093126296997L125.52272727272727,96.96590924263L126.35954545454545,82.63823318481445L127.19636363636364,147.7339653968811L128.03318181818182,91.83148097991943L128.87,80.57112979888916L129.70681818181816,89.75695753097534L130.54363636363635,81.04078674316406L131.38045454545454,99.30295872688293L132.21727272727273,74.87693738937378L133.0540909090909,102.05730414390564L133.89090909090908,63.24308967590332L134.72772727272726,80.8882999420166L135.56454545454545,88.82254028320312L136.40136363636364,100.5486581325531L137.2381818181818,77.81396055221558L138.075,78.01721620559692L138.91181818181818,64.3760461807251L139.74863636363636,71.41552305221558L140.58545454545455,59.312288761138916L141.4222727272727,73.76903486251831L142.2590909090909,62.33180379867554L143.0959090909091,63.53926134109497L143.93272727272728,67.44584941864014L144.76954545454547,73.94831800460815L145.60636363636362,70.00817441940308L146.4431818181818,73.48533010482788L147.28,74.7063660621643L148.1168181818182,53.887171268463135L148.95363636363635,53.37728977203369L149.79045454545454,67.78552007675171L150.62727272727273,61.02277851104736L151.4640909090909,62.10133123397827L152.3009090909091,53.157902240753174L153.13772727272726,50.23632001876831L153.97454545454545,49.12376117706299L154.81136363636364,56.59113836288452L155.64818181818183,60.684099197387695L156.485,56.14100790023804L157.32181818181817,51.876304149627686L158.15863636363636,56.23043918609619L158.99545454545455,57.2007851600647L159.83227272727274,50.460604190826416L160.66909090909093,53.97077465057373L161.50590909090909,61.47936773300171L162.34272727272727,50.30147838592529L163.17954545454546,57.51576232910156L164.01636363636365,53.689743518829346L164.8531818181818,48.32753133773804L165.69,58.460904121398926L166.5268181818182,48.804728507995605L167.36363636363637,55.257930278778076L168.20045454545456,58.20705986022949L169.03727272727272,49.32972049713135L169.8740909090909,50.284955978393555L170.7109090909091,49.095943450927734L171.5477272727273,51.74277305603027L172.38454545454547,53.444400787353516L173.22136363636363,53.152074337005615L174.05818181818182,51.30925512313843L174.895,54.07621765136719L175.7318181818182,55.12163543701172L176.56863636363636,50.45309400558472L177.40545454545455,53.56780815124512L178.24227272727273,58.474422454833984L179.07909090909092,57.17377853393555L179.9159090909091,51.6265754699707L180.75272727272727,50.17404556274414L181.58954545454546,49.353753089904785L182.42636363636365,51.968138694763184L183.26318181818183,53.59805917739868L184.10000000000002,50.57614088058472L184.93681818181818,49.31977701187134L185.77363636363637,49.76891613006592L186.61045454545456,49.64508819580078L187.44727272727275,53.225013256073L188.2840909090909,54.05206489562988L189.1209090909091,51.94897270202637L189.95772727272728,50.07070541381836L190.79454545454547,49.08491849899292L191.63136363636363,53.782779693603516L192.46818181818182,54.056721210479736L193.305,50.31400537490845L194.14181818181817,50.581608295440674L194.97863636363635,47.98581790924072L195.81545454545454,49.7268590927124L196.6522727272727,52.384353160858154L197.4890909090909,48.214728355407715L198.32590909090908,49.52098989486694L199.16272727272727,49.19171333312988L199.99954545454545,48.478726387023926L200.83636363636361,47.878211975097656L201.6731818181818,52.49325084686279L202.51,47.8958158493042L203.34681818181818,50.34521770477295L204.18363636363637,49.76095533370972L205.02045454545453,48.99320411682129L205.85727272727271,49.971150398254395L206.6940909090909,50.719645500183105L207.5309090909091,52.24186992645264L208.36772727272725,49.20466089248657L209.20454545454544,48.97941541671753L210.04136363636363,50.94263792037964L210.87818181818182,51.0566725730896L211.715,46.636598110198975L212.55181818181816,49.31794452667236L213.38863636363635,49.54718542098999L214.22545454545454,62.029173374176025L215.06227272727273,49.790515422821045L215.89909090909092,48.42819786071777L216.73590909090908,50.4571795463562L217.57272727272726,54.098177433013916L218.40954545454545,47.024574279785156L219.24636363636364,52.224806785583496L220.08318181818183,54.40807771682739L220.92,57.55358362197876L221.75681818181818,50.06166315078735L222.59363636363636,47.12178611755371L223.43045454545455,51.555198669433594L224.2672727272727,50.55030584335327L225.1040909090909,53.788517475128174L225.9409090909091,56.45676612854004L226.77772727272728,52.874648094177246L227.61454545454546,46.912312030792236L228.45136363636362,52.92694902420044L229.2881818181818,49.89448642730713L230.125,51.681339740753174L230.9618181818182,55.82182502746582L231.79863636363638,49.31638240814209L232.63545454545456,50.44014644622803L233.47227272727275,49.64493799209595L234.30909090909088,65.94585514068604L235.14590909090907,54.71215009689331L235.98272727272726,53.56816864013672L236.81954545454545,58.99589967727661L237.65636363636364,54.793049812316895L238.49318181818182,50.802648067474365L239.33,51.29985237121582L240.1668181818182,53.30771541595459L241.0036363636364,50.44828748703003L241.84045454545458,48.66609048843384L242.6772727272727,50.981300354003906L243.5140909090909,48.17916011810303L244.35090909090908,50.17692947387695L245.18772727272727,47.9263973236084L246.02454545454546,56.6247239112854L246.86136363636365,49.210729122161865L247.69818181818184,57.28769302368164L248.53500000000003,50.2263765335083L249.3718181818182,55.87238359451294L250.20863636363634,55.77523183822632L251.04545454545453,48.594743728637695L251.88227272727272,49.07037878036499L252.7190909090909,54.1716570854187L253.5559090909091,52.65474987030029L254.39272727272729,49.24948167800903L255.22954545454547,49.629106521606445L256.06636363636363,47.58952045440674L256.90318181818185,48.61682367324829L257.74,54.03443098068237L258.57681818181817,53.220717430114746L259.41363636363633,52.402437686920166L260.25045454545455,51.113539695739746L261.0872727272727,48.54733943939209L261.9240909090909,53.29119300842285L262.7609090909091,54.591866970062256L263.5977272727273,51.254520893096924L264.43454545454546,51.663705825805664L265.2713636363637,47.87304496765137L266.1081818181818,48.33456087112427L266.945,51.81649303436279L267.78181818181815,47.777875900268555L268.61863636363637,49.757140159606934L269.45545454545453,47.80614423751831L270.29227272727275,51.534740924835205L271.1290909090909,54.78935480117798L271.9659090909091,54.952025413513184L272.8027272727273,47.78802967071533L273.6395454545455,48.12283372879028L274.4763636363636,49.75161266326904L275.3131818181818,51.20074796676636L276.15,56.17612552642822L276.9868181818182,50.588727951049805L277.82363636363635,49.57980966567993L278.66045454545457,48.926573753356934L279.49727272727273,48.62580585479736L280.33409090909095,53.93076038360596L281.1709090909091,48.625325202941895L282.00772727272727,48.529765605926514L282.8445454545454,49.94080924987793L283.68136363636364,51.74736928939819L284.5181818181818,48.34486484527588L285.355,55.62325572967529L286.1918181818182,56.162126541137695L287.0286363636364,57.44871139526367L287.86545454545455,52.572468280792236L288.70227272727277,55.79770231246948L289.53909090909093,56.14428234100342L290.3759090909091,55.902244091033936L291.21272727272725,57.25185441970825L292.04954545454547,57.15085744857788L292.8863636363636,56.1859188079834L293.72318181818184,53.752498626708984L294.56,52.323190212249756L295.3968181818182,51.05444955825806L296.2336363636364,51.102965354919434L297.0704545454546,48.181142807006836L297.9072727272727,48.198326110839844L298.7440909090909,52.01350021362305L299.5809090909091,50.97880697250366L300.4177272727273,50.25815963745117L301.25454545454545,49.29604482650757L302.09136363636367,50.197627544403076L302.9281818181818,49.76056480407715L303.765,47.19103002548218L304.6018181818182,50.9880895614624L305.43863636363636,47.2736120223999L306.2754545454545,47.49756574630737L307.11227272727274,56.219053745269775L307.9490909090909,53.655527114868164L308.78590909090906,50.52065563201904L309.6227272727273,47.80034637451172L310.45954545454543,49.903889179229736L311.29636363636365,54.61022186279297L312.1331818181818,54.335379123687744L312.97,50.52873659133911L313.8068181818182,48.966407775878906L314.64363636363635,52.199692726135254L315.4804545454545,48.24711227416992L316.3172727272727,55.272469997406006L317.1540909090909,51.634446144104004L317.9909090909091,47.62379693984985L318.82772727272726,51.104347229003906L319.6645454545455,51.99199104309082L320.50136363636364,53.26670980453491L321.33818181818185,48.19589281082153L322.17499999999995,52.16193151473999L323.01181818181817,54.29188013076782L323.84863636363633,49.40034627914429L324.68545454545455,51.12558603286743L325.5222727272727,48.50699472427368L326.3590909090909,49.16110181808472L327.1959090909091,48.65966176986694L328.0327272727273,52.34436893463135L328.86954545454546,55.12070417404175L329.7063636363636,52.86149024963379L330.5431818181818,61.881192684173584L331.38,50.90163230895996L332.21681818181816,54.733208656311035L333.0536363636364,48.96908140182495L333.89045454545453,49.52843999862671L334.72727272727275,51.37086868286133L335.5640909090909,50.040724754333496L336.4009090909091,51.54462432861328L337.2377272727273,52.9100661277771L338.07454545454544,54.67775344848633L338.9113636363636,47.62103319168091L339.7481818181818,54.432861328125L340.585,49.28195571899414L341.4218181818182,54.60496473312378L342.25863636363636,54.201637744903564L343.0954545454546,50.854137897491455L343.93227272727273,49.64737129211426L344.76909090909095,48.39746618270874L345.60590909090905,48.709829807281494L346.44272727272727,50.66286849975586L347.2795454545454,49.4185209274292L348.11636363636364,48.483623027801514L348.9531818181818,49.659297466278076L349.79,52.52338171005249L350.6268181818182,54.552303314208984L351.4636363636364,56.12388467788696L352.30045454545456,50.09374666213989L353.1372727272727,50.40562963485718L353.9740909090909,46.7046103477478L354.8109090909091,49.95823287963867L355.64772727272725,52.19383478164673L356.48454545454547,49.85200881958008L357.3213636363636,49.45781421661377L358.15818181818184,48.99434566497803L358.995,49.56433868408203L359.8318181818182,46.15852975845337L360.6686363636364,45.60959529876709L361.50545454545454,47.168739795684814L362.3422727272727,49.81139373779297L363.1790909090909,50.48625898361206L364.0159090909091,48.149720191955566L364.8527272727273,47.55187940597534L365.68954545454545,51.02882480621338L366.52636363636367,47.7273473739624L367.36318181818183,47.94820690155029L368.20000000000005,53.92640447616577L369.03681818181815,49.73013353347778L369.87363636363636,55.04313898086548L370.7104545454545,47.363523960113525L371.54727272727274,50.276244163513184L372.3840909090909,50.64709711074829L373.2209090909091,51.213244915008545L374.0577272727273,51.57322311401367L374.8945454545455,52.36275386810303L375.73136363636365,48.14854860305786L376.5681818181818,47.96983623504639L377.405,48.2798867225647L378.2418181818182,51.56946802139282L379.07863636363635,47.6264705657959L379.91545454545457,48.77390670776367L380.7522727272727,51.10095262527466L381.58909090909094,48.10333728790283L382.4259090909091,48.66221523284912L383.26272727272726,48.62105941772461L384.0995454545455,48.947391986846924L384.93636363636364,48.65386390686035L385.7731818181818,52.835084438323975L386.61,49.672725677490234L387.4468181818182,49.98367738723755L388.28363636363633,47.31732130050659L389.12045454545455,47.582130432128906L389.9572727272727,47.56134223937988L390.7940909090909,52.309401512145996L391.6309090909091,48.87934970855713L392.4677272727273,52.00493860244751L393.3045454545454,57.06268787384033L394.1413636363636,50.28573703765869L394.9781818181818,52.229042530059814L395.815,46.68033742904663L396.65181818181816,52.40745449066162L397.4886363636364,48.33179712295532L398.32545454545453,50.439034938812256L399.16227272727275,48.05178737640381L399.9990909090909,52.96053457260132L400.83590909090907,50.79682016372681L401.67272727272723,50.21937704086304L402.50954545454545,55.80878734588623L403.3463636363636,49.27796030044556L404.1831818181818,48.93928098678589L405.02,47.5344557762146L405.8568181818182,55.41516351699829L406.69363636363636,51.24280500411987L407.5304545454546,53.153666496276855L408.36727272727273,54.733208656311035L409.2040909090909,51.054659843444824L410.04090909090905,51.801833152770996L410.87772727272727,50.49806499481201L411.71454545454543,48.489150524139404L412.55136363636365,46.874160289764404L413.3881818181818,18.730552196502686L414.225,17.10904312133789L415.0618181818182,35.58968639373779L415.8986363636364,32.419607162475586L416.7354545454545,38.994834423065186L417.5722727272727,37.613200664520264L418.4090909090909,46.06804704666138L419.2459090909091,54.48128700256348L420.08272727272725,54.49826002120972L420.91954545454547,61.376327991485596L421.75636363636363,58.34260368347168L422.59318181818185,69.76009798049927L423.43,75.30525827407837L424.2668181818182,68.13351202011108L425.1036363636363,75.26554441452026L425.94045454545454,82.4737901687622L426.7772727272727,83.27356481552124L427.6140909090909,83.46630620956421L428.4509090909091,88.48392105102539L429.2877272727273,92.49129581451416L430.12454545454545,95.18895435333252L430.96136363636367,95.35936045646667L431.79818181818183,92.38299894332886L432.635,99.03863024711609L433.47181818181815,100.21817994117737L434.30863636363637,93.09883975982666L435.1454545454545,91.0308952331543L435.98227272727274,92.07177686691284L436.8190909090909,98.16249203681946L437.6559090909091,102.58463931083679L438.4927272727273,85.82450437545776L439.3295454545455,88.30668067932129L440.16636363636366,97.94109177589417L441.0031818181818,84.05852937698364L441.84,80.26180028915405L442.6768181818182,85.54593658447266L443.51363636363635,89.31659030914307L444.35045454545457,86.86694812774658L445.1872727272727,80.03180837631226L446.02409090909094,84.95073938369751L446.8609090909091,82.71543788909912L447.6977272727273,83.50511884689331L448.5345454545454,80.71030855178833L449.37136363636364,84.92361259460449L450.2081818181818,72.49720001220703L451.045,96.8445897102356L451.8818181818182,82.94801330566406L452.7186363636364,85.37133979797363L453.55545454545455,78.41540622711182L454.39227272727277,83.51683473587036L455.2290909090909,85.44217586517334L456.0659090909091,86.55833959579468L456.90272727272725,79.59351396560669L457.73954545454546,80.55088233947754L458.5763636363636,78.67177391052246L459.41318181818184,80.35336446762085L460.25,79.32591104507446L461.08681818181816,79.02412176132202L461.9236363636364,80.0809850692749L462.76045454545454,75.81730270385742L463.59727272727275,76.20858335494995L464.4340909090909,79.36823844909668L465.27090909090913,75.63459491729736L466.10772727272723,72.25843620300293L466.9445454545455,77.9795150756836L467.7813636363636,76.2963924407959L468.61818181818177,75.70371866226196L470.29181818181814,155.03267884254456L471.12863636363636,160.0331254005432L471.9654545454545,174.61484098434448L472.80227272727274,181.04479122161865L473.6390909090909,179.02339482307434L474.4759090909091,177.8382124900818L475.3127272727273,172.10526752471924L476.1495454545454,182.77929854393005L476.98636363636365,191.50538277626038L477.82318181818175,170.95470714569092L478.66,203.74452137947083L479.4968181818181,193.49481582641602L480.3336363636364,173.4501314163208L481.1704545454545,196.63428354263306L482.0072727272728,198.97671031951904L482.8440909090909,199.9378638267517L483.68090909090915,168.75240540504456L484.51772727272726,182.2032973766327L485.3545454545454,211.4999442100525L486.19136363636363,183.5697305202484L487.0281818181818,207.1252462863922L487.865,266.52440536022186L488.70181818181817,246.29223668575287L489.5386363636364,253.57287311553955L490.37545454545455,267.45381331443787L491.21227272727276,266.11497259140015L492.0490909090909,233.7393375635147L492.885909090909,264.01431369781494L493.7227272727273,246.88126802444458L494.5595454545454,247.93949818611145L495.3963636363637,249.47828257083893L496.2331818181818,260.7729252576828L497.07000000000005,183.49522948265076L497.90681818181815,249.50013720989227L498.7436363636364,196.28097438812256L499.58045454545453,271.2558295726776L500.4172727272727,203.83088850975037L501.2540909090909,183.5228819847107L502.09090909090907,185.1361448764801L502.9277272727273,202.35775065422058L503.76454545454544,194.77621865272522L504.60136363636366,180.40340638160706L505.4381818181818,184.19445776939392L506.27500000000003,248.06663060188293L507.1118181818182,218.00525164604187L507.9486363636363,209.89387607574463L508.78545454545457,164.217365026474L509.6222727272727,177.64116024971008L510.45909090909095,148.84051609039307L511.29590909090905,211.21659994125366L512.1327272727273,170.6910696029663L512.9695454545455,165.94314551353455L513.8063636363637,169.2942352294922L514.6431818181818,205.8087408542633L515.48,143.86064743995667L516.3168181818182,131.92799949645996L517.1536363636363,165.5111746788025L517.9904545454546,155.1913239955902L518.8272727272727,159.3528528213501L519.664090909091,154.08049249649048L520.5009090909091,126.15148043632507L521.3377272727273,194.13834857940674L522.1745454545454,163.76754999160767L523.0113636363636,136.62632632255554L523.8481818181818,128.7904393672943L524.685,177.60536670684814L525.5218181818182,164.14248847961426L526.3586363636364,139.5459108352661L527.1954545454546,136.4243323802948L528.0322727272727,133.45489525794983L528.8690909090909,154.49607610702515L529.7059090909091,139.8711769580841L530.5427272727273,116.14860463142395L531.3795454545455,135.02147483825684L532.2163636363636,111.64767551422119L533.0531818181819,128.36970376968384L533.89,141.82520699501038L534.7268181818182,160.1128385066986L535.5636363636363,123.36734962463379L536.4004545454545,134.69374537467957L537.2372727272727,127.01808071136475L538.074090909091,140.72902035713196L538.9109090909091,111.13788414001465L539.7477272727273,108.26785182952881L540.5845454545455,144.92239236831665L541.4213636363636,106.45813751220703L542.2581818181818,125.22092342376709L543.095,104.81231045722961L543.9318181818182,103.93267250061035L544.7686363636363,126.21672892570496L545.6054545454546,104.7990174293518L546.4422727272727,106.80545353889465L547.279090909091,105.80906224250793L548.1159090909091,116.96910738945007L548.9527272727272,105.6101324558258L549.7895454545454,117.86308979988098L550.6263636363636,98.9851427078247L551.4631818181819,109.26087856292725L552.3,118.6936411857605L553.1368181818182,125.67966055870056L553.9736363636364,141.6143660545349L554.8104545454546,115.4944224357605L555.6472727272727,112.74958491325378L556.4840909090908,109.45052576065063L557.3209090909091,107.36029100418091L558.1577272727272,98.3743543624878L558.9945454545455,109.51620984077454L559.8313636363636,104.297607421875L560.6681818181819,106.64931678771973L561.505,107.03816413879395L562.3418181818182,131.84478664398193L563.1786363636363,157.2203507423401L564.0154545454545,127.32488679885864L564.8522727272727,124.6240439414978L565.6890909090909,109.46673274040222L566.5259090909091,146.55558729171753L567.3627272727273,117.94394445419312L568.1995454545455,114.0120620727539L569.0363636363636,110.37339234352112L569.8731818181818,121.44304490089417L570.71,126.21687912940979L571.5468181818181,109.17318964004517L572.3836363636364,157.44107508659363L573.2204545454545,110.36706876754761L574.0572727272728,112.83003401756287L574.8940909090909,109.08808422088623L575.7309090909091,122.17492747306824L576.5677272727272,112.54891276359558L577.4045454545455,108.13517689704895L578.2413636363636,119.55887460708618L579.0781818181819,110.09961605072021L579.915,115.17636609077454L580.7518181818182,121.81164479255676L581.5886363636364,113.23662042617798L582.4254545454545,129.18561029434204L583.2622727272727,121.50737714767456L584.0990909090909,129.51167249679565L584.9359090909091,107.13259720802307L585.7727272727273,124.4363944530487L586.6095454545455,110.63808131217957L587.4463636363637,112.62239241600037L588.2831818181818,108.16018581390381L589.12,101.9028046131134L589.9568181818181,111.01190829277039L590.7936363636364,112.84573030471802L591.6304545454545,114.99122500419617L592.4672727272728,107.48051404953003L593.3040909090909,109.00874662399292L594.1409090909092,104.00391411781311L594.9777272727273,100.47653031349182L595.8145454545454,111.94790267944336L596.6513636363636,104.32296180725098L597.4881818181818,101.21377515792847L598.325,88.30424737930298L599.1618181818181,106.3979058265686L599.9986363636364,100.88846397399902L600.8354545454546,113.00138640403748L601.6722727272728,119.1973192691803L602.5090909090909,104.68477249145508L603.345909090909,114.80542302131653L604.1827272727273,126.13799214363098L605.0195454545454,112.79152178764343L605.8563636363637,107.68431043624878L606.6931818181818,99.37427544593811L607.53,111.68603754043579L608.3668181818182,95.66899037361145L609.2036363636364,109.60594153404236L610.0404545454545,105.80327939987183L610.8772727272727,102.3978009223938L611.7140909090909,101.72298073768616L612.550909090909,103.09208750724792L613.3877272727273,106.80444717407227L614.2245454545455,130.07640838623047L615.0613636363637,129.17455530166626L615.8981818181818,106.55010724067688L616.735,96.44153308868408L617.5718181818181,109.09505367279053L618.4086363636364,110.18174743652344L619.2454545454545,93.10941410064697L620.0822727272727,107.95668983459473L620.9190909090909,108.28076934814453L621.7559090909091,111.92654371261597L622.5927272727273,106.50327372550964L623.4295454545454,119.28726124763489L624.2663636363636,103.79244232177734L625.1031818181818,112.7497501373291L625.94,113.73161673545837L626.7768181818182,110.34887909889221L627.6136363636364,104.90196704864502L628.4504545454546,109.42773985862732L629.2872727272727,103.73118925094604L630.1240909090909,98.37641215324402L630.960909090909,119.98540806770325L631.7977272727273,97.3044683933258L632.6345454545454,104.24410486221313L633.4713636363637,110.69060754776001L634.3081818181818,105.68962025642395L635.145,104.79191279411316L635.9818181818182,129.4282193183899L636.8186363636363,123.71583724021912L637.6554545454545,106.27443838119507L638.4922727272727,108.19444727897644L639.329090909091,107.36596870422363L640.165909090909,117.83796072006226L641.0027272727273,101.72699117660522L641.8395454545455,177.84758520126343L642.6763636363637,161.1170403957367L643.5131818181818,181.6292188167572L644.3499999999999,152.6367495059967L645.1868181818182,182.74819135665894L646.0236363636363,163.07512593269348L646.8604545454546,156.8116614818573L647.6972727272727,175.41242265701294L648.534090909091,160.04889678955078L649.3709090909091,168.13128304481506L650.2077272727273,162.61994862556458L651.0445454545454,176.06734085083008L651.8813636363636,182.83122396469116L652.7181818181818,181.12082433700562L653.555,153.42483830451965L654.3918181818182,169.40547609329224L655.2286363636364,158.66684246063232L656.0654545454546,166.14851903915405L656.9022727272727,171.63918542861938L657.7390909090909,160.22975707054138L658.5759090909091,138.79773116111755L659.4127272727272,161.92530155181885L660.2495454545455,148.9637131690979L661.0863636363636,175.2908477783203L661.9231818181819,146.23996424674988L662.76,178.9954719543457L663.5968181818182,156.93418264389038L664.4336363636363,134.79498267173767L665.2704545454546,167.03964757919312L666.1072727272727,136.79034876823425L666.9440909090908,173.58788323402405L667.7809090909091,147.4249963760376L668.6177272727273,129.93263339996338L669.4545454545455,163.090026140213L670.2913636363636,147.25305819511414L671.1281818181818,156.42626881599426L671.965,162.27776956558228L672.8018181818182,132.49602484703064L673.6386363636364,124.5969922542572L674.4754545454546,127.01881670951843L675.3122727272728,143.62227416038513L676.1490909090909,136.04581904411316L676.9859090909091,132.3728277683258L677.8227272727272,135.75166010856628L678.6595454545455,138.56502056121826L679.4963636363636,162.35534977912903L680.3331818181819,136.535888671875L681.17,145.10681247711182L682.0068181818182,151.9021782875061L682.8436363636364,138.80704379081726L683.6804545454545,145.4999556541443L684.5172727272727,161.1744933128357L685.3540909090909,138.1790120601654L686.1909090909091,143.19133973121643L687.0277272727272,142.12137866020203L687.8645454545455,136.28306579589844L688.7013636363637,131.5925796031952L689.5381818181819,134.59376978874207L690.375,138.8167769908905L691.2118181818181,129.49186062812805L692.0486363636363,142.71689128875732L692.8854545454545,131.81483602523804L693.7222727272728,125.58042097091675L694.5590909090909,111.28846335411072L695.3959090909091,126.99682688713074L696.2327272727273,118.58247542381287L697.0695454545455,138.16025161743164L697.9063636363636,134.72234416007996L698.7431818181818,123.92860078811646L699.58,125.96895289421082L700.4168181818181,131.67058038711548L701.2536363636364,131.39504671096802L702.0904545454545,118.1396598815918L702.9272727272728,127.95384979248047L703.7640909090909,121.50638580322266L704.6009090909091,141.3901720046997L705.4377272727272,124.96655344963074L706.2745454545454,150.67698168754578L707.1113636363636,137.06250286102295L707.9481818181818,152.2649052143097L708.785,130.95269680023193L709.6218181818182,138.7814040184021L710.4586363636364,136.86977648735046L711.2954545454545,162.83528065681458L712.1322727272727,131.35114216804504L712.9690909090909,120.26256394386292L713.8059090909092,150.6915214061737L714.6427272727273,130.93450713157654L715.4795454545454,147.29287719726562L716.3163636363637,153.42964482307434L717.1531818181818,145.10675239562988L717.99,138.53787875175476L718.8268181818181,147.544047832489L719.6636363636364,135.84938263893127L720.5004545454545,130.46836495399475L721.3372727272728,160.822265625L722.1740909090909,150.15017223358154L723.0109090909091,128.79264736175537L723.8477272727273,153.8792495727539L724.6845454545454,133.90200662612915L725.5213636363636,137.74891877174377L726.3581818181818,250.8019151687622L727.195,243.0414755344391L728.0318181818182,249.6992847919464L728.8686363636364,244.40980875492096L729.7054545454546,250.96734201908112L730.5422727272727,238.34484601020813L731.3790909090909,257.45284509658813L732.215909090909,252.91349387168884L733.0527272727273,241.81314718723297L733.8895454545454,265.5986773967743L734.7263636363637,230.17458307743073L735.5631818181818,265.9668867588043L736.4000000000001,238.6065158843994L737.2368181818182,254.8725106716156L738.0736363636363,249.7247142791748L738.9104545454545,244.04608297348022L739.7472727272727,262.34082663059235L740.584090909091,261.8977632522583L741.420909090909,265.96980822086334L742.2577272727273,239.66714930534363L743.0945454545455,262.21805012226105L743.9313636363637,252.055650472641L744.7681818181818,275.010884642601L745.605,234.59665524959564L746.4418181818182,256.91894602775574L747.2786363636363,258.9376537799835L748.1154545454546,221.66968882083893L748.9522727272727,237.90750539302826L749.789090909091,243.30053186416626L750.6259090909091,204.39609003067017L751.4627272727273,227.30180203914642L752.2995454545454,229.35761761665344L753.1363636363636,236.69403970241547L753.9731818181818,272.1592673063278L754.81,260.70353865623474L755.6468181818182,225.19392585754395L756.4836363636364,192.43757700920105L757.3204545454546,207.08919739723206L758.1572727272727,189.19583559036255L758.9940909090909,212.200208902359L759.8309090909091,206.00004029273987L760.6677272727273,208.82624316215515L761.5045454545455,227.51311612129211L762.3413636363636,246.45853471755981L763.1781818181819,193.13806700706482L764.015,195.84029173851013L764.8518181818182,143.61368250846863L765.6886363636363,173.0095088481903L766.5254545454545,180.10106134414673L767.3622727272727,158.4724338054657L768.199090909091,166.80133438110352L769.0359090909091,222.5273745059967L769.8727272727273,166.1924386024475L770.7095454545455,141.1174020767212L771.5463636363636,167.99148845672607L772.3831818181818,175.50234961509705L773.22,158.13336396217346L774.0568181818182,120.67700600624084L774.8936363636363,164.35092616081238L775.7304545454546,132.5317132472992L776.5672727272727,150.44273900985718L777.404090909091,185.9604778289795L778.2409090909091,155.668776512146L779.0777272727272,141.8800163269043L779.9145454545454,130.74433422088623L780.7513636363636,191.8582262992859L781.5881818181819,162.94659662246704L782.425,133.52107501029968L783.2618181818182,126.99855422973633L784.0986363636364,134.63351368904114L784.9354545454546,136.00358176231384L785.7722727272727,147.26110911369324L786.6090909090908,155.04075980186462L787.4459090909091,148.23654699325562L788.2827272727272,172.2799093723297L789.1195454545455,166.38910031318665L789.9563636363636,128.71361017227173L790.7931818181819,158.88704109191895L791.63,152.6915738582611L792.4668181818182,175.3445906639099L793.3036363636363,172.40370726585388L794.1404545454545,200.5083224773407L794.9772727272727,190.110591173172L795.8140909090909,181.19609141349792L796.6509090909091,195.71515703201294L797.4877272727273,192.35427403450012L798.3245454545455,193.4517674446106L799.1613636363636,203.16814470291138L799.9981818181818,138.09791707992554L800.835,178.4644718170166L801.6718181818181,152.34652590751648L802.5086363636364,158.28724765777588L803.3454545454545,146.94006371498108L804.1822727272728,175.78483772277832L805.0190909090909,160.35498189926147L805.8559090909091,139.34698104858398L806.6927272727272,148.99448990821838L807.5295454545455,133.79976296424866L808.3663636363636,155.99153423309326L809.2031818181819,146.56820440292358L810.04,170.089684009552L810.8768181818182,127.64180159568787L811.7136363636364,164.7500925064087L812.5504545454545,144.6776053905487L813.3872727272727,159.18028378486633L814.2240909090909,173.6590347290039L815.0609090909091,145.22684025764465L815.8977272727273,146.57694625854492L816.7345454545455,176.71734738349915L817.5713636363637,181.4198648929596L818.4081818181818,185.0988793373108L819.245,195.88359546661377L820.0818181818181,187.79234719276428L820.9186363636364,205.39533519744873L821.7554545454545,189.64524507522583L822.5922727272728,195.83291673660278L823.4290909090909,194.6320230960846L824.2659090909092,158.94386315345764L825.1027272727273,189.38627886772156L825.9395454545454,169.58849930763245L826.7763636363636,152.54924082756042L827.6131818181818,196.71725606918335L828.45,155.12840366363525L829.2868181818181,195.19561743736267L830.1236363636364,195.0140061378479L830.9604545454546,176.9231264591217L831.7972727272728,184.53171014785767L832.6340909090909,150.5373673439026L833.470909090909,175.46099853515625L834.3077272727273,195.68320870399475L835.1445454545454,181.21063113212585L835.9813636363637,193.37209939956665L836.8181818181818,187.41574144363403L837.655,186.6947636604309L838.4918181818182,166.53167366981506L839.3286363636364,199.0861337184906L840.1654545454545,192.93303894996643L841.0022727272727,173.84205794334412L841.8390909090909,171.80020380020142L842.675909090909,161.03106379508972L843.5127272727273,163.81032800674438L844.3495454545455,172.43003797531128L845.1863636363637,143.41431713104248L846.0231818181818,192.73307275772095L846.86,157.55715250968933L847.6968181818181,197.68315601348877L848.5336363636364,177.5847737789154L849.3704545454545,187.49156427383423L850.2072727272727,180.31738471984863L851.0440909090909,197.8498821258545L851.8809090909091,161.15182757377625L852.7177272727273,167.34268355369568L853.5545454545454,157.19628810882568L854.3913636363636,150.249742269516L855.2281818181818,153.74187326431274L856.065,160.15765929222107L856.9018181818182,161.0531587600708L857.7386363636364,134.77463006973267L858.5754545454546,161.03088355064392L859.4122727272727,141.67638516426086L860.2490909090909,189.3387393951416L861.085909090909,153.17629623413086L861.9227272727273,177.68453907966614L862.7595454545454,180.34650921821594L863.5963636363637,149.71722507476807L864.4331818181818,193.24821138381958L865.27,199.09846544265747L866.1068181818182,146.80530095100403L866.9436363636363,195.8601336479187L867.7804545454545,190.27766275405884L868.6172727272727,158.21370792388916L869.454090909091,193.36410856246948L870.290909090909,171.5817174911499L871.1277272727273,159.70161080360413L871.9645454545455,182.30686283111572L872.8013636363637,167.43334650993347L873.6381818181818,182.74846172332764L874.4749999999999,176.39292240142822L875.3118181818182,152.77369022369385L876.1486363636363,173.7058231830597L876.9854545454546,160.51524925231934L877.8222727272727,156.16320204734802L878.659090909091,208.0991370677948L879.4959090909091,173.75800395011902L880.3327272727273,188.64194440841675L881.1695454545454,189.54370737075806L882.0063636363636,189.573627948761L882.8431818181818,175.67146396636963L883.68,154.11470890045166L884.5168181818182,171.32147455215454L885.3536363636364,156.96136951446533L886.1904545454546,179.2501573562622L887.0272727272727,147.51050734519958L887.8640909090909,207.14648509025574L888.7009090909091,162.21049332618713L889.5377272727272,166.72331857681274L890.3745454545455,145.06355381011963L891.2113636363636,171.57976484298706L892.0481818181819,154.1007399559021L892.885,178.9253568649292" fill="none"></path></g></g></g></g></g></g><g transform="translate(30, 378)" clip-path="url(#clip_1)"><clipPath id="clip_1"><rect width="920" height="22"></rect></clipPath><g><g><line x1="0" y1="0" x2="0" y2="5" style="visibility: inherit;" fill="rgb(0, 0, 0)" stroke="rgb(204, 204, 204)" stroke-width="1px"></line><line x1="83.68181818181819" y1="0" x2="83.68181818181819" y2="5" style="visibility: inherit;" fill="rgb(0, 0, 0)" stroke="rgb(204, 204, 204)" stroke-width="1px"></line><line x1="167.36363636363637" y1="0" x2="167.36363636363637" y2="5" style="visibility: inherit;" fill="rgb(0, 0, 0)" stroke="rgb(204, 204, 204)" stroke-width="1px"></line><line x1="251.04545454545453" y1="0" x2="251.04545454545453" y2="5" style="visibility: inherit;" fill="rgb(0, 0, 0)" stroke="rgb(204, 204, 204)" stroke-width="1px"></line><line x1="334.72727272727275" y1="0" x2="334.72727272727275" y2="5" style="visibility: inherit;" fill="rgb(0, 0, 0)" stroke="rgb(204, 204, 204)" stroke-width="1px"></line><line x1="418.4090909090909" y1="0" x2="418.4090909090909" y2="5" style="visibility: inherit;" fill="rgb(0, 0, 0)" stroke="rgb(204, 204, 204)" stroke-width="1px"></line><line x1="502.09090909090907" y1="0" x2="502.09090909090907" y2="5" style="visibility: inherit;" fill="rgb(0, 0, 0)" stroke="rgb(204, 204, 204)" stroke-width="1px"></line><line x1="585.7727272727273" y1="0" x2="585.7727272727273" y2="5" style="visibility: inherit;" fill="rgb(0, 0, 0)" stroke="rgb(204, 204, 204)" stroke-width="1px"></line><line x1="669.4545454545455" y1="0" x2="669.4545454545455" y2="5" style="visibility: inherit;" fill="rgb(0, 0, 0)" stroke="rgb(204, 204, 204)" stroke-width="1px"></line><line x1="753.1363636363636" y1="0" x2="753.1363636363636" y2="5" style="visibility: inherit;" fill="rgb(0, 0, 0)" stroke="rgb(204, 204, 204)" stroke-width="1px"></line><line x1="836.8181818181818" y1="0" x2="836.8181818181818" y2="5" style="visibility: inherit;" fill="rgb(0, 0, 0)" stroke="rgb(204, 204, 204)" stroke-width="1px"></line><line x1="920.5" y1="0" x2="920.5" y2="5" style="visibility: inherit;" fill="rgb(0, 0, 0)" stroke="rgb(204, 204, 204)" stroke-width="1px"></line></g><g transform="translate(0, 8)"><text x="0" y="0" dx="0em" dy="0.95em" style="text-anchor: middle; visibility: hidden; font-family: &quot;Helvetica Neue&quot;, sans-serif; font-size: 12px; font-weight: 200;" fill="rgb(50, 49, 63)" stroke="none" stroke-width="1px">-50k</text><text x="83.68181818181819" y="0" dx="0em" dy="0.95em" style="text-anchor: middle; visibility: inherit; font-family: &quot;Helvetica Neue&quot;, sans-serif; font-size: 12px; font-weight: 200;" fill="rgb(50, 49, 63)" stroke="none" stroke-width="1px">0</text><text x="167.36363636363637" y="0" dx="0em" dy="0.95em" style="text-anchor: middle; visibility: inherit; font-family: &quot;Helvetica Neue&quot;, sans-serif; font-size: 12px; font-weight: 200;" fill="rgb(50, 49, 63)" stroke="none" stroke-width="1px">50k</text><text x="251.04545454545453" y="0" dx="0em" dy="0.95em" style="text-anchor: middle; visibility: inherit; font-family: &quot;Helvetica Neue&quot;, sans-serif; font-size: 12px; font-weight: 200;" fill="rgb(50, 49, 63)" stroke="none" stroke-width="1px">100k</text><text x="334.72727272727275" y="0" dx="0em" dy="0.95em" style="text-anchor: middle; visibility: inherit; font-family: &quot;Helvetica Neue&quot;, sans-serif; font-size: 12px; font-weight: 200;" fill="rgb(50, 49, 63)" stroke="none" stroke-width="1px">150k</text><text x="418.4090909090909" y="0" dx="0em" dy="0.95em" style="text-anchor: middle; visibility: inherit; font-family: &quot;Helvetica Neue&quot;, sans-serif; font-size: 12px; font-weight: 200;" fill="rgb(50, 49, 63)" stroke="none" stroke-width="1px">200k</text><text x="502.09090909090907" y="0" dx="0em" dy="0.95em" style="text-anchor: middle; visibility: inherit; font-family: &quot;Helvetica Neue&quot;, sans-serif; font-size: 12px; font-weight: 200;" fill="rgb(50, 49, 63)" stroke="none" stroke-width="1px">250k</text><text x="585.7727272727273" y="0" dx="0em" dy="0.95em" style="text-anchor: middle; visibility: inherit; font-family: &quot;Helvetica Neue&quot;, sans-serif; font-size: 12px; font-weight: 200;" fill="rgb(50, 49, 63)" stroke="none" stroke-width="1px">300k</text><text x="669.4545454545455" y="0" dx="0em" dy="0.95em" style="text-anchor: middle; visibility: inherit; font-family: &quot;Helvetica Neue&quot;, sans-serif; font-size: 12px; font-weight: 200;" fill="rgb(50, 49, 63)" stroke="none" stroke-width="1px">350k</text><text x="753.1363636363636" y="0" dx="0em" dy="0.95em" style="text-anchor: middle; visibility: inherit; font-family: &quot;Helvetica Neue&quot;, sans-serif; font-size: 12px; font-weight: 200;" fill="rgb(50, 49, 63)" stroke="none" stroke-width="1px">400k</text><text x="836.8181818181818" y="0" dx="0em" dy="0.95em" style="text-anchor: middle; visibility: inherit; font-family: &quot;Helvetica Neue&quot;, sans-serif; font-size: 12px; font-weight: 200;" fill="rgb(50, 49, 63)" stroke="none" stroke-width="1px">450k</text><text x="920.5" y="0" dx="0em" dy="0.95em" style="text-anchor: middle; visibility: hidden; font-family: &quot;Helvetica Neue&quot;, sans-serif; font-size: 12px; font-weight: 200;" fill="rgb(50, 49, 63)" stroke="none" stroke-width="1px">500k</text></g><line x1="0" y1="0" x2="920.5" y2="0" fill="rgb(0, 0, 0)" stroke="rgb(204, 204, 204)" stroke-width="1px"></line></g></g></g></g></svg>