<svg viewBox="0 0 950.5 400" xmlns="http://www.w3.org/2000/svg"><g><g><g><g><g><line x1="50" y1="378" x2="45" y2="378" style="visibility: inherit;" fill="rgb(0, 0, 0)" stroke="rgb(204, 204, 204)" stroke-width="1px"></line><line x1="50" y1="340.2" x2="45" y2="340.2" style="visibility: inherit;" fill="rgb(0, 0, 0)" stroke="rgb(204, 204, 204)" stroke-width="1px"></line><line x1="50" y1="302.4" x2="45" y2="302.4" style="visibility: inherit;" fill="rgb(0, 0, 0)" stroke="rgb(204, 204, 204)" stroke-width="1px"></line><line x1="50" y1="264.6" x2="45" y2="264.6" style="visibility: inherit;" fill="rgb(0, 0, 0)" stroke="rgb(204, 204, 204)" stroke-width="1px"></line><line x1="50" y1="226.79999999999998" x2="45" y2="226.79999999999998" style="visibility: inherit;" fill="rgb(0, 0, 0)" stroke="rgb(204, 204, 204)" stroke-width="1px"></line><line x1="50" y1="189" x2="45" y2="189" style="visibility: inherit;" fill="rgb(0, 0, 0)" stroke="rgb(204, 204, 204)" stroke-width="1px"></line><line x1="50" y1="151.20000000000002" x2="45" y2="151.20000000000002" style="visibility: inherit;" fill="rgb(0, 0, 0)" stroke="rgb(204, 204, 204)" stroke-width="1px"></line><line x1="50" y1="113.40000000000003" x2="45" y2="113.40000000000003" style="visibility: inherit;" fill="rgb(0, 0, 0)" stroke="rgb(204, 204, 204)" stroke-width="1px"></line><line x1="50" y1="75.59999999999997" x2="45" y2="75.59999999999997" style="visibility: inherit;" fill="rgb(0, 0, 0)" stroke="rgb(204, 204, 204)" stroke-width="1px"></line><line x1="50" y1="37.80000000000001" x2="45" y2="37.80000000000001" style="visibility: inherit;" fill="rgb(0, 0, 0)" stroke="rgb(204, 204, 204)" stroke-width="1px"></line><line x1="50" y1="0" x2="45" y2="0" style="visibility: inherit;" fill="rgb(0, 0, 0)" stroke="rgb(204, 204, 204)" stroke-width="1px"></line></g><g transform="translate(40, 0)"><text x="0" y="378" dx="0em" dy="0.3em" style="text-anchor: end; visibility: hidden; font-family: &quot;Helvetica Neue&quot;, sans-serif; font-size: 12px; font-weight: 200;" fill="rgb(50, 49, 63)" stroke="none" stroke-width="1px">-1.5</text><text x="0" y="340.2" dx="0em" dy="0.3em" style="text-anchor: end; visibility: inherit; font-family: &quot;Helvetica Neue&quot;, sans-serif; font-size: 12px; font-weight: 200;" fill="rgb(50, 49, 63)" stroke="none" stroke-width="1px">-1</text><text x="0" y="302.4" dx="0em" dy="0.3em" style="text-anchor: end; visibility: inherit; font-family: &quot;Helvetica Neue&quot;, sans-serif; font-size: 12px; font-weight: 200;" fill="rgb(50, 49, 63)" stroke="none" stroke-width="1px">-0.5</text><text x="0" y="264.6" dx="0em" dy="0.3em" style="text-anchor: end; visibility: inherit; font-family: &quot;Helvetica Neue&quot;, sans-serif; font-size: 12px; font-weight: 200;" fill="rgb(50, 49, 63)" stroke="none" stroke-width="1px">0</text><text x="0" y="226.79999999999998" dx="0em" dy="0.3em" style="text-anchor: end; visibility: inherit; font-family: &quot;Helvetica Neue&quot;, sans-serif; font-size: 12px; font-weight: 200;" fill="rgb(50, 49, 63)" stroke="none" stroke-width="1px">0.5</text><text x="0" y="189" dx="0em" dy="0.3em" style="text-anchor: end; visibility: inherit; font-family: &quot;Helvetica Neue&quot;, sans-serif; font-size: 12px; font-weight: 200;" fill="rgb(50, 49, 63)" stroke="none" stroke-width="1px">1</text><text x="0" y="151.20000000000002" dx="0em" dy="0.3em" style="text-anchor: end; visibility: inherit; font-family: &quot;Helvetica Neue&quot;, sans-serif; font-size: 12px; font-weight: 200;" fill="rgb(50, 49, 63)" stroke="none" stroke-width="1px">1.5</text><text x="0" y="113.40000000000003" dx="0em" dy="0.3em" style="text-anchor: end; visibility: inherit; font-family: &quot;Helvetica Neue&quot;, sans-serif; font-size: 12px; font-weight: 200;" fill="rgb(50, 49, 63)" stroke="none" stroke-width="1px">2</text><text x="0" y="75.59999999999997" dx="0em" dy="0.3em" style="text-anchor: end; visibility: inherit; font-family: &quot;Helvetica Neue&quot;, sans-serif; font-size: 12px; font-weight: 200;" fill="rgb(50, 49, 63)" stroke="none" stroke-width="1px">2.5</text><text x="0" y="37.80000000000001" dx="0em" dy="0.3em" style="text-anchor: end; visibility: inherit; font-family: &quot;Helvetica Neue&quot;, sans-serif; font-size: 12px; font-weight: 200;" fill="rgb(50, 49, 63)" stroke="none" stroke-width="1px">3</text><text x="0" y="0" dx="0em" dy="0.3em" style="text-anchor: end; visibility: hidden; font-family: &quot;Helvetica Neue&quot;, sans-serif; font-size: 12px; font-weight: 200;" fill="rgb(50, 49, 63)" stroke="none" stroke-width="1px">3.5</text></g><line x1="50" y1="0" x2="50" y2="378" fill="rgb(0, 0, 0)" stroke="rgb(204, 204, 204)" stroke-width="1px"></line></g></g><g transform="translate(50, 0)" clip-path="url(#clip_0)"><clipPath id="clip_0"><rect width="900" height="378"></rect></clipPath><g><g><g><line x1="0" y1="0" x2="0" y2="378" fill="rgb(0, 0, 0)" stroke="rgb(60, 60, 60)" stroke-width="1px" opacity="0.25"></line><line x1="81.86363636363636" y1="0" x2="81.86363636363636" y2="378" fill="rgb(0, 0, 0)" stroke="rgb(60, 60, 60)" stroke-width="1px" opacity="0.25"></line><line x1="163.72727272727272" y1="0" x2="163.72727272727272" y2="378" fill="rgb(0, 0, 0)" stroke="rgb(60, 60, 60)" stroke-width="1px" opacity="0.25"></line><line x1="245.59090909090907" y1="0" x2="245.59090909090907" y2="378" fill="rgb(0, 0, 0)" stroke="rgb(60, 60, 60)" stroke-width="1px" opacity="0.25"></line><line x1="327.45454545454544" y1="0" x2="327.45454545454544" y2="378" fill="rgb(0, 0, 0)" stroke="rgb(60, 60, 60)" stroke-width="1px" opacity="0.25"></line><line x1="409.3181818181818" y1="0" x2="409.3181818181818" y2="378" fill="rgb(0, 0, 0)" stroke="rgb(60, 60, 60)" stroke-width="1px" opacity="0.25"></line><line x1="491.18181818181813" y1="0" x2="491.18181818181813" y2="378" fill="rgb(0, 0, 0)" stroke="rgb(60, 60, 60)" stroke-width="1px" opacity="0.25"></line><line x1="573.0454545454545" y1="0" x2="573.0454545454545" y2="378" fill="rgb(0, 0, 0)" stroke="rgb(60, 60, 60)" stroke-width="1px" opacity="0.25"></line><line x1="654.9090909090909" y1="0" x2="654.9090909090909" y2="378" fill="rgb(0, 0, 0)" stroke="rgb(60, 60, 60)" stroke-width="1px" opacity="0.25"></line><line x1="736.7727272727274" y1="0" x2="736.7727272727274" y2="378" fill="rgb(0, 0, 0)" stroke="rgb(60, 60, 60)" stroke-width="1px" opacity="0.25"></line><line x1="818.6363636363636" y1="0" x2="818.6363636363636" y2="378" fill="rgb(0, 0, 0)" stroke="rgb(60, 60, 60)" stroke-width="1px" opacity="0.25"></line><line x1="900.5" y1="0" x2="900.5" y2="378" fill="rgb(0, 0, 0)" stroke="rgb(60, 60, 60)" stroke-width="1px" opacity="0.25"></line></g><g><line x1="0" y1="378" x2="900.5" y2="378" fill="rgb(0, 0, 0)" stroke="rgb(60, 60, 60)" stroke-width="1px" opacity="0.25"></line><line x1="0" y1="340.2" x2="900.5" y2="340.2" fill="rgb(0, 0, 0)" stroke="rgb(60, 60, 60)" stroke-width="1px" opacity="0.25"></line><line x1="0" y1="302.4" x2="900.5" y2="302.4" fill="rgb(0, 0, 0)" stroke="rgb(60, 60, 60)" stroke-width="1px" opacity="0.25"></line><line x1="0" y1="264.6" x2="900.5" y2="264.6" fill="rgb(0, 0, 0)" stroke="rgb(60, 60, 60)" stroke-width="1px" opacity="0.25"></line><line x1="0" y1="226.79999999999998" x2="900.5" y2="226.79999999999998" fill="rgb(0, 0, 0)" stroke="rgb(60, 60, 60)" stroke-width="1px" opacity="0.25"></line><line x1="0" y1="189" x2="900.5" y2="189" fill="rgb(0, 0, 0)" stroke="rgb(60, 60, 60)" stroke-width="1px" opacity="0.25"></line><line x1="0" y1="151.20000000000002" x2="900.5" y2="151.20000000000002" fill="rgb(0, 0, 0)" stroke="rgb(60, 60, 60)" stroke-width="1px" opacity="0.25"></line><line x1="0" y1="113.40000000000003" x2="900.5" y2="113.40000000000003" fill="rgb(0, 0, 0)" stroke="rgb(60, 60, 60)" stroke-width="1px" opacity="0.25"></line><line x1="0" y1="75.59999999999997" x2="900.5" y2="75.59999999999997" fill="rgb(0, 0, 0)" stroke="rgb(60, 60, 60)" stroke-width="1px" opacity="0.25"></line><line x1="0" y1="37.80000000000001" x2="900.5" y2="37.80000000000001" fill="rgb(0, 0, 0)" stroke="rgb(60, 60, 60)" stroke-width="1px" opacity="0.25"></line><line x1="0" y1="0" x2="900.5" y2="0" fill="rgb(0, 0, 0)" stroke="rgb(60, 60, 60)" stroke-width="1px" opacity="0.25"></line></g></g></g><g><g><line x1="0" y1="264.6" x2="900.5" y2="264.6" fill="rgb(0, 0, 0)" stroke="rgb(153, 153, 153)" stroke-width="1.5px"></line></g></g><g><g><line x1="81.86363636363636" y1="0" x2="81.86363636363636" y2="378" fill="rgb(0, 0, 0)" stroke="rgb(153, 153, 153)" stroke-width="1.5px"></line></g></g><g><g><g><g><g><path stroke="rgb(51, 187, 238)" stroke-width="2px" d="M82.68227272727272,189L83.50090909090909,189L84.31954545454546,189L85.13818181818182,189L85.95681818181818,189L86.77545454545454,189L87.59409090909091,189L88.41272727272727,189L89.23136363636364,189L90.05000000000001,189L90.86863636363636,189L91.68727272727273,189L92.50590909090909,189L93.32454545454546,189L94.14318181818182,189L94.96181818181817,189L95.78045454545455,189L96.5990909090909,189L97.41772727272728,189L98.23636363636363,189L99.055,189L99.87363636363636,189L100.69227272727272,189L101.5109090909091,189L102.32954545454545,189L103.14818181818183,189L103.96681818181817,189L104.78545454545454,189L105.60409090909091,189L106.42272727272727,189L107.24136363636364,189L108.06,189L108.87863636363636,189L109.69727272727272,189L110.51590909090909,189L111.33454545454546,189L112.15318181818182,189L112.97181818181818,189L113.79045454545455,189L114.6090909090909,189L115.42772727272727,189L116.24636363636364,189L117.065,189L117.88363636363637,189L118.70227272727271,189L119.52090909090909,189L120.33954545454546,189L121.15818181818183,189L121.97681818181819,189L122.79545454545453,189L123.6140909090909,189L124.43272727272728,189L125.25136363636365,189L126.07000000000001,189L126.88863636363635,189L127.70727272727272,189L128.5259090909091,189L129.34454545454545,189L130.1631818181818,189L130.98181818181817,189L131.80045454545456,189L132.61909090909091,189L133.43772727272727,189L134.25636363636363,189L135.075,189L135.89363636363638,189L136.71227272727273,189L137.5309090909091,189L138.34954545454545,189L139.1681818181818,189L139.9868181818182,189L140.80545454545455,189L141.6240909090909,189L142.44272727272727,189L143.26136363636363,189L144.08,189L144.89863636363637,189L145.71727272727273,189L146.5359090909091,189L147.35454545454544,189L148.17318181818183,189L148.9918181818182,189L149.81045454545455,189L150.6290909090909,189L151.44772727272726,189L152.26636363636365,189L153.085,189L153.90363636363637,189L154.72227272727272,189L155.54090909090908,189L156.35954545454547,189L157.17818181818183,189L157.99681818181818,189L158.81545454545454,189L159.6340909090909,189L160.4527272727273,189L161.27136363636362,189L162.09,189L162.90863636363636,189L163.72727272727272,189L164.5459090909091,189L165.36454545454544,189L166.18318181818182,189L167.00181818181818,189L167.82045454545454,189L168.63909090909092,189L169.45772727272725,189L170.27636363636364,189L171.095,189L171.91363636363636,189L172.73227272727271,189L173.55090909090907,189L174.36954545454546,189L175.18818181818182,189L176.0068181818182,189L176.82545454545453,189L177.6440909090909,189L178.46272727272728,189L179.28136363636364,189L180.10000000000002,189L180.91863636363635,189L181.7372727272727,189L182.5559090909091,189L183.37454545454545,189L184.19318181818184,189L185.01181818181817,189L185.83045454545453,189L186.64909090909092,189L187.46772727272727,189L188.28636363636363,189L189.105,189L189.92363636363635,189L190.74227272727273,189L191.5609090909091,189L192.37954545454545,189L193.1981818181818,189L194.0168181818182,189L194.83545454545455,189L195.6540909090909,189L196.47272727272727,189L197.29136363636363,189L198.11,189L198.92863636363637,189L199.74727272727273,189L200.5659090909091,189L201.38454545454545,189L202.20318181818183,189L203.0218181818182,189L203.84045454545452,189L204.6590909090909,189L205.47772727272726,189L206.29636363636365,189L207.115,189L207.93363636363634,189L208.75227272727273,189L209.57090909090908,189L210.38954545454547,189L211.20818181818183,189L212.0268181818182,189L212.84545454545454,189L213.6640909090909,189L214.4827272727273,189L215.30136363636365,189L216.12,189L216.93863636363636,189L217.75727272727272,189L218.5759090909091,189L219.39454545454544,189L220.21318181818182,189L221.03181818181818,189L221.85045454545454,189L222.66909090909093,189L223.48772727272726,189L224.30636363636364,189L225.125,189L225.94363636363636,189L226.76227272727274,189L227.5809090909091,189L228.3995454545455,189L229.2181818181818,189L230.03681818181818,189L230.85545454545453,189L231.6740909090909,189L232.49272727272728,189L233.31136363636364,189L234.13,189L234.94863636363638,189L235.76727272727274,189L236.58590909090913,189L237.40454545454543,189L238.2231818181818,189L239.04181818181817,189L239.86045454545453,189L240.67909090909092,189L241.49772727272727,189L242.31636363636366,189L243.13500000000002,189L243.95363636363638,189L244.7722727272727,189L245.59090909090907,189L246.40954545454545,189L247.2281818181818,189L248.04681818181817,189L248.86545454545455,189L249.6840909090909,189L250.5027272727273,189L251.32136363636366,189L252.14000000000001,189L252.95863636363634,189L253.7772727272727,189L254.5959090909091,189L255.41454545454545,189L256.23318181818183,189L257.0518181818182,189L257.87045454545455,189L258.6890909090909,189L259.5077272727273,189L260.3263636363636,189L261.145,189L261.96363636363634,189L262.7822727272727,189L263.6009090909091,189L264.41954545454547,189L265.23818181818183,189L266.0568181818182,189L266.87545454545455,189L267.69409090909096,189L268.51272727272726,189L269.3313636363636,189L270.15,189L270.96863636363634,189L271.78727272727275,189L272.6059090909091,189L273.42454545454547,189L274.2431818181818,189L275.0618181818182,189L275.88045454545454,189L276.6990909090909,189L277.51772727272726,189L278.3363636363636,189L279.155,189L279.9736363636364,189L280.79227272727275,189L281.6109090909091,189L282.42954545454546,189L283.2481818181818,189L284.0668181818182,189L284.88545454545454,189L285.7040909090909,189L286.52272727272725,189L287.3413636363636,189L288.16,189L288.9786363636364,189L289.79727272727274,189L290.6159090909091,189L291.43454545454546,189L292.2531818181818,189L293.0718181818182,189L293.89045454545453,189L294.7090909090909,189L295.5277272727273,189L296.34636363636366,189L297.165,189L297.9836363636364,189L298.80227272727274,189L299.6209090909091,189L300.43954545454545,189L301.2581818181818,189L302.07681818181817,189L302.8954545454545,189L303.71409090909094,189L304.5327272727273,189L305.35136363636366,189L306.17,189L306.9886363636363,189L307.80727272727273,189L308.6259090909091,189L309.44454545454545,189L310.2631818181818,189L311.08181818181816,189L311.9004545454546,189L312.71909090909094,189L313.5377272727273,189L314.35636363636365,189L315.17499999999995,189L315.99363636363637,189L316.8122727272727,189L317.6309090909091,189L318.44954545454544,189L319.2681818181818,189L320.0868181818182,189L320.9054545454546,189L321.72409090909093,189L322.54272727272723,189L323.3613636363636,189L324.18,189L324.99863636363636,189L325.8172727272727,189L326.6359090909091,189L327.45454545454544,189L328.27318181818185,189L329.0918181818182,189L329.91045454545457,189L330.72909090909087,189L331.5477272727273,189L332.36636363636364,189L333.185,189L334.00363636363636,189L334.8222727272727,189L335.6409090909091,189L336.4595454545455,189L337.27818181818185,189L338.09681818181815,189L338.9154545454545,189L339.7340909090909,189L340.5527272727273,189L341.37136363636364,189L342.19,189L343.00863636363636,189L343.8272727272727,189L344.64590909090913,189L345.46454545454543,189L346.2831818181818,189L347.10181818181815,189L347.92045454545456,189L348.7390909090909,189L349.5577272727273,189L350.37636363636364,189L351.195,189L352.0136363636364,189L352.83227272727277,189L353.65090909090907,189L354.4695454545454,189L355.2881818181818,189L356.1068181818182,189L356.92545454545456,189L357.7440909090909,189L358.5627272727273,189L359.38136363636363,189L360.20000000000005,189L361.01863636363635,189L361.8372727272727,189L362.65590909090906,189L363.4745454545454,189L364.29318181818184,189L365.1118181818182,189L365.93045454545455,189L366.7490909090909,189L367.56772727272727,189L368.3863636363637,189L369.205,189L370.02363636363634,189L370.8422727272727,189L371.66090909090906,189L372.4795454545455,189L373.29818181818183,189L374.1168181818182,189L374.93545454545455,189L375.7540909090909,189L376.57272727272726,189L377.3913636363636,189L378.21,189L379.02863636363634,189L379.8472727272727,189L380.6659090909091,189L381.48454545454547,189L382.3031818181818,189L383.1218181818182,189L383.94045454545454,189L384.7590909090909,189L385.57772727272726,189L386.3963636363636,189L387.215,189L388.0336363636364,189L388.85227272727275,189L389.6709090909091,189L390.48954545454546,189L391.3081818181818,189L392.1268181818182,189L392.94545454545454,189L393.7640909090909,189L394.58272727272725,189L395.4013636363636,189L396.22,189L397.0386363636364,189L397.85727272727274,189L398.6759090909091,189L399.49454545454546,189L400.3131818181818,189L401.1318181818182,189L401.95045454545453,189L402.7690909090909,189L403.58772727272725,189L404.40636363636366,189L405.225,189L406.0436363636364,189L406.86227272727274,189L407.68090909090904,189L408.49954545454545,189L409.3181818181818,189L410.13681818181817,189L410.95545454545453,189L411.7740909090909,189L412.5927272727273,189L413.41136363636366,189L414.23,189L415.0486363636364,189L415.8672727272727,189L416.6859090909091,189L417.50454545454545,189L418.3231818181818,189L419.14181818181817,189L419.9604545454545,189L420.77909090909094,189L421.5977272727273,189L422.41636363636366,189L423.23499999999996,189L424.0536363636364,189L424.87227272727273,189L425.6909090909091,189L426.50954545454545,189L427.3281818181818,189L428.14681818181816,189L428.9654545454546,189L429.78409090909093,189L430.6027272727273,189L431.4213636363636,189L432.24,189L433.05863636363637,189L433.8772727272727,189L434.6959090909091,189L435.51454545454544,189L436.33318181818186,189L437.1518181818182,189L437.9704545454546,189L438.7890909090909,189L439.60772727272723,189L440.42636363636365,189L441.245,189L442.06363636363636,189L442.8822727272727,189L443.7009090909091,189L444.5195454545455,189L445.33818181818185,189L446.1568181818182,189L446.9754545454545,189L447.79409090909087,189L448.6127272727273,189L449.43136363636364,189L450.25,189L451.0686363636363,189L451.8872727272727,189L452.7059090909091,189L453.5245454545455,189L454.3431818181818,189L455.1618181818182,189L455.9804545454545,189L456.799090909091,189L457.6177272727273,189L458.4363636363636,189L459.255,189L460.07363636363635,189L460.89227272727277,189L461.71090909090907,189L462.5295454545455,189L463.3481818181818,189L464.1668181818182,189L464.98545454545456,189L465.80409090909086,189L466.6227272727273,189L467.4413636363636,189L468.26,189L469.07863636363635,189L469.89727272727276,189L470.71590909090907,189L471.5345454545455,189L472.35318181818184,189L473.17181818181825,189L473.99045454545455,189L474.80909090909086,189L475.62772727272727,189L476.4463636363636,189L477.26500000000004,189L478.08363636363634,189L478.90227272727276,189L479.72090909090906,189L480.5395454545455,189L481.35818181818183,189L482.17681818181813,189L482.99545454545455,189L483.81409090909085,189L484.6327272727273,189L485.4513636363636,189L486.27000000000004,189L487.08863636363634,189L487.90727272727275,189L488.7259090909091,189L489.5445454545454,189L490.36318181818183,189L491.18181818181813,189L492.00045454545455,189L492.8190909090909,189L493.6377272727273,189L494.4563636363636,189L495.27500000000003,189L496.09363636363634,189L496.9122727272727,189L497.7309090909091,189L498.5495454545454,189L499.3681818181818,189L500.1868181818181,189L501.0054545454546,189L501.8240909090909,189L502.6427272727273,189L503.4613636363636,189L504.28000000000003,189L505.0986363636364,189L505.9172727272727,189L506.7359090909091,189L507.5545454545454,189L508.3731818181818,189L509.1918181818182,189L510.0104545454546,189L510.8290909090909,189L511.6477272727273,189L512.4663636363637,189L513.285,189L514.1036363636364,189L514.9222727272727,189L515.7409090909091,189L516.5595454545454,189L517.3781818181818,189L518.1968181818181,189L519.0154545454546,189L519.834090909091,189L520.6527272727272,189L521.4713636363637,189L522.29,189L523.1086363636364,189L523.9272727272727,189L524.7459090909091,189L525.5645454545454,189L526.3831818181818,189L527.2018181818182,189L528.0204545454545,189L528.8390909090909,189L529.6577272727272,189L530.4763636363637,189L531.295,189L532.1136363636364,189L532.9322727272727,189L533.7509090909091,189L534.5695454545454,189L535.3881818181819,189L536.2068181818182,189L537.0254545454545,189L537.8440909090909,189L538.6627272727272,189L539.4813636363637,189L540.3,189L541.1186363636364,189L541.9372727272727,189L542.7559090909091,189L543.5745454545455,189L544.3931818181818,189L545.2118181818182,189L546.0304545454545,189L546.8490909090909,189L547.6677272727272,189L548.4863636363636,189L549.305,189L550.1236363636364,189L550.9422727272728,189L551.7609090909091,189L552.5795454545455,189L553.3981818181818,189L554.2168181818182,189L555.0354545454545,189L555.8540909090909,189L556.6727272727272,189L557.4913636363636,189L558.31,189L559.1286363636364,189L559.9472727272728,189L560.7659090909091,189L561.5845454545455,189L562.4031818181818,189L563.2218181818182,189L564.0404545454545,189L564.8590909090909,189L565.6777272727272,189L566.4963636363636,189L567.315,189L568.1336363636364,189L568.9522727272728,189L569.7709090909091,189L570.5895454545455,189L571.4081818181818,189L572.2268181818182,189L573.0454545454545,189L573.8640909090909,189L574.6827272727272,189L575.5013636363636,189L576.32,189L577.1386363636364,189L577.9572727272728,189L578.7759090909091,189L579.5945454545455,189L580.4131818181818,189L581.2318181818182,189L582.0504545454545,189L582.8690909090909,189L583.6877272727273,189L584.5063636363636,189L585.325,189L586.1436363636363,189L586.9622727272728,189L587.7809090909091,189L588.5995454545455,189L589.4181818181818,189L590.2368181818181,189L591.0554545454546,189L591.8740909090909,189L592.6927272727273,189L593.5113636363636,189L594.33,189L595.1486363636363,189L595.9672727272728,189L596.7859090909091,189L597.6045454545455,189L598.4231818181818,189L599.2418181818182,189L600.0604545454546,189L600.8790909090909,189L601.6977272727273,189L602.5163636363636,189L603.335,189L604.1536363636363,189L604.9722727272728,189L605.790909090909,189L606.6095454545454,189L607.4281818181819,189L608.2468181818182,189L609.0654545454546,189L609.8840909090909,189L610.7027272727273,189L611.5213636363636,189L612.34,189L613.1586363636363,189L613.9772727272726,189L614.795909090909,189L615.6145454545455,189L616.4331818181819,189L617.2518181818182,189L618.0704545454546,189L618.8890909090909,189L619.7077272727273,189L620.5263636363636,189L621.3449999999999,189L622.1636363636363,189L622.9822727272727,189L623.8009090909092,189L624.6195454545455,189L625.4381818181819,189L626.2568181818182,189L627.0754545454546,189L627.8940909090909,189L628.7127272727273,189L629.5313636363636,189L630.3499999999999,189L631.1686363636363,189L631.9872727272727,189L632.8059090909092,189L633.6245454545455,189L634.4431818181819,189L635.2618181818182,189L636.0804545454546,189L636.8990909090909,189L637.7177272727272,189L638.5363636363636,189L639.355,189L640.1736363636364,189L640.9922727272727,189L641.8109090909091,189L642.6295454545455,189L643.4481818181819,189L644.2668181818182,189L645.0854545454545,189L645.9040909090909,189L646.7227272727272,189L647.5413636363637,189L648.36,189L649.1786363636364,189L649.9972727272727,189L650.8159090909091,189L651.6345454545454,189L652.4531818181817,189L653.2718181818182,189L654.0904545454545,189L654.9090909090909,189L655.7277272727273,189L656.5463636363637,189L657.365,189L658.1836363636364,189L659.0022727272727,189L659.8209090909091,189L660.6395454545454,189L661.4581818181817,189L662.2768181818182,189L663.0954545454546,189L663.914090909091,189L664.7327272727273,189L665.5513636363637,189L666.37,189L667.1886363636364,189L668.0072727272727,189L668.825909090909,189L669.6445454545454,189L670.4631818181817,189L671.2818181818182,189L672.1004545454546,189L672.919090909091,189L673.7377272727273,189L674.5563636363637,189L675.375,189L676.1936363636363,189L677.0122727272727,189L677.830909090909,189L678.6495454545454,189L679.4681818181818,189L680.2868181818183,189L681.1054545454546,189L681.924090909091,189L682.7427272727273,189L683.5613636363636,189L684.38,189L685.1986363636363,189L686.0172727272727,189L686.835909090909,189L687.6545454545454,189L688.4731818181818,189L689.2918181818183,189L690.1104545454546,189L690.9290909090909,189L691.7477272727273,189L692.5663636363636,189L693.385,189L694.2036363636363,189L695.0222727272727,189L695.8409090909091,189L696.6595454545455,189L697.4781818181818,189L698.2968181818183,189L699.1154545454546,189L699.9340909090909,189L700.7527272727273,189L701.5713636363636,189L702.39,189L703.2086363636363,189L704.0272727272728,189L704.8459090909091,189L705.6645454545455,189L706.4831818181818,189L707.3018181818181,189L708.1204545454545,189L708.9390909090909,189L709.7577272727273,189L710.5763636363636,189L711.395,189L712.2136363636364,189L713.0322727272728,189L713.8509090909091,189L714.6695454545454,189L715.4881818181818,189L716.3068181818181,189L717.1254545454545,189L717.9440909090908,189L718.7627272727273,189L719.5813636363637,189L720.4000000000001,189L721.2186363636364,189L722.0372727272727,189L722.8559090909091,189L723.6745454545454,189L724.4931818181818,189L725.3118181818181,189L726.1304545454545,189L726.9490909090908,189L727.7677272727273,189L728.5863636363637,189L729.4050000000001,189L730.2236363636364,189L731.0422727272727,189L731.8609090909091,189L732.6795454545454,189L733.4981818181818,189L734.3168181818181,189L735.1354545454545,189L735.954090909091,189L736.7727272727274,189L737.5913636363637,189L738.41,189L739.2286363636364,189L740.0472727272727,189L740.8659090909091,189L741.6845454545454,189L742.5031818181818,189L743.3218181818181,189L744.1404545454546,189L744.959090909091,189L745.7777272727272,189L746.5963636363637,189L747.415,189L748.2336363636364,189L749.0522727272727,189L749.8709090909091,189L750.6895454545454,189L751.5081818181818,189L752.3268181818182,189L753.1454545454545,189L753.9640909090909,189L754.7827272727272,189L755.6013636363637,189L756.42,189L757.2386363636364,189L758.0572727272727,189L758.8759090909091,189L759.6945454545454,189L760.5131818181819,189L761.3318181818182,189L762.1504545454545,189L762.9690909090909,189L763.7877272727272,189L764.6063636363637,189L765.425,189L766.2436363636364,189L767.0622727272727,189L767.8809090909091,189L768.6995454545455,189L769.5181818181818,189L770.3368181818182,189L771.1554545454545,189L771.9740909090909,189L772.7927272727272,189L773.6113636363636,189L774.43,189L775.2486363636364,189L776.0672727272728,189L776.8859090909091,189L777.7045454545455,189L778.5231818181818,189L779.3418181818182,189L780.1604545454545,189L780.9790909090909,189L781.7977272727272,189L782.6163636363636,189L783.435,189L784.2536363636364,189L785.0722727272728,189L785.8909090909091,189L786.7095454545455,189L787.5281818181818,189L788.3468181818182,189L789.1654545454545,189L789.9840909090909,189L790.8027272727272,189L791.6213636363636,189L792.44,189L793.2586363636364,189L794.0772727272728,189L794.8959090909091,189L795.7145454545455,189L796.5331818181818,189L797.3518181818182,189L798.1704545454545,189L798.9890909090909,189L799.8077272727272,189L800.6263636363636,189L801.445,189L802.2636363636364,189L803.0822727272728,189L803.9009090909091,189L804.7195454545455,189L805.5381818181818,189L806.3568181818182,189L807.1754545454545,189L807.9940909090909,189L808.8127272727273,189L809.6313636363636,189L810.45,189L811.2686363636363,189L812.0872727272728,189L812.9059090909091,189L813.7245454545455,189L814.5431818181818,189L815.3618181818181,189L816.1804545454546,189L816.9990909090909,189L817.8177272727273,189L818.6363636363636,189L819.455,189L820.2736363636363,189L821.0922727272728,189L821.9109090909091,189L822.7295454545455,189L823.5481818181818,189L824.3668181818182,189L825.1854545454546,189L826.0040909090909,189L826.8227272727273,189L827.6413636363636,189L828.46,189L829.2786363636363,189L830.0972727272728,189L830.915909090909,189L831.7345454545454,189L832.5531818181819,189L833.3718181818182,189L834.1904545454546,189L835.0090909090909,189L835.8277272727273,189L836.6463636363636,189L837.465,189L838.2836363636363,189L839.1022727272726,189L839.920909090909,189L840.7395454545455,189L841.5581818181819,189L842.3768181818182,189L843.1954545454546,189L844.0140909090909,189L844.8327272727273,189L845.6513636363636,189L846.4699999999999,189L847.2886363636363,189L848.1072727272727,189L848.9259090909092,189L849.7445454545455,189L850.5631818181819,189L851.3818181818182,189L852.2004545454546,189L853.0190909090909,189L853.8377272727273,189L854.6563636363636,189L855.4749999999999,189L856.2936363636363,189L857.1122727272727,189L857.9309090909092,189L858.7495454545455,189L859.5681818181819,189L860.3868181818182,189L861.2054545454546,189L862.0240909090909,189L862.8427272727272,189L863.6613636363636,189L864.48,189L865.2986363636364,189L866.1172727272727,189L866.9359090909091,189L867.7545454545455,189L868.5731818181819,189L869.3918181818182,189L870.2104545454545,189L871.0290909090909,189L871.8477272727272,189L872.6663636363637,189L873.485,189" style="fill: none;" fill="none"></path></g></g></g></g><g opacity="0.2"><g><g><g><path stroke="rgb(51, 187, 238)" stroke-width="2px" d="M82.68227272727272,189L83.50090909090909,189L84.31954545454546,189L85.13818181818182,189L85.95681818181818,189L86.77545454545454,189L87.59409090909091,189L88.41272727272727,189L89.23136363636364,189L90.05000000000001,189L90.86863636363636,189L91.68727272727273,189L92.50590909090909,189L93.32454545454546,189L94.14318181818182,189L94.96181818181817,189L95.78045454545455,189L96.5990909090909,189L97.41772727272728,189L98.23636363636363,189L99.055,189L99.87363636363636,189L100.69227272727272,189L101.5109090909091,189L102.32954545454545,189L103.14818181818183,189L103.96681818181817,189L104.78545454545454,189L105.60409090909091,189L106.42272727272727,189L107.24136363636364,189L108.06,189L108.87863636363636,189L109.69727272727272,189L110.51590909090909,189L111.33454545454546,189L112.15318181818182,189L112.97181818181818,189L113.79045454545455,189L114.6090909090909,189L115.42772727272727,189L116.24636363636364,189L117.065,189L117.88363636363637,189L118.70227272727271,189L119.52090909090909,189L120.33954545454546,189L121.15818181818183,189L121.97681818181819,189L122.79545454545453,189L123.6140909090909,189L124.43272727272728,189L125.25136363636365,189L126.07000000000001,189L126.88863636363635,189L127.70727272727272,189L128.5259090909091,189L129.34454545454545,189L130.1631818181818,189L130.98181818181817,189L131.80045454545456,189L132.61909090909091,189L133.43772727272727,189L134.25636363636363,189L135.075,189L135.89363636363638,189L136.71227272727273,189L137.5309090909091,189L138.34954545454545,189L139.1681818181818,189L139.9868181818182,189L140.80545454545455,189L141.6240909090909,189L142.44272727272727,189L143.26136363636363,189L144.08,189L144.89863636363637,189L145.71727272727273,189L146.5359090909091,189L147.35454545454544,189L148.17318181818183,189L148.9918181818182,189L149.81045454545455,189L150.6290909090909,189L151.44772727272726,189L152.26636363636365,189L153.085,189L153.90363636363637,189L154.72227272727272,189L155.54090909090908,189L156.35954545454547,189L157.17818181818183,189L157.99681818181818,189L158.81545454545454,189L159.6340909090909,189L160.4527272727273,189L161.27136363636362,189L162.09,189L162.90863636363636,189L163.72727272727272,189L164.5459090909091,189L165.36454545454544,189L166.18318181818182,189L167.00181818181818,189L167.82045454545454,189L168.63909090909092,189L169.45772727272725,189L170.27636363636364,189L171.095,189L171.91363636363636,189L172.73227272727271,189L173.55090909090907,189L174.36954545454546,189L175.18818181818182,189L176.0068181818182,189L176.82545454545453,189L177.6440909090909,189L178.46272727272728,189L179.28136363636364,189L180.10000000000002,189L180.91863636363635,189L181.7372727272727,189L182.5559090909091,189L183.37454545454545,189L184.19318181818184,189L185.01181818181817,189L185.83045454545453,189L186.64909090909092,189L187.46772727272727,189L188.28636363636363,189L189.105,189L189.92363636363635,189L190.74227272727273,189L191.5609090909091,189L192.37954545454545,189L193.1981818181818,189L194.0168181818182,189L194.83545454545455,189L195.6540909090909,189L196.47272727272727,189L197.29136363636363,189L198.11,189L198.92863636363637,189L199.74727272727273,189L200.5659090909091,189L201.38454545454545,189L202.20318181818183,189L203.0218181818182,189L203.84045454545452,189L204.6590909090909,189L205.47772727272726,189L206.29636363636365,189L207.115,189L207.93363636363634,189L208.75227272727273,189L209.57090909090908,189L210.38954545454547,189L211.20818181818183,189L212.0268181818182,189L212.84545454545454,189L213.6640909090909,189L214.4827272727273,189L215.30136363636365,189L216.12,189L216.93863636363636,189L217.75727272727272,189L218.5759090909091,189L219.39454545454544,189L220.21318181818182,189L221.03181818181818,189L221.85045454545454,189L222.66909090909093,189L223.48772727272726,189L224.30636363636364,189L225.125,189L225.94363636363636,189L226.76227272727274,189L227.5809090909091,189L228.3995454545455,189L229.2181818181818,189L230.03681818181818,189L230.85545454545453,189L231.6740909090909,189L232.49272727272728,189L233.31136363636364,189L234.13,189L234.94863636363638,189L235.76727272727274,189L236.58590909090913,189L237.40454545454543,189L238.2231818181818,189L239.04181818181817,189L239.86045454545453,189L240.67909090909092,189L241.49772727272727,189L242.31636363636366,189L243.13500000000002,189L243.95363636363638,189L244.7722727272727,189L245.59090909090907,189L246.40954545454545,189L247.2281818181818,189L248.04681818181817,189L248.86545454545455,189L249.6840909090909,189L250.5027272727273,189L251.32136363636366,189L252.14000000000001,189L252.95863636363634,189L253.7772727272727,189L254.5959090909091,189L255.41454545454545,189L256.23318181818183,189L257.0518181818182,189L257.87045454545455,189L258.6890909090909,189L259.5077272727273,189L260.3263636363636,189L261.145,189L261.96363636363634,189L262.7822727272727,189L263.6009090909091,189L264.41954545454547,189L265.23818181818183,189L266.0568181818182,189L266.87545454545455,189L267.69409090909096,189L268.51272727272726,189L269.3313636363636,189L270.15,189L270.96863636363634,189L271.78727272727275,189L272.6059090909091,189L273.42454545454547,189L274.2431818181818,189L275.0618181818182,189L275.88045454545454,189L276.6990909090909,189L277.51772727272726,189L278.3363636363636,189L279.155,189L279.9736363636364,189L280.79227272727275,189L281.6109090909091,189L282.42954545454546,189L283.2481818181818,189L284.0668181818182,189L284.88545454545454,189L285.7040909090909,189L286.52272727272725,189L287.3413636363636,189L288.16,189L288.9786363636364,189L289.79727272727274,189L290.6159090909091,189L291.43454545454546,189L292.2531818181818,189L293.0718181818182,189L293.89045454545453,189L294.7090909090909,189L295.5277272727273,189L296.34636363636366,189L297.165,189L297.9836363636364,189L298.80227272727274,189L299.6209090909091,189L300.43954545454545,189L301.2581818181818,189L302.07681818181817,189L302.8954545454545,189L303.71409090909094,189L304.5327272727273,189L305.35136363636366,189L306.17,189L306.9886363636363,189L307.80727272727273,189L308.6259090909091,189L309.44454545454545,189L310.2631818181818,189L311.08181818181816,189L311.9004545454546,189L312.71909090909094,189L313.5377272727273,189L314.35636363636365,189L315.17499999999995,189L315.99363636363637,189L316.8122727272727,189L317.6309090909091,189L318.44954545454544,189L319.2681818181818,189L320.0868181818182,189L320.9054545454546,189L321.72409090909093,189L322.54272727272723,189L323.3613636363636,189L324.18,189L324.99863636363636,189L325.8172727272727,189L326.6359090909091,189L327.45454545454544,189L328.27318181818185,189L329.0918181818182,189L329.91045454545457,189L330.72909090909087,189L331.5477272727273,189L332.36636363636364,189L333.185,189L334.00363636363636,189L334.8222727272727,189L335.6409090909091,189L336.4595454545455,189L337.27818181818185,189L338.09681818181815,189L338.9154545454545,189L339.7340909090909,189L340.5527272727273,189L341.37136363636364,189L342.19,189L343.00863636363636,189L343.8272727272727,189L344.64590909090913,189L345.46454545454543,189L346.2831818181818,189L347.10181818181815,189L347.92045454545456,189L348.7390909090909,189L349.5577272727273,189L350.37636363636364,189L351.195,189L352.0136363636364,189L352.83227272727277,189L353.65090909090907,189L354.4695454545454,189L355.2881818181818,189L356.1068181818182,189L356.92545454545456,189L357.7440909090909,189L358.5627272727273,189L359.38136363636363,189L360.20000000000005,189L361.01863636363635,189L361.8372727272727,189L362.65590909090906,189L363.4745454545454,189L364.29318181818184,189L365.1118181818182,189L365.93045454545455,189L366.7490909090909,189L367.56772727272727,189L368.3863636363637,189L369.205,189L370.02363636363634,189L370.8422727272727,189L371.66090909090906,189L372.4795454545455,189L373.29818181818183,189L374.1168181818182,189L374.93545454545455,189L375.7540909090909,189L376.57272727272726,189L377.3913636363636,189L378.21,189L379.02863636363634,189L379.8472727272727,189L380.6659090909091,189L381.48454545454547,189L382.3031818181818,189L383.1218181818182,189L383.94045454545454,189L384.7590909090909,189L385.57772727272726,189L386.3963636363636,189L387.215,189L388.0336363636364,189L388.85227272727275,189L389.6709090909091,189L390.48954545454546,189L391.3081818181818,189L392.1268181818182,189L392.94545454545454,189L393.7640909090909,189L394.58272727272725,189L395.4013636363636,189L396.22,189L397.0386363636364,189L397.85727272727274,189L398.6759090909091,189L399.49454545454546,189L400.3131818181818,189L401.1318181818182,189L401.95045454545453,189L402.7690909090909,189L403.58772727272725,189L404.40636363636366,189L405.225,189L406.0436363636364,189L406.86227272727274,189L407.68090909090904,189L408.49954545454545,189L409.3181818181818,189L410.13681818181817,189L410.95545454545453,189L411.7740909090909,189L412.5927272727273,189L413.41136363636366,189L414.23,189L415.0486363636364,189L415.8672727272727,189L416.6859090909091,189L417.50454545454545,189L418.3231818181818,189L419.14181818181817,189L419.9604545454545,189L420.77909090909094,189L421.5977272727273,189L422.41636363636366,189L423.23499999999996,189L424.0536363636364,189L424.87227272727273,189L425.6909090909091,189L426.50954545454545,189L427.3281818181818,189L428.14681818181816,189L428.9654545454546,189L429.78409090909093,189L430.6027272727273,189L431.4213636363636,189L432.24,189L433.05863636363637,189L433.8772727272727,189L434.6959090909091,189L435.51454545454544,189L436.33318181818186,189L437.1518181818182,189L437.9704545454546,189L438.7890909090909,189L439.60772727272723,189L440.42636363636365,189L441.245,189L442.06363636363636,189L442.8822727272727,189L443.7009090909091,189L444.5195454545455,189L445.33818181818185,189L446.1568181818182,189L446.9754545454545,189L447.79409090909087,189L448.6127272727273,189L449.43136363636364,189L450.25,189L451.0686363636363,189L451.8872727272727,189L452.7059090909091,189L453.5245454545455,189L454.3431818181818,189L455.1618181818182,189L455.9804545454545,189L456.799090909091,189L457.6177272727273,189L458.4363636363636,189L459.255,189L460.07363636363635,189L460.89227272727277,189L461.71090909090907,189L462.5295454545455,189L463.3481818181818,189L464.1668181818182,189L464.98545454545456,189L465.80409090909086,189L466.6227272727273,189L467.4413636363636,189L468.26,189L469.07863636363635,189L469.89727272727276,189L470.71590909090907,189L471.5345454545455,189L472.35318181818184,189L473.17181818181825,189L473.99045454545455,189L474.80909090909086,189L475.62772727272727,189L476.4463636363636,189L477.26500000000004,189L478.08363636363634,189L478.90227272727276,189L479.72090909090906,189L480.5395454545455,189L481.35818181818183,189L482.17681818181813,189L482.99545454545455,189L483.81409090909085,189L484.6327272727273,189L485.4513636363636,189L486.27000000000004,189L487.08863636363634,189L487.90727272727275,189L488.7259090909091,189L489.5445454545454,189L490.36318181818183,189L491.18181818181813,189L492.00045454545455,189L492.8190909090909,189L493.6377272727273,189L494.4563636363636,189L495.27500000000003,189L496.09363636363634,189L496.9122727272727,189L497.7309090909091,189L498.5495454545454,189L499.3681818181818,189L500.1868181818181,189L501.0054545454546,189L501.8240909090909,189L502.6427272727273,189L503.4613636363636,189L504.28000000000003,189L505.0986363636364,189L505.9172727272727,189L506.7359090909091,189L507.5545454545454,189L508.3731818181818,189L509.1918181818182,189L510.0104545454546,189L510.8290909090909,189L511.6477272727273,189L512.4663636363637,189L513.285,189L514.1036363636364,189L514.9222727272727,189L515.7409090909091,189L516.5595454545454,189L517.3781818181818,189L518.1968181818181,189L519.0154545454546,189L519.834090909091,189L520.6527272727272,189L521.4713636363637,189L522.29,189L523.1086363636364,189L523.9272727272727,189L524.7459090909091,189L525.5645454545454,189L526.3831818181818,189L527.2018181818182,189L528.0204545454545,189L528.8390909090909,189L529.6577272727272,189L530.4763636363637,189L531.295,189L532.1136363636364,189L532.9322727272727,189L533.7509090909091,189L534.5695454545454,189L535.3881818181819,189L536.2068181818182,189L537.0254545454545,189L537.8440909090909,189L538.6627272727272,189L539.4813636363637,189L540.3,189L541.1186363636364,189L541.9372727272727,189L542.7559090909091,189L543.5745454545455,189L544.3931818181818,189L545.2118181818182,189L546.0304545454545,189L546.8490909090909,189L547.6677272727272,189L548.4863636363636,189L549.305,189L550.1236363636364,189L550.9422727272728,189L551.7609090909091,189L552.5795454545455,189L553.3981818181818,189L554.2168181818182,189L555.0354545454545,189L555.8540909090909,189L556.6727272727272,189L557.4913636363636,189L558.31,189L559.1286363636364,189L559.9472727272728,189L560.7659090909091,189L561.5845454545455,189L562.4031818181818,189L563.2218181818182,189L564.0404545454545,189L564.8590909090909,189L565.6777272727272,189L566.4963636363636,189L567.315,189L568.1336363636364,189L568.9522727272728,189L569.7709090909091,189L570.5895454545455,189L571.4081818181818,189L572.2268181818182,189L573.0454545454545,189L573.8640909090909,189L574.6827272727272,189L575.5013636363636,189L576.32,189L577.1386363636364,189L577.9572727272728,189L578.7759090909091,189L579.5945454545455,189L580.4131818181818,189L581.2318181818182,189L582.0504545454545,189L582.8690909090909,189L583.6877272727273,189L584.5063636363636,189L585.325,189L586.1436363636363,189L586.9622727272728,189L587.7809090909091,189L588.5995454545455,189L589.4181818181818,189L590.2368181818181,189L591.0554545454546,189L591.8740909090909,189L592.6927272727273,189L593.5113636363636,189L594.33,189L595.1486363636363,189L595.9672727272728,189L596.7859090909091,189L597.6045454545455,189L598.4231818181818,189L599.2418181818182,189L600.0604545454546,189L600.8790909090909,189L601.6977272727273,189L602.5163636363636,189L603.335,189L604.1536363636363,189L604.9722727272728,189L605.790909090909,189L606.6095454545454,189L607.4281818181819,189L608.2468181818182,189L609.0654545454546,189L609.8840909090909,189L610.7027272727273,189L611.5213636363636,189L612.34,189L613.1586363636363,189L613.9772727272726,189L614.795909090909,189L615.6145454545455,189L616.4331818181819,189L617.2518181818182,189L618.0704545454546,189L618.8890909090909,189L619.7077272727273,189L620.5263636363636,189L621.3449999999999,189L622.1636363636363,189L622.9822727272727,189L623.8009090909092,189L624.6195454545455,189L625.4381818181819,189L626.2568181818182,189L627.0754545454546,189L627.8940909090909,189L628.7127272727273,189L629.5313636363636,189L630.3499999999999,189L631.1686363636363,189L631.9872727272727,189L632.8059090909092,189L633.6245454545455,189L634.4431818181819,189L635.2618181818182,189L636.0804545454546,189L636.8990909090909,189L637.7177272727272,189L638.5363636363636,189L639.355,189L640.1736363636364,189L640.9922727272727,189L641.8109090909091,189L642.6295454545455,189L643.4481818181819,189L644.2668181818182,189L645.0854545454545,189L645.9040909090909,189L646.7227272727272,189L647.5413636363637,189L648.36,189L649.1786363636364,189L649.9972727272727,189L650.8159090909091,189L651.6345454545454,189L652.4531818181817,189L653.2718181818182,189L654.0904545454545,189L654.9090909090909,189L655.7277272727273,189L656.5463636363637,189L657.365,189L658.1836363636364,189L659.0022727272727,189L659.8209090909091,189L660.6395454545454,189L661.4581818181817,189L662.2768181818182,189L663.0954545454546,189L663.914090909091,189L664.7327272727273,189L665.5513636363637,189L666.37,189L667.1886363636364,189L668.0072727272727,189L668.825909090909,189L669.6445454545454,189L670.4631818181817,189L671.2818181818182,189L672.1004545454546,189L672.919090909091,189L673.7377272727273,189L674.5563636363637,189L675.375,189L676.1936363636363,189L677.0122727272727,189L677.830909090909,189L678.6495454545454,189L679.4681818181818,189L680.2868181818183,189L681.1054545454546,189L681.924090909091,189L682.7427272727273,189L683.5613636363636,189L684.38,189L685.1986363636363,189L686.0172727272727,189L686.835909090909,189L687.6545454545454,189L688.4731818181818,189L689.2918181818183,189L690.1104545454546,189L690.9290909090909,189L691.7477272727273,189L692.5663636363636,189L693.385,189L694.2036363636363,189L695.0222727272727,189L695.8409090909091,189L696.6595454545455,189L697.4781818181818,189L698.2968181818183,189L699.1154545454546,189L699.9340909090909,189L700.7527272727273,189L701.5713636363636,189L702.39,189L703.2086363636363,189L704.0272727272728,189L704.8459090909091,189L705.6645454545455,189L706.4831818181818,189L707.3018181818181,189L708.1204545454545,189L708.9390909090909,189L709.7577272727273,189L710.5763636363636,189L711.395,189L712.2136363636364,189L713.0322727272728,189L713.8509090909091,189L714.6695454545454,189L715.4881818181818,189L716.3068181818181,189L717.1254545454545,189L717.9440909090908,189L718.7627272727273,189L719.5813636363637,189L720.4000000000001,189L721.2186363636364,189L722.0372727272727,189L722.8559090909091,189L723.6745454545454,189L724.4931818181818,189L725.3118181818181,189L726.1304545454545,189L726.9490909090908,189L727.7677272727273,189L728.5863636363637,189L729.4050000000001,189L730.2236363636364,189L731.0422727272727,189L731.8609090909091,189L732.6795454545454,189L733.4981818181818,189L734.3168181818181,189L735.1354545454545,189L735.954090909091,189L736.7727272727274,189L737.5913636363637,189L738.41,189L739.2286363636364,189L740.0472727272727,189L740.8659090909091,189L741.6845454545454,189L742.5031818181818,189L743.3218181818181,189L744.1404545454546,189L744.959090909091,189L745.7777272727272,189L746.5963636363637,189L747.415,189L748.2336363636364,189L749.0522727272727,189L749.8709090909091,189L750.6895454545454,189L751.5081818181818,189L752.3268181818182,189L753.1454545454545,189L753.9640909090909,189L754.7827272727272,189L755.6013636363637,189L756.42,189L757.2386363636364,189L758.0572727272727,189L758.8759090909091,189L759.6945454545454,189L760.5131818181819,189L761.3318181818182,189L762.1504545454545,189L762.9690909090909,189L763.7877272727272,189L764.6063636363637,189L765.425,189L766.2436363636364,189L767.0622727272727,189L767.8809090909091,189L768.6995454545455,189L769.5181818181818,189L770.3368181818182,189L771.1554545454545,189L771.9740909090909,189L772.7927272727272,189L773.6113636363636,189L774.43,189L775.2486363636364,189L776.0672727272728,189L776.8859090909091,189L777.7045454545455,189L778.5231818181818,189L779.3418181818182,189L780.1604545454545,189L780.9790909090909,189L781.7977272727272,189L782.6163636363636,189L783.435,189L784.2536363636364,189L785.0722727272728,189L785.8909090909091,189L786.7095454545455,189L787.5281818181818,189L788.3468181818182,189L789.1654545454545,189L789.9840909090909,189L790.8027272727272,189L791.6213636363636,189L792.44,189L793.2586363636364,189L794.0772727272728,189L794.8959090909091,189L795.7145454545455,189L796.5331818181818,189L797.3518181818182,189L798.1704545454545,189L798.9890909090909,189L799.8077272727272,189L800.6263636363636,189L801.445,189L802.2636363636364,189L803.0822727272728,189L803.9009090909091,189L804.7195454545455,189L805.5381818181818,189L806.3568181818182,189L807.1754545454545,189L807.9940909090909,189L808.8127272727273,189L809.6313636363636,189L810.45,189L811.2686363636363,189L812.0872727272728,189L812.9059090909091,189L813.7245454545455,189L814.5431818181818,189L815.3618181818181,189L816.1804545454546,189L816.9990909090909,189L817.8177272727273,189L818.6363636363636,189L819.455,189L820.2736363636363,189L821.0922727272728,189L821.9109090909091,189L822.7295454545455,189L823.5481818181818,189L824.3668181818182,189L825.1854545454546,189L826.0040909090909,189L826.8227272727273,189L827.6413636363636,189L828.46,189L829.2786363636363,189L830.0972727272728,189L830.915909090909,189L831.7345454545454,189L832.5531818181819,189L833.3718181818182,189L834.1904545454546,189L835.0090909090909,189L835.8277272727273,189L836.6463636363636,189L837.465,189L838.2836363636363,189L839.1022727272726,189L839.920909090909,189L840.7395454545455,189L841.5581818181819,189L842.3768181818182,189L843.1954545454546,189L844.0140909090909,189L844.8327272727273,189L845.6513636363636,189L846.4699999999999,189L847.2886363636363,189L848.1072727272727,189L848.9259090909092,189L849.7445454545455,189L850.5631818181819,189L851.3818181818182,189L852.2004545454546,189L853.0190909090909,189L853.8377272727273,189L854.6563636363636,189L855.4749999999999,189L856.2936363636363,189L857.1122727272727,189L857.9309090909092,189L858.7495454545455,189L859.5681818181819,189L860.3868181818182,189L861.2054545454546,189L862.0240909090909,189L862.8427272727272,189L863.6613636363636,189L864.48,189L865.2986363636364,189L866.1172727272727,189L866.9359090909091,189L867.7545454545455,189L868.5731818181819,189L869.3918181818182,189L870.2104545454545,189L871.0290909090909,189L871.8477272727272,189L872.6663636363637,189L873.485,189" style="fill: none;" fill="none"></path></g></g></g></g></g></g><g transform="translate(50, 378)" clip-path="url(#clip_1)"><clipPath id="clip_1"><rect width="900" height="22"></rect></clipPath><g><g><line x1="0" y1="0" x2="0" y2="5" style="visibility: inherit;" fill="rgb(0, 0, 0)" stroke="rgb(204, 204, 204)" stroke-width="1px"></line><line x1="81.86363636363636" y1="0" x2="81.86363636363636" y2="5" style="visibility: inherit;" fill="rgb(0, 0, 0)" stroke="rgb(204, 204, 204)" stroke-width="1px"></line><line x1="163.72727272727272" y1="0" x2="163.72727272727272" y2="5" style="visibility: inherit;" fill="rgb(0, 0, 0)" stroke="rgb(204, 204, 204)" stroke-width="1px"></line><line x1="245.59090909090907" y1="0" x2="245.59090909090907" y2="5" style="visibility: inherit;" fill="rgb(0, 0, 0)" stroke="rgb(204, 204, 204)" stroke-width="1px"></line><line x1="327.45454545454544" y1="0" x2="327.45454545454544" y2="5" style="visibility: inherit;" fill="rgb(0, 0, 0)" stroke="rgb(204, 204, 204)" stroke-width="1px"></line><line x1="409.3181818181818" y1="0" x2="409.3181818181818" y2="5" style="visibility: inherit;" fill="rgb(0, 0, 0)" stroke="rgb(204, 204, 204)" stroke-width="1px"></line><line x1="491.18181818181813" y1="0" x2="491.18181818181813" y2="5" style="visibility: inherit;" fill="rgb(0, 0, 0)" stroke="rgb(204, 204, 204)" stroke-width="1px"></line><line x1="573.0454545454545" y1="0" x2="573.0454545454545" y2="5" style="visibility: inherit;" fill="rgb(0, 0, 0)" stroke="rgb(204, 204, 204)" stroke-width="1px"></line><line x1="654.9090909090909" y1="0" x2="654.9090909090909" y2="5" style="visibility: inherit;" fill="rgb(0, 0, 0)" stroke="rgb(204, 204, 204)" stroke-width="1px"></line><line x1="736.7727272727274" y1="0" x2="736.7727272727274" y2="5" style="visibility: inherit;" fill="rgb(0, 0, 0)" stroke="rgb(204, 204, 204)" stroke-width="1px"></line><line x1="818.6363636363636" y1="0" x2="818.6363636363636" y2="5" style="visibility: inherit;" fill="rgb(0, 0, 0)" stroke="rgb(204, 204, 204)" stroke-width="1px"></line><line x1="900.5" y1="0" x2="900.5" y2="5" style="visibility: inherit;" fill="rgb(0, 0, 0)" stroke="rgb(204, 204, 204)" stroke-width="1px"></line></g><g transform="translate(0, 8)"><text x="0" y="0" dx="0em" dy="0.95em" style="text-anchor: middle; visibility: hidden; font-family: &quot;Helvetica Neue&quot;, sans-serif; font-size: 12px; font-weight: 200;" fill="rgb(50, 49, 63)" stroke="none" stroke-width="1px">-50k</text><text x="81.86363636363636" y="0" dx="0em" dy="0.95em" style="text-anchor: middle; visibility: inherit; font-family: &quot;Helvetica Neue&quot;, sans-serif; font-size: 12px; font-weight: 200;" fill="rgb(50, 49, 63)" stroke="none" stroke-width="1px">0</text><text x="163.72727272727272" y="0" dx="0em" dy="0.95em" style="text-anchor: middle; visibility: inherit; font-family: &quot;Helvetica Neue&quot;, sans-serif; font-size: 12px; font-weight: 200;" fill="rgb(50, 49, 63)" stroke="none" stroke-width="1px">50k</text><text x="245.59090909090907" y="0" dx="0em" dy="0.95em" style="text-anchor: middle; visibility: inherit; font-family: &quot;Helvetica Neue&quot;, sans-serif; font-size: 12px; font-weight: 200;" fill="rgb(50, 49, 63)" stroke="none" stroke-width="1px">100k</text><text x="327.45454545454544" y="0" dx="0em" dy="0.95em" style="text-anchor: middle; visibility: inherit; font-family: &quot;Helvetica Neue&quot;, sans-serif; font-size: 12px; font-weight: 200;" fill="rgb(50, 49, 63)" stroke="none" stroke-width="1px">150k</text><text x="409.3181818181818" y="0" dx="0em" dy="0.95em" style="text-anchor: middle; visibility: inherit; font-family: &quot;Helvetica Neue&quot;, sans-serif; font-size: 12px; font-weight: 200;" fill="rgb(50, 49, 63)" stroke="none" stroke-width="1px">200k</text><text x="491.18181818181813" y="0" dx="0em" dy="0.95em" style="text-anchor: middle; visibility: inherit; font-family: &quot;Helvetica Neue&quot;, sans-serif; font-size: 12px; font-weight: 200;" fill="rgb(50, 49, 63)" stroke="none" stroke-width="1px">250k</text><text x="573.0454545454545" y="0" dx="0em" dy="0.95em" style="text-anchor: middle; visibility: inherit; font-family: &quot;Helvetica Neue&quot;, sans-serif; font-size: 12px; font-weight: 200;" fill="rgb(50, 49, 63)" stroke="none" stroke-width="1px">300k</text><text x="654.9090909090909" y="0" dx="0em" dy="0.95em" style="text-anchor: middle; visibility: inherit; font-family: &quot;Helvetica Neue&quot;, sans-serif; font-size: 12px; font-weight: 200;" fill="rgb(50, 49, 63)" stroke="none" stroke-width="1px">350k</text><text x="736.7727272727274" y="0" dx="0em" dy="0.95em" style="text-anchor: middle; visibility: inherit; font-family: &quot;Helvetica Neue&quot;, sans-serif; font-size: 12px; font-weight: 200;" fill="rgb(50, 49, 63)" stroke="none" stroke-width="1px">400k</text><text x="818.6363636363636" y="0" dx="0em" dy="0.95em" style="text-anchor: middle; visibility: inherit; font-family: &quot;Helvetica Neue&quot;, sans-serif; font-size: 12px; font-weight: 200;" fill="rgb(50, 49, 63)" stroke="none" stroke-width="1px">450k</text><text x="900.5" y="0" dx="0em" dy="0.95em" style="text-anchor: middle; visibility: hidden; font-family: &quot;Helvetica Neue&quot;, sans-serif; font-size: 12px; font-weight: 200;" fill="rgb(50, 49, 63)" stroke="none" stroke-width="1px">500k</text></g><line x1="0" y1="0" x2="900.5" y2="0" fill="rgb(0, 0, 0)" stroke="rgb(204, 204, 204)" stroke-width="1px"></line></g></g></g></g></svg>