<svg viewBox="0 0 950.5 400" xmlns="http://www.w3.org/2000/svg"><g><g><g><g><g><line x1="40" y1="378" x2="35" y2="378" style="visibility: inherit;" fill="rgb(0, 0, 0)" stroke="rgb(204, 204, 204)" stroke-width="1px"></line><line x1="40" y1="348.9230769230769" x2="35" y2="348.9230769230769" style="visibility: inherit;" fill="rgb(0, 0, 0)" stroke="rgb(204, 204, 204)" stroke-width="1px"></line><line x1="40" y1="319.8461538461538" x2="35" y2="319.8461538461538" style="visibility: inherit;" fill="rgb(0, 0, 0)" stroke="rgb(204, 204, 204)" stroke-width="1px"></line><line x1="40" y1="290.7692307692308" x2="35" y2="290.7692307692308" style="visibility: inherit;" fill="rgb(0, 0, 0)" stroke="rgb(204, 204, 204)" stroke-width="1px"></line><line x1="40" y1="261.6923076923077" x2="35" y2="261.6923076923077" style="visibility: inherit;" fill="rgb(0, 0, 0)" stroke="rgb(204, 204, 204)" stroke-width="1px"></line><line x1="40" y1="232.6153846153846" x2="35" y2="232.6153846153846" style="visibility: inherit;" fill="rgb(0, 0, 0)" stroke="rgb(204, 204, 204)" stroke-width="1px"></line><line x1="40" y1="203.53846153846152" x2="35" y2="203.53846153846152" style="visibility: inherit;" fill="rgb(0, 0, 0)" stroke="rgb(204, 204, 204)" stroke-width="1px"></line><line x1="40" y1="174.46153846153848" x2="35" y2="174.46153846153848" style="visibility: inherit;" fill="rgb(0, 0, 0)" stroke="rgb(204, 204, 204)" stroke-width="1px"></line><line x1="40" y1="145.38461538461536" x2="35" y2="145.38461538461536" style="visibility: inherit;" fill="rgb(0, 0, 0)" stroke="rgb(204, 204, 204)" stroke-width="1px"></line><line x1="40" y1="116.30769230769232" x2="35" y2="116.30769230769232" style="visibility: inherit;" fill="rgb(0, 0, 0)" stroke="rgb(204, 204, 204)" stroke-width="1px"></line><line x1="40" y1="87.23076923076923" x2="35" y2="87.23076923076923" style="visibility: inherit;" fill="rgb(0, 0, 0)" stroke="rgb(204, 204, 204)" stroke-width="1px"></line><line x1="40" y1="58.15384615384613" x2="35" y2="58.15384615384613" style="visibility: inherit;" fill="rgb(0, 0, 0)" stroke="rgb(204, 204, 204)" stroke-width="1px"></line><line x1="40" y1="29.076923076923038" x2="35" y2="29.076923076923038" style="visibility: inherit;" fill="rgb(0, 0, 0)" stroke="rgb(204, 204, 204)" stroke-width="1px"></line><line x1="40" y1="0" x2="35" y2="0" style="visibility: inherit;" fill="rgb(0, 0, 0)" stroke="rgb(204, 204, 204)" stroke-width="1px"></line></g><g transform="translate(30, 0)"><text x="0" y="378" dx="0em" dy="0.3em" style="text-anchor: end; visibility: hidden; font-family: &quot;Helvetica Neue&quot;, sans-serif; font-size: 12px; font-weight: 200;" fill="rgb(50, 49, 63)" stroke="none" stroke-width="1px">-10</text><text x="0" y="348.9230769230769" dx="0em" dy="0.3em" style="text-anchor: end; visibility: inherit; font-family: &quot;Helvetica Neue&quot;, sans-serif; font-size: 12px; font-weight: 200;" fill="rgb(50, 49, 63)" stroke="none" stroke-width="1px">0</text><text x="0" y="319.8461538461538" dx="0em" dy="0.3em" style="text-anchor: end; visibility: inherit; font-family: &quot;Helvetica Neue&quot;, sans-serif; font-size: 12px; font-weight: 200;" fill="rgb(50, 49, 63)" stroke="none" stroke-width="1px">10</text><text x="0" y="290.7692307692308" dx="0em" dy="0.3em" style="text-anchor: end; visibility: inherit; font-family: &quot;Helvetica Neue&quot;, sans-serif; font-size: 12px; font-weight: 200;" fill="rgb(50, 49, 63)" stroke="none" stroke-width="1px">20</text><text x="0" y="261.6923076923077" dx="0em" dy="0.3em" style="text-anchor: end; visibility: inherit; font-family: &quot;Helvetica Neue&quot;, sans-serif; font-size: 12px; font-weight: 200;" fill="rgb(50, 49, 63)" stroke="none" stroke-width="1px">30</text><text x="0" y="232.6153846153846" dx="0em" dy="0.3em" style="text-anchor: end; visibility: inherit; font-family: &quot;Helvetica Neue&quot;, sans-serif; font-size: 12px; font-weight: 200;" fill="rgb(50, 49, 63)" stroke="none" stroke-width="1px">40</text><text x="0" y="203.53846153846152" dx="0em" dy="0.3em" style="text-anchor: end; visibility: inherit; font-family: &quot;Helvetica Neue&quot;, sans-serif; font-size: 12px; font-weight: 200;" fill="rgb(50, 49, 63)" stroke="none" stroke-width="1px">50</text><text x="0" y="174.46153846153848" dx="0em" dy="0.3em" style="text-anchor: end; visibility: inherit; font-family: &quot;Helvetica Neue&quot;, sans-serif; font-size: 12px; font-weight: 200;" fill="rgb(50, 49, 63)" stroke="none" stroke-width="1px">60</text><text x="0" y="145.38461538461536" dx="0em" dy="0.3em" style="text-anchor: end; visibility: inherit; font-family: &quot;Helvetica Neue&quot;, sans-serif; font-size: 12px; font-weight: 200;" fill="rgb(50, 49, 63)" stroke="none" stroke-width="1px">70</text><text x="0" y="116.30769230769232" dx="0em" dy="0.3em" style="text-anchor: end; visibility: inherit; font-family: &quot;Helvetica Neue&quot;, sans-serif; font-size: 12px; font-weight: 200;" fill="rgb(50, 49, 63)" stroke="none" stroke-width="1px">80</text><text x="0" y="87.23076923076923" dx="0em" dy="0.3em" style="text-anchor: end; visibility: inherit; font-family: &quot;Helvetica Neue&quot;, sans-serif; font-size: 12px; font-weight: 200;" fill="rgb(50, 49, 63)" stroke="none" stroke-width="1px">90</text><text x="0" y="58.15384615384613" dx="0em" dy="0.3em" style="text-anchor: end; visibility: inherit; font-family: &quot;Helvetica Neue&quot;, sans-serif; font-size: 12px; font-weight: 200;" fill="rgb(50, 49, 63)" stroke="none" stroke-width="1px">100</text><text x="0" y="29.076923076923038" dx="0em" dy="0.3em" style="text-anchor: end; visibility: inherit; font-family: &quot;Helvetica Neue&quot;, sans-serif; font-size: 12px; font-weight: 200;" fill="rgb(50, 49, 63)" stroke="none" stroke-width="1px">110</text><text x="0" y="0" dx="0em" dy="0.3em" style="text-anchor: end; visibility: hidden; font-family: &quot;Helvetica Neue&quot;, sans-serif; font-size: 12px; font-weight: 200;" fill="rgb(50, 49, 63)" stroke="none" stroke-width="1px">120</text></g><line x1="40" y1="0" x2="40" y2="378" fill="rgb(0, 0, 0)" stroke="rgb(204, 204, 204)" stroke-width="1px"></line></g></g><g transform="translate(40, 0)" clip-path="url(#clip_0)"><clipPath id="clip_0"><rect width="910" height="378"></rect></clipPath><g><g><g><line x1="0" y1="0" x2="0" y2="378" fill="rgb(0, 0, 0)" stroke="rgb(60, 60, 60)" stroke-width="1px" opacity="0.25"></line><line x1="82.77272727272728" y1="0" x2="82.77272727272728" y2="378" fill="rgb(0, 0, 0)" stroke="rgb(60, 60, 60)" stroke-width="1px" opacity="0.25"></line><line x1="165.54545454545456" y1="0" x2="165.54545454545456" y2="378" fill="rgb(0, 0, 0)" stroke="rgb(60, 60, 60)" stroke-width="1px" opacity="0.25"></line><line x1="248.3181818181818" y1="0" x2="248.3181818181818" y2="378" fill="rgb(0, 0, 0)" stroke="rgb(60, 60, 60)" stroke-width="1px" opacity="0.25"></line><line x1="331.0909090909091" y1="0" x2="331.0909090909091" y2="378" fill="rgb(0, 0, 0)" stroke="rgb(60, 60, 60)" stroke-width="1px" opacity="0.25"></line><line x1="413.8636363636364" y1="0" x2="413.8636363636364" y2="378" fill="rgb(0, 0, 0)" stroke="rgb(60, 60, 60)" stroke-width="1px" opacity="0.25"></line><line x1="496.6363636363636" y1="0" x2="496.6363636363636" y2="378" fill="rgb(0, 0, 0)" stroke="rgb(60, 60, 60)" stroke-width="1px" opacity="0.25"></line><line x1="579.4090909090909" y1="0" x2="579.4090909090909" y2="378" fill="rgb(0, 0, 0)" stroke="rgb(60, 60, 60)" stroke-width="1px" opacity="0.25"></line><line x1="662.1818181818182" y1="0" x2="662.1818181818182" y2="378" fill="rgb(0, 0, 0)" stroke="rgb(60, 60, 60)" stroke-width="1px" opacity="0.25"></line><line x1="744.9545454545455" y1="0" x2="744.9545454545455" y2="378" fill="rgb(0, 0, 0)" stroke="rgb(60, 60, 60)" stroke-width="1px" opacity="0.25"></line><line x1="827.7272727272727" y1="0" x2="827.7272727272727" y2="378" fill="rgb(0, 0, 0)" stroke="rgb(60, 60, 60)" stroke-width="1px" opacity="0.25"></line><line x1="910.5" y1="0" x2="910.5" y2="378" fill="rgb(0, 0, 0)" stroke="rgb(60, 60, 60)" stroke-width="1px" opacity="0.25"></line></g><g><line x1="0" y1="378" x2="910.5" y2="378" fill="rgb(0, 0, 0)" stroke="rgb(60, 60, 60)" stroke-width="1px" opacity="0.25"></line><line x1="0" y1="348.9230769230769" x2="910.5" y2="348.9230769230769" fill="rgb(0, 0, 0)" stroke="rgb(60, 60, 60)" stroke-width="1px" opacity="0.25"></line><line x1="0" y1="319.8461538461538" x2="910.5" y2="319.8461538461538" fill="rgb(0, 0, 0)" stroke="rgb(60, 60, 60)" stroke-width="1px" opacity="0.25"></line><line x1="0" y1="290.7692307692308" x2="910.5" y2="290.7692307692308" fill="rgb(0, 0, 0)" stroke="rgb(60, 60, 60)" stroke-width="1px" opacity="0.25"></line><line x1="0" y1="261.6923076923077" x2="910.5" y2="261.6923076923077" fill="rgb(0, 0, 0)" stroke="rgb(60, 60, 60)" stroke-width="1px" opacity="0.25"></line><line x1="0" y1="232.6153846153846" x2="910.5" y2="232.6153846153846" fill="rgb(0, 0, 0)" stroke="rgb(60, 60, 60)" stroke-width="1px" opacity="0.25"></line><line x1="0" y1="203.53846153846152" x2="910.5" y2="203.53846153846152" fill="rgb(0, 0, 0)" stroke="rgb(60, 60, 60)" stroke-width="1px" opacity="0.25"></line><line x1="0" y1="174.46153846153848" x2="910.5" y2="174.46153846153848" fill="rgb(0, 0, 0)" stroke="rgb(60, 60, 60)" stroke-width="1px" opacity="0.25"></line><line x1="0" y1="145.38461538461536" x2="910.5" y2="145.38461538461536" fill="rgb(0, 0, 0)" stroke="rgb(60, 60, 60)" stroke-width="1px" opacity="0.25"></line><line x1="0" y1="116.30769230769232" x2="910.5" y2="116.30769230769232" fill="rgb(0, 0, 0)" stroke="rgb(60, 60, 60)" stroke-width="1px" opacity="0.25"></line><line x1="0" y1="87.23076923076923" x2="910.5" y2="87.23076923076923" fill="rgb(0, 0, 0)" stroke="rgb(60, 60, 60)" stroke-width="1px" opacity="0.25"></line><line x1="0" y1="58.15384615384613" x2="910.5" y2="58.15384615384613" fill="rgb(0, 0, 0)" stroke="rgb(60, 60, 60)" stroke-width="1px" opacity="0.25"></line><line x1="0" y1="29.076923076923038" x2="910.5" y2="29.076923076923038" fill="rgb(0, 0, 0)" stroke="rgb(60, 60, 60)" stroke-width="1px" opacity="0.25"></line><line x1="0" y1="0" x2="910.5" y2="0" fill="rgb(0, 0, 0)" stroke="rgb(60, 60, 60)" stroke-width="1px" opacity="0.25"></line></g></g></g><g><g><line x1="0" y1="348.9230769230769" x2="910.5" y2="348.9230769230769" fill="rgb(0, 0, 0)" stroke="rgb(153, 153, 153)" stroke-width="1.5px"></line></g></g><g><g><line x1="82.77272727272728" y1="0" x2="82.77272727272728" y2="378" fill="rgb(0, 0, 0)" stroke="rgb(153, 153, 153)" stroke-width="1.5px"></line></g></g><g><g><g><g><g><path stroke="rgb(51, 187, 238)" stroke-width="2px" d="M83.60045454545454,61.061538461538476L84.42818181818181,61.061538461538476L85.2559090909091,61.061538461538476L86.08363636363636,61.061538461538476L86.91136363636365,61.061538461538476L87.7390909090909,61.061538461538476L88.56681818181818,69.67686269883234L89.39454545454545,80.17005827668623L90.22227272727272,79.73332243321215L91.05000000000001,72.21917366032346L91.87772727272727,72.87604291939618L92.70545454545454,76.49349720436891L93.53318181818182,88.16981289759087L94.36090909090909,77.31799919006875L95.18863636363636,80.35406963319275L96.01636363636364,85.62623384983624L96.84409090909091,103.71726405543626L97.67181818181818,98.98310662695474L98.49954545454545,114.2215655802404L99.32727272727273,158.51441850154055L100.155,144.92681752671155L100.98272727272727,145.44224987873594L101.81045454545455,170.13477570081156L102.63818181818182,222.43428952853358L103.4659090909091,213.28991875212546L104.29363636363637,226.33705233185802L105.12136363636363,201.9522064414599L105.94909090909091,222.60826089421596L106.77681818181819,253.24157190964212L107.60454545454546,275.39152610065855L108.43227272727273,280.3347978022513L109.25999999999999,289.1608793837887L110.08772727272728,263.3218528640697L110.91545454545454,280.03597645982865L111.74318181818182,267.1012010381546L112.5709090909091,277.73148996330735L113.39863636363636,289.37985558853364L114.22636363636364,298.2971854656997L115.05409090909092,295.57677281182055L115.88181818181818,298.9076553182257L116.70954545454545,283.7478508363411L117.53727272727272,293.5006567298303L118.36500000000001,285.6234702192363L119.19272727272728,291.1710052094259L120.02045454545454,298.3210645064037L120.84818181818181,302.58486536637713L121.67590909090909,296.3921227507131L122.50363636363637,303.5072261711048L123.33136363636365,305.69836259102624L124.1590909090909,310.2525562380303L124.98681818181818,314.7926879587263L125.81454545454545,300.97407484184595L126.64227272727274,306.7633801292106L127.47000000000001,308.1417208922814L128.29772727272726,308.68430848822186L129.12545454545455,311.0614732072763L129.95318181818183,300.98849251764403L130.7809090909091,305.3790062666248L131.60863636363635,298.5306209465353L132.43636363636364,306.77870749834153L133.2640909090909,306.8951969639332L134.09181818181818,301.85019584090116L134.91954545454547,298.6256206337662L135.74727272727273,302.24344930333666L136.575,306.83594859154226L137.40272727272728,309.0851864386731L138.23045454545456,310.6655252273208L139.05818181818182,311.7601468871155L139.88590909090908,311.34377994698536L140.71363636363637,313.6951233946861L141.54136363636363,313.18662892619716L142.36909090909091,309.8799775036112L143.1968181818182,304.9356784929457L144.02454545454546,302.2662595080646L144.85227272727272,298.5513867402767L145.68,294.67999582731284L146.5077272727273,303.04439575899846L147.33545454545452,308.7127908790019L148.1631818181818,307.00182815171564L148.9909090909091,308.8118666147749L149.81863636363636,306.36342810485127L150.64636363636365,310.12821115274323L151.4740909090909,313.5660171973926L152.30181818181816,315.537105588211L153.12954545454545,310.2822633529266L153.95727272727274,307.04914535118655L154.78500000000003,307.5156410568658L155.61272727272726,311.8663077110425L156.44045454545454,310.91906057947824L157.26818181818183,310.6018976326178L158.0959090909091,313.274984205228L158.92363636363638,312.3496061542403L159.75136363636364,307.6636092125637L160.5790909090909,309.67608670532894L161.40681818181818,306.494267112027L162.23454545454547,308.037917994267L163.06227272727273,312.3647089393543L163.89,310.1410636636426L164.71772727272727,314.4023639989199L165.54545454545456,312.4260341008806L166.37318181818182,306.95100400779774L167.20090909090908,310.7190453978427L168.02863636363637,313.7207292547438L168.85636363636362,314.66740973490005L169.6840909090909,314.4694889388029L170.5118181818182,314.35861619371667L171.33954545454546,312.8317853226847L172.16727272727272,314.1340433756646L172.995,314.47073349586714L173.8227272727273,311.35070932828955L174.65045454545452,313.38723629291536L175.4781818181818,313.55282795598134L176.3059090909091,312.4147732212957L177.13363636363636,304.2683107077737L177.96136363636364,308.3263310796278L178.7890909090909,311.96502978673965L179.6168181818182,315.1174794105053L180.44454545454545,315.23525732075103L181.27227272727274,313.5580775926178L182.10000000000002,313.71654707718653L182.92772727272725,315.17146718322033L183.75545454545454,315.47118755856127L184.58318181818183,316.2474347899632L185.4109090909091,313.61615318167026L186.23863636363637,312.521999971042L187.06636363636363,313.3640880969675L187.89409090909092,314.25485112079133L188.72181818181818,316.38563804603814L189.54954545454547,313.6306587804756L190.37727272727273,313.4846301444779L191.20499999999998,313.8521984041165L192.03272727272727,315.8268439213386L192.86045454545456,314.9859853623434L193.68818181818182,315.0982068238608L194.51590909090908,314.3254519509965L195.34363636363636,315.9651174969857L196.17136363636362,316.79753256484184L196.9990909090909,316.6600576307114L197.8268181818182,317.196934735475L198.65454545454546,316.3735459848584L199.48227272727271,315.40412771415913L200.31,316.2454195794044L201.1377272727273,317.24955943995036L201.96545454545455,315.7681968326996L202.7931818181818,314.7653527497474L203.6209090909091,315.29095939741643L204.44863636363635,316.2254258992578L205.27636363636364,315.61596551340347L206.1040909090909,315.1608214849783L206.9318181818182,315.95495411253523L207.75954545454545,315.0628514770614L208.58727272727273,314.82895306317306L209.41500000000002,316.96225516685513L210.24272727272725,315.93877341754285L211.07045454545454,317.3208023148737L211.89818181818183,300.88478908123193L212.72590909090908,306.3519385943784L213.55363636363637,311.5428549220455L214.38136363636363,313.0770069983088L215.20909090909092,311.555294704732L216.03681818181818,315.24283321838453L216.86454545454546,312.67131046452494L217.69227272727275,310.6774717950724L218.51999999999998,306.61879140317774L219.34772727272727,311.5396662486262L220.17545454545456,315.3607231430121L221.00318181818182,315.2358189448705L221.83090909090907,315.9459524617052L222.65863636363636,313.7906481536119L223.48636363636365,311.0516965844748L224.3140909090909,309.881927075206L225.1418181818182,314.18932028884353L225.96954545454545,312.2102441484977L226.7972727272727,313.6072231903362L227.625,312.71048739062337L228.4527272727273,310.33090781898943L229.28045454545455,313.2985090679899L230.10818181818183,313.85981541464275L230.93590909090912,316.3049190597645L231.76363636363635,301.2638749564604L232.5913636363636,305.5306325429399L233.4190909090909,309.69661630226256L234.24681818181818,309.5830381113887L235.07454545454544,311.85643847328794L235.90227272727273,313.5112479211967L236.73000000000002,313.95763686706033L237.55772727272728,314.56842827408235L238.38545454545456,316.09798004137247L239.21318181818185,317.81996625569604L240.04090909090908,317.6612108923806L240.86863636363634,318.8385999273867L241.69636363636363,318.29493107929113L242.52409090909092,318.7832527572126L243.35181818181817,307.7230285774045L244.17954545454546,312.89398119016266L245.00727272727275,313.3486964064053L245.835,314.64614144895506L246.6627272727273,309.66747220880364L247.49045454545453,310.5081757562186L248.3181818181818,314.61456184927647L249.14590909090907,315.9227981130308L249.97363636363636,313.0450817784912L250.80136363636365,309.98764456481297L251.6290909090909,313.5345448816819L252.4568181818182,315.2477390644414L253.28454545454548,317.1882426313575L254.11227272727274,317.7104408485899L254.94000000000003,313.8440020004682L255.76772727272726,313.6986675823516L256.5954545454545,314.5974373259096L257.42318181818183,314.30955574646975L258.2509090909091,316.6231807991908L259.07863636363635,313.97843349688605L259.90636363636366,312.6036757045863L260.7340909090909,313.1745131150595L261.5618181818182,313.1497284038445L262.3895454545455,316.15699457052375L263.2172727272727,316.9564509995164L264.04499999999996,314.39048620616455L264.8727272727273,316.0440824376692L265.70045454545453,315.96568023183227L266.5281818181818,317.93855688647017L267.3559090909091,317.8360496404458L268.18363636363637,314.1588239629221L269.0113636363636,311.27260207006094L269.83909090909094,315.09796381349463L270.6668181818182,316.5214355299181L271.49454545454546,316.22301560778334L272.3222727272727,315.49522968209976L273.15,308.62021432152324L273.9777272727273,308.93719692294513L274.80545454545455,312.0546261629881L275.6331818181818,314.3868367012578L276.4609090909091,316.20049342747416L277.2886363636364,312.20683451802296L278.11636363636364,313.69240795944285L278.9440909090909,315.5988011165142L279.77181818181816,316.16235748734766L280.5995454545454,314.5989534469233L281.42727272727274,314.6102601824963L282.255,310.0263047066282L283.08272727272725,308.40148976954293L283.91045454545457,308.6691294820777L284.73818181818183,311.97686230463125L285.5659090909091,310.9042711338586L286.3936363636364,309.17448575723824L287.2213636363636,307.55507606972753L288.0490909090909,303.8561221540999L288.8768181818182,303.6747343769138L289.70454545454544,304.4006098569175L290.53227272727275,307.5742124377289L291.36,309.75894082675427L292.1877272727273,311.46767218836027L293.0154545454546,312.76131328686495L293.84318181818185,315.41825944757346L294.67090909090905,315.9979725811511L295.49863636363636,314.306475979627L296.3263636363636,313.0959856197023L297.1540909090909,314.0663484554208L297.9818181818182,316.19734733760043L298.80954545454546,315.23889458279234L299.6372727272727,315.3229984975345L300.46500000000003,317.76436737103796L301.2927272727273,315.71999682408386L302.12045454545455,317.93962500649394L302.9481818181818,318.8286583328477L303.77590909090907,312.05666556667825L304.6036363636363,311.3841529960128L305.43136363636364,314.14684268167844L306.2590909090909,316.6740300157923L307.08681818181816,316.94595694638383L307.9145454545455,313.2775044058204L308.74227272727273,312.01696392842314L309.57000000000005,313.56004743077494L310.39772727272725,316.1778748834481L311.2254545454545,313.4717932601L312.0531818181818,315.7434108864799L312.8809090909091,311.9067906267366L313.70863636363634,312.3278805694671L314.53636363636366,315.43857476666335L315.3640909090909,315.0543870369342L316.1918181818182,314.17342266264654L317.0195454545455,312.85636165962785L317.84727272727275,315.9809745239937L318.67499999999995,315.350005031826L319.50272727272727,313.3933870957276L320.33045454545453,313.98875238307505L321.1581818181818,313.68248232231986L321.9859090909091,315.1434758107222L322.81363636363636,315.71963158793005L323.6413636363636,317.3702404912196L324.46909090909094,311.5482986162556L325.2968181818182,307.5137934233403L326.12454545454545,309.0632409881332L326.9522727272727,305.5671763128506L327.78,309.69017486143144L328.6077272727273,310.0971813645658L329.43545454545455,313.1853209541718L330.2631818181818,314.00575121202945L331.0909090909091,312.44218336741073L331.9186363636364,313.07761771275415L332.74636363636364,314.6219552430371L333.57409090909096,314.11001519270667L334.40181818181816,312.41677802947993L335.2295454545454,315.7425084821636L336.05727272727273,312.52019060565556L336.885,314.619806512629L337.71272727272725,312.78911477188217L338.54045454545457,311.85685293976127L339.3681818181818,310.7765550070302L340.1959090909091,312.2869981498574L341.0236363636364,314.7678917152318L341.8513636363636,316.50166567442153L342.6790909090909,316.449442397817L343.5068181818182,316.21953451241126L344.33454545454543,317.9230247176913L345.16227272727275,317.358993229334L345.99,315.17897191111115L346.81772727272727,313.4569215448225L347.6454545454546,308.79351716357843L348.47318181818184,311.0375306155768L349.30090909090904,312.9035950705837L350.12863636363636,316.6576033736678L350.9563636363636,315.6068697165084L351.7840909090909,312.22733901646603L352.6118181818182,312.9487111021873L353.43954545454545,315.17901737528285L354.2672727272727,315.51401490444596L355.095,315.99869044971945L355.9227272727273,318.0078553690279L356.75045454545455,319.62141665394006L357.5781818181818,319.86301745757396L358.40590909090906,318.46625346770844L359.2336363636364,316.34627993730516L360.06136363636364,317.08539013833337L360.8890909090909,318.06046534520704L361.7168181818182,316.2649427660842L362.54454545454547,316.4512736688715L363.37227272727273,315.5748934057062L364.20000000000005,311.4680129665006L365.02772727272725,313.5731157891214L365.8554545454545,309.8404847101953L366.6831818181818,314.1892010457499L367.5109090909091,314.70736678129606L368.33863636363634,316.00552883107855L369.16636363636366,316.6279328417192L369.9940909090909,317.682606080717L370.8218181818182,316.7161792548849L371.6495454545455,318.59816946112466L372.47727272727275,319.12320971406587L373.30499999999995,319.102233816533L374.13272727272727,313.08041713905027L374.9604545454545,315.3109075252514L375.78818181818184,316.64920175697216L376.6159090909091,316.820290073677L377.44363636363636,318.38461570868185L378.2713636363637,318.5727275680032L379.09909090909093,318.135407663661L379.9268181818182,318.3967694770653L380.75454545454545,318.46260582404716L381.5822727272727,315.8097048365914L382.40999999999997,316.26120751733947L383.2377272727273,315.3392092340083L384.06545454545454,316.98691030368246L384.8931818181818,317.4814481982476L385.7209090909091,314.4396378328045L386.5486363636364,314.63396047044404L387.37636363636364,316.19016699623694L388.20409090909095,312.96500932226326L389.03181818181815,308.2577318483347L389.8595454545454,311.81512683271814L390.6872727272727,312.42591814651524L391.515,315.6909687557164L392.34272727272725,312.66549037795096L393.17045454545456,315.4602173776401L393.9981818181818,315.52813064842337L394.8259090909091,316.77953563087533L395.6536363636364,315.3739562547177L396.4813636363636,314.3651641933167L397.3090909090909,315.8272561463235L398.13681818181817,312.7120180906825L398.96454545454543,315.5909565291297L399.79227272727275,316.6979725603846L400.62,318.254201404038L401.44772727272726,310.79098333162426L402.2754545454546,311.74111785565464L403.10318181818184,312.5078657805784L403.9309090909091,311.75456549542787L404.75863636363636,312.81415961468645L405.5863636363636,312.13772653804267L406.4140909090909,313.7257130043592L407.2418181818182,316.1474560771516L408.06954545454545,317.9238915140982L408.8972727272727,283.2718190393183L409.725,229.8615529620525L410.5527272727273,200.05847277407648L411.38045454545454,174.50585585307266L412.2081818181818,156.04505577634183L413.03590909090906,167.03010989590578L413.8636363636364,191.81037362985117L414.69136363636363,219.47237802406454L415.5190909090909,205.9911196151073L416.3468181818182,191.2192865198531L417.17454545454547,180.51003542227846L418.0022727272727,199.2374918015567L418.83000000000004,192.17018541672127L419.6577272727273,201.60241982969774L420.4854545454545,192.81376057607883L421.3131818181818,200.47656581266955L422.1409090909091,192.78439954713448L422.96863636363634,206.855872272226L423.79636363636365,222.81998283129684L424.6240909090909,230.58524550181295L425.45181818181817,206.53653191647237L426.2795454545455,221.62038068834497L427.10727272727274,241.41204767851931L427.935,217.34568866664432L428.76272727272726,218.58978880564314L429.5904545454545,235.10387328338587L430.41818181818184,250.0242664725668L431.2459090909091,246.28154110818704L432.07363636363635,251.8255406410991L432.90136363636367,230.4171714258629L433.7290909090909,254.60856343572732L434.5568181818182,259.15246890015334L435.3845454545455,242.93372111905083L436.2122727272727,258.40423311510915L437.03999999999996,270.4905671071777L437.8677272727273,265.8081864181528L438.69545454545454,263.4349118508917L439.5231818181818,258.1630997735458L440.3509090909091,261.7555521718198L441.1786363636364,265.86563874891146L442.00636363636363,266.1119620433861L442.83409090909095,264.7802541491086L443.66181818181815,268.93195757369364L444.48954545454546,270.56597663067953L445.3172727272727,278.9242003066454L446.145,256.37463647943497L446.9727272727273,252.23898136463666L447.80045454545456,258.9280042033974L448.6281818181818,266.21639848104155L449.45590909090913,263.67983908862493L450.2836363636364,255.57405856698205L451.11136363636365,258.7482812940354L451.9390909090909,267.5440448121409L452.76681818181817,270.95752023820853L453.5945454545454,277.9214028360028L454.42227272727274,273.4138379596771L455.25,277.9769747094939L456.0777272727272,274.37080021031176L456.9054545454546,274.01632603354506L457.7331818181818,277.7821034180725L458.5609090909091,273.86618438830214L459.38863636363635,273.84278681659384L460.21636363636367,269.1878431222016L461.04409090909087,278.88655128770273L461.87181818181824,278.5802380212507L462.69954545454544,275.6373745679337L463.5272727272727,274.00088677219804L464.355,256.28360898639573L465.1827272727272,182.84708846876052L466.01045454545454,142.8559453889486L466.8381818181818,118.7449536234684L467.6659090909091,104.04573785542118L468.49363636363637,98.48282732863731L469.3213636363637,102.12354255102849L470.1490909090909,109.54181783830938L470.97681818181815,101.08263093923864L471.80454545454546,87.01265252876254L472.63227272727266,109.19836074802674L473.46000000000004,89.94363183343143L474.28772727272724,81.64741341871877L475.11545454545455,81.08936935343979L475.9431818181818,86.06592634651395L476.77090909090913,79.08816941780924L477.59863636363633,85.44674484667411L478.4263636363637,110.08650591115952L479.2540909090909,129.35652146661758L480.08181818181816,107.38868033602523L480.9095454545455,112.11936204776902L481.7372727272727,104.4900787671229L482.565,95.26020110642759L483.39272727272726,85.302578652889L484.2204545454546,77.46708387855733L485.04818181818183,70.90486571174978L485.87590909090915,66.96753481166525L486.70363636363635,69.49005579910857L487.5313636363636,67.28172578715743L488.3590909090909,67.81764908219526L489.1868181818181,75.97059240717476L490.0145454545455,78.61374183440398L490.8422727272727,71.59286048525775L491.67,87.34648256406632L492.4977272727273,89.04481261536284L493.3254545454546,101.8884230728986L494.1531818181818,94.28074615143146L494.98090909090905,92.39122047105724L495.80863636363637,88.23349796397446L496.6363636363636,90.93394197437323L497.46409090909094,103.24343830474118L498.29181818181814,107.11221978685609L499.11954545454546,102.41625849846582L499.9472727272727,93.04667521814497L500.77500000000003,80.25262051550237L501.6027272727273,76.76326284227918L502.4304545454545,85.79641628597147L503.2581818181818,110.13015999919708L504.08590909090907,109.1119421533644L504.9136363636364,111.79639901910696L505.7413636363636,106.1572222521342L506.56909090909096,98.58664104358826L507.39681818181816,100.63505859137229L508.2245454545455,97.36688485809862L509.05227272727274,97.57705103392465L509.88000000000005,120.77084600497017L510.70772727272725,123.83173541435534L511.5354545454545,118.30212112954769L512.3631818181818,122.32281494222684L513.190909090909,102.70322387744545L514.0186363636363,111.44039882278639L514.8463636363637,112.3903969427854L515.674090909091,120.93577662720975L516.5018181818182,130.71531213017195L517.3295454545455,126.5805736682023L518.1572727272727,122.27757792800972L518.9849999999999,122.71424159980464L519.8127272727273,127.13008342142123L520.6404545454545,130.94266543746815L521.4681818181818,131.29175606649227L522.295909090909,130.78120875370246L523.1236363636364,124.79795897930984L523.9513636363637,128.76800911467424L524.779090909091,131.78003623803528L525.6068181818182,145.3634063582058L526.4345454545454,146.03650281807853L527.2622727272727,158.13344015238562L528.0899999999999,148.04929612831535L528.9177272727273,144.26957471913164L529.7454545454545,132.5863576807879L530.5731818181819,132.22258257158873L531.4009090909091,125.08124480850313L532.2286363636364,132.81489777339812L533.0563636363636,140.89586174096195L533.8840909090909,140.86367342603754L534.7118181818182,133.75513009040318L535.5395454545454,140.7330780542419L536.3672727272727,135.61523144792974L537.1949999999999,147.99682990879694L538.0227272727273,156.98348256066276L538.8504545454546,154.0054766870888L539.6781818181819,149.39405524302248L540.5059090909091,149.28566264739104L541.3336363636364,155.13985912689614L542.1613636363636,157.88391674379093L542.9890909090909,160.15342696935147L543.8168181818182,155.40897925853398L544.6445454545454,157.5053875551204L545.4722727272728,159.78092484076453L546.3,170.1762477051273L547.1277272727273,160.09343712780895L547.9554545454546,161.04298535360846L548.7831818181819,172.72425084914676L549.6109090909091,168.89608847805025L550.4386363636363,170.54073000990704L551.2663636363636,167.78905212290638L552.0940909090908,168.77804863026424L552.9218181818183,171.77836763969702L553.7495454545455,167.9085590453567L554.5772727272728,163.55128927336784L555.405,167.18846587171302L556.2327272727273,161.29154359679583L557.0604545454545,146.1226210010763L557.8881818181818,159.34818798526115L558.7159090909091,176.09383675543705L559.5436363636363,162.84091448002005L560.3713636363636,165.16301022647355L561.1990909090908,173.1470383840437L562.0268181818182,176.43514610734928L562.8545454545455,173.31954920287112L563.6822727272728,160.98249875249192L564.51,176.02765221029168L565.3377272727272,175.25582209540582L566.1654545454545,162.3104201371263L566.9931818181818,160.19240592842965L567.8209090909091,169.26005943464943L568.6486363636363,171.63142027617428L569.4763636363637,183.46377612998492L570.3040909090909,185.82365029337555L571.1318181818182,176.19034402217918L571.9595454545455,179.1334371825383L572.7872727272728,182.0332913040392L573.615,170.03228120707794L574.4427272727272,179.5093687242468L575.2704545454545,182.84038869060274L576.0981818181818,184.78731210934365L576.9259090909092,187.11854308366506L577.7536363636364,189.551123878294L578.5813636363637,193.59529119052058L579.4090909090909,185.06948240662004L580.2368181818182,180.43861399982387L581.0645454545455,186.96470834036157L581.8922727272727,192.08221050695883L582.72,187.36009553494452L583.5477272727272,186.85298039788975L584.3754545454545,196.4348651618108L585.2031818181817,193.07322826832296L586.0309090909092,197.0267053044057L586.8586363636364,198.61371549033572L587.6863636363637,193.95407456069032L588.5140909090909,197.3225968078535L589.3418181818181,200.5067870792283L590.1695454545454,193.43253378599854L590.9972727272727,190.2379827960132L591.825,182.90971275453097L592.6527272727272,191.67813337312123L593.4804545454546,193.7471886035377L594.3081818181818,198.30985359556612L595.1359090909091,190.7089905593454L595.9636363636364,179.70308664329957L596.7913636363636,184.58492890905666L597.6190909090909,185.18788042235704L598.4468181818181,194.62165044298004L599.2745454545454,190.8222225139476L600.1022727272727,192.29025707826787L600.9300000000001,192.8350755491693L601.7577272727273,193.3687386231464L602.5854545454546,199.29754909148102L603.4131818181818,199.0554510528829L604.2409090909091,202.14096244644577L605.0686363636364,188.61380873007448L605.8963636363636,193.53689884794554L606.7240909090909,192.44906238569038L607.5518181818181,193.0466690880023L608.3795454545455,189.87723370096094L609.2072727272727,201.4155700038548L610.0350000000001,197.14718638144447L610.8627272727273,202.98145666529246L611.6904545454546,204.25102962004385L612.5181818181818,194.66138700279555L613.345909090909,197.39806208355083L614.1736363636363,192.1003742327402L615.0013636363636,180.55868544427904L615.829090909091,180.57521077359118L616.6568181818182,190.6651274501072L617.4845454545455,192.09261404424552L618.3122727272727,200.625416355108L619.1400000000001,207.81748959202363L619.9677272727273,205.17541771949453L620.7954545454545,211.39336372984124L621.6231818181818,213.32664720518991L622.450909090909,212.78429779013618L623.2786363636363,210.83057867408172L624.1063636363637,209.07680874291057L624.934090909091,211.0908408938458L625.7618181818182,208.8452752460055L626.5895454545455,202.76808644981185L627.4172727272727,200.49162208660886L628.245,204.15281763109692L629.0727272727273,188.49630596327356L629.9004545454545,197.473729247285L630.7281818181818,199.51193133499208L631.555909090909,202.40192625704995L632.3836363636364,201.57715752894453L633.2113636363637,195.7709084230533L634.039090909091,203.29762108955165L634.8668181818182,165.01241880757712L635.6945454545455,141.2659157808654L636.5222727272727,125.27339858022299L637.3499999999999,120.71788234412242L638.1777272727273,120.89226491015432L639.0054545454545,126.42459267318091L639.8331818181819,123.37475180094881L640.6609090909091,126.55715581501937L641.4886363636364,130.7650665227406L642.3163636363636,132.29288479983725L643.144090909091,133.20957576609527L643.9718181818182,117.8420513772503L644.7995454545454,112.3821568611308L645.6272727272727,103.48467873206312L646.4549999999999,102.60465635094164L647.2827272727272,100.64217665123505L648.1104545454546,110.39761368304869L648.9381818181819,115.6693374405985L649.7659090909091,123.56775377520646L650.5936363636364,135.11911633889193L651.4213636363636,141.4060851879505L652.2490909090909,138.92672803584722L653.0768181818182,139.76526759073911L653.9045454545454,132.20992724990623L654.7322727272727,131.08287942686678L655.56,115.67434599859303L656.3877272727273,112.05075848745213L657.2154545454546,128.2089191662393L658.0431818181819,127.51919765358974L658.8709090909091,132.775364746L659.6986363636363,112.69660523769915L660.5263636363636,117.29796441027275L661.3540909090909,122.52339698863662L662.1818181818182,118.68019499719344L663.0095454545454,134.78965250199693L663.8372727272728,144.6976376550443L664.665,136.8308902853343L665.4927272727273,129.3969927518045L666.3204545454546,129.7828139935557L667.1481818181819,122.84199313058352L667.9759090909091,130.84134972450397L668.8036363636363,134.1386589464061L669.6313636363636,136.310887675536L670.4590909090908,133.1557604166948L671.2868181818183,135.91499175369776L672.1145454545455,121.59207451060206L672.9422727272728,127.42601689498804L673.77,127.79715240149108L674.5977272727273,124.94598374858694L675.4254545454545,145.9152825568445L676.2531818181818,126.31840326119502L677.0809090909091,119.212583376113L677.9086363636363,107.58293464105242L678.7363636363636,123.03591336313204L679.5640909090909,133.72000955634076L680.3918181818182,130.63200869166204L681.2195454545455,134.8715103719984L682.0472727272728,131.93213318947008L682.875,122.1931260675282L683.7027272727272,134.95895256359384L684.5304545454545,150.24306581775366L685.3581818181818,164.7119928438298L686.1859090909091,164.1533510313805L687.0136363636364,149.33508880955844L687.8413636363637,136.3179734048006L688.6690909090909,140.77540069514896L689.4968181818182,132.73293272478168L690.3245454545455,135.1766827117921L691.1522727272727,124.13985578092141L691.98,116.93622116086055L692.8077272727272,110.67558180822004L693.6354545454545,127.75765677723973L694.4631818181817,137.79920691565272L695.2909090909092,134.6302904223033L696.1186363636364,132.6181717180755L696.9463636363637,122.99244445024135L697.7740909090909,134.2754666701448L698.6018181818181,131.9345078134601L699.4295454545454,126.65301533824129L700.2572727272727,128.9118092029448L701.085,128.3563124880379L701.9127272727272,132.67532215140147L702.7404545454546,128.64826725606025L703.5681818181818,132.7258834305592L704.3959090909091,146.2632210983746L705.2236363636364,155.73331530250434L706.0513636363637,145.77845071996416L706.8790909090909,143.2947627396708L707.7068181818181,138.315319182264L708.5345454545454,133.389194467216L709.3622727272727,141.6765936034065L710.19,147.4798035835433L711.0177272727273,146.64172830397214L711.8454545454546,135.08965236699868L712.6731818181818,148.8445593833152L713.5009090909091,143.6390445899501L714.3286363636364,144.3372729078162L715.1563636363636,155.72236184320988L715.9840909090909,148.82495556746434L716.8118181818181,124.6525135767316L717.6395454545454,126.16073595741213L718.4672727272728,100.12105695906268L719.2950000000001,84.49724956005298L720.1227272727273,75.12296512064717L720.9504545454546,69.73100629218999L721.7781818181818,66.2632191599294L722.605909090909,69.61023623040774L723.4336363636364,66.19075712286002L724.2613636363636,75.07199450996904L725.0890909090909,75.05058487079515L725.9168181818181,69.45496630709243L726.7445454545455,74.43297682639792L727.5722727272727,69.08440148045418L728.4000000000001,73.78418289924008L729.2277272727273,72.8822002725218L730.0554545454545,69.08440063601904L730.8831818181818,70.7214066545231L731.710909090909,66.85745937732923L732.5386363636363,66.40001231322145L733.3663636363636,64.26462277254831L734.194090909091,77.13415532105603L735.0218181818182,70.705108577249L735.8495454545455,66.8476805309648L736.6772727272727,64.53322370319427L737.505,70.82085552412514L738.3327272727273,83.58790088771724L739.1604545454545,74.57735591724577L739.9881818181818,79.40610940746882L740.815909090909,80.4036626866237L741.6436363636363,83.8323496834135L742.4713636363637,105.62863804397239L743.299090909091,105.01534022196643L744.1268181818182,105.46151182548749L744.9545454545455,111.15690413743494L745.7822727272727,91.11875786707634L746.6099999999999,101.19433164332276L747.4377272727273,90.49136644204839L748.2654545454545,107.6025151307789L749.0931818181818,124.7507398476981L749.920909090909,131.6473699433995L750.7486363636364,122.79764977741291L751.5763636363637,115.21705267256255L752.404090909091,121.46869314199904L753.2318181818182,108.47136795663874L754.0595454545454,113.93205154321396L754.8872727272727,118.5376962673497L755.7149999999999,130.24569764134435L756.5427272727273,142.28280700315096L757.3704545454545,145.72044948884968L758.1981818181819,142.0968850779252L759.0259090909091,135.6581340046127L759.8536363636364,123.84718809507532L760.6813636363636,119.66831285704518L761.5090909090909,100.10252913362308L762.3368181818182,96.81474647469014L763.1645454545454,94.14423250019871L763.9922727272727,84.86561819791069L764.8199999999999,75.34398630336182L765.6477272727273,84.05316278750081L766.4754545454546,82.61035625310444L767.3031818181819,88.5292906749396L768.1309090909091,85.6837282511176L768.9586363636364,75.83485233528592L769.7863636363636,78.53229779127076L770.6140909090909,93.4762979487258L771.4418181818182,98.88701308789535L772.2695454545454,84.45466761648419L773.0972727272728,75.09741595450589L773.925,88.75690857585857L774.7527272727273,104.04183449534992L775.5804545454546,104.48971312396776L776.4081818181819,105.72767402822677L777.2359090909091,105.30737364770528L778.0636363636363,93.42442418862316L778.8913636363636,98.89465747103145L779.7190909090908,92.83341341666335L780.5468181818183,84.31173858297575L781.3745454545455,87.03012303071995L782.2022727272728,82.92330636237733L783.03,86.73983352070167L783.8577272727273,94.49620780472867L784.6854545454545,92.94695249421045L785.5131818181818,80.19278688114161L786.3409090909091,72.54028751330037L787.1686363636363,67.94878789259559L787.9963636363636,65.19388812017274L788.8240909090908,63.54094825671899L789.6518181818182,62.549184338646796L790.4795454545455,61.95412598780342L791.3072727272728,87.57247855053964L792.135,80.68994511935625L792.9627272727272,86.98934872914077L793.7904545454545,96.19668911841893L794.6181818181818,104.40724804324185L795.4459090909091,96.83881213912122L796.2736363636363,101.91251509484596L797.1013636363637,104.18135521075374L797.9290909090909,104.57342555321003L798.7568181818182,115.27636006637613L799.5845454545455,104.05812373213337L800.4122727272728,102.5610280854338L801.24,99.68554347761244L802.0677272727272,107.69132312870988L802.8954545454545,104.35325245782991L803.7231818181818,112.12579509323763L804.5509090909092,108.21578119882116L805.3786363636364,94.97562552330413L806.2063636363637,99.82537827184007L807.0340909090909,96.24138080925786L807.8618181818182,82.6346764141154L808.6895454545455,79.6269626524807L809.5172727272727,73.82910244312603L810.345,70.3503863175132L811.1727272727272,66.6348471751233L812.0004545454545,64.4055236896894L812.8281818181817,65.39408344458292L813.6559090909092,63.66106545136512L814.4836363636364,68.20402743563278L815.3113636363637,74.84549042659904L816.1390909090909,75.84513863509108L816.9668181818181,76.91016010413153L817.7945454545454,92.3368665609014L818.6222727272727,81.92027733212376L819.45,87.53370486081275L820.2777272727272,86.83099214725684L821.1054545454546,77.22105505210112L821.9331818181818,77.96832178952394L822.7609090909091,77.95145816160499L823.5886363636364,92.13087489696301L824.4163636363636,91.52775274955098L825.2440909090909,83.52834218270834L826.0718181818181,74.54162069424041L826.8995454545454,70.77789726818179L827.7272727272727,71.07842889388684L828.5550000000001,67.30428455613378L829.3827272727273,73.33641984538406L830.2104545454546,68.42646729184582L831.0381818181818,80.98819102527278L831.8659090909091,78.83291461516359L832.6936363636364,75.21359492294431L833.5213636363636,81.95892322667834L834.3490909090909,93.75997227847995L835.1768181818181,86.96121591103326L836.0045454545455,99.28134493123537L836.8322727272727,89.34357441479591L837.6600000000001,90.4369109217892L838.4877272727273,80.0824506959521L839.3154545454546,86.81870414465959L840.1431818181818,83.726911245059L840.970909090909,89.1992236701123L841.7986363636363,84.92261112514433L842.6263636363636,87.00895129047126L843.454090909091,95.23921692812888L844.2818181818182,87.15091832169105L845.1095454545455,97.8443941890032L845.9372727272727,96.11894124785209L846.7650000000001,98.76675232195339L847.5927272727273,90.89574015143529L848.4204545454545,103.38667486009194L849.2481818181818,103.51507888127452L850.075909090909,109.21366271338007L850.9036363636363,91.40665916648953L851.7313636363637,89.15476473066298L852.559090909091,77.91747422301319L853.3868181818182,82.80586914919252L854.2145454545455,94.11305640162487L855.0422727272727,80.89244922559033L855.87,73.89055000786021L856.6977272727273,89.69433000471611L857.5254545454545,93.12860155225877L858.3531818181818,91.73870235075128L859.180909090909,91.796450404967L860.0086363636364,83.76709805435343L860.8363636363637,86.08303161281037L861.664090909091,99.72366807938994L862.4918181818182,89.4926623860955L863.3195454545455,85.33128618992055L864.1472727272727,80.27569479087538L864.9749999999999,90.42388137084436L865.8027272727273,104.84817497635277L866.6304545454545,97.0258310205923L867.4581818181819,98.14780926252064L868.2859090909091,97.50283585423716L869.1136363636364,82.92631689715768L869.9413636363636,89.30040552291001L870.769090909091,79.86578000056994L871.5968181818182,81.26100350402288L872.4245454545454,83.64890979472136L873.2522727272727,92.64165356914054L874.0799999999999,94.93576433011117L874.9077272727272,97.66915090575895L875.7354545454546,110.10918158349443L876.5631818181819,94.90982019183343L877.3909090909091,91.45050454185787L878.2186363636364,84.64507018116939L879.0463636363636,93.04550660502076L879.8740909090909,97.8919163897703L880.7018181818182,110.90745372321015L881.5295454545454,107.01955270643208L882.3572727272727,107.0517345817168L883.185,97.18488986073379" style="fill: none;" fill="none"></path></g></g></g></g><g opacity="0.2"><g><g><g><path stroke="rgb(51, 187, 238)" stroke-width="2px" d="M83.60045454545454,61.061538461538476L84.42818181818181,61.061538461538476L85.2559090909091,61.061538461538476L86.08363636363636,61.061538461538476L86.91136363636365,61.061538461538476L87.7390909090909,61.061538461538476L88.56681818181818,81.9969142033504L89.39454545454545,95.4692381638747L90.22227272727272,79.08922189565806L91.05000000000001,61.061538461538476L91.87772727272727,73.85538905217095L92.70545454545454,81.89999260535603L93.53318181818182,105.64616124079777L94.36090909090909,61.061538461538476L95.18863636363636,84.90460651104269L96.01636363636364,93.5307618361253L96.84409090909091,130.84615384615384L97.67181818181818,91.88307248629059L98.49954545454545,137.0769325843224L99.32727272727273,224.9496493412898L100.155,124.54616124079777L100.98272727272727,146.2153814462515L101.81045454545455,207.17307692307693L102.63818181818182,300.88294073251575L103.4659090909091,199.57342758178712L104.29363636363637,245.90769706139199L105.12136363636363,165.375L105.94909090909091,253.5923108614408L106.77681818181819,299.1915102151724L107.60454545454546,308.61644514524016L108.43227272727273,287.74970371539774L109.25999999999999,302.4L110.08772727272728,224.5633161691519L110.91545454545454,305.1071606562688L111.74318181818182,247.69903846153846L112.5709090909091,293.67692307692306L113.39863636363636,306.85240384615383L114.22636363636364,311.67318019866946L115.05409090909092,291.49615384615385L115.88181818181818,303.90397906670205L116.70954545454545,261.0081441439115L117.53727272727272,308.12986555833083L118.36500000000001,273.80769045903133L119.19272727272728,299.4923076923077L120.02045454545454,309.0461534500122L120.84818181818181,308.98056665567253L121.67590909090909,287.1030088277963L122.50363636363637,314.179881301293L123.33136363636365,308.9850672208346L124.1590909090909,317.08384670844447L124.98681818181818,321.6028855397151L125.81454545454545,280.24615516662595L126.64227272727274,315.4473380602323L127.47000000000001,310.20923203688403L128.29772727272726,309.4981898821317L129.12545454545455,314.6272202858558L129.95318181818183,285.87902148320126L130.7809090909091,311.96477689009447L131.60863636363635,288.2580429664025L132.43636363636364,319.1508373260498L133.2640909090909,307.06993116232064L134.09181818181818,294.2826941563533L134.91954545454547,293.78875782306375L135.74727272727273,307.67019230769233L136.575,313.72469752385064L137.40272727272728,312.4590432093694L138.23045454545456,313.0360334102924L139.05818181818182,313.4020793768076L139.88590909090908,310.7192295367901L140.71363636363637,317.2221385662372L141.54136363636363,312.4238872234638L142.36909090909091,304.9200003697322L143.1968181818182,297.5192299769475L144.02454545454546,298.2621310307429L144.85227272727272,292.97907758859486L145.68,288.87290945786697L146.5077272727273,315.590995656527L147.33545454545452,317.2153835590069L148.1631818181818,304.4353840607863L148.9909090909091,311.5269243093637L149.81863636363636,302.6907703399658L150.64636363636365,315.7753857245812L151.4740909090909,318.7227262643667L152.30181818181816,318.4937381744385L153.12954545454545,302.4L153.95727272727274,302.1994683485765L154.78500000000003,308.2153846153846L155.61272727272726,318.39230769230767L156.44045454545454,309.4981898821317L157.26818181818183,310.1261532123272L158.0959090909091,317.2846140641433L158.92363636363638,310.9615390777588L159.75136363636364,300.63461380004884L160.5790909090909,312.6948029444768L161.40681818181818,301.72153772207406L162.23454545454547,310.35339431762696L163.06227272727273,318.85489535698525L163.89,306.8055957500751L164.71772727272727,320.79431450183574L165.54545454545456,309.46153925382174L166.37318181818182,298.73845886817344L167.20090909090908,316.37110748291013L168.02863636363637,318.2232550400954L168.85636363636362,316.0874304551345L169.6840909090909,314.17260774465706L170.5118181818182,314.1923070760874L171.33954545454546,310.54153901613677L172.16727272727272,316.0874304551345L172.995,314.9757686761709L173.8227272727273,306.6706730769231L174.65045454545452,316.4420267398541L175.4781818181818,313.8012154505803L176.3059090909091,310.7076911192674L177.13363636363636,292.0486169374906L177.96136363636364,314.4133616374089L178.7890909090909,317.4230778474074L179.6168181818182,319.8461538461538L180.44454545454545,315.4119241861197L181.27227272727274,311.04230800041785L182.10000000000002,313.9542513040396L182.92772727272725,317.3538473422711L183.75545454545454,315.9207681215726L184.58318181818183,317.4118056370662L185.4109090909091,309.66923076923075L186.23863636363637,310.88077015509975L187.06636363636363,314.6272202858558L187.89409090909092,315.590995656527L188.72181818181818,319.5818184339083L189.54954545454547,309.4981898821317L190.37727272727273,313.2655871904813L191.20499999999998,314.4035507935744L192.03272727272727,318.78881219717175L192.86045454545456,313.72469752385064L193.68818181818182,315.26653901613673L194.51590909090908,313.16631964170017L195.34363636363636,318.4246158159696L196.17136363636362,318.04615516662597L196.9990909090909,316.45384522951565L197.8268181818182,318.0022503926204L198.65454545454546,315.1384628589337L199.48227272727271,313.95000030811013L200.31,317.5073573772724L201.1377272727273,318.75576923076926L201.96545454545455,313.54615292182336L202.7931818181818,313.26108662531925L203.6209090909091,316.07936936891997L204.44863636363635,317.6271256520198L205.27636363636364,314.70177493462194L206.1040909090909,314.47810544234056L206.9318181818182,317.1461530538706L207.75954545454545,313.72469752385064L208.58727272727273,314.47810544234056L209.41500000000002,320.1622083223783L210.24272727272725,314.4035507935744L211.07045454545454,319.3938456608699L211.89818181818183,276.2307692307692L212.72590909090908,314.5526628640982L213.55363636363637,319.32922941354605L214.38136363636363,315.37823511270375L215.20909090909092,309.2727262643667L216.03681818181818,320.77414098886345L216.86454545454546,308.81402633373557L217.69227272727275,307.6867137908936L218.51999999999998,300.5307708153358L219.34772727272727,318.92097851679875L220.17545454545456,321.09230848459094L221.00318181818182,315.04846264765814L221.83090909090907,317.01115273695723L222.65863636363636,310.557691691472L223.48636363636365,306.94326923076926L224.3140909090909,308.12727281130276L225.1418181818182,320.65041010929986L225.96954545454545,309.24162993797887L226.7972727272727,315.70269175309403L227.625,311.36538369105415L228.4527272727273,306.76153846153846L229.28045454545455,317.7499109414907L230.10818181818183,314.70177493462194L230.93590909090912,319.972574527447L231.76363636363635,278.7023088015043L232.5913636363636,311.93076892265907L233.4190909090909,315.9455919412466L234.24681818181818,309.41267082507795L235.07454545454544,315.26653901613673L235.90227272727273,315.99346209305986L236.73000000000002,314.6272202858558L237.55772727272728,315.4846153846154L238.38545454545456,318.39230769230767L239.21318181818185,320.4029455771813L240.04090909090908,317.4230778474074L240.86863636363634,320.604683479896L241.69636363636363,317.47942780714766L242.52409090909092,319.5157352740948L243.35181818181817,291.1326923076923L244.17954545454546,320.65041010929986L245.00727272727275,314.03076923076924L245.835,316.5923090127798L246.6627272727273,302.1994683485765L247.49045454545453,311.7692310773409L248.3181818181818,320.77414098886345L249.14590909090907,317.8851525086623L249.97363636363636,308.72850727668174L250.80136363636365,305.40148874429553L251.6290909090909,318.85489535698525L252.4568181818182,317.8175303385808L253.28454545454548,320.0989979817317L254.11227272727274,318.4937381744385L254.94000000000003,308.0443437282856L255.76772727272726,313.48066595517673L256.5954545454545,315.9455919412466L257.42318181818183,313.87773337730994L258.2509090909091,320.0936183782724L259.07863636363635,310.01131254342886L259.90636363636366,310.54153901613677L260.7340909090909,314.03076923076924L261.5618181818182,313.11255133702207L262.3895454545455,320.66789382054253L263.2172727272727,318.1556356430054L264.04499999999996,310.54153901613677L264.8727272727273,318.5244767849262L265.70045454545453,315.8480769230769L266.5281818181818,320.897871868427L267.3559090909091,317.6822887714093L268.18363636363637,308.6429854466365L269.0113636363636,306.94326923076926L269.83909090909094,320.8360064286452L270.6668181818182,318.6566431045532L271.49454545454546,315.7753857245812L272.3222727272727,314.4035507935744L273.15,298.30769128065845L273.9777272727273,309.41267082507795L274.80545454545455,316.7307700230525L275.6331818181818,317.8851525086623L276.4609090909091,318.92097851679875L277.2886363636364,306.2163461538462L278.11636363636364,315.9207681215726L278.9440909090909,318.4583908521212L279.77181818181816,317.0076920435979L280.5995454545454,312.2538473862868L281.42727272727274,314.6272202858558L282.255,303.150371492826L283.08272727272725,305.96426736391504L283.91045454545457,309.07058905087985L284.73818181818183,316.9384615384615L285.5659090909091,309.29538437769963L286.3936363636364,306.57980769230767L287.2213636363636,305.1259615384615L288.0490909090909,298.30769128065845L288.8768181818182,303.4026527111347L289.70454545454544,305.48942307692306L290.53227272727275,312.3346163089459L291.36,313.0360334102924L292.1877272727273,314.03076923076924L293.0154545454546,314.70177493462194L293.84318181818185,319.4036786886362L294.67090909090905,316.8675422815176L295.49863636363636,311.7692310773409L296.3263636363636,311.28025007981523L297.1540909090909,315.52189270899845L297.9818181818182,319.3938456608699L298.80954545454546,313.8012154505803L299.6372727272727,315.44915436964766L300.46500000000003,321.42642068129317L301.2927272727273,312.6534410036527L302.12045454545455,321.2690672801091L302.9481818181818,320.1622083223783L303.77590909090907,301.8986764174241L304.6036363636363,310.37538414001466L305.43136363636364,318.2908772101769L306.2590909090909,320.4648110169631L307.08681818181816,317.3538473422711L307.9145454545455,307.77482559497537L308.74227272727273,310.1261532123272L309.57000000000005,315.8746726843027L310.39772727272725,320.10461606245775L311.2254545454545,309.41267082507795L312.0531818181818,319.1508373260498L312.8809090909091,306.1518602371216L313.70863636363634,312.95951548356277L314.53636363636366,320.10461606245775L315.3640909090909,314.47810544234056L316.1918181818182,312.8519761012151L317.0195454545455,310.88077015509975L317.84727272727275,320.66789382054253L318.67499999999995,314.4035507935744L319.50272727272727,310.45846019157995L320.33045454545453,314.8818003140963L321.1581818181818,313.22307723118706L321.9859090909091,317.33496604332555L322.81363636363636,316.5838652537419L323.6413636363636,319.8461538461538L324.46909090909094,302.81538580380953L325.2968181818182,301.4620356339675L326.12454545454545,311.38741233532244L326.9522727272727,300.32307929992675L327.78,315.8746726843027L328.6077272727273,310.7076911192674L329.43545454545455,317.8175303385808L330.2631818181818,315.23639659881593L331.0909090909091,310.09683160048263L331.9186363636364,314.03076923076924L332.74636363636364,316.9384615384615L333.57409090909096,313.34210511721096L334.40181818181816,309.8769222846398L335.2295454545454,320.73110416118914L336.05727272727273,307.6867137908936L336.885,317.76923037308916L337.71272727272725,310.0430771607619L338.54045454545457,310.45846019157995L339.3681818181818,309.1561081079336L340.1959090909091,314.5526628640982L341.0236363636364,318.48923206329346L341.8513636363636,319.1023266132061L342.6790909090909,316.37110748291013L343.5068181818182,315.8746726843027L344.33454545454543,320.4782600256113L345.16227272727275,316.512945996798L345.99,311.9089399337769L346.81772727272727,310.8738459953895L347.6454545454546,301.79841059171235L348.47318181818184,314.4035507935744L349.30090909090904,315.70269175309403L350.12863636363636,322.28861582829404L350.9563636363636,314.03076923076924L351.7840909090909,307.1580429664025L352.6118181818182,314.03076923076924L353.43954545454545,318.5244767849262L354.2672727272727,316.0165111981905L355.095,316.72570376762974L355.9227272727273,321.0216027479905L356.75045454545455,322.0417585813082L357.5781818181818,320.2254186630249L358.40590909090906,316.37110748291013L359.2336363636364,313.16631964170017L360.06136363636364,318.1940554398757L360.8890909090909,319.52307815551757L361.7168181818182,313.5716588973999L362.54454545454547,316.7307700230525L363.37227272727273,314.26032301095813L364.20000000000005,305.3076923076923L365.02772727272725,316.7307700230525L365.8554545454545,304.24153809180626L366.6831818181818,320.71227554908165L367.5109090909091,315.4846153846154L368.33863636363634,317.95277190575234L369.16636363636366,317.5615388576801L369.9940909090909,319.2646159392137L370.8218181818182,315.26653901613673L371.6495454545455,321.42115477048435L372.47727272727275,319.9107700934777L373.30499999999995,319.07076997023364L374.13272727272727,304.0476921228262L374.9604545454545,318.6566431045532L375.78818181818184,318.6566431045532L376.6159090909091,317.0769225487342L377.44363636363636,320.73110416118914L378.2713636363637,318.85489535698525L379.09909090909093,317.47942780714766L379.9268181818182,318.78881219717175L380.75454545454545,318.56136034452L381.5822727272727,311.83035335540774L382.40999999999997,316.9384615384615L383.2377272727273,313.9562118090116L384.06545454545454,319.4584619081937L384.8931818181818,318.2232550400954L385.7209090909091,309.8769222846398L386.5486363636364,314.92544442690337L387.37636363636364,318.5244767849262L388.20409090909095,308.12727281130276L389.03181818181815,301.1968156374418L389.8595454545454,317.1512193092933L390.6872727272727,313.34210511721096L391.515,320.5885446695181L392.34272727272725,308.12727281130276L393.17045454545456,319.6523078771738L393.9981818181818,315.63000055459827L394.8259090909091,318.6566431045532L395.6536363636364,313.2655871904813L396.4813636363636,312.8519761012151L397.3090909090909,318.02039407583385L398.13681818181817,308.0391610072209L398.96454545454543,319.9093641868004L399.79227272727275,318.35849660726694L400.62,320.5885446695181L401.44772727272726,299.5961562230037L402.2754545454546,313.16631964170017L403.10318181818184,313.65798766796405L403.9309090909091,310.62461506770205L404.75863636363636,314.4035507935744L405.5863636363636,311.12307692307695L406.4140909090909,316.10769270383395L407.2418181818182,319.7800706863403L408.06954545454545,320.5885446695181L408.8972727272727,231.29371032714843L409.725,149.74615384615387L410.5527272727273,155.35385249211237L411.38045454545454,136.176930471567L412.2081818181818,128.3538556612455L413.03590909090906,183.50769107525167L413.8636363636364,228.98076923076923L414.69136363636363,260.9653846153846L415.5190909090909,185.7692320016714L416.3468181818182,169.0615368769719L417.17454545454547,164.44615877591647L418.0022727272727,227.32867637047403L418.83000000000004,181.56922583946815L419.6577272727273,215.75077144916241L420.4854545454545,179.63077169565057L421.3131818181818,211.9707736675556L422.1409090909091,181.24615014883187L422.96863636363634,227.96308135986328L423.79636363636365,246.7661486699031L424.6240909090909,242.23313950758714L425.45181818181817,170.46346153846153L426.2795454545455,244.24615384615385L427.10727272727274,271.0995481637808L427.935,181.24615014883187L428.76272727272726,220.45593901414136L429.5904545454545,259.875L430.41818181818184,272.4048562563383L431.2459090909091,240.66745306161735L432.07363636363635,260.1415399404673L432.90136363636367,198.30461760300855L433.7290909090909,290.8956514505239L434.5568181818182,265.9683270967924L435.3845454545455,218.60559944739708L436.2122727272727,281.61000110919656L437.03999999999996,288.62006809528054L437.8677272727273,258.7846153846154L438.69545454545454,259.875L439.5231818181818,250.25538165752704L440.3509090909091,267.1442307692308L441.1786363636364,272.0307686145489L442.00636363636363,266.48144698509805L442.83409090909095,262.7826923076923L443.66181818181815,275.1595127105713L444.48954545454546,273.01700521615834L445.3172727272727,291.46153582059424L446.145,222.55029073861928L446.9727272727273,246.03549869243915L447.80045454545456,268.96153846153845L448.6281818181818,277.1489898975079L449.45590909090913,259.875L450.2836363636364,243.41538778451772L451.11136363636365,263.50961538461536L451.9390909090909,280.7376900892991L452.76681818181817,276.0777333773099L453.5945454545454,288.3672267326942L454.42227272727274,266.65249064518855L455.25,284.82167983421914L456.0777272727272,268.96153846153845L456.9054545454546,273.4846147683951L457.7331818181818,283.4307694948637L458.5609090909091,267.9923058436467L459.38863636363635,273.80769045903133L460.21636363636367,262.20542758061333L461.04409090909087,293.4346135359544L461.87181818181824,278.12076812157267L462.69954545454544,271.22307938795825L463.5272727272727,271.5461550785945L464.355,229.7076923076923L465.1827272727272,72.69230769230768L466.01045454545454,82.8692307692308L466.8381818181818,82.57846597524792L467.6659090909091,81.9969142033504L468.49363636363637,90.13846153846157L469.3213636363637,107.5846153846154L470.1490909090909,120.66923076923075L470.97681818181815,88.3938505906325L471.80454545454546,65.9076849130484L472.63227272727266,142.47692307692307L473.46000000000004,61.061538461538476L474.28772727272724,69.20308579664965L475.11545454545455,80.25230325552133L475.9431818181818,93.5307618361253L476.77090909090913,68.62153402475212L477.59863636363633,94.9846079899715L478.4263636363637,147.0461475078876L479.2540909090909,158.26154479980468L480.08181818181816,74.43691864013675L480.9095454545455,119.21538461538461L481.7372727272727,93.04615384615386L482.565,81.4153846153846L483.39272727272726,70.36614497258114L484.2204545454546,65.71384171705978L485.04818181818183,61.061538461538476L485.87590909090915,61.061538461538476L486.70363636363635,73.27383728027343L487.5313636363636,63.96923076923076L488.3590909090909,68.62153402475212L489.1868181818181,88.20000739464393L490.0145454545455,82.57846597524792L490.8422727272727,61.061538461538476L491.67,110.97691568227913L492.4977272727273,91.59230769230771L493.3254545454546,121.15383875920224L494.1531818181818,82.8692307692308L494.98090909090905,89.55693195049577L495.80863636363637,81.9969142033504L496.6363636363636,94.9846079899715L497.46409090909094,121.70768280029296L498.29181818181814,112.91539201002854L499.11954545454546,95.3723165658804L499.9472727272727,78.99230029766375L500.77500000000003,61.061538461538476L501.6027272727273,71.52922633244441L502.4304545454545,99.34614645150992L503.2581818181818,146.63077556903545L504.08590909090907,107.5846153846154L504.9136363636364,115.82308431772083L505.7413636363636,97.69845710167522L506.56909090909096,87.23076923076923L507.39681818181816,103.70768491304835L508.2245454545455,92.46462425818811L509.05227272727274,97.89230029766378L509.88000000000005,155.56153846153845L510.70772727272725,128.423069528433L511.5354545454545,110.00769970233625L512.3631818181818,128.3538556612455L513.190909090909,73.27383728027343L514.0186363636363,124.54616124079777L514.8463636363637,113.81539412278397L515.674090909091,133.75384615384613L516.5018181818182,145.38461538461536L517.3295454545455,120.37846597524788L518.1572727272727,115.82308431772083L518.9849999999999,123.36923710749699L519.8127272727273,133.75384615384613L520.6404545454545,136.66153846153847L521.4681818181818,131.81539201002855L522.295909090909,130.01538778451774L523.1236363636364,115.82308431772083L523.9513636363637,134.72308431772086L524.779090909091,136.29807692307693L525.6068181818182,165.73846153846154L526.4345454545454,147.0461475078876L527.2622727272727,176.27884615384616L528.0899999999999,132.92308009221006L528.9177272727273,138.59999260535605L529.7454545454545,115.06153212327223L530.5731818181819,131.67691990778997L531.4009090909091,114.36923816387468L532.2286363636364,144.4153772207407L533.0563636363636,153.0173076923077L533.8840909090909,140.81539095365085L534.7118181818182,123.09231508695163L535.5395454545454,151.20000000000002L536.3672727272727,127.93846153846155L537.1949999999999,166.56922760009766L538.0227272727273,170.46346153846153L538.8504545454546,149.53846787672776L539.6781818181819,142.47692307692307L540.5059090909091,149.1230737539438L541.3336363636364,163.92115384615386L542.1613636363636,162.0000031691331L542.9890909090909,163.55769230769232L543.8168181818182,148.2923076923077L544.6445454545454,160.65L545.4722727272728,163.19423076923078L546.3,185.7692320016714L547.1277272727273,144.96922126183145L547.9554545454546,162.4673076923077L548.7831818181819,190.24614909245417L549.6109090909091,163.1538449214055L550.4386363636363,173.0076923076923L551.2663636363636,163.66153529240535L552.0940909090908,170.26154339130107L552.9218181818183,176.27884615384616L553.7495454545455,162.10384615384618L554.5772727272728,157.0153846153846L555.405,172.64423076923077L556.2327272727273,152.44616018442008L557.0604545454545,123.36923710749699L557.8881818181818,179.18653846153845L558.7159090909091,201.21230991070087L559.5436363636363,142.96153106689454L560.3713636363636,168.64615384615382L561.1990909090908,185.1230806203989L562.0268181818182,181.3673076923077L562.8545454545455,168.64615384615382L563.6822727272728,142.47692307692307L564.51,198.59538239699143L565.3377272727272,174.09807692307695L566.1654545454545,142.89231719970704L566.9931818181818,157.0153846153846L567.8209090909091,182.8615396939791L568.6486363636363,175.18846153846155L569.4763636363637,201.21230991070087L570.3040909090909,189.36346153846154L571.1318181818182,161.74038461538464L571.9595454545455,183.54807692307693L572.7872727272728,186.38307248629056L573.615,152.03076606163611L574.4427272727272,193.725L575.2704545454545,187.8369186401367L576.0981818181818,187.70769723745494L576.9259090909092,190.61538954514722L577.7536363636364,193.19999507023738L578.5813636363637,199.6615421588604L579.4090909090909,172.28076923076924L580.2368181818182,173.49231138962966L581.0645454545455,196.75384985116813L581.8922727272727,199.75846375685472L582.72,180.27692307692305L583.5477272727272,186.0923076923077L584.3754545454545,210.80769230769232L585.2031818181817,188.03077292809118L586.0309090909092,202.9569208585299L586.8586363636364,200.99423076923077L587.6863636363637,186.9646131662222L588.5140909090909,202.37538017859825L589.3418181818181,205.28307248629056L590.1695454545454,182.82115384615383L590.9972727272727,185.44615631103514L591.825,171.9173076923077L592.6527272727272,204.8307643010066L593.4804545454546,196.8507714491624L594.3081818181818,205.15385108360877L595.1359090909091,179.30769600501426L595.9636363636364,163.19423076923078L596.7913636363636,191.9076923076923L597.6190909090909,186.0923076923077L598.4468181818181,208.7723054739145L599.2745454545454,185.1230806203989L600.1022727272727,194.49230892474833L600.9300000000001,193.65230325552133L601.7577272727273,194.16923323411208L602.5854545454546,208.19076479398288L603.4131818181818,198.69230399498574L604.2409090909091,206.76922953679014L605.0686363636364,168.32307815551758L605.8963636363636,200.9215340247521L606.7240909090909,190.81730769230768L607.5518181818181,193.94307914147012L608.3795454545455,185.1230806203989L609.2072727272727,218.7230744581956L610.0350000000001,190.74461094782902L610.8627272727273,211.73286209106445L611.6904545454546,206.15538905217096L612.5181818181818,180.27692307692305L613.345909090909,201.50307470468374L614.1736363636363,184.1538424565242L615.0013636363636,163.2461522615873L615.829090909091,180.59999876755936L616.6568181818182,205.80000246488132L617.4845454545455,194.23384393545297L618.3122727272727,213.42461982140176L619.1400000000001,218.60559944739708L619.9677272727273,201.21230991070087L620.7954545454545,220.72028274536135L621.6231818181818,216.2265724182129L622.450909090909,211.9707736675556L623.2786363636363,207.9L624.1063636363637,206.44615384615383L624.934090909091,214.11188912024866L625.7618181818182,205.47692677424504L626.5895454545455,193.65230325552133L627.4172727272727,197.07692554180437L628.245,209.64461094782902L629.0727272727273,165.01153846153846L629.9004545454545,210.93986417330228L630.7281818181818,202.56923446655273L631.555909090909,206.73691864013674L632.3836363636364,200.34000443678636L633.2113636363637,187.0615347642165L634.039090909091,214.58769008929914L634.8668181818182,107.5846153846154L635.6945454545455,105.64616124079777L636.5222727272727,101.28462277925934L637.3499999999999,113.88460798997147L638.1777272727273,121.15383875920224L639.0054545454545,134.72308431772086L639.8331818181819,118.79999049260067L640.6609090909091,131.3307618361253L641.4886363636364,137.0769325843224L642.3163636363636,134.58461221548228L643.144090909091,134.58461221548228L643.9718181818182,94.79076479398287L644.7995454545454,104.19231508695162L645.6272727272727,90.13846153846157L646.4549999999999,101.28462277925934L647.2827272727272,97.69845710167522L648.1104545454546,125.03076923076924L648.9381818181819,123.57692307692307L649.7659090909091,135.41537827711838L650.5936363636364,152.44616018442008L651.4213636363636,150.83653846153848L652.2490909090909,135.2076923076923L653.0768181818182,141.02307692307693L653.9045454545454,120.87691673865686L654.7322727272727,129.3923076923077L655.56,92.56154585618236L656.3877272727273,106.6153772207407L657.2154545454546,152.44616018442008L658.0431818181819,126.48461538461541L658.8709090909091,140.6596153846154L659.6986363636363,82.57846597524792L660.5263636363636,124.20000316913311L661.3540909090909,130.3615458561824L662.1818181818182,112.91539201002854L663.0095454545454,158.95383875920223L663.8372727272728,159.5596153846154L664.665,125.03076923076924L665.4927272727273,118.24614645150996L666.3204545454546,130.3615458561824L667.1481818181819,112.43076183612533L667.9759090909091,142.8403846153846L668.8036363636363,139.0846227792593L669.6313636363636,139.56923076923078L670.4590909090908,128.423069528433L671.2868181818183,140.05383875920222L672.1145454545455,100.10769864595852L672.9422727272728,136.176930471567L673.77,128.3538556612455L674.5977272727273,120.66923076923075L675.4254545454545,177.36923076923077L676.2531818181818,96.92308431772085L677.0809090909091,108.55385354849011L677.9086363636363,90.13846153846157L678.7363636363636,146.2153814462515L679.5640909090909,149.74615384615387L680.3918181818182,126.00000739464392L681.2195454545455,141.230762892503L682.0472727272728,127.52306741567756L682.875,107.5846153846154L683.7027272727272,154.1076923076923L684.5304545454545,173.1692356989934L685.3581818181818,186.41538338294396L686.1859090909091,163.31538831270657L687.0136363636364,127.1076954768254L687.8413636363637,116.79230029766376L688.6690909090909,147.46154163067158L689.4968181818182,120.66923076923075L690.3245454545455,138.8423076923077L691.1522727272727,107.5846153846154L691.98,106.1307692307692L692.8077272727272,101.28462277925934L693.6354545454545,153.38076923076923L694.4631818181817,152.86153212327224L695.2909090909092,129.87691568227913L696.1186363636364,129.59999366173378L696.9463636363637,108.55385354849011L697.7740909090909,151.20000000000002L698.6018181818181,128.423069528433L699.4295454545454,118.73077662541317L700.2572727272727,132.29999999999998L701.085,127.52306741567756L701.9127272727272,139.1538366464468L702.7404545454546,122.60768491304839L703.5681818181818,138.8423076923077L704.3959090909091,166.56922760009766L705.2236363636364,169.9384566086989L706.0513636363637,130.84615384615384L706.8790909090909,139.56923076923078L707.7068181818181,130.84615384615384L708.5345454545454,126.00000739464392L709.3622727272727,154.1076923076923L710.19,156.18461855374852L711.0177272727273,145.38461538461536L711.8454545454546,117.76153846153846L712.6731818181818,169.47691990778998L713.5009090909091,135.83077239990234L714.3286363636364,145.38461538461536L715.1563636363636,172.79999524630034L715.9840909090909,138.47884615384618L716.8118181818181,88.3938505906325L717.6395454545454,128.423069528433L718.4672727272728,61.061538461538476L719.2950000000001,61.061538461538476L720.1227272727273,61.061538461538476L720.9504545454546,61.64306804950422L721.7781818181818,61.061538461538476L722.605909090909,74.63076183612532L723.4336363636364,61.061538461538476L724.2613636363636,88.3938505906325L725.0890909090909,75.01847041203428L725.9168181818181,61.061538461538476L726.7445454545455,81.89999260535603L727.5722727272727,61.061538461538476L728.4000000000001,80.83385502741885L729.2277272727273,71.52922633244441L730.0554545454545,63.387701181265015L730.8831818181818,73.17691568227917L731.710909090909,61.061538461538476L732.5386363636363,65.71384171705978L733.3663636363636,61.061538461538476L734.194090909091,96.43845414381764L735.0218181818182,61.061538461538476L735.8495454545455,61.061538461538476L736.6772727272727,61.061538461538476L737.505,80.25230325552133L738.3327272727273,102.73846893310548L739.1604545454545,61.061538461538476L739.9881818181818,86.64923964280348L740.815909090909,81.89999260535603L741.6436363636363,88.97538017859824L742.4713636363637,138.32307058481072L743.299090909091,104.09539348895731L744.1268181818182,106.1307692307692L744.9545454545455,119.6999926053561L745.7822727272727,61.061538461538476L746.6099999999999,116.30769230769232L747.4377272727273,74.43691864013675L748.2654545454545,133.26923816387472L749.0931818181818,150.47307692307695L749.920909090909,141.99231508695163L750.7486363636364,109.52306952843298L751.5763636363637,103.84615701528696L752.404090909091,130.84615384615384L753.2318181818182,88.97538017859824L754.0595454545454,122.12307692307692L754.8872727272727,125.44616335355317L755.7149999999999,147.80769970233624L756.5427272727273,160.33847104586087L757.3704545454545,150.87691321739786L758.1981818181819,136.66153846153847L759.0259090909091,126.00000739464392L759.8536363636364,106.1307692307692L760.6813636363636,113.40000000000003L761.5090909090909,70.75385354849004L762.3368181818182,91.88307248629059L763.1645454545454,90.13846153846157L763.9922727272727,70.94769674447866L764.8199999999999,61.061538461538476L765.6477272727273,97.11692751370941L766.4754545454546,80.44614645150989L767.3031818181819,97.40769230769229L768.1309090909091,81.4153846153846L768.9586363636364,61.061538461538476L769.7863636363636,82.57846597524792L770.6140909090909,115.89229818490833L771.4418181818182,107.0030857966496L772.2695454545454,62.80614940936749L773.0972727272728,61.061538461538476L773.925,109.2461475078876L774.7527272727273,126.96922337458682L775.5804545454546,105.1615310668945L776.4081818181819,107.5846153846154L777.2359090909091,104.67692307692306L778.0636363636363,75.59999999999997L778.8913636363636,107.10000739464397L779.7190909090908,83.74154733511114L780.5468181818183,71.52922633244441L781.3745454545455,91.10769970233622L782.2022727272728,76.76308135986329L783.03,92.46462425818811L783.8577272727273,106.1307692307692L784.6854545454545,90.623069528433L785.5131818181818,61.061538461538476L786.3409090909091,61.061538461538476L787.1686363636363,61.061538461538476L787.9963636363636,61.061538461538476L788.8240909090908,61.061538461538476L789.6518181818182,61.061538461538476L790.4795454545455,61.061538461538476L791.3072727272728,126.00000739464392L792.135,70.36614497258114L792.9627272727272,96.43845414381764L793.7904545454545,110.00769970233625L794.6181818181818,116.72308643047626L795.4459090909091,85.48615828294021L796.2736363636363,109.52306952843298L797.1013636363637,107.5846153846154L797.9290909090909,105.1615310668945L798.7568181818182,131.3307618361253L799.5845454545455,87.23076923076923L800.4122727272728,100.31538461538457L801.24,95.3723165658804L802.0677272727272,119.6999926053561L802.8954545454545,99.34614645150992L803.7231818181818,123.78460904634915L804.5509090909092,102.35076035719652L805.3786363636364,75.11539201002853L806.2063636363637,107.10000739464397L807.0340909090909,90.86538461538464L807.8618181818182,62.224619821401745L808.6895454545455,75.11539201002853L809.5172727272727,65.13231212909403L810.345,65.13231212909403L811.1727272727272,61.061538461538476L812.0004545454545,61.061538461538476L812.8281818181817,66.8769230769231L813.6559090909092,61.061538461538476L814.4836363636364,75.01847041203428L815.3113636363637,84.80768491304838L816.1390909090909,77.34461094782904L816.9668181818181,78.50769230769231L817.7945454545454,115.47692624605617L818.6222727272727,66.29539348895736L819.45,95.95384615384614L820.2777272727272,85.77692307692308L821.1054545454546,62.80614940936749L821.9331818181818,79.08922189565806L822.7609090909091,77.92616271972656L823.5886363636364,113.40000000000003L824.4163636363636,90.623069528433L825.2440909090909,71.52922633244441L826.0718181818181,61.061538461538476L826.8995454545454,65.13231212909403L827.7272727272727,71.52922633244441L828.5550000000001,61.64306804950422L829.3827272727273,82.3846227792593L830.2104545454546,61.061538461538476L831.0381818181818,99.83077662541314L831.8659090909091,75.59999999999997L832.6936363636364,69.78461538461539L833.5213636363636,92.07691568227915L834.3490909090909,111.4615458561824L835.1768181818181,76.76308135986329L836.0045454545455,117.76153846153846L836.8322727272727,74.43691864013675L837.6600000000001,92.07691568227915L838.4877272727273,64.55076035719651L839.3154545454546,96.92308431772085L840.1431818181818,79.08922189565806L840.970909090909,97.40769230769229L841.7986363636363,78.50769230769231L842.6263636363636,90.13846153846157L843.454090909091,107.5846153846154L844.2818181818182,75.01847041203428L845.1095454545455,113.88460798997147L845.9372727272727,93.5307618361253L846.7650000000001,102.73846893310548L847.5927272727273,79.08922189565806L848.4204545454545,122.12307692307692L849.2481818181818,103.70768491304835L850.075909090909,117.76153846153846L850.9036363636363,64.69615384615383L851.7313636363637,85.77692307692308L852.559090909091,61.061538461538476L853.3868181818182,90.13846153846157L854.2145454545455,111.07383728027344L855.0422727272727,61.061538461538476L855.87,63.387701181265015L856.6977272727273,113.40000000000003L857.5254545454545,98.28000887357274L858.3531818181818,89.65385354849008L859.180909090909,91.88307248629059L860.0086363636364,71.72306952843303L860.8363636363637,89.55693195049577L861.664090909091,120.18462277925931L862.4918181818182,74.14615384615382L863.3195454545455,79.08922189565806L864.1472727272727,72.69230769230768L864.9749999999999,105.64616124079777L865.8027272727273,126.48461538461541L866.6304545454545,85.29231508695165L867.4581818181819,99.83077662541314L868.2859090909091,96.53537574181189L869.1136363636364,61.061538461538476L869.9413636363636,98.86153846153843L870.769090909091,65.71384171705978L871.5968181818182,83.35383875920223L872.4245454545454,87.23076923076923L873.2522727272727,106.1307692307692L874.0799999999999,98.376930471567L874.9077272727272,101.76923076923077L875.7354545454546,128.76922760009765L876.5631818181819,72.11077810434199L877.3909090909091,86.26153106689452L878.2186363636364,74.43691864013675L879.0463636363636,105.64616124079777L879.8740909090909,105.1615310668945L880.7018181818182,130.4307597233699L881.5295454545454,101.18770118126503L882.3572727272727,107.10000739464397L883.185,82.3846227792593" style="fill: none;" fill="none"></path></g></g></g></g></g></g><g transform="translate(40, 378)" clip-path="url(#clip_1)"><clipPath id="clip_1"><rect width="910" height="22"></rect></clipPath><g><g><line x1="0" y1="0" x2="0" y2="5" style="visibility: inherit;" fill="rgb(0, 0, 0)" stroke="rgb(204, 204, 204)" stroke-width="1px"></line><line x1="82.77272727272728" y1="0" x2="82.77272727272728" y2="5" style="visibility: inherit;" fill="rgb(0, 0, 0)" stroke="rgb(204, 204, 204)" stroke-width="1px"></line><line x1="165.54545454545456" y1="0" x2="165.54545454545456" y2="5" style="visibility: inherit;" fill="rgb(0, 0, 0)" stroke="rgb(204, 204, 204)" stroke-width="1px"></line><line x1="248.3181818181818" y1="0" x2="248.3181818181818" y2="5" style="visibility: inherit;" fill="rgb(0, 0, 0)" stroke="rgb(204, 204, 204)" stroke-width="1px"></line><line x1="331.0909090909091" y1="0" x2="331.0909090909091" y2="5" style="visibility: inherit;" fill="rgb(0, 0, 0)" stroke="rgb(204, 204, 204)" stroke-width="1px"></line><line x1="413.8636363636364" y1="0" x2="413.8636363636364" y2="5" style="visibility: inherit;" fill="rgb(0, 0, 0)" stroke="rgb(204, 204, 204)" stroke-width="1px"></line><line x1="496.6363636363636" y1="0" x2="496.6363636363636" y2="5" style="visibility: inherit;" fill="rgb(0, 0, 0)" stroke="rgb(204, 204, 204)" stroke-width="1px"></line><line x1="579.4090909090909" y1="0" x2="579.4090909090909" y2="5" style="visibility: inherit;" fill="rgb(0, 0, 0)" stroke="rgb(204, 204, 204)" stroke-width="1px"></line><line x1="662.1818181818182" y1="0" x2="662.1818181818182" y2="5" style="visibility: inherit;" fill="rgb(0, 0, 0)" stroke="rgb(204, 204, 204)" stroke-width="1px"></line><line x1="744.9545454545455" y1="0" x2="744.9545454545455" y2="5" style="visibility: inherit;" fill="rgb(0, 0, 0)" stroke="rgb(204, 204, 204)" stroke-width="1px"></line><line x1="827.7272727272727" y1="0" x2="827.7272727272727" y2="5" style="visibility: inherit;" fill="rgb(0, 0, 0)" stroke="rgb(204, 204, 204)" stroke-width="1px"></line><line x1="910.5" y1="0" x2="910.5" y2="5" style="visibility: inherit;" fill="rgb(0, 0, 0)" stroke="rgb(204, 204, 204)" stroke-width="1px"></line></g><g transform="translate(0, 8)"><text x="0" y="0" dx="0em" dy="0.95em" style="text-anchor: middle; visibility: hidden; font-family: &quot;Helvetica Neue&quot;, sans-serif; font-size: 12px; font-weight: 200;" fill="rgb(50, 49, 63)" stroke="none" stroke-width="1px">-50k</text><text x="82.77272727272728" y="0" dx="0em" dy="0.95em" style="text-anchor: middle; visibility: inherit; font-family: &quot;Helvetica Neue&quot;, sans-serif; font-size: 12px; font-weight: 200;" fill="rgb(50, 49, 63)" stroke="none" stroke-width="1px">0</text><text x="165.54545454545456" y="0" dx="0em" dy="0.95em" style="text-anchor: middle; visibility: inherit; font-family: &quot;Helvetica Neue&quot;, sans-serif; font-size: 12px; font-weight: 200;" fill="rgb(50, 49, 63)" stroke="none" stroke-width="1px">50k</text><text x="248.3181818181818" y="0" dx="0em" dy="0.95em" style="text-anchor: middle; visibility: inherit; font-family: &quot;Helvetica Neue&quot;, sans-serif; font-size: 12px; font-weight: 200;" fill="rgb(50, 49, 63)" stroke="none" stroke-width="1px">100k</text><text x="331.0909090909091" y="0" dx="0em" dy="0.95em" style="text-anchor: middle; visibility: inherit; font-family: &quot;Helvetica Neue&quot;, sans-serif; font-size: 12px; font-weight: 200;" fill="rgb(50, 49, 63)" stroke="none" stroke-width="1px">150k</text><text x="413.8636363636364" y="0" dx="0em" dy="0.95em" style="text-anchor: middle; visibility: inherit; font-family: &quot;Helvetica Neue&quot;, sans-serif; font-size: 12px; font-weight: 200;" fill="rgb(50, 49, 63)" stroke="none" stroke-width="1px">200k</text><text x="496.6363636363636" y="0" dx="0em" dy="0.95em" style="text-anchor: middle; visibility: inherit; font-family: &quot;Helvetica Neue&quot;, sans-serif; font-size: 12px; font-weight: 200;" fill="rgb(50, 49, 63)" stroke="none" stroke-width="1px">250k</text><text x="579.4090909090909" y="0" dx="0em" dy="0.95em" style="text-anchor: middle; visibility: inherit; font-family: &quot;Helvetica Neue&quot;, sans-serif; font-size: 12px; font-weight: 200;" fill="rgb(50, 49, 63)" stroke="none" stroke-width="1px">300k</text><text x="662.1818181818182" y="0" dx="0em" dy="0.95em" style="text-anchor: middle; visibility: inherit; font-family: &quot;Helvetica Neue&quot;, sans-serif; font-size: 12px; font-weight: 200;" fill="rgb(50, 49, 63)" stroke="none" stroke-width="1px">350k</text><text x="744.9545454545455" y="0" dx="0em" dy="0.95em" style="text-anchor: middle; visibility: inherit; font-family: &quot;Helvetica Neue&quot;, sans-serif; font-size: 12px; font-weight: 200;" fill="rgb(50, 49, 63)" stroke="none" stroke-width="1px">400k</text><text x="827.7272727272727" y="0" dx="0em" dy="0.95em" style="text-anchor: middle; visibility: inherit; font-family: &quot;Helvetica Neue&quot;, sans-serif; font-size: 12px; font-weight: 200;" fill="rgb(50, 49, 63)" stroke="none" stroke-width="1px">450k</text><text x="910.5" y="0" dx="0em" dy="0.95em" style="text-anchor: middle; visibility: hidden; font-family: &quot;Helvetica Neue&quot;, sans-serif; font-size: 12px; font-weight: 200;" fill="rgb(50, 49, 63)" stroke="none" stroke-width="1px">500k</text></g><line x1="0" y1="0" x2="910.5" y2="0" fill="rgb(0, 0, 0)" stroke="rgb(204, 204, 204)" stroke-width="1px"></line></g></g></g></g></svg>