<svg viewBox="0 0 950.5 400" xmlns="http://www.w3.org/2000/svg"><g><g><g><g><g><line x1="70" y1="378" x2="65" y2="378" style="visibility: inherit;" fill="rgb(0, 0, 0)" stroke="rgb(204, 204, 204)" stroke-width="1px"></line><line x1="70" y1="330.75" x2="65" y2="330.75" style="visibility: inherit;" fill="rgb(0, 0, 0)" stroke="rgb(204, 204, 204)" stroke-width="1px"></line><line x1="70" y1="283.5" x2="65" y2="283.5" style="visibility: inherit;" fill="rgb(0, 0, 0)" stroke="rgb(204, 204, 204)" stroke-width="1px"></line><line x1="70" y1="236.25" x2="65" y2="236.25" style="visibility: inherit;" fill="rgb(0, 0, 0)" stroke="rgb(204, 204, 204)" stroke-width="1px"></line><line x1="70" y1="189.00000000000003" x2="65" y2="189.00000000000003" style="visibility: inherit;" fill="rgb(0, 0, 0)" stroke="rgb(204, 204, 204)" stroke-width="1px"></line><line x1="70" y1="141.75" x2="65" y2="141.75" style="visibility: inherit;" fill="rgb(0, 0, 0)" stroke="rgb(204, 204, 204)" stroke-width="1px"></line><line x1="70" y1="94.5" x2="65" y2="94.5" style="visibility: inherit;" fill="rgb(0, 0, 0)" stroke="rgb(204, 204, 204)" stroke-width="1px"></line><line x1="70" y1="47.25" x2="65" y2="47.25" style="visibility: inherit;" fill="rgb(0, 0, 0)" stroke="rgb(204, 204, 204)" stroke-width="1px"></line><line x1="70" y1="0" x2="65" y2="0" style="visibility: inherit;" fill="rgb(0, 0, 0)" stroke="rgb(204, 204, 204)" stroke-width="1px"></line></g><g transform="translate(60, 0)"><text x="0" y="378" dx="0em" dy="0.3em" style="text-anchor: end; visibility: hidden; font-family: &quot;Helvetica Neue&quot;, sans-serif; font-size: 12px; font-weight: 200;" fill="rgb(50, 49, 63)" stroke="none" stroke-width="1px">-5e-5</text><text x="0" y="330.75" dx="0em" dy="0.3em" style="text-anchor: end; visibility: inherit; font-family: &quot;Helvetica Neue&quot;, sans-serif; font-size: 12px; font-weight: 200;" fill="rgb(50, 49, 63)" stroke="none" stroke-width="1px">0</text><text x="0" y="283.5" dx="0em" dy="0.3em" style="text-anchor: end; visibility: inherit; font-family: &quot;Helvetica Neue&quot;, sans-serif; font-size: 12px; font-weight: 200;" fill="rgb(50, 49, 63)" stroke="none" stroke-width="1px">5e-5</text><text x="0" y="236.25" dx="0em" dy="0.3em" style="text-anchor: end; visibility: inherit; font-family: &quot;Helvetica Neue&quot;, sans-serif; font-size: 12px; font-weight: 200;" fill="rgb(50, 49, 63)" stroke="none" stroke-width="1px">1e-4</text><text x="0" y="189.00000000000003" dx="0em" dy="0.3em" style="text-anchor: end; visibility: inherit; font-family: &quot;Helvetica Neue&quot;, sans-serif; font-size: 12px; font-weight: 200;" fill="rgb(50, 49, 63)" stroke="none" stroke-width="1px">1.5e-4</text><text x="0" y="141.75" dx="0em" dy="0.3em" style="text-anchor: end; visibility: inherit; font-family: &quot;Helvetica Neue&quot;, sans-serif; font-size: 12px; font-weight: 200;" fill="rgb(50, 49, 63)" stroke="none" stroke-width="1px">2e-4</text><text x="0" y="94.5" dx="0em" dy="0.3em" style="text-anchor: end; visibility: inherit; font-family: &quot;Helvetica Neue&quot;, sans-serif; font-size: 12px; font-weight: 200;" fill="rgb(50, 49, 63)" stroke="none" stroke-width="1px">2.5e-4</text><text x="0" y="47.25" dx="0em" dy="0.3em" style="text-anchor: end; visibility: inherit; font-family: &quot;Helvetica Neue&quot;, sans-serif; font-size: 12px; font-weight: 200;" fill="rgb(50, 49, 63)" stroke="none" stroke-width="1px">3e-4</text><text x="0" y="0" dx="0em" dy="0.3em" style="text-anchor: end; visibility: hidden; font-family: &quot;Helvetica Neue&quot;, sans-serif; font-size: 12px; font-weight: 200;" fill="rgb(50, 49, 63)" stroke="none" stroke-width="1px">3.5e-4</text></g><line x1="70" y1="0" x2="70" y2="378" fill="rgb(0, 0, 0)" stroke="rgb(204, 204, 204)" stroke-width="1px"></line></g></g><g transform="translate(70, 0)" clip-path="url(#clip_0)"><clipPath id="clip_0"><rect width="880" height="378"></rect></clipPath><g><g><g><line x1="0" y1="0" x2="0" y2="378" fill="rgb(0, 0, 0)" stroke="rgb(60, 60, 60)" stroke-width="1px" opacity="0.25"></line><line x1="80.04545454545455" y1="0" x2="80.04545454545455" y2="378" fill="rgb(0, 0, 0)" stroke="rgb(60, 60, 60)" stroke-width="1px" opacity="0.25"></line><line x1="160.0909090909091" y1="0" x2="160.0909090909091" y2="378" fill="rgb(0, 0, 0)" stroke="rgb(60, 60, 60)" stroke-width="1px" opacity="0.25"></line><line x1="240.13636363636363" y1="0" x2="240.13636363636363" y2="378" fill="rgb(0, 0, 0)" stroke="rgb(60, 60, 60)" stroke-width="1px" opacity="0.25"></line><line x1="320.1818181818182" y1="0" x2="320.1818181818182" y2="378" fill="rgb(0, 0, 0)" stroke="rgb(60, 60, 60)" stroke-width="1px" opacity="0.25"></line><line x1="400.2272727272727" y1="0" x2="400.2272727272727" y2="378" fill="rgb(0, 0, 0)" stroke="rgb(60, 60, 60)" stroke-width="1px" opacity="0.25"></line><line x1="480.27272727272725" y1="0" x2="480.27272727272725" y2="378" fill="rgb(0, 0, 0)" stroke="rgb(60, 60, 60)" stroke-width="1px" opacity="0.25"></line><line x1="560.3181818181818" y1="0" x2="560.3181818181818" y2="378" fill="rgb(0, 0, 0)" stroke="rgb(60, 60, 60)" stroke-width="1px" opacity="0.25"></line><line x1="640.3636363636364" y1="0" x2="640.3636363636364" y2="378" fill="rgb(0, 0, 0)" stroke="rgb(60, 60, 60)" stroke-width="1px" opacity="0.25"></line><line x1="720.409090909091" y1="0" x2="720.409090909091" y2="378" fill="rgb(0, 0, 0)" stroke="rgb(60, 60, 60)" stroke-width="1px" opacity="0.25"></line><line x1="800.4545454545454" y1="0" x2="800.4545454545454" y2="378" fill="rgb(0, 0, 0)" stroke="rgb(60, 60, 60)" stroke-width="1px" opacity="0.25"></line><line x1="880.5" y1="0" x2="880.5" y2="378" fill="rgb(0, 0, 0)" stroke="rgb(60, 60, 60)" stroke-width="1px" opacity="0.25"></line></g><g><line x1="0" y1="378" x2="880.5" y2="378" fill="rgb(0, 0, 0)" stroke="rgb(60, 60, 60)" stroke-width="1px" opacity="0.25"></line><line x1="0" y1="330.75" x2="880.5" y2="330.75" fill="rgb(0, 0, 0)" stroke="rgb(60, 60, 60)" stroke-width="1px" opacity="0.25"></line><line x1="0" y1="283.5" x2="880.5" y2="283.5" fill="rgb(0, 0, 0)" stroke="rgb(60, 60, 60)" stroke-width="1px" opacity="0.25"></line><line x1="0" y1="236.25" x2="880.5" y2="236.25" fill="rgb(0, 0, 0)" stroke="rgb(60, 60, 60)" stroke-width="1px" opacity="0.25"></line><line x1="0" y1="189.00000000000003" x2="880.5" y2="189.00000000000003" fill="rgb(0, 0, 0)" stroke="rgb(60, 60, 60)" stroke-width="1px" opacity="0.25"></line><line x1="0" y1="141.75" x2="880.5" y2="141.75" fill="rgb(0, 0, 0)" stroke="rgb(60, 60, 60)" stroke-width="1px" opacity="0.25"></line><line x1="0" y1="94.5" x2="880.5" y2="94.5" fill="rgb(0, 0, 0)" stroke="rgb(60, 60, 60)" stroke-width="1px" opacity="0.25"></line><line x1="0" y1="47.25" x2="880.5" y2="47.25" fill="rgb(0, 0, 0)" stroke="rgb(60, 60, 60)" stroke-width="1px" opacity="0.25"></line><line x1="0" y1="0" x2="880.5" y2="0" fill="rgb(0, 0, 0)" stroke="rgb(60, 60, 60)" stroke-width="1px" opacity="0.25"></line></g></g></g><g><g><line x1="0" y1="330.75" x2="880.5" y2="330.75" fill="rgb(0, 0, 0)" stroke="rgb(153, 153, 153)" stroke-width="1.5px"></line></g></g><g><g><line x1="80.04545454545455" y1="0" x2="80.04545454545455" y2="378" fill="rgb(0, 0, 0)" stroke="rgb(153, 153, 153)" stroke-width="1.5px"></line></g></g><g><g><g><g><g><path stroke="rgb(51, 187, 238)" stroke-width="2px" d="M82.44681818181819,47.853267466882244L84.04772727272727,48.22038254761719L85.64863636363637,48.64056110927572L87.24954545454545,49.09407678269446L88.85045454545454,49.57403078926478L90.45136363636364,50.08839745272286L92.05227272727272,50.61642858620638L93.65318181818182,51.15566678422255L95.2540909090909,51.71072190289567L96.855,52.27106853435572L98.45590909090909,52.846617683638556L100.05681818181817,53.427882240586996L101.65772727272727,54.00838120495473L103.25863636363637,54.58976948617391L104.85954545454545,55.16658394604485L106.46045454545455,55.739826909989404L108.06136363636364,56.31140054658664L110.46272727272728,56.88315400655745L112.06363636363635,57.45500881839638L113.66454545454545,58.02695572933385L115.26545454545456,58.598292380951136L116.86636363636363,59.172874693559436L118.46727272727273,59.74508283911666L120.06818181818181,60.3172538777938L121.66909090909091,60.88847926809984L123.27000000000001,61.45869765529932L124.8709090909091,62.028994180331836L126.4718181818182,62.604090285628104L128.07272727272726,63.176851635976334L129.67363636363638,63.74913629578532L131.27454545454543,64.32292817879414L132.87545454545455,64.89513813353159L134.47636363636366,65.46731204723505L136.0772727272727,66.03878226621623L137.67818181818183,66.60891716916416L139.2790909090909,67.18097919464628L140.88,67.75304236415838L142.48090909090908,68.32398409374122L144.0818181818182,68.89472601359876L145.68272727272728,69.46600812283623L147.28363636363636,70.03648121736859L148.88454545454547,70.60783305794246L150.48545454545453,71.17925009380161L152.08636363636364,71.75367658381282L153.68727272727273,72.32693840940436L155.2881818181818,72.89906138644369L156.88909090909092,73.47094110427776L158.48999999999998,74.04541417732474L160.0909090909091,74.62120123604876L161.69181818181818,75.19574145531715L163.29272727272726,75.76838944113041L164.89363636363638,76.34060616673798L166.49454545454546,76.91118898023325L168.09545454545454,77.48079144646152L169.69636363636363,78.05115885782305L171.29727272727274,78.62154518634816L172.8981818181818,79.1928449675002L174.4990909090909,79.76628800117578L176.10000000000002,80.34552749800974L177.70090909090908,80.92057700294362L179.3018181818182,81.49399261257037L180.90272727272728,82.06664790997127L182.50363636363636,82.63862699507831L184.10454545454544,83.20951827543848L185.70545454545456,83.77998789915665L187.30636363636364,84.3502045288896L188.90727272727273,84.9225466205495L190.5081818181818,85.49477783212836L192.1090909090909,86.06787762173133L193.71,86.640574453324L195.3109090909091,87.21165435412144L196.91181818181818,87.78269920251438L199.31318181818182,88.35324996580437L200.9140909090909,88.92285520440566L202.51500000000001,89.4934663066453L204.1159090909091,90.063283768583L205.71681818181818,90.63310910124773L207.31772727272727,91.2022570789781L208.91863636363635,91.77261582719098L210.51954545454547,92.34274392912499L212.12045454545455,92.91276664703543L213.72136363636363,93.48473936289969L215.32227272727272,94.05630889908474L216.92318181818183,94.62766953120604L218.5240909090909,95.19838776223719L220.125,95.76944663497648L221.7259090909091,96.3406878902448L223.3268181818182,96.91091644774355L224.92772727272725,97.48076841278657L226.52863636363637,98.05559801261893L228.12954545454545,98.62799057810395L229.73045454545456,99.19979552218962L231.33136363636365,99.7703732942266L232.9322727272727,100.33972520750228L234.53318181818182,100.91086089129311L236.1340909090909,101.48079507969919L237.735,102.05114149940931L239.33590909090907,102.62084965744492L240.93681818181818,103.19038388218621L242.53772727272727,103.76298210634968L244.13863636363638,104.33559252301302L245.73954545454546,104.90664807797265L247.34045454545452,105.47881694802186L248.94136363636363,106.04911801948089L250.54227272727272,106.61855694111176L252.14318181818183,107.18884822821087L253.74409090909094,107.75940340651294L255.34499999999997,108.32897829037773L256.9459090909091,108.89979120473373L258.5468181818182,109.46998828326724L260.1477272727273,110.04526147802392L261.74863636363636,110.61994443007956L263.3495454545454,111.19178695448608L264.95045454545453,111.76260179904995L266.55136363636365,112.33325108687256L268.15227272727276,112.90334998948606L269.7531818181818,113.47424628888501L271.35409090909087,114.04608307876771L272.955,114.61801660990432L274.5559090909091,115.19116331682409L276.1568181818182,115.76501592671792L277.75772727272727,116.33681129699193L279.3586363636364,116.90692127232955L280.95954545454543,117.47693311428219L282.56045454545455,118.04617649571338L284.16136363636366,118.6147442764975L285.7622727272727,119.18383080171787L287.36318181818183,119.7525299943577L288.9640909090909,120.32076576124302L290.565,120.88942205191802L292.1659090909091,121.45878720865528L293.76681818181817,122.02854468128609L295.3677272727273,122.59903810023309L296.9686363636364,123.16925800585548L298.56954545454545,123.7399903802297L300.1704545454545,124.30991360919194L301.7713636363636,124.87936235215489L303.37227272727273,125.44872992660464L304.97318181818184,126.01897290477106L306.57409090909096,126.5895045983375L308.17499999999995,127.16201372580156L309.77590909090907,127.73416363827243L311.3768181818182,128.306279542338L312.9777272727273,128.8777149664856L314.5786363636364,129.4494131788051L316.97999999999996,130.02262221752096L318.5809090909091,130.59382242137787L320.1818181818182,131.16761825547314L321.7827272727273,131.7398526139282L323.38363636363636,132.31204668870407L324.98454545454547,132.8842055920245L326.5854545454545,133.45859314766977L328.18636363636364,134.03024743298226L329.78727272727275,134.60185693704244L331.3881818181818,135.17299402181078L332.9890909090909,135.74268702334922L334.59000000000003,136.31153007682155L336.1909090909091,136.88145284177773L337.79181818181814,137.45339308898917L339.39272727272726,138.0249486446065L340.99363636363637,138.59558030664888L342.5945454545455,139.16520108075792L344.19545454545454,139.7346883757672L345.7963636363636,140.30432110889882L347.3972727272727,140.87379357682582L348.9981818181818,141.44411599295051L350.59909090909093,142.0135512195089L352.20000000000005,142.58268515853376L353.80090909090904,143.15210587807474L355.40181818181816,143.7221442164658L357.00272727272727,144.29278415237312L358.6036363636364,144.8642415985786L360.2045454545455,145.4357274985506L361.80545454545455,146.00586631604136L363.4063636363636,146.57566443707967L365.0072727272727,147.1452361377507L366.60818181818183,147.71447396373884L368.2090909090909,148.2866578218204L369.81,148.85927264753653L371.4109090909091,149.43167850079715L373.01181818181817,150.00372244375436L374.6127272727273,150.5744491157382L376.21363636363634,151.14458894822448L377.81454545454545,151.7148222275526L379.41545454545457,152.28899501549904L381.0163636363636,152.86096599073272L382.61727272727273,153.43209443262293L384.2181818181818,154.00293187884137L385.8190909090909,154.5742658037794L387.42,155.14523204045054L389.02090909090913,155.71710529207246L390.6218181818182,156.28907170150055L392.22272727272724,156.86085747878215L393.82363636363635,157.4309561977004L397.0254545454546,158.15562783020528L398.62636363636364,158.82131950027483L400.2272727272727,159.4527453201703L401.8281818181818,160.06089982235082L403.4290909090909,160.66302343364742L405.03000000000003,161.25835465039088L406.6309090909091,161.85256426546698L408.2318181818182,162.44428571363713L409.83272727272725,163.02769898858176L411.43363636363637,163.614075761208L413.0345454545455,164.19678501472643L414.63545454545454,164.77410889550944L416.23636363636365,165.35320161982756L417.8372727272727,165.93313012468445L419.4381818181818,166.50947313426508L421.03909090909093,167.08230619256284L422.64,167.65644916756764L424.2409090909091,168.22999193535966L425.8418181818182,168.80205245153704L427.44272727272727,169.37481879769288L429.0436363636363,169.9486742173345L430.64454545454544,170.52431620960266L432.24545454545455,171.09672865751287L433.84636363636366,171.66856753354946L435.4472727272727,172.24981487273644L437.84863636363633,172.8280878120741L439.44954545454544,173.4045596096303L441.0504545454545,173.98950530592975L442.6513636363636,174.56772550184098L444.2522727272727,175.1466574359935L445.8531818181818,175.7212858764884L447.4540909090909,176.29444884745183L450.6559090909091,177.17697872908096L453.05727272727273,177.9437330686707L454.6581818181818,178.6380792492201L456.2590909090909,179.28851298130908L457.86,179.91283577115192L459.4609090909091,180.5257989842048L461.06181818181824,181.12853056370702L462.6627272727273,181.71810986753437L464.2636363636363,182.3065965771668L465.8645454545454,182.89760159030516L468.26590909090913,183.60646678347118L469.86681818181825,184.26494084700744L471.46772727272725,184.89543548858794L473.06863636363636,185.50756379791952L475.47,186.11592763090007L477.07090909090914,186.71545953244234L478.67181818181814,187.3090156983749L480.27272727272725,187.8953450098826L481.87363636363636,188.47689815881884L483.4745454545454,189.05352837685254L485.07545454545453,189.64081888063666L486.67636363636365,190.22974751614876L488.27727272727276,190.81035747558755L489.8781818181819,191.39890819630367L491.4790909090909,191.98678325669337L493.08000000000004,192.57401089343313L494.68090909090904,193.15904587132528L496.28181818181815,193.73845276472707L497.88272727272727,194.31969739894524L499.4836363636364,194.89592798381383L501.08454545454543,195.47210397413724L502.68545454545455,196.05118454092616L504.28636363636366,196.62950506969432L506.6877272727273,197.20807365551636L508.2886363636364,197.79130708783893L509.88954545454544,198.3691765021106L511.49045454545455,198.9449661347107L513.0913636363637,199.51951339893182L514.6922727272728,200.09443736941267L516.2931818181818,200.67595158556676L517.8940909090909,201.25301499571958L519.495,201.839201260034L521.0959090909091,202.42792390365267L522.6968181818182,203.02111120867053L524.2977272727272,203.60405084423056L525.8986363636363,204.19262971525427L527.4995454545455,204.7807526920347L529.1004545454546,205.37380572253184L531.5018181818182,205.97072438821175L533.1027272727273,206.55838912219727L534.7036363636364,207.14120557703257L536.3045454545455,207.71881380356396L537.9054545454546,208.2980771353311L539.5063636363636,208.87538519579903L541.1072727272727,209.45084351674086L542.7081818181817,210.03221629075924L544.3090909090909,210.61804533957635L545.91,211.19725759941045L547.5109090909091,211.77451851484676L549.1118181818182,212.36083428357912L550.7127272727273,212.9435014341373L552.3136363636364,213.52353936387442L553.9145454545455,214.099722502801L555.5154545454545,214.68084533992769L557.1163636363636,215.26879618430374L558.7172727272728,215.85562374089483L560.3181818181818,216.43769036121543L561.9190909090909,217.0198652560862L564.3204545454545,217.60662662857914L565.9213636363636,218.19795509355097L567.5222727272727,218.78431193922341L569.1231818181818,219.36882169216318L570.7240909090909,219.95041348418167L572.325,220.52911587048848L573.9259090909092,221.1101743272798L575.5268181818183,221.69082571983228L577.1277272727273,222.26782248698856L578.7286363636364,222.84150710193197L580.3295454545454,223.42385638383908L581.9304545454545,224.00619262472583L583.5313636363636,224.58511065414743L585.1322727272727,225.1731000183296L586.7331818181818,225.75654580057542L588.334090909091,226.3384040628184L589.9350000000001,226.920904994007L591.5359090909092,227.5024163705739L593.1368181818182,228.08651062470253L594.7377272727273,228.66694276416962L597.1390909090909,229.25425366436772L598.74,229.83412125851225L600.340909090909,230.41655266644088L601.9418181818181,231.00414727382713L603.5427272727272,231.58509269523736L605.1436363636363,232.1679425236312L606.7445454545455,232.75511710717396L608.3454545454546,233.3392126501951L609.9463636363637,233.92553673125488L611.5472727272728,234.51025235100926L613.1481818181819,235.09037798279317L615.5495454545454,235.7550637761655L617.1504545454545,236.38748125098996L618.7513636363636,237.0000839332093L620.3522727272727,237.59739285363662L621.9531818181819,238.18484343961813L623.5540909090909,238.7761343815187L625.155,239.3622486883901L626.7559090909091,239.94480046245565L628.3568181818182,240.5240788379907L629.9577272727273,241.1109147544758L632.3590909090909,241.69911958644408L633.9599999999999,242.28224909882115L635.560909090909,242.86822183738866L637.1618181818181,243.45567223577632L638.7627272727273,244.04288435245695L640.3636363636364,244.624961683873L641.9645454545455,245.20441194560675L643.5654545454546,245.7931717003406L645.1663636363637,246.37662316512908L646.7672727272727,246.9591669142682L648.3681818181818,247.5452419963694L649.9690909090909,248.12459637555L651.5699999999999,248.71148064453448L653.170909090909,249.29177983794534L654.7718181818182,249.87923374577997L656.3727272727273,250.46576039013422L657.9736363636364,251.0485568163775L659.5745454545455,251.63025099060116L661.9759090909091,252.2187674125056L663.5768181818182,252.7989017678856L665.1777272727273,253.3805856296027L666.7786363636365,253.96297366953985L668.3795454545455,254.5471456208382L669.9804545454546,255.13352104748827L671.5813636363636,255.721895136096L673.1822727272727,256.30648485657395L674.7831818181818,256.89197506588476L676.3840909090909,257.4789104211362L677.985,258.05991684305394L679.5859090909091,258.6409990670946L681.1868181818182,259.22006953904935L682.7877272727274,259.79952814069986L684.3886363636364,260.3812576013437L685.9895454545455,260.96481713041976L687.5904545454546,261.5462843386606L689.9918181818182,262.1269554565005L691.5927272727272,262.7076027215764L693.1936363636363,263.2868687699406L696.3954545454545,264.1449523095934L697.9963636363636,264.89454706134507L699.5972727272728,265.5792603143784L701.1981818181819,266.22347148972926L702.799090909091,266.83951723014127L704.4000000000001,267.43843818400785L706.0009090909091,268.0277745942536L707.6018181818181,268.61701767006593L710.0031818181818,269.20371846319L711.6040909090909,269.78866011018295L713.205,270.3809347210306L714.805909090909,270.9669571518997L716.4068181818182,271.54990760184023L718.0077272727273,272.1319197158644L719.6086363636364,272.71382400497123L721.2095454545455,273.30110784168835L722.8104545454546,273.8809550722764L724.4113636363636,274.4606597041486L726.0122727272727,275.0420843566051L727.6131818181818,275.6265845032118L729.2140909090908,276.2111119900912L730.8149999999999,276.7988379920929L732.415909090909,277.38575616884157L734.0168181818182,277.9719668751682L738.0190909090909,278.84850645548096L739.62,279.60553479372555L741.2209090909091,280.30107242057215L742.8218181818182,280.95131754295454L744.4227272727272,281.5741616370763L746.0236363636363,282.17693745274244L747.6245454545455,282.76766955102323L749.2254545454546,283.35162922034925L750.8263636363637,283.9351558441135L752.4272727272727,284.51343494976834L754.8286363636364,285.0940042864944L756.4295454545455,285.67390978068727L758.0304545454546,286.2529617927279L761.2322727272727,287.1515156408521L763.6336363636364,287.92561260264495L766.8354545454545,288.8999167384522L768.4363636363636,289.7128837514471L770.0372727272727,290.4360892894187L771.6381818181818,291.1008930518323L773.2390909090909,291.737230369695L774.84,292.3564946966071L776.4409090909091,292.96301519536064L778.8422727272728,293.5632563022722L782.0440909090909,294.40194974999525L783.645,295.14489126158156L785.2459090909091,295.82562082145165L786.8468181818182,296.4731087987355L788.4477272727273,297.09815316803554L790.0486363636363,297.7090534206426L791.6495454545454,298.3128203567271L793.2504545454545,298.9075561389559L794.8513636363637,299.49800085678226L797.2527272727273,300.09335178454774L798.8536363636364,300.68212485820834L800.4545454545454,301.26876848804557L802.0554545454545,301.857759362776L803.6563636363636,302.4497448268757L805.2572727272727,303.03922280635123L806.8581818181818,303.62424864818956L808.459090909091,304.20705013314216L810.0600000000001,304.78693351184177L811.6609090909092,305.36846541239464L813.2618181818182,305.94531872065045L814.8627272727273,306.522769072179L816.4636363636364,307.106020517076L818.0645454545454,307.6963747788693L819.6654545454545,308.28804995971774L821.2663636363636,308.8748403604983L824.4681818181818,309.5877603455474L826.069090909091,310.25137909182394L827.67,310.8795245514238L829.2709090909091,311.484573583424L830.8718181818182,312.0837007840774L832.4727272727273,312.6715698869159L834.0736363636364,313.2617470966115L835.6745454545454,313.8521815425103L837.2754545454545,314.44616902815807L838.8763636363636,315.030723963365L840.4772727272727,315.6161895198343L842.0781818181819,316.1974485661737L843.6790909090909,316.7770837460301L845.28,317.3564273709452L846.8809090909091,317.93786747680053L848.4818181818182,318.52010479396364L850.0827272727273,319.1010093574738L851.6836363636364,319.6777148831872L854.0849999999999,320.2587059456345" style="fill: none;" fill="none"></path></g></g></g></g><g opacity="0.2"><g><g><g><path stroke="rgb(51, 187, 238)" stroke-width="2px" d="M82.44681818181819,47.853267466882244L84.04772727272727,48.44065159605816L85.64863636363637,49.04393252846785L87.24954545454545,49.627411214634776L88.85045454545454,50.20065874024294L90.45136363636364,50.7999517202843L92.05227272727272,51.37152155558579L93.65318181818182,51.941881253616884L95.2540909090909,52.529320389032364L96.855,53.10311797703616L98.45590909090909,53.704721219139174L100.05681818181817,54.296615859959275L101.65772727272727,54.877234221668914L103.25863636363637,55.46071290783584L104.85954545454545,56.0311276121065L106.46045454545455,56.59928706055507L108.06136363636364,57.16851913067512L110.46272727272728,57.74063902837224L112.06363636363635,58.3127039198298L113.66454545454545,58.88482381752692L115.26545454545456,59.455266024917364L116.86636363636363,60.034729255596176L118.46727272727273,60.60338376020081L120.06818181818181,61.175503657897934L121.66909090909091,61.7453132935334L123.27000000000001,62.3140228043776L124.8709090909091,62.88443750864826L126.4718181818182,63.46673356066458L128.07272727272726,64.03599313390441L129.67363636363638,64.6075629692059L131.27454545454543,65.18361581303179L132.87545454545455,65.75345295178704L134.47636363636366,66.32557284948416L136.0772727272727,66.89598755375482L137.67818181818183,67.46411949908361L139.2790909090909,68.03907221811824L140.88,68.6111371095758L142.48090909090908,69.18039668281563L144.0818181818182,69.75083889020607L145.68272727272728,70.32293128478341L147.28363636363636,70.89219085802324L148.88454545454547,71.464860818116L150.48545454545453,72.03637564717792L152.08636363636364,72.61531631858088L153.68727272727273,73.1868311476428L155.2881818181818,73.75724585191347L156.88909090909092,74.32876068097539L158.48999999999998,74.90712378686294L160.0909090909091,75.48488182411529L161.69181818181818,76.05755178420804L163.29272727272726,76.62736141984351L164.89363636363638,77.198931255145L166.49454545454546,77.76706320047379L168.09545454545454,78.33519514580257L169.69636363636363,78.9067099748645L171.29727272727274,79.47712467913516L172.8981818181818,80.04979463922791L174.4990909090909,80.626452551689L176.10000000000002,81.21438674326055L177.70090909090908,81.78315126034431L179.3018181818182,82.3541160270106L180.90272727272728,82.92563085607253L182.50363636363636,83.49659562273882L184.10454545454544,84.06585519597866L185.70545454545456,84.6356923347339L187.30636363636364,85.20552947348915L188.90727272727273,85.78105975803919L190.5081818181818,86.35312464949675L192.1090909090909,86.92752730613574L193.71,87.49961970071308L195.3109090909091,88.06827420531772L196.91181818181818,88.6392664751038L199.31318181818182,89.20907611073926L200.9140909090909,89.77726306230761L202.51500000000001,90.34938296000473L204.1159090909091,90.91800996148959L205.71681818181818,91.48784710024484L207.31772727272727,92.05597904557362L208.91863636363635,92.6281539495103L210.51954545454547,93.19793608202599L212.12045454545455,93.76780072390102L213.72136363636363,94.34269843669608L215.32227272727272,94.91366320336238L216.92318181818183,95.48471047938801L218.5240909090909,96.05446510878392L220.125,96.6260349440854L221.7259090909091,97.19754977314733L223.3268181818182,97.76625928399153L224.92772727272725,98.33554636035115L226.52863636363637,98.91784241236746L228.12954545454545,99.48657942633145L229.73045454545456,100.05750293831807L231.33136363636365,100.62623995228205L232.9322727272727,101.19375307741575L234.53318181818182,101.76756441697944L236.1340909090909,102.33569636230823L237.735,102.90666112897452L239.33590909090907,103.4754118944984L240.93681818181818,104.04468521929812L242.53772727272727,104.62187944259495L244.13863636363638,105.19450814800803L245.73954545454546,105.76323141041212L247.34045454545452,106.33707025309559L248.94136363636363,106.9045696266694L250.54227272727272,107.47271532355808L252.14318181818183,108.04428515885957L253.74409090909094,108.61523617396597L255.34499999999997,109.18334061617497L256.9459090909091,109.75601057626773L258.5468181818182,110.32528390106745L260.1477272727273,110.90817127015907L261.74863636363636,111.48196885816287L263.3495454545454,112.04955074109603L264.95045454545453,112.61882406589575L266.55136363636365,113.18922501860652L268.15227272727276,113.75849834340625L269.7531818181818,114.33059073798358L271.35409090909087,114.90383826359175L272.955,115.4759169066092L274.5559090909091,116.05088337720372L276.1568181818182,116.62579484155867L277.75772727272727,117.19450435240287L279.3586363636364,117.76208623533603L280.95954545454543,118.33195087721106L282.56045454545455,118.90004156786017L284.16136363636366,119.46759594767354L285.7622727272727,120.03746058954857L287.36318181818183,120.60557878331747L288.9640909090909,121.17311941157095L290.565,121.74240648793057L292.1659090909091,122.31283494376112L293.76681818181817,122.88318089023232L295.3677272727273,123.4547782286536L296.9686363636364,124.02458786428906L298.56954545454545,124.5960889417911L300.1704545454545,125.1647984526353L301.7713636363636,125.73353546659928L303.37227272727273,126.30278128827922L304.97318181818184,126.87433737202082L306.57409090909096,127.44530213868711L308.17499999999995,128.0207774169976L309.77590909090907,128.59238850697875L311.3768181818182,129.1644533984363L312.9777272727273,129.73486810270697L314.5786363636364,130.3069604972843L316.97999999999996,130.8824357755948L318.5809090909091,131.45062272716314L320.1818181818182,132.02831200661603L321.7827272727273,132.59820415161084L323.38363636363636,133.17033780086786L324.98454545454547,133.74244394700509L326.5854545454545,134.32017448113766L328.18636363636364,134.88772886095103L329.78727272727275,135.45927119313274L331.3881818181818,136.0296996489633L332.9890909090909,136.59722652565688L334.59000000000003,137.16479465703014L336.1909090909091,137.73633698921185L337.79181818181814,138.31130345980637L339.39272727272726,138.88228197803255L340.99363636363637,139.4515277997125L342.5945454545455,140.0196322419215L344.19545454545454,140.5889193182811L345.7963636363636,141.15877020859625L347.3972727272727,141.7280022787163L348.9981818181818,142.29959961713757L350.59909090909093,142.86770405934658L352.20000000000005,143.436386067071L353.80090909090904,144.00623695738614L355.40181818181816,144.57720172405243L357.00272727272727,145.14874405623414L358.6036363636364,145.72142776788678L360.2045454545455,146.2929563485086L361.80545454545455,146.8610745422775L363.4063636363636,147.4303616186371L365.0072727272727,147.99959368875716L366.60818181818183,148.56833070272114L368.2090909090909,149.14493360894267L369.81,149.71819488611072L371.4109090909091,150.29028728068806L373.01181818181817,150.8617883581901L374.6127272727273,151.43053912371397L376.21363636363634,151.9997986969538L377.81454545454545,152.5701721465448L379.41545454545457,153.1502541974187L381.0163636363636,153.71892245358322L382.61727272727273,154.28878709545825L384.2181818181818,154.85918804816902L385.8190909090909,155.43126669118647L387.42,156.00168139545713L389.02090909090913,156.5749151695054L390.6218181818182,157.14702131564263L392.22272727272724,157.71853614470456L393.82363636363635,158.28610427607782L397.0254545454546,159.24263527896255L398.62636363636364,159.81985700537916L400.2272727272727,160.3998840500135L401.8281818181818,160.97313157562166L403.4290909090909,161.56620885059237L405.03000000000003,162.1513514755061L406.6309090909091,162.74387868808117L408.2318181818182,163.33186788589228L409.83272727272725,163.90281890099868L411.43363636363637,164.4936409201473L413.0345454545455,165.07084889500402L414.63545454545454,165.64009471668396L416.23636363636365,166.22184070630465L417.8372727272727,166.8030228819698L419.4381818181818,167.3739876486361L421.03909090909093,167.94155578000937L422.64,168.51766363007482L424.2409090909091,169.0903060870478L425.8418181818182,169.66014322580304L427.44272727272727,170.23396831692662L429.0436363636363,170.809457346797L430.64454545454544,171.38777919800486L432.24545454545455,171.95534732937813L433.84636363636366,172.5263258476043L435.4472727272727,173.1216858815169L437.84863636363633,173.6954972210806L439.44954545454544,174.2692673059646L441.0504545454545,174.86692385037895L442.6513636363636,175.43505579570774L444.2522727272727,176.0150553372223L445.8531818181818,176.58322853723075L447.4540909090909,177.15419330389705L450.6559090909091,178.50077355152462L453.05727272727273,179.09386457805522L454.6581818181818,179.67959852004424L456.2590909090909,180.26416357944254L457.86,180.84931995591614L459.4609090909091,181.44524380378425L461.06181818181824,182.03262793296017L462.6627272727273,182.6024788232753L464.2636363636363,183.18932664161548L465.8645454545454,183.78410911001265L468.26590909090913,184.66976457322016L469.86681818181825,185.2526519423118L471.46772727272725,185.84117745095864L473.06863636363636,186.42575626191683L475.47,187.028473380371L477.07090909090914,187.61475738475565L478.67181818181814,188.19934994727373L480.27272727272725,188.7748389771441L481.87363636363636,189.34922788222323L483.4745454545454,189.91847370390317L485.07545454545453,190.52175463631286L486.67636363636365,191.113140469417L488.27727272727276,191.6812724147458L489.8781818181819,192.28173427737786L491.4790909090909,192.86859584727793L493.08000000000004,193.4548523485428L494.68090909090904,194.0365983381635L496.28181818181815,194.60756310482978L497.88272727272727,195.19156435027256L499.4836363636364,195.76027386111676L501.08454545454543,196.33636795962232L502.68545454545455,196.91980539110958L504.28636363636366,197.49698586284651L506.6877272727273,198.07592653424948L508.2886363636364,198.6661572363228L509.88954545454544,199.23598062351815L511.49045454545455,199.8086505836109L513.0913636363637,200.38133429526354L514.6922727272728,200.9568233251339L516.2931818181818,201.54822290979794L517.8940909090909,202.11861011094882L519.495,202.7184806565056L521.0959090909091,203.31100786908067L522.6968181818182,203.91089216619733L524.2977272727272,204.4784602975706L525.8986363636363,205.07549802178985L527.4995454545455,205.66293715720533L529.1004545454546,206.26338526827752L531.5018181818182,206.86610238673168L533.1027272727273,207.4398862231756L534.7036363636364,208.01543025928552L536.3045454545455,208.5852261433611L537.9054545454546,209.16697213298178L539.5063636363636,209.741347286501L541.1072727272727,210.31403099815364L542.7081818181817,210.90427545178684L544.3090909090909,211.49678891280203L545.91,212.06607598916165L547.5109090909091,212.6404098880012L549.1118181818182,213.24030793667774L550.7127272727273,213.81750215997457L552.3136363636364,214.39359625848013L553.9145454545455,214.9639972111909L555.5154545454545,215.5525295956177L557.1163636363636,216.1507224508678L558.7172727272728,216.7358650757815L560.3181818181818,217.31079029169635L561.9190909090909,217.89312759839234L564.3204545454545,218.48676868731857L565.9213636363636,219.08494779100877L567.5222727272727,219.66384720773206L569.1231818181818,220.2455863215728L570.7240909090909,220.82280117220947L572.325,221.39716944994873L573.9259090909092,221.98176201246682L575.5268181818183,222.56180280866104L577.1277272727273,223.13331763772297L578.7286363636364,223.7020340243471L580.3295454545454,224.2973803066998L581.9304545454545,224.87969698605596L583.5313636363636,225.45348769827982L585.1322727272727,226.05508406460288L586.7331818181818,226.63171447394419L588.334090909091,227.2111914561829L589.9350000000001,227.79465639078992L591.5359090909092,228.37468343542426L593.1368181818182,228.96265200589554L594.7377272727273,229.53759097337027L597.1390909090909,230.13522001466484L598.74,230.7039226497291L600.340909090909,231.2901997783338L601.9418181818181,231.88553918490655L603.5427272727272,232.4565108273528L605.1436363636363,233.04221726622202L606.7445454545455,233.6358789824881L608.3454545454546,234.2153559647268L609.9463636363637,234.8050228528446L611.5472727272728,235.38732578064085L613.1481818181819,235.96056643046907L615.5495454545454,236.752092466224L617.1504545454545,237.33610746322668L618.7513636363636,237.91898795653836L620.3522727272727,238.49335623427763L621.9531818181819,239.06601931859043L623.5540909090909,239.6630707943696L625.155,240.24142014869724L626.7559090909091,240.81862812355396L628.3568181818182,241.39299640129323L629.9577272727273,241.9911686292035L632.3590909090909,242.58142683439658L633.9599999999999,243.15694336738673L635.560909090909,243.74718094524L637.1618181818181,244.33684783335778L638.7627272727273,244.9237025274779L640.3636363636364,245.49807768099708L641.9645454545455,246.0735873382073L643.5654545454546,246.6763113324414L645.1663636363637,247.25180036231177L646.7672727272727,247.83298253797693L648.3681818181818,248.42435461952118L649.9690909090909,248.9936279443209L651.5699999999999,249.5918070480111L653.170909090909,250.1622286280617L654.7718181818182,250.76041460753186L656.3727272727273,251.34555035666563L657.9736363636364,251.9227514557424L659.5745454545455,252.50279225193663L661.9759090909091,253.1015420453623L663.5768181818182,253.6691033009556L665.1777272727273,254.25311142217834L666.7786363636365,254.83655572944554L668.3795454545455,255.4234035477857L669.9804545454546,256.0130841874634L671.5813636363636,256.60445626900764L673.1822727272727,257.1833694372908L674.7831818181818,257.77021037985105L676.3840909090909,258.3593134540133L677.985,258.9314264759305L679.5859090909091,259.51262240315555L681.1868181818182,260.08867524698144L682.7877272727274,260.66871604317566L684.3886363636364,261.25385179230943L685.9895454545455,261.8401564240339L687.5904545454546,262.41848515102174L689.9918181818182,262.99796213326044L691.5927272727272,263.57857361919014L693.1936363636363,264.15576784248697L696.3954545454545,265.4320776190725L697.9963636363636,266.0189391889726L699.5972727272728,266.60633019392844L701.1981818181819,267.18978825275553L702.799090909091,267.76358584075933L704.4000000000001,268.3368196148076L706.0009090909091,268.9117792096222L707.6018181818181,269.50088228378445L710.0031818181818,270.0837696528761L711.6040909090909,270.66607258067233L713.205,271.2693466373021L714.805909090909,271.8459907982033L716.4068181818182,272.424333276751L718.0077272727273,273.00493788690073L719.6086363636364,273.58668043863145L721.2095454545455,274.1820335967641L722.8104545454546,274.7507259181584L724.4113636363636,275.330216651957L726.0122727272727,275.91422133528977L727.6131818181818,276.50333472312195L729.2140909090908,277.0879032204102L730.8149999999999,277.68042699509533L732.415909090909,278.26613343396457L734.0168181818182,278.85128293465823L738.0190909090909,280.1633158259501L739.62,280.74107730109245L741.2209090909091,281.34437886084197L742.8218181818182,281.9266852265282L744.4227272727272,282.5084277782589L746.0236363636363,283.08110117624165L747.6245454545455,283.6537676984444L749.2254545454546,284.2275687243382L750.8263636363637,284.8104457797599L752.4272727272727,285.3808536082506L754.8286363636364,285.96485829158337L756.4295454545455,286.5437680219766L758.0304545454546,287.1215398107888L761.2322727272727,288.49934641303844L763.6336363636364,289.08675804533414L766.8354545454545,290.36137294216314L768.4363636363636,290.93233427093946L770.0372727272727,291.520897596376L771.6381818181818,292.0980986954528L773.2390909090909,292.69173634648905L774.84,293.2853911869752L776.4409090909091,293.8727959434909L778.8422727272728,294.46361796263955L782.0440909090909,295.65998992157984L783.645,296.259303528961L785.2459090909091,296.8467151612567L786.8468181818182,297.4443407646613L788.4477272727273,298.0357197219855L790.0486363636363,298.62540379955317L791.6495454545454,299.21847076085396L793.2504545454545,299.79965981229907L794.8513636363637,300.3836679335218L797.2527272727273,300.986378176196L798.8536363636364,301.56528446869925L800.4545454545454,302.1487339328014L802.0554545454545,302.7412456748716L803.6563636363636,303.3377230230253L805.2572727272727,303.9234397755645L806.8581818181818,304.50178741094714L808.459090909091,305.08125236057094L810.0600000000001,305.6567585798912L811.6609090909092,306.2407632632239L813.2618181818182,306.8105986830342L814.8627272727273,307.38894459947187L816.4636363636364,307.9808976844215L818.0645454545454,308.58190617155924L819.6654545454545,309.17556273099035L821.2663636363636,309.75502596166916L824.4681818181818,310.657140323121L826.069090909091,311.2468072112388L827.67,311.82174274082354L829.2709090909091,312.3921471314243L830.8718181818182,312.9823915850575L832.4727272727273,313.55337354117364L834.0736363636364,314.1470129111549L835.6745454545454,314.7378332113585L837.2754545454545,315.3371502566297L838.8763636363636,315.9075563661754L840.4772727272727,316.4943878545382L842.0781818181819,317.0693371356829L843.6790909090909,317.64653651581466L845.28,318.2254428083179L846.8809090909091,318.81002763558354L848.4818181818182,319.3934607697083L850.0827272727273,319.97236620273907L851.6836363636364,320.5427731717573L854.0849999999999,321.1301925393054" style="fill: none;" fill="none"></path></g></g></g></g></g><g><g opacity="0.0600661"><span fill="rgb(0, 0, 0)" stroke="none" stroke-width="1px">Alt + Scroll to Zoom</span></g></g></g><g transform="translate(70, 378)" clip-path="url(#clip_1)"><clipPath id="clip_1"><rect width="880" height="22"></rect></clipPath><g><g><line x1="0" y1="0" x2="0" y2="5" style="visibility: inherit;" fill="rgb(0, 0, 0)" stroke="rgb(204, 204, 204)" stroke-width="1px"></line><line x1="80.04545454545455" y1="0" x2="80.04545454545455" y2="5" style="visibility: inherit;" fill="rgb(0, 0, 0)" stroke="rgb(204, 204, 204)" stroke-width="1px"></line><line x1="160.0909090909091" y1="0" x2="160.0909090909091" y2="5" style="visibility: inherit;" fill="rgb(0, 0, 0)" stroke="rgb(204, 204, 204)" stroke-width="1px"></line><line x1="240.13636363636363" y1="0" x2="240.13636363636363" y2="5" style="visibility: inherit;" fill="rgb(0, 0, 0)" stroke="rgb(204, 204, 204)" stroke-width="1px"></line><line x1="320.1818181818182" y1="0" x2="320.1818181818182" y2="5" style="visibility: inherit;" fill="rgb(0, 0, 0)" stroke="rgb(204, 204, 204)" stroke-width="1px"></line><line x1="400.2272727272727" y1="0" x2="400.2272727272727" y2="5" style="visibility: inherit;" fill="rgb(0, 0, 0)" stroke="rgb(204, 204, 204)" stroke-width="1px"></line><line x1="480.27272727272725" y1="0" x2="480.27272727272725" y2="5" style="visibility: inherit;" fill="rgb(0, 0, 0)" stroke="rgb(204, 204, 204)" stroke-width="1px"></line><line x1="560.3181818181818" y1="0" x2="560.3181818181818" y2="5" style="visibility: inherit;" fill="rgb(0, 0, 0)" stroke="rgb(204, 204, 204)" stroke-width="1px"></line><line x1="640.3636363636364" y1="0" x2="640.3636363636364" y2="5" style="visibility: inherit;" fill="rgb(0, 0, 0)" stroke="rgb(204, 204, 204)" stroke-width="1px"></line><line x1="720.409090909091" y1="0" x2="720.409090909091" y2="5" style="visibility: inherit;" fill="rgb(0, 0, 0)" stroke="rgb(204, 204, 204)" stroke-width="1px"></line><line x1="800.4545454545454" y1="0" x2="800.4545454545454" y2="5" style="visibility: inherit;" fill="rgb(0, 0, 0)" stroke="rgb(204, 204, 204)" stroke-width="1px"></line><line x1="880.5" y1="0" x2="880.5" y2="5" style="visibility: inherit;" fill="rgb(0, 0, 0)" stroke="rgb(204, 204, 204)" stroke-width="1px"></line></g><g transform="translate(0, 8)"><text x="0" y="0" dx="0em" dy="0.95em" style="text-anchor: middle; visibility: hidden; font-family: &quot;Helvetica Neue&quot;, sans-serif; font-size: 12px; font-weight: 200;" fill="rgb(50, 49, 63)" stroke="none" stroke-width="1px">-50k</text><text x="80.04545454545455" y="0" dx="0em" dy="0.95em" style="text-anchor: middle; visibility: inherit; font-family: &quot;Helvetica Neue&quot;, sans-serif; font-size: 12px; font-weight: 200;" fill="rgb(50, 49, 63)" stroke="none" stroke-width="1px">0</text><text x="160.0909090909091" y="0" dx="0em" dy="0.95em" style="text-anchor: middle; visibility: inherit; font-family: &quot;Helvetica Neue&quot;, sans-serif; font-size: 12px; font-weight: 200;" fill="rgb(50, 49, 63)" stroke="none" stroke-width="1px">50k</text><text x="240.13636363636363" y="0" dx="0em" dy="0.95em" style="text-anchor: middle; visibility: inherit; font-family: &quot;Helvetica Neue&quot;, sans-serif; font-size: 12px; font-weight: 200;" fill="rgb(50, 49, 63)" stroke="none" stroke-width="1px">100k</text><text x="320.1818181818182" y="0" dx="0em" dy="0.95em" style="text-anchor: middle; visibility: inherit; font-family: &quot;Helvetica Neue&quot;, sans-serif; font-size: 12px; font-weight: 200;" fill="rgb(50, 49, 63)" stroke="none" stroke-width="1px">150k</text><text x="400.2272727272727" y="0" dx="0em" dy="0.95em" style="text-anchor: middle; visibility: inherit; font-family: &quot;Helvetica Neue&quot;, sans-serif; font-size: 12px; font-weight: 200;" fill="rgb(50, 49, 63)" stroke="none" stroke-width="1px">200k</text><text x="480.27272727272725" y="0" dx="0em" dy="0.95em" style="text-anchor: middle; visibility: inherit; font-family: &quot;Helvetica Neue&quot;, sans-serif; font-size: 12px; font-weight: 200;" fill="rgb(50, 49, 63)" stroke="none" stroke-width="1px">250k</text><text x="560.3181818181818" y="0" dx="0em" dy="0.95em" style="text-anchor: middle; visibility: inherit; font-family: &quot;Helvetica Neue&quot;, sans-serif; font-size: 12px; font-weight: 200;" fill="rgb(50, 49, 63)" stroke="none" stroke-width="1px">300k</text><text x="640.3636363636364" y="0" dx="0em" dy="0.95em" style="text-anchor: middle; visibility: inherit; font-family: &quot;Helvetica Neue&quot;, sans-serif; font-size: 12px; font-weight: 200;" fill="rgb(50, 49, 63)" stroke="none" stroke-width="1px">350k</text><text x="720.409090909091" y="0" dx="0em" dy="0.95em" style="text-anchor: middle; visibility: inherit; font-family: &quot;Helvetica Neue&quot;, sans-serif; font-size: 12px; font-weight: 200;" fill="rgb(50, 49, 63)" stroke="none" stroke-width="1px">400k</text><text x="800.4545454545454" y="0" dx="0em" dy="0.95em" style="text-anchor: middle; visibility: inherit; font-family: &quot;Helvetica Neue&quot;, sans-serif; font-size: 12px; font-weight: 200;" fill="rgb(50, 49, 63)" stroke="none" stroke-width="1px">450k</text><text x="880.5" y="0" dx="0em" dy="0.95em" style="text-anchor: middle; visibility: hidden; font-family: &quot;Helvetica Neue&quot;, sans-serif; font-size: 12px; font-weight: 200;" fill="rgb(50, 49, 63)" stroke="none" stroke-width="1px">500k</text></g><line x1="0" y1="0" x2="880.5" y2="0" fill="rgb(0, 0, 0)" stroke="rgb(204, 204, 204)" stroke-width="1px"></line></g></g></g></g></svg>