<svg viewBox="0 0 950.5 400" xmlns="http://www.w3.org/2000/svg"><g><g><g><g><g><line x1="50" y1="378" x2="45" y2="378" style="visibility: inherit;" fill="rgb(0, 0, 0)" stroke="rgb(204, 204, 204)" stroke-width="1px"></line><line x1="50" y1="340.2" x2="45" y2="340.2" style="visibility: inherit;" fill="rgb(0, 0, 0)" stroke="rgb(204, 204, 204)" stroke-width="1px"></line><line x1="50" y1="302.4" x2="45" y2="302.4" style="visibility: inherit;" fill="rgb(0, 0, 0)" stroke="rgb(204, 204, 204)" stroke-width="1px"></line><line x1="50" y1="264.59999999999997" x2="45" y2="264.59999999999997" style="visibility: inherit;" fill="rgb(0, 0, 0)" stroke="rgb(204, 204, 204)" stroke-width="1px"></line><line x1="50" y1="226.79999999999998" x2="45" y2="226.79999999999998" style="visibility: inherit;" fill="rgb(0, 0, 0)" stroke="rgb(204, 204, 204)" stroke-width="1px"></line><line x1="50" y1="189" x2="45" y2="189" style="visibility: inherit;" fill="rgb(0, 0, 0)" stroke="rgb(204, 204, 204)" stroke-width="1px"></line><line x1="50" y1="151.20000000000002" x2="45" y2="151.20000000000002" style="visibility: inherit;" fill="rgb(0, 0, 0)" stroke="rgb(204, 204, 204)" stroke-width="1px"></line><line x1="50" y1="113.40000000000003" x2="45" y2="113.40000000000003" style="visibility: inherit;" fill="rgb(0, 0, 0)" stroke="rgb(204, 204, 204)" stroke-width="1px"></line><line x1="50" y1="75.60000000000002" x2="45" y2="75.60000000000002" style="visibility: inherit;" fill="rgb(0, 0, 0)" stroke="rgb(204, 204, 204)" stroke-width="1px"></line><line x1="50" y1="37.80000000000001" x2="45" y2="37.80000000000001" style="visibility: inherit;" fill="rgb(0, 0, 0)" stroke="rgb(204, 204, 204)" stroke-width="1px"></line><line x1="50" y1="0" x2="45" y2="0" style="visibility: inherit;" fill="rgb(0, 0, 0)" stroke="rgb(204, 204, 204)" stroke-width="1px"></line></g><g transform="translate(40, 0)"><text x="0" y="378" dx="0em" dy="0.3em" style="text-anchor: end; visibility: hidden; font-family: &quot;Helvetica Neue&quot;, sans-serif; font-size: 12px; font-weight: 200;" fill="rgb(50, 49, 63)" stroke="none" stroke-width="1px">-0.2</text><text x="0" y="340.2" dx="0em" dy="0.3em" style="text-anchor: end; visibility: inherit; font-family: &quot;Helvetica Neue&quot;, sans-serif; font-size: 12px; font-weight: 200;" fill="rgb(50, 49, 63)" stroke="none" stroke-width="1px">0</text><text x="0" y="302.4" dx="0em" dy="0.3em" style="text-anchor: end; visibility: inherit; font-family: &quot;Helvetica Neue&quot;, sans-serif; font-size: 12px; font-weight: 200;" fill="rgb(50, 49, 63)" stroke="none" stroke-width="1px">0.2</text><text x="0" y="264.59999999999997" dx="0em" dy="0.3em" style="text-anchor: end; visibility: inherit; font-family: &quot;Helvetica Neue&quot;, sans-serif; font-size: 12px; font-weight: 200;" fill="rgb(50, 49, 63)" stroke="none" stroke-width="1px">0.4</text><text x="0" y="226.79999999999998" dx="0em" dy="0.3em" style="text-anchor: end; visibility: inherit; font-family: &quot;Helvetica Neue&quot;, sans-serif; font-size: 12px; font-weight: 200;" fill="rgb(50, 49, 63)" stroke="none" stroke-width="1px">0.6</text><text x="0" y="189" dx="0em" dy="0.3em" style="text-anchor: end; visibility: inherit; font-family: &quot;Helvetica Neue&quot;, sans-serif; font-size: 12px; font-weight: 200;" fill="rgb(50, 49, 63)" stroke="none" stroke-width="1px">0.8</text><text x="0" y="151.20000000000002" dx="0em" dy="0.3em" style="text-anchor: end; visibility: inherit; font-family: &quot;Helvetica Neue&quot;, sans-serif; font-size: 12px; font-weight: 200;" fill="rgb(50, 49, 63)" stroke="none" stroke-width="1px">1</text><text x="0" y="113.40000000000003" dx="0em" dy="0.3em" style="text-anchor: end; visibility: inherit; font-family: &quot;Helvetica Neue&quot;, sans-serif; font-size: 12px; font-weight: 200;" fill="rgb(50, 49, 63)" stroke="none" stroke-width="1px">1.2</text><text x="0" y="75.60000000000002" dx="0em" dy="0.3em" style="text-anchor: end; visibility: inherit; font-family: &quot;Helvetica Neue&quot;, sans-serif; font-size: 12px; font-weight: 200;" fill="rgb(50, 49, 63)" stroke="none" stroke-width="1px">1.4</text><text x="0" y="37.80000000000001" dx="0em" dy="0.3em" style="text-anchor: end; visibility: inherit; font-family: &quot;Helvetica Neue&quot;, sans-serif; font-size: 12px; font-weight: 200;" fill="rgb(50, 49, 63)" stroke="none" stroke-width="1px">1.6</text><text x="0" y="0" dx="0em" dy="0.3em" style="text-anchor: end; visibility: hidden; font-family: &quot;Helvetica Neue&quot;, sans-serif; font-size: 12px; font-weight: 200;" fill="rgb(50, 49, 63)" stroke="none" stroke-width="1px">1.8</text></g><line x1="50" y1="0" x2="50" y2="378" fill="rgb(0, 0, 0)" stroke="rgb(204, 204, 204)" stroke-width="1px"></line></g></g><g transform="translate(50, 0)" clip-path="url(#clip_0)"><clipPath id="clip_0"><rect width="900" height="378"></rect></clipPath><g><g><g><line x1="0" y1="0" x2="0" y2="378" fill="rgb(0, 0, 0)" stroke="rgb(60, 60, 60)" stroke-width="1px" opacity="0.25"></line><line x1="81.86363636363636" y1="0" x2="81.86363636363636" y2="378" fill="rgb(0, 0, 0)" stroke="rgb(60, 60, 60)" stroke-width="1px" opacity="0.25"></line><line x1="163.72727272727272" y1="0" x2="163.72727272727272" y2="378" fill="rgb(0, 0, 0)" stroke="rgb(60, 60, 60)" stroke-width="1px" opacity="0.25"></line><line x1="245.59090909090907" y1="0" x2="245.59090909090907" y2="378" fill="rgb(0, 0, 0)" stroke="rgb(60, 60, 60)" stroke-width="1px" opacity="0.25"></line><line x1="327.45454545454544" y1="0" x2="327.45454545454544" y2="378" fill="rgb(0, 0, 0)" stroke="rgb(60, 60, 60)" stroke-width="1px" opacity="0.25"></line><line x1="409.3181818181818" y1="0" x2="409.3181818181818" y2="378" fill="rgb(0, 0, 0)" stroke="rgb(60, 60, 60)" stroke-width="1px" opacity="0.25"></line><line x1="491.18181818181813" y1="0" x2="491.18181818181813" y2="378" fill="rgb(0, 0, 0)" stroke="rgb(60, 60, 60)" stroke-width="1px" opacity="0.25"></line><line x1="573.0454545454545" y1="0" x2="573.0454545454545" y2="378" fill="rgb(0, 0, 0)" stroke="rgb(60, 60, 60)" stroke-width="1px" opacity="0.25"></line><line x1="654.9090909090909" y1="0" x2="654.9090909090909" y2="378" fill="rgb(0, 0, 0)" stroke="rgb(60, 60, 60)" stroke-width="1px" opacity="0.25"></line><line x1="736.7727272727274" y1="0" x2="736.7727272727274" y2="378" fill="rgb(0, 0, 0)" stroke="rgb(60, 60, 60)" stroke-width="1px" opacity="0.25"></line><line x1="818.6363636363636" y1="0" x2="818.6363636363636" y2="378" fill="rgb(0, 0, 0)" stroke="rgb(60, 60, 60)" stroke-width="1px" opacity="0.25"></line><line x1="900.5" y1="0" x2="900.5" y2="378" fill="rgb(0, 0, 0)" stroke="rgb(60, 60, 60)" stroke-width="1px" opacity="0.25"></line></g><g><line x1="0" y1="378" x2="900.5" y2="378" fill="rgb(0, 0, 0)" stroke="rgb(60, 60, 60)" stroke-width="1px" opacity="0.25"></line><line x1="0" y1="340.2" x2="900.5" y2="340.2" fill="rgb(0, 0, 0)" stroke="rgb(60, 60, 60)" stroke-width="1px" opacity="0.25"></line><line x1="0" y1="302.4" x2="900.5" y2="302.4" fill="rgb(0, 0, 0)" stroke="rgb(60, 60, 60)" stroke-width="1px" opacity="0.25"></line><line x1="0" y1="264.59999999999997" x2="900.5" y2="264.59999999999997" fill="rgb(0, 0, 0)" stroke="rgb(60, 60, 60)" stroke-width="1px" opacity="0.25"></line><line x1="0" y1="226.79999999999998" x2="900.5" y2="226.79999999999998" fill="rgb(0, 0, 0)" stroke="rgb(60, 60, 60)" stroke-width="1px" opacity="0.25"></line><line x1="0" y1="189" x2="900.5" y2="189" fill="rgb(0, 0, 0)" stroke="rgb(60, 60, 60)" stroke-width="1px" opacity="0.25"></line><line x1="0" y1="151.20000000000002" x2="900.5" y2="151.20000000000002" fill="rgb(0, 0, 0)" stroke="rgb(60, 60, 60)" stroke-width="1px" opacity="0.25"></line><line x1="0" y1="113.40000000000003" x2="900.5" y2="113.40000000000003" fill="rgb(0, 0, 0)" stroke="rgb(60, 60, 60)" stroke-width="1px" opacity="0.25"></line><line x1="0" y1="75.60000000000002" x2="900.5" y2="75.60000000000002" fill="rgb(0, 0, 0)" stroke="rgb(60, 60, 60)" stroke-width="1px" opacity="0.25"></line><line x1="0" y1="37.80000000000001" x2="900.5" y2="37.80000000000001" fill="rgb(0, 0, 0)" stroke="rgb(60, 60, 60)" stroke-width="1px" opacity="0.25"></line><line x1="0" y1="0" x2="900.5" y2="0" fill="rgb(0, 0, 0)" stroke="rgb(60, 60, 60)" stroke-width="1px" opacity="0.25"></line></g></g></g><g><g><line x1="0" y1="340.2" x2="900.5" y2="340.2" fill="rgb(0, 0, 0)" stroke="rgb(153, 153, 153)" stroke-width="1.5px"></line></g></g><g><g><line x1="81.86363636363636" y1="0" x2="81.86363636363636" y2="378" fill="rgb(0, 0, 0)" stroke="rgb(153, 153, 153)" stroke-width="1.5px"></line></g></g><g><g><g><g><g><path stroke="rgb(51, 187, 238)" stroke-width="2px" d="M84.31954545454546,327.50818873643874L85.95681818181818,332.8271090414375L87.59409090909091,335.3876910733325L89.23136363636364,200.7764043661492L90.86863636363636,182.15054047816872L92.50590909090909,199.19588081090802L94.14318181818182,144.24891522437977L95.78045454545455,-73.5681110552855L129.34454545454545,-58.9600721278764L130.98181818181817,20.38729522828146L132.61909090909091,95.70554688311535L134.25636363636363,95.75768442569489L135.89363636363638,133.47609636813584L137.5309090909091,175.54903394875194L139.1681818181818,199.6753291825607L140.80545454545455,238.9186679624565L142.44272727272727,247.90976605051358L144.08,263.82238902184616L145.71727272727273,271.3003554522503L147.35454545454544,284.75646505728207L148.9918181818182,299.05973314930577L150.6290909090909,310.7649939719716L152.26636363636365,311.50762511789054L153.90363636363637,315.35977370134503L155.54090909090908,319.33452138010887L157.17818181818183,316.59857346091576L158.81545454545454,312.06883642808504L160.4527272727273,310.9511863740021L162.09,317.5264664342529L163.72727272727272,324.23643965092555L165.36454545454544,321.56878121115943L167.00181818181818,324.47253230494584L168.63909090909092,320.01185482788173L170.27636363636364,323.84540345578915L171.91363636363636,324.93629630273415L173.55090909090907,323.84819322327206L175.18818181818182,325.5137728738757L176.82545454545453,316.018944875475L178.46272727272728,324.24145089109425L180.10000000000002,325.0742293078881L181.7372727272727,329.1173738790563L183.37454545454545,325.2382438649541L185.01181818181817,327.3960773557309L186.64909090909092,330.579703474932L188.28636363636363,326.6398600625354L189.92363636363635,326.3740151356076L191.5609090909091,327.40448736163466L193.1981818181818,329.2331825587898L194.83545454545455,331.90380512394006L196.47272727272727,332.6829038486928L198.11,333.7427025180191L199.74727272727273,332.0682122153717L201.38454545454545,330.4385294301914L203.84045454545452,331.1050985687141L205.47772727272726,332.62573101599L207.115,332.49757000076164L208.75227272727273,331.00473667423364L210.38954545454547,318.7639837505843L212.0268181818182,323.2225328324691L213.6640909090909,324.31742007842394L215.30136363636365,326.43907906181056L216.93863636363636,320.6451431594279L218.5759090909091,327.16278920841137L220.21318181818182,329.61636015815685L221.85045454545454,327.5874244740197L223.48772727272726,328.8668809429162L225.125,330.15482309462743L226.76227272727274,329.4834760818012L228.3995454545455,323.5225828333573L230.03681818181818,312.6079214885161L231.6740909090909,318.266666433473L233.31136363636364,324.03663003102514L234.94863636363638,325.6617015567754L236.58590909090913,330.4468098653754L238.2231818181818,333.06765697618727L239.86045454545453,335.0885986381495L241.49772727272727,326.8753351195886L243.13500000000002,327.72211164857356L244.7722727272727,329.0369128401602L246.40954545454545,331.18270979198957L248.04681818181817,328.4710993747303L249.6840909090909,328.4173049575322L251.32136363636366,332.2404253192981L252.95863636363634,330.9869943269038L254.5959090909091,330.5455433808532L256.23318181818183,331.05976309554376L257.87045454545455,331.5932563273704L259.5077272727273,332.21461790255285L261.145,334.0258187577222L262.7822727272727,332.45226981372207L264.41954545454547,334.3585711743269L266.0568181818182,329.8658496323725L267.69409090909096,333.43134598328174L269.3313636363636,334.34445244636237L270.96863636363634,329.78529695192634L272.6059090909091,329.5409075040797L274.2431818181818,331.9423064842331L275.88045454545454,333.4552984280591L277.51772727272726,335.6194488498244L279.155,329.2253668768807L280.79227272727275,325.6082881387236L282.42954545454546,330.38880978270845L284.0668181818182,327.55924935963435L285.7040909090909,328.26277805344273L287.3413636363636,328.55275327876814L288.9786363636364,331.4049479668773L290.6159090909091,333.73435734349107L292.2531818181818,333.18726833574544L293.89045454545453,331.8614841518555L295.5277272727273,332.6754636122438L297.165,334.2571855110617L298.80227272727274,334.6869511591012L300.43954545454545,331.5953998277554L302.07681818181817,332.1943090283852L303.71409090909094,334.81455423986057L305.35136363636366,334.99454807999814L306.9886363636363,336.1488164298271L308.6259090909091,335.1417209677419L310.2631818181818,335.9688201794041L311.9004545454546,336.2315006474562L313.5377272727273,335.4762374162619L315.17499999999995,334.50234313487675L316.8122727272727,334.4142747251968L318.44954545454544,333.39243108980537L320.0868181818182,334.9176370076995L321.72409090909093,323.68543889836434L324.18,324.92256874153594L325.8172727272727,329.7367828591739L327.45454545454544,332.3329689202651L329.0918181818182,330.42194646465447L330.72909090909087,331.5153656209568L332.36636363636364,333.77635829881194L334.00363636363636,334.25583275279615L335.6409090909091,335.1381634253038L337.27818181818185,333.06675121234497L338.9154545454545,335.17119131108603L340.5527272727273,335.9788319985299L342.19,336.47072067634633L343.8272727272727,336.5932548996888L345.46454545454543,333.75192491931216L347.10181818181815,336.0625551361069L348.7390909090909,333.7453603400722L350.37636363636364,332.43872391783805L352.0136363636364,334.0896883623517L353.65090909090907,336.30473415534L355.2881818181818,337.11551322508035L356.92545454545456,332.9058400557529L358.5627272727273,335.03734021275284L360.20000000000005,333.4873530861082L361.8372727272727,333.8223892734255L363.4745454545454,333.2628777140859L365.1118181818182,332.2885466825654L366.7490909090909,334.7236592343712L368.3863636363637,335.93693733297374L370.02363636363634,337.2254085146343L371.66090909090906,330.1720081468198L373.29818181818183,333.3664854797586L374.93545454545455,335.59502448292756L376.57272727272726,336.1823899921905L378.21,336.79080492188814L379.8472727272727,335.96903946611457L381.48454545454547,333.61136900283793L383.1218181818182,329.87134497879686L384.7590909090909,323.1988354940339L386.3963636363636,325.960849855788L388.0336363636364,330.6582393575147L389.6709090909091,331.242711779978L391.3081818181818,332.3376941132582L392.94545454545454,332.1543920742295L394.58272727272725,331.1402145884527L396.22,333.9181695415582L397.85727272727274,326.84489039266145L399.49454545454546,331.09073483040356L401.1318181818182,332.72737970659387L402.7690909090909,335.28480401845576L406.0436363636364,223.64041097171187L407.68090909090904,168.08286817078042L409.3181818181818,146.9372740030542L410.95545454545453,181.08639168264003L412.5927272727273,175.57971956921534L414.23,191.33668360348298L415.8672727272727,205.8148379924044L417.50454545454545,210.8680386473027L419.14181818181817,208.62421762998625L420.77909090909094,219.11418574366405L422.41636363636366,223.96929322548766L424.0536363636364,214.44756376545467L425.6909090909091,219.19825239539645L427.3281818181818,229.0522482655078L428.9654545454546,221.66562478194416L430.6027272727273,217.25567656308283L432.24,225.33987578362147L433.8772727272727,226.62348390465928L435.51454545454544,221.54560421494216L437.1518181818182,235.2638358794902L438.7890909090909,246.05567444582312L440.42636363636365,254.7187085868092L442.06363636363636,227.53674316413233L443.7009090909091,248.24093434099572L445.33818181818185,251.10954263022074L447.79409090909087,260.54592691070155L449.43136363636364,258.61475291851946L451.0686363636363,266.32631479384776L452.7059090909091,275.9322546451227L454.3431818181818,285.3650919144712L455.9804545454545,287.7646487727977L457.6177272727273,291.88205719919307L460.89227272727277,232.77988318044723L463.3481818181818,208.79618008279076L464.98545454545456,206.01954045381112L466.6227272727273,211.02767505220152L468.26,222.322597186396L469.89727272727276,238.5393621496138L471.5345454545455,245.67046519826513L473.17181818181825,240.64591134494935L474.80909090909086,234.32214785639283L476.4463636363636,231.9014245380392L478.90227272727276,224.65099986728612L480.5395454545455,233.26583169184082L482.17681818181813,230.8838223164198L483.81409090909085,235.92579333930712L486.27000000000004,252.8315511569351L487.90727272727275,211.04680631786405L489.5445454545454,187.00318152326238L491.18181818181813,185.85611514698203L492.8190909090909,175.94580343515122L494.4563636363636,173.93066666096712L496.09363636363634,200.39193686467567L497.7309090909091,209.6935528363118L499.3681818181818,200.09745342286408L501.0054545454546,208.78635906906115L502.6427272727273,228.239320090599L504.28000000000003,228.7238736982269L505.9172727272727,231.57934914321442L507.5545454545454,244.56991655284605L509.1918181818182,254.70844641598728L510.8290909090909,235.45942637963694L512.4663636363637,255.7700293567395L514.1036363636364,256.9330125919948L515.7409090909091,256.13398055743994L518.1968181818181,254.67601424045455L519.834090909091,268.3264494084542L521.4713636363637,276.1457854642406L523.1086363636364,283.32261328780265L524.7459090909091,277.3468705992914L526.3831818181818,267.6129827774177L528.0204545454545,281.00863361696065L529.6577272727272,267.991829247115L531.295,276.0220002763498L532.9322727272727,285.01811507421894L534.5695454545454,291.05126954244474L536.2068181818182,294.3407685215884L537.8440909090909,292.87304380748355L539.4813636363637,299.1738399923663L541.1186363636364,298.2247045720113L543.5745454545455,296.63915383604126L545.2118181818182,300.2320967947659L546.8490909090909,283.25149676294427L548.4863636363636,292.43409970933976L550.1236363636364,287.1263113399433L551.7609090909091,267.3866884028963L553.3981818181818,283.0491656062634L555.0354545454545,271.1377908037681L556.6727272727272,285.1269974068748L558.31,269.138724508044L559.9472727272728,279.5170019508343L561.5845454545455,273.5114819598759L563.2218181818182,269.15597159102947L564.8590909090909,280.11552725574603L566.4963636363636,284.01417551720874L568.1336363636364,278.0521254127308L569.7709090909091,284.2571129003218L571.4081818181818,286.1016383337409L573.0454545454545,285.4985570339817L574.6827272727272,287.15335746457924L577.1386363636364,296.0140519776985L578.7759090909091,305.06964421981843L580.4131818181818,310.96856364616315L582.0504545454545,311.36615153437L583.6877272727273,314.0773263012477L585.325,308.6328303286498L586.9622727272728,304.5148292153516L588.5995454545455,311.71086712178226L590.2368181818181,282.3352671879329L591.8740909090909,287.72992012487634L593.5113636363636,295.84666916362517L595.1486363636363,299.27755568285033L596.7859090909091,296.6060306111529L598.4231818181818,297.09459663984507L600.0604545454546,302.0593264481862L601.6977272727273,290.3186323440933L603.335,297.37931370597266L604.9722727272728,308.7034382531713L606.6095454545454,311.05979849038545L608.2468181818182,285.5686974402548L610.7027272727273,283.8754381511379L612.34,295.96595069490485L613.9772727272726,302.21593616916306L615.6145454545455,308.35682890900114L617.2518181818182,311.32721071176616L618.8890909090909,300.02135097702075L620.5263636363636,303.515105322121L622.1636363636363,284.58559549040694L623.8009090909092,259.63944557301465L625.4381818181819,276.6133301066891L627.0754545454546,286.4292513184271L629.5313636363636,236.41943860843904L631.1686363636363,198.74204095360713L632.8059090909092,181.06321514223265L634.4431818181819,173.54770670756247L636.0804545454546,168.4306308938536L637.7177272727272,179.67927905282215L639.355,185.90840414262317L640.9922727272727,204.0660972589046L642.6295454545455,198.72877703152835L644.2668181818182,194.19792024399482L646.7227272727272,190.03868978563335L648.36,206.44544061507813L649.9972727272727,218.3789928751351L651.6345454545454,208.97675500375996L653.2718181818182,217.71449856080395L654.9090909090909,217.96371565412153L656.5463636363637,215.6309779819886L658.1836363636364,206.8551243315363L659.8209090909091,229.99818257392786L661.4581818181817,231.0997160714945L663.0954545454546,224.71953559649472L664.7327272727273,233.26093446929744L666.37,232.21075003456767L668.0072727272727,235.45844541735468L669.6445454545454,230.87112416951072L671.2818181818182,236.32304403143056L672.919090909091,238.0382853374298L674.5563636363637,233.90128183993193L677.0122727272727,228.00811582465468L678.6495454545454,248.9430515793532L680.2868181818183,262.0182729665977L681.924090909091,257.4898882022227L683.5613636363636,259.54521431867624L685.1986363636363,256.29835993733616L686.835909090909,252.6046361773408L688.4731818181818,253.2731241541622L690.1104545454546,250.78957356438144L691.7477272727273,249.38394856587115L693.385,239.0071722086374L695.0222727272727,228.5692398009362L696.6595454545455,240.1062231980361L698.2968181818183,238.20962477937923L699.9340909090909,240.49020441779842L701.5713636363636,225.65591934448094L703.2086363636363,233.273165607009L705.6645454545455,230.05727774593453L707.3018181818181,215.96520130332243L708.9390909090909,219.33702369508703L712.2136363636364,196.81167076097466L713.8509090909091,175.48826510230623L715.4881818181818,177.61096365046453L717.1254545454545,163.93689286465616L718.7627272727273,195.49364965292915L720.4000000000001,201.66318861206238L722.0372727272727,194.30678005433003L723.6745454545454,217.59928876290275L726.1304545454545,228.07245289641352L727.7677272727273,222.2920183429583L729.4050000000001,224.66223119315293L731.0422727272727,218.59238135467044L732.6795454545454,225.53979208737655L734.3168181818181,196.4685266463163L735.954090909091,135.77343598176256L737.5913636363637,136.557979035194L739.2286363636364,144.37420226086095L740.8659090909091,91.8391950473125L742.5031818181818,56.83367805629581L744.1404545454546,30.187959681449L745.7777272727272,60.53950112968545L747.415,68.34632004922548L749.0522727272727,62.14964901462747L750.6895454545454,68.71620521459312L754.7827272727272,92.44420331903297L756.42,115.18280825011732L758.0572727272727,137.29279633636952L759.6945454545454,143.6671247784834L761.3318181818182,175.6069579592073L762.9690909090909,203.50936544839885L764.6063636363637,214.668405137684L766.2436363636364,217.5104189933694L767.8809090909091,214.1182332695339L769.5181818181818,219.0472292626389L771.9740909090909,210.32603045728732L773.6113636363636,213.26619365946607L775.2486363636364,215.38708546123598L778.5231818181818,224.24638413883264L780.9790909090909,238.35935453353534L784.2536363636364,235.58607249604592L785.8909090909091,245.09139195648984L787.5281818181818,240.0698273203859L789.1654545454545,238.61523695600562L790.8027272727272,238.99081521399341L792.44,243.62729350309087L794.0772727272728,240.8709535859854L796.5331818181818,244.13289782660192L799.8077272727272,230.67344149385087L801.445,234.3204023196351L803.0822727272728,248.57425466978856L804.7195454545455,252.70156493547148L806.3568181818182,233.04770476557366L807.9940909090909,241.09750385127995L809.6313636363636,226.1037116279753L811.2686363636363,219.46356465283347L812.9059090909091,217.54652427830285L815.3618181818181,217.8947757720827L816.9990909090909,234.1894372057843L818.6363636363636,246.77510267686412L820.2736363636363,249.87127832765322L821.9109090909091,246.196141630381L823.5481818181818,243.86236057160474L825.1854545454546,244.70777325795996L826.8227272727273,247.6612714515144L828.46,241.06565490162458L830.0972727272728,230.3802059149509L831.7345454545454,235.78092282627614L833.3718181818182,234.16421126374362L835.0090909090909,242.80769758134338L836.6463636363636,253.76031838362965L838.2836363636363,249.36043397966355L839.920909090909,244.0431523393591L843.1954545454546,247.96968573039769L844.8327272727273,245.66301540437937L846.4699999999999,251.19600872220752L848.1072727272727,250.0051559139619L849.7445454545455,248.0766505723792L851.3818181818182,242.59719543490394L853.0190909090909,243.55916367550842L854.6563636363636,245.23718306648823L856.2936363636363,238.90809983031804L857.9309090909092,249.4225477982572L859.5681818181819,241.77715346151655L861.2054545454546,248.6550677879695L862.8427272727272,243.0275682654407L864.48,244.60081084528127L866.1172727272727,241.0701474711809L867.7545454545455,240.09271931919534L869.3918181818182,240.12697473211932L871.0290909090909,240.14975850489049L873.485,245.0250608176369" style="fill: none;" fill="none"></path></g></g></g></g><g opacity="0.2"><g><g><g><path stroke="rgb(51, 187, 238)" stroke-width="2px" d="M84.31954545454546,327.50818873643874L85.95681818181818,336.01846122443675L87.59409090909091,337.8458498239517L89.23136363636364,42.473531198501576L90.86863636363636,157.83261258602144L92.50590909090909,222.77572281360628L94.14318181818182,65.67387528419493L95.78045454545455,-391.1474264144898L122.79545454545453,-300.68958835601813L124.43272727272728,2.4598500251769906L126.07000000000001,-6.05929105281831L127.70727272727272,68.73052818775176L129.34454545454545,-14.587940025329601L130.98181818181817,139.40827317237856L132.61909090909091,208.68288273811342L134.25636363636363,95.83589072227477L135.89363636363638,190.0537067770958L137.5309090909091,238.65843529701235L139.1681818181818,235.86477030515672L140.80545454545455,297.7836744457483L142.44272727272727,261.39641295075415L144.08,287.69132323265075L145.71727272727273,282.51730502843856L147.35454545454544,304.9406293898821L148.9918181818182,320.5146352395415L150.6290909090909,328.3228851824999L152.26636363636365,312.6215718358755L153.90363636363637,321.1379965737462L155.54090909090908,325.296642896533L157.17818181818183,312.4946515828371L158.81545454545454,305.2742308795452L160.4527272727273,309.2747112929821L162.09,327.38938652426003L163.72727272727272,334.3013994757086L165.36454545454544,317.5672935515642L167.00181818181818,328.82815894559025L168.63909090909092,313.320838612318L170.27636363636364,329.59572639763354L171.91363636363636,326.5726355731487L173.55090909090907,322.21603860408067L175.18818181818182,328.0121423497796L176.82545454545453,301.77670287787913L178.46272727272728,336.57520991452037L180.10000000000002,326.32339693307875L181.7372727272727,335.182090735808L183.37454545454545,319.419548843801L185.01181818181817,330.63282759189605L186.64909090909092,335.3551426537335L188.28636363636363,320.7300949439406L189.92363636363635,325.9752477452159L191.5609090909091,328.95019570067524L193.1981818181818,331.97622535452246L194.83545454545455,335.9097389716655L196.47272727272727,333.85155193582176L198.11,335.3324005220085L199.74727272727273,329.5564767614007L201.38454545454545,327.9940052524209L203.84045454545452,332.10495227649807L205.47772727272726,334.90667968690394L207.115,332.3053284779191L208.75227272727273,328.76548668444156L210.38954545454547,300.4028543651104L212.0268181818182,329.91035645529627L213.6640909090909,325.9597509473562L215.30136363636365,329.6215675368905L216.93863636363636,311.95423930585383L218.5759090909091,336.93925828188657L220.21318181818182,333.2967165827751L221.85045454545454,324.544020947814L223.48772727272726,330.78606564626097L225.125,332.0867363221943L226.76227272727274,328.47645556256174L228.3995454545455,314.58124296069144L230.03681818181818,296.23592947125434L231.6740909090909,326.75478385090827L233.31136363636364,332.69157542735337L234.94863636363638,328.0993088454008L236.58590909090913,337.62447232827543L238.2231818181818,336.998927642405L239.86045454545453,338.1200111310929L241.49772727272727,314.5554398417473L243.13500000000002,328.9922764420509L244.7722727272727,331.0091146275401L246.40954545454545,334.4014052197337L248.04681818181817,324.4036837488413L249.6840909090909,328.3366133317351L251.32136363636366,337.97510586194693L252.95863636363634,329.1068478383124L254.5959090909091,329.8833669617772L256.23318181818183,331.83109266757964L257.87045454545455,332.39349617511033L259.5077272727273,333.1466602653265L261.145,336.7426200404763L262.7822727272727,330.09194639772176L264.41954545454547,337.21802321523427L266.0568181818182,323.12676731944083L267.69409090909096,338.77959050964563L269.3313636363636,335.71411214098333L270.96863636363634,322.9465637102723L272.6059090909091,329.1743233323097L274.2431818181818,335.54440495446323L275.88045454545454,335.72478634379803L277.51772727272726,338.86567448247223L279.155,319.6342439174652L280.79227272727275,320.18267003148793L282.42954545454546,337.55959224868565L284.0668181818182,323.31490872502326L285.7040909090909,329.3180710941553L287.3413636363636,328.9877161167562L288.9786363636364,335.68323999904095L290.6159090909091,337.22847140841185L292.2531818181818,332.36663482412695L293.89045454545453,329.87280787602066L295.5277272727273,333.89643280282615L297.165,336.62976835928856L298.80227272727274,335.3315996311605L300.43954545454545,326.9580728307366L302.07681818181817,333.09267282932996L303.71409090909094,338.74492205707355L305.35136363636366,335.26453884020447L306.9886363636363,337.8802189545706L308.6259090909091,333.6310777746141L310.2631818181818,337.20946899689733L311.9004545454546,336.6255213495344L313.5377272727273,334.3433425694704L315.17499999999995,333.04150171279906L316.8122727272727,334.28217211067675L318.44954545454544,331.85966563671826L320.0868181818182,337.20544588454067L321.72409090909093,306.83714173436164L324.18,326.7782635062933L325.8172727272727,336.9581040356308L327.45454545454544,336.22724801190196L329.0918181818182,327.55541278123854L330.72909090909087,333.1554943554103L332.36636363636364,337.16784731559454L334.00363636363636,334.97504443377255L335.6409090909091,336.4616594340652L337.27818181818185,329.95963289290665L338.9154545454545,338.3278514591977L340.5527272727273,337.19029302969574L342.19,337.208553693071L343.8272727272727,336.77705623470246L345.46454545454543,329.48992994874715L347.10181818181815,339.52850046129896L348.7390909090909,330.26956814602016L350.37636363636364,330.47876928448676L352.0136363636364,336.5661350291222L353.65090909090907,339.6273028448224L355.2881818181818,338.3316818296909L356.92545454545456,326.5913303017616L358.5627272727273,338.23459044825285L360.20000000000005,331.1623723961413L361.8372727272727,334.3249435544014L363.4745454545454,332.4236103750765L365.1118181818182,330.82705013528465L366.7490909090909,338.37632806207984L368.3863636363637,337.7568544808775L370.02363636363634,339.1581152871251L371.66090909090906,319.591907595098L373.29818181818183,338.15820147916673L374.93545454545455,338.937832987681L376.57272727272726,337.0634382560849L378.21,337.70342731643467L379.8472727272727,334.7363912824541L381.48454545454547,330.07486330792307L383.1218181818182,324.2613089427352L384.7590909090909,313.19007126688956L386.3963636363636,330.10387139841913L388.0336363636364,337.7043236101046L389.6709090909091,332.1194204136729L391.3081818181818,333.9801676131785L392.94545454545454,331.8794390156865L394.58272727272725,329.61894835978745L396.22,338.0851019712165L397.85727272727274,316.2349716693163L399.49454545454546,337.45950148701667L401.1318181818182,335.1823470208794L402.7690909090909,339.12094048624857L406.0436363636364,56.17382140159606L407.68090909090904,84.74655396938323L409.3181818181818,115.21888275146483L410.95545454545453,232.31006820201875L412.5927272727273,167.3197113990784L414.23,214.97212965488436L415.8672727272727,227.5320695757866L417.50454545454545,218.44783962965013L419.14181818181817,205.25848610401155L420.77909090909094,234.84913791418077L422.41636363636366,231.25195444822313L424.0536363636364,200.16496957540514L425.6909090909091,226.32428534030916L427.3281818181818,243.8332420706749L428.9654545454546,210.58568955659868L430.6027272727273,210.64075423479082L432.24,237.4661746144295L433.8772727272727,228.548896086216L435.51454545454544,213.92878468036653L437.1518181818182,255.84118337631224L438.7890909090909,262.2434322953224L440.42636363636365,267.71325979828833L442.06363636363636,186.76379503011705L443.7009090909091,279.2972211062908L445.33818181818185,255.4124550640583L447.79409090909087,274.7005033314228L449.43136363636364,255.71799193024634L451.0686363636363,277.8936576068401L452.7059090909091,290.3411644220352L454.3431818181818,299.51434781849383L455.9804545454545,291.36398406028746L457.6177272727273,298.0581698387861L460.89227272727277,144.1266221523285L463.3481818181818,172.82062543630602L464.98545454545456,201.85458101034166L466.6227272727273,218.53987694978716L468.26,239.2649803876877L469.89727272727276,262.86450959444045L471.5345454545455,256.36711977124213L473.17181818181825,233.10908056497576L474.80909090909086,224.83650262355806L476.4463636363636,228.27033956050875L478.90227272727276,213.77536286115648L480.5395454545455,246.1880794286728L482.17681818181813,227.3108082532883L483.81409090909085,243.48874987363817L486.27000000000004,278.19018788337706L487.90727272727275,148.36968905925752L489.5445454545454,150.93774433135988L491.18181818181813,184.1355155825615L492.8190909090909,161.08033586740495L494.4563636363636,170.90796149969103L496.09363636363634,240.0838421702385L497.7309090909091,223.64597679376604L499.3681818181818,185.70330430269243L501.0054545454546,221.8197175383568L502.6427272727273,257.4187616229057L504.28000000000003,229.45070410966875L505.9172727272727,235.86256231069567L507.5545454545454,264.05576766729354L509.1918181818182,269.91624121069907L510.8290909090909,206.5858963251114L512.4663636363637,286.2359338223934L514.1036363636364,258.6774874448776L515.7409090909091,254.9354325056076L518.1968181818181,252.4890647649765L519.834090909091,288.8021021604538L521.4713636363637,287.8747895479202L523.1086363636364,294.08785502314566L524.7459090909091,268.3832565665245L526.3831818181818,253.01215104460715L528.0204545454545,301.10210987627505L529.6577272727272,248.4666226923466L531.295,288.06725682020186L532.9322727272727,298.5122872710228L534.5695454545454,300.1010012447834L536.2068181818182,299.275016990304L537.8440909090909,290.6714567363262L539.4813636363637,308.6250342696905L541.1186363636364,296.8010014414787L543.5745454545455,294.26082773208617L545.2118181818182,305.6215112328529L546.8490909090909,257.78059671521186L548.4863636363636,306.20800412893294L550.1236363636364,279.1646287858486L551.7609090909091,237.77725399732591L553.3981818181818,306.542881411314L555.0354545454545,253.27072860002517L556.6727272727272,306.11080731153487L558.31,245.15631515979769L559.9472727272728,295.0844181150198L561.5845454545455,264.50320197343825L563.2218181818182,262.62270603775977L564.8590909090909,296.55486075282096L566.4963636363636,289.86214790940284L568.1336363636364,269.10905025601386L569.7709090909091,293.56459413170813L571.4081818181818,288.86842648386954L573.0454545454545,284.59393508434295L574.6827272727272,289.63555811047553L577.1386363636364,309.3050937473774L578.7759090909091,318.65303258299826L580.4131818181818,319.8169427856803L582.0504545454545,311.96253336668013L583.6877272727273,318.1440884515643L585.325,300.4660863697529L586.9622727272728,298.3378275454044L588.5995454545455,322.50492398142813L590.2368181818181,238.27186728715898L591.8740909090909,295.82189953029155L593.5113636363636,308.02179272174834L595.1486363636363,304.42388546168803L596.7859090909091,292.5987430036068L598.4231818181818,297.82744568288325L600.0604545454546,309.5064211606979L601.6977272727273,272.70759118795394L603.335,307.9703357487917L604.9722727272728,325.68962507396935L606.6095454545454,314.59433884620665L608.2468181818182,247.33204586505892L610.7027272727273,281.3355492174625L612.34,314.10171951055526L613.9772727272726,311.5909143805504L615.6145454545455,317.5681680187583L617.2518181818182,315.78278341591357L618.8890909090909,283.0625613749027L620.5263636363636,308.75573683977126L622.1636363636363,256.191330742836L623.8009090909092,222.22022069692613L625.4381818181819,302.0741569072008L627.0754545454546,301.153133136034L629.5313636363636,161.40471954345705L631.1686363636363,142.22594447135927L632.8059090909092,154.54497642517092L634.4431818181819,162.27444405555727L636.0804545454546,160.75501717329027L637.7177272727272,196.55225129127504L639.355,195.2520917773247L640.9922727272727,231.30263693332674L642.6295454545455,190.72279669046404L644.2668181818182,187.40163506269457L646.7227272727272,183.79984409809114L648.36,231.05556685924532L649.9972727272727,236.27932126522066L651.6345454545454,194.87339819669725L653.2718181818182,230.82111389636995L654.9090909090909,218.33754129409792L656.5463636363637,212.13187147378923L658.1836363636364,193.69134385585787L659.8209090909091,264.71276993751525L661.4581818181817,232.7520163178444L663.0954545454546,215.14926488399507L664.7327272727273,246.07303277850153L666.37,230.635473382473L668.0072727272727,240.3299884915352L669.6445454545454,223.99014229774477L671.2818181818182,244.50092382431032L672.919090909091,240.6111472964287L674.5563636363637,227.69577659368517L677.0122727272727,219.16836680173876L678.6495454545454,280.345455211401L680.2868181818183,281.63110504746436L681.924090909091,250.69731105566024L683.5613636363636,262.6282034933567L685.1986363636363,251.42807836532592L686.835909090909,247.0640505373478L688.4731818181818,254.2758561193943L690.1104545454546,247.0642476797104L691.7477272727273,247.27551106810571L693.385,223.44200767278673L695.0222727272727,212.91234118938448L696.6595454545455,257.4116982936859L698.2968181818183,235.3647271513939L699.9340909090909,243.91107387542726L701.5713636363636,203.40449173450472L703.2086363636363,244.6990350008011L705.6645454545455,225.23344595432283L707.3018181818181,194.8270866394043L708.9390909090909,224.39475728273393L712.2136363636364,163.02364135980608L713.8509090909091,143.5031566143036L715.4881818181818,180.79501147270204L717.1254545454545,143.42578668594362L718.7627272727273,242.8287848353386L720.4000000000001,210.9174970507622L722.0372727272727,183.2721672177315L723.6745454545454,252.53805182576178L726.1304545454545,243.7821990966797L727.7677272727273,213.62136651277544L729.4050000000001,228.21755046844484L731.0422727272727,209.48760659694673L732.6795454545454,235.96090818643572L734.3168181818181,152.86162848472597L735.954090909091,44.730799984931934L737.5913636363637,137.7347936153412L739.2286363636364,156.09853709936144L740.8659090909091,13.036684226989735L742.5031818181818,4.325402569770802L744.1404545454546,-9.78061788082124L745.7777272727272,106.06681330204009L747.415,80.05654842853545L749.0522727272727,52.854642462730396L750.6895454545454,78.56603951454161L754.7827272727272,128.03620047569277L756.42,149.2907156467438L758.0572727272727,170.45777846574785L759.6945454545454,153.22861744165422L761.3318181818182,223.5167077302933L762.9690909090909,245.36297668218614L764.6063636363637,231.4069646716118L766.2436363636364,221.77343977689745L767.8809090909091,209.0299546837807L769.5181818181818,226.44072325229646L771.9740909090909,197.24423224925997L773.6113636363636,217.67643846273424L775.2486363636364,218.56842316389086L778.5231818181818,237.53533215522768L780.9790909090909,259.52881012558936L784.2536363636364,231.42614943981172L785.8909090909091,259.34937114715575L787.5281818181818,232.53748036623003L789.1654545454545,236.4333514094353L790.8027272727272,239.55418260097505L792.44,250.58201093673705L794.0772727272728,236.73644371032717L796.5331818181818,249.02581418752672L799.8077272727272,210.4842569947243L801.445,239.79084355831148L803.0822727272728,269.95503319501876L804.7195454545455,258.8925303339958L806.3568181818182,203.56691451072695L807.9940909090909,253.1722024798393L809.6313636363636,203.61302329301836L811.2686363636363,209.5033441901207L812.9059090909091,214.67096371650698L815.3618181818181,218.41715301275255L816.9990909090909,258.6314293563366L818.6363636363636,265.6536008834839L820.2736363636363,254.5155418038368L821.9109090909091,240.68343658447267L823.5481818181818,240.36168898344042L825.1854545454546,245.97589228749277L826.8227272727273,252.09151874184607L828.46,231.17223007678987L830.0972727272728,214.35203243494036L831.7345454545454,243.88199819326402L833.3718181818182,231.73914391994478L835.0090909090909,255.77292705774306L836.6463636363636,270.189249587059L838.2836363636363,242.76060737371446L839.920909090909,236.06722987890245L843.1954545454546,253.85948581695556L844.8327272727273,242.20300991535188L846.4699999999999,259.4954986989498L848.1072727272727,248.21887670159342L849.7445454545455,245.1838925600052L851.3818181818182,234.37801272869112L853.0190909090909,245.00211603641512L854.6563636363636,247.75421215295793L856.2936363636363,229.4144749760628L857.9309090909092,265.1942197501659L859.5681818181819,230.30906195640566L861.2054545454546,258.9719392776489L862.8427272727272,234.5863189816475L864.48,246.96067471504213L866.1172727272727,235.77415241003038L867.7545454545455,238.62657709121706L869.3918181818182,240.1783578515053L871.0290909090909,240.18393416404726L873.485,252.3380142867565" style="fill: none;" fill="none"></path></g></g></g></g></g></g><g transform="translate(50, 378)" clip-path="url(#clip_1)"><clipPath id="clip_1"><rect width="900" height="22"></rect></clipPath><g><g><line x1="0" y1="0" x2="0" y2="5" style="visibility: inherit;" fill="rgb(0, 0, 0)" stroke="rgb(204, 204, 204)" stroke-width="1px"></line><line x1="81.86363636363636" y1="0" x2="81.86363636363636" y2="5" style="visibility: inherit;" fill="rgb(0, 0, 0)" stroke="rgb(204, 204, 204)" stroke-width="1px"></line><line x1="163.72727272727272" y1="0" x2="163.72727272727272" y2="5" style="visibility: inherit;" fill="rgb(0, 0, 0)" stroke="rgb(204, 204, 204)" stroke-width="1px"></line><line x1="245.59090909090907" y1="0" x2="245.59090909090907" y2="5" style="visibility: inherit;" fill="rgb(0, 0, 0)" stroke="rgb(204, 204, 204)" stroke-width="1px"></line><line x1="327.45454545454544" y1="0" x2="327.45454545454544" y2="5" style="visibility: inherit;" fill="rgb(0, 0, 0)" stroke="rgb(204, 204, 204)" stroke-width="1px"></line><line x1="409.3181818181818" y1="0" x2="409.3181818181818" y2="5" style="visibility: inherit;" fill="rgb(0, 0, 0)" stroke="rgb(204, 204, 204)" stroke-width="1px"></line><line x1="491.18181818181813" y1="0" x2="491.18181818181813" y2="5" style="visibility: inherit;" fill="rgb(0, 0, 0)" stroke="rgb(204, 204, 204)" stroke-width="1px"></line><line x1="573.0454545454545" y1="0" x2="573.0454545454545" y2="5" style="visibility: inherit;" fill="rgb(0, 0, 0)" stroke="rgb(204, 204, 204)" stroke-width="1px"></line><line x1="654.9090909090909" y1="0" x2="654.9090909090909" y2="5" style="visibility: inherit;" fill="rgb(0, 0, 0)" stroke="rgb(204, 204, 204)" stroke-width="1px"></line><line x1="736.7727272727274" y1="0" x2="736.7727272727274" y2="5" style="visibility: inherit;" fill="rgb(0, 0, 0)" stroke="rgb(204, 204, 204)" stroke-width="1px"></line><line x1="818.6363636363636" y1="0" x2="818.6363636363636" y2="5" style="visibility: inherit;" fill="rgb(0, 0, 0)" stroke="rgb(204, 204, 204)" stroke-width="1px"></line><line x1="900.5" y1="0" x2="900.5" y2="5" style="visibility: inherit;" fill="rgb(0, 0, 0)" stroke="rgb(204, 204, 204)" stroke-width="1px"></line></g><g transform="translate(0, 8)"><text x="0" y="0" dx="0em" dy="0.95em" style="text-anchor: middle; visibility: hidden; font-family: &quot;Helvetica Neue&quot;, sans-serif; font-size: 12px; font-weight: 200;" fill="rgb(50, 49, 63)" stroke="none" stroke-width="1px">-50k</text><text x="81.86363636363636" y="0" dx="0em" dy="0.95em" style="text-anchor: middle; visibility: inherit; font-family: &quot;Helvetica Neue&quot;, sans-serif; font-size: 12px; font-weight: 200;" fill="rgb(50, 49, 63)" stroke="none" stroke-width="1px">0</text><text x="163.72727272727272" y="0" dx="0em" dy="0.95em" style="text-anchor: middle; visibility: inherit; font-family: &quot;Helvetica Neue&quot;, sans-serif; font-size: 12px; font-weight: 200;" fill="rgb(50, 49, 63)" stroke="none" stroke-width="1px">50k</text><text x="245.59090909090907" y="0" dx="0em" dy="0.95em" style="text-anchor: middle; visibility: inherit; font-family: &quot;Helvetica Neue&quot;, sans-serif; font-size: 12px; font-weight: 200;" fill="rgb(50, 49, 63)" stroke="none" stroke-width="1px">100k</text><text x="327.45454545454544" y="0" dx="0em" dy="0.95em" style="text-anchor: middle; visibility: inherit; font-family: &quot;Helvetica Neue&quot;, sans-serif; font-size: 12px; font-weight: 200;" fill="rgb(50, 49, 63)" stroke="none" stroke-width="1px">150k</text><text x="409.3181818181818" y="0" dx="0em" dy="0.95em" style="text-anchor: middle; visibility: inherit; font-family: &quot;Helvetica Neue&quot;, sans-serif; font-size: 12px; font-weight: 200;" fill="rgb(50, 49, 63)" stroke="none" stroke-width="1px">200k</text><text x="491.18181818181813" y="0" dx="0em" dy="0.95em" style="text-anchor: middle; visibility: inherit; font-family: &quot;Helvetica Neue&quot;, sans-serif; font-size: 12px; font-weight: 200;" fill="rgb(50, 49, 63)" stroke="none" stroke-width="1px">250k</text><text x="573.0454545454545" y="0" dx="0em" dy="0.95em" style="text-anchor: middle; visibility: inherit; font-family: &quot;Helvetica Neue&quot;, sans-serif; font-size: 12px; font-weight: 200;" fill="rgb(50, 49, 63)" stroke="none" stroke-width="1px">300k</text><text x="654.9090909090909" y="0" dx="0em" dy="0.95em" style="text-anchor: middle; visibility: inherit; font-family: &quot;Helvetica Neue&quot;, sans-serif; font-size: 12px; font-weight: 200;" fill="rgb(50, 49, 63)" stroke="none" stroke-width="1px">350k</text><text x="736.7727272727274" y="0" dx="0em" dy="0.95em" style="text-anchor: middle; visibility: inherit; font-family: &quot;Helvetica Neue&quot;, sans-serif; font-size: 12px; font-weight: 200;" fill="rgb(50, 49, 63)" stroke="none" stroke-width="1px">400k</text><text x="818.6363636363636" y="0" dx="0em" dy="0.95em" style="text-anchor: middle; visibility: inherit; font-family: &quot;Helvetica Neue&quot;, sans-serif; font-size: 12px; font-weight: 200;" fill="rgb(50, 49, 63)" stroke="none" stroke-width="1px">450k</text><text x="900.5" y="0" dx="0em" dy="0.95em" style="text-anchor: middle; visibility: hidden; font-family: &quot;Helvetica Neue&quot;, sans-serif; font-size: 12px; font-weight: 200;" fill="rgb(50, 49, 63)" stroke="none" stroke-width="1px">500k</text></g><line x1="0" y1="0" x2="900.5" y2="0" fill="rgb(0, 0, 0)" stroke="rgb(204, 204, 204)" stroke-width="1px"></line></g></g></g></g></svg>